<svg width="1482" height="1810" viewBox="0 0 1482 1810" fill="none" xmlns="http://www.w3.org/2000/svg">
<rect width="1482" height="80" rx="20" fill="#262626"/>
<rect x="1396" y="15" width="60" height="50" rx="9" fill="#5B5B5B"/>
<rect x="31" y="15" width="1334" height="50" rx="9" fill="#5B5B5B"/>
<rect y="130" width="1482" height="1680" rx="20" fill="#262626"/>
<rect x="321" y="214" width="1044" height="94" rx="9" fill="#5B5B5B"/>
<rect x="321" y="999" width="1044" height="94" rx="9" fill="#5B5B5B"/>
<rect x="321" y="393" width="1044" height="94" rx="9" fill="#5B5B5B"/>
<rect x="321" y="1178" width="1044" height="94" rx="9" fill="#5B5B5B"/>
<rect x="321" y="595" width="1044" height="94" rx="9" fill="#5B5B5B"/>
<rect x="321" y="1380" width="1044" height="94" rx="9" fill="#5B5B5B"/>
<rect x="321" y="797" width="1044" height="94" rx="9" fill="#5B5B5B"/>
<rect x="321" y="1582" width="1044" height="94" rx="9" fill="#5B5B5B"/>
<circle cx="161" cy="261" r="70" fill="#5B5B5B"/>
<circle cx="161" cy="1046" r="70" fill="#5B5B5B"/>
<circle cx="161" cy="440" r="70" fill="#5B5B5B"/>
<circle cx="161" cy="1225" r="70" fill="#5B5B5B"/>
<circle cx="161" cy="642" r="70" fill="#5B5B5B"/>
<circle cx="161" cy="1427" r="70" fill="#5B5B5B"/>
<circle cx="161" cy="844" r="70" fill="#5B5B5B"/>
<circle cx="161" cy="1629" r="70" fill="#5B5B5B"/>
<rect x="1441" y="160" width="20" height="1610" rx="10" fill="#5B5B5B"/>
<rect x="1441" y="160" width="20" height="133" rx="10" fill="#989898"/>
</svg>
