<svg width="40" height="40" viewBox="0 0 40 40" fill="none" xmlns="http://www.w3.org/2000/svg">
<path d="M24.1667 20.8333L27.5 17.5M19.1667 15.8333L22.5 12.5M14.1667 10.8333L17.5 7.50001M29.1667 25.8333L32.5 22.5M35.5 25.5C35.8729 25.8716 36.1688 26.3132 36.3707 26.7994C36.5726 27.2856 36.6765 27.8069 36.6765 28.3333C36.6765 28.8598 36.5726 29.3811 36.3707 29.8673C36.1688 30.3535 35.8729 30.7951 35.5 31.1667L31.1667 35.5C30.7951 35.8729 30.3535 36.1688 29.8673 36.3707C29.3811 36.5726 28.8598 36.6765 28.3333 36.6765C27.8069 36.6765 27.2856 36.5726 26.7994 36.3707C26.3132 36.1688 25.8716 35.8729 25.5 35.5L4.50001 14.5C3.75093 13.7473 3.33041 12.7286 3.33041 11.6667C3.33041 10.6048 3.75093 9.58604 4.50001 8.83334L8.83334 4.50001C9.58604 3.75093 10.6048 3.33041 11.6667 3.33041C12.7286 3.33041 13.7473 3.75093 14.5 4.50001L35.5 25.5Z" stroke="#E0E0E0" stroke-width="3" stroke-linecap="round" stroke-linejoin="round"/>
</svg>
