<svg width="27" height="27" viewBox="0 0 27 27" fill="none" xmlns="http://www.w3.org/2000/svg">
<path d="M17.7143 19.5714V23.2857C17.7143 23.7783 17.5186 24.2506 17.1703 24.5989C16.8221 24.9472 16.3497 25.1429 15.8571 25.1429H2.85714C2.3646 25.1429 1.89223 24.9472 1.54394 24.5989C1.19566 24.2506 1 23.7783 1 23.2857V2.85714C1 2.3646 1.19566 1.89223 1.54394 1.54394C1.89223 1.19566 2.3646 1 2.85714 1H15.8571C16.3497 1 16.8221 1.19566 17.1703 1.54394C17.5186 1.89223 17.7143 2.3646 17.7143 2.85714V6.57143M25.1429 13.0714H10.2857" stroke="black" stroke-width="2" stroke-linecap="round" stroke-linejoin="round"/>
<path d="M14.0004 9.35714L10.2861 13.0714L14.0004 16.7857" stroke="black" stroke-width="2" stroke-linecap="round" stroke-linejoin="round"/>
</svg>
