<svg width="68" height="67" viewBox="0 0 68 67" fill="none" xmlns="http://www.w3.org/2000/svg">
<path d="M42.5 11.1666C48.5116 11.1666 54.2769 13.5196 58.5277 17.7079C62.7786 21.8962 65.1667 27.5768 65.1667 33.5C65.1667 39.4231 62.7786 45.1037 58.5277 49.292C54.2769 53.4803 48.5116 55.8333 42.5 55.8333C36.4884 55.8333 30.7231 53.4803 26.4722 49.292C22.2214 45.1037 19.8333 39.4231 19.8333 33.5C19.8333 27.5768 22.2214 21.8962 26.4722 17.7079C30.7231 13.5196 36.4884 11.1666 42.5 11.1666ZM42.5 16.75C37.9913 16.75 33.6673 18.5147 30.4792 21.6559C27.2911 24.7972 25.5 29.0576 25.5 33.5C25.5 37.9423 27.2911 42.2028 30.4792 45.344C33.6673 48.4852 37.9913 50.25 42.5 50.25C47.0087 50.25 51.3327 48.4852 54.5208 45.344C57.7089 42.2028 59.5 37.9423 59.5 33.5C59.5 29.0576 57.7089 24.7972 54.5208 21.6559C51.3327 18.5147 47.0087 16.75 42.5 16.75ZM39.6667 22.3333H43.9167V32.8858L50.5183 39.3904L47.515 42.3495L39.6667 34.6166V22.3333ZM5.66666 50.25C4.91521 50.25 4.19455 49.9558 3.66319 49.4323C3.13184 48.9088 2.83333 48.1987 2.83333 47.4583C2.83333 46.7179 3.13184 46.0078 3.66319 45.4843C4.19455 44.9607 4.91521 44.6666 5.66666 44.6666H16.5183C17.3967 46.6487 18.53 48.5191 19.8333 50.25H5.66666ZM8.49999 36.2916C7.74855 36.2916 7.02788 35.9975 6.49653 35.474C5.96517 34.9504 5.66666 34.2404 5.66666 33.5C5.66666 32.7596 5.96517 32.0495 6.49653 31.526C7.02788 31.0024 7.74855 30.7083 8.49999 30.7083H14.3083L14.1667 33.5L14.3083 36.2916H8.49999ZM11.3333 22.3333C10.5819 22.3333 9.86121 22.0392 9.32986 21.5156C8.79851 20.9921 8.49999 20.282 8.49999 19.5416C8.49999 18.8012 8.79851 18.0912 9.32986 17.5676C9.86121 17.0441 10.5819 16.75 11.3333 16.75H19.8333C18.53 18.4808 17.3967 20.3512 16.5183 22.3333H11.3333Z" fill="#466EE5"/>
</svg>
