<svg width="20" height="20" viewBox="0 0 20 20" fill="none" xmlns="http://www.w3.org/2000/svg">
<g clip-path="url(#clip0_105_34)">
<path d="M19.9998 11.965L17.4665 9.49417L19.6398 6.70417L16.2115 5.82833L16.6982 2.325L13.2915 3.27667L11.9582 0L9.48733 2.53333L6.69733 0.36L5.8215 3.78833L2.31816 3.30167L3.26983 6.7075L-0.00683594 8.0375L2.5265 10.5092L0.353164 13.2992L3.7815 14.175L3.28983 17.6783L6.69566 16.7267L8.029 20.0033L10.4998 17.47L13.2898 19.6433L14.1657 16.215L17.6698 16.7067L16.7182 13.3008L19.9998 11.965ZM11.9007 15.55C10.8042 15.9229 9.62191 15.963 8.50272 15.6652C7.38354 15.3673 6.37755 14.7449 5.61151 13.8763C4.84547 13.0077 4.35365 11.9318 4.19803 10.7841C4.04242 9.63649 4.22996 8.46847 4.73702 7.42723C5.24409 6.386 6.048 5.51814 7.04745 4.933C8.0469 4.34787 9.19718 4.07164 10.3534 4.13913C11.5095 4.20662 12.6199 4.6148 13.5444 5.31224C14.469 6.00968 15.1665 6.96517 15.549 8.05833L15.5615 8.09917C15.7615 8.665 15.8765 9.31667 15.8765 9.99583C15.8768 11.2136 15.4981 12.4012 14.793 13.3941C14.0879 14.3869 13.0913 15.1357 11.9415 15.5367L11.9007 15.55Z" fill="white"/>
</g>
<defs>
<clipPath id="clip0_105_34">
<rect width="20" height="20" fill="white"/>
</clipPath>
</defs>
</svg>
