<svg width="204" height="43" viewBox="0 0 204 43" fill="none" xmlns="http://www.w3.org/2000/svg">
<g filter="url(#filter0_d_207_373)">
<rect width="196" height="35" rx="15" fill="#466EE5"/>
</g>
<path d="M11.2326 24V13.2H15.5001C15.6051 13.2 15.7301 13.205 15.8751 13.215C16.0201 13.22 16.1601 13.235 16.2951 13.26C16.8801 13.35 17.3701 13.55 17.7651 13.86C18.1651 14.17 18.4651 14.5625 18.6651 15.0375C18.8651 15.5075 18.9651 16.03 18.9651 16.605C18.9651 17.175 18.8626 17.6975 18.6576 18.1725C18.4576 18.6425 18.1576 19.035 17.7576 19.35C17.3626 19.66 16.8751 19.86 16.2951 19.95C16.1601 19.97 16.0201 19.985 15.8751 19.995C15.7301 20.005 15.6051 20.01 15.5001 20.01H12.5676V24H11.2326ZM12.5676 18.7425H15.4551C15.5501 18.7425 15.6576 18.7375 15.7776 18.7275C15.9026 18.7175 16.0201 18.7 16.1301 18.675C16.4751 18.595 16.7551 18.45 16.9701 18.24C17.1901 18.025 17.3501 17.775 17.4501 17.49C17.5501 17.2 17.6001 16.905 17.6001 16.605C17.6001 16.305 17.5501 16.0125 17.4501 15.7275C17.3501 15.4375 17.1901 15.185 16.9701 14.97C16.7551 14.755 16.4751 14.61 16.1301 14.535C16.0201 14.505 15.9026 14.4875 15.7776 14.4825C15.6576 14.4725 15.5501 14.4675 15.4551 14.4675H12.5676V18.7425ZM22.7636 24.225C22.1586 24.225 21.6511 24.115 21.2411 23.895C20.8361 23.67 20.5286 23.375 20.3186 23.01C20.1136 22.645 20.0111 22.245 20.0111 21.81C20.0111 21.385 20.0911 21.0175 20.2511 20.7075C20.4161 20.3925 20.6461 20.1325 20.9411 19.9275C21.2361 19.7175 21.5886 19.5525 21.9986 19.4325C22.3836 19.3275 22.8136 19.2375 23.2886 19.1625C23.7686 19.0825 24.2536 19.01 24.7436 18.945C25.2336 18.88 25.6911 18.8175 26.1161 18.7575L25.6361 19.035C25.6511 18.315 25.5061 17.7825 25.2011 17.4375C24.9011 17.0925 24.3811 16.92 23.6411 16.92C23.1511 16.92 22.7211 17.0325 22.3511 17.2575C21.9861 17.4775 21.7286 17.8375 21.5786 18.3375L20.3111 17.955C20.5061 17.245 20.8836 16.6875 21.4436 16.2825C22.0036 15.8775 22.7411 15.675 23.6561 15.675C24.3911 15.675 25.0211 15.8075 25.5461 16.0725C26.0761 16.3325 26.4561 16.7275 26.6861 17.2575C26.8011 17.5075 26.8736 17.78 26.9036 18.075C26.9336 18.365 26.9486 18.67 26.9486 18.99V24H25.7636V22.0575L26.0411 22.2375C25.7361 22.8925 25.3086 23.3875 24.7586 23.7225C24.2136 24.0575 23.5486 24.225 22.7636 24.225ZM22.9661 23.1075C23.4461 23.1075 23.8611 23.0225 24.2111 22.8525C24.5661 22.6775 24.8511 22.45 25.0661 22.17C25.2811 21.885 25.4211 21.575 25.4861 21.24C25.5611 20.99 25.6011 20.7125 25.6061 20.4075C25.6161 20.0975 25.6211 19.86 25.6211 19.695L26.0861 19.8975C25.6511 19.9575 25.2236 20.015 24.8036 20.07C24.3836 20.125 23.9861 20.185 23.6111 20.25C23.2361 20.31 22.8986 20.3825 22.5986 20.4675C22.3786 20.5375 22.1711 20.6275 21.9761 20.7375C21.7861 20.8475 21.6311 20.99 21.5111 21.165C21.3961 21.335 21.3386 21.5475 21.3386 21.8025C21.3386 22.0225 21.3936 22.2325 21.5036 22.4325C21.6186 22.6325 21.7936 22.795 22.0286 22.92C22.2686 23.045 22.5811 23.1075 22.9661 23.1075ZM31.8011 24.225C31.0011 24.225 30.2936 24.0525 29.6786 23.7075C29.0636 23.3575 28.5786 22.8775 28.2236 22.2675L29.2886 21.5775C29.5836 22.0225 29.9361 22.365 30.3461 22.605C30.7561 22.84 31.2236 22.9575 31.7486 22.9575C32.2986 22.9575 32.7361 22.8325 33.0611 22.5825C33.3861 22.3275 33.5486 21.985 33.5486 21.555C33.5486 21.235 33.4686 20.99 33.3086 20.82C33.1486 20.65 32.9186 20.5325 32.6186 20.4675C32.3186 20.4025 31.9611 20.37 31.5461 20.37H30.7061V19.2675H31.5386C32.0636 19.2675 32.4911 19.1825 32.8211 19.0125C33.1511 18.8425 33.3161 18.5525 33.3161 18.1425C33.3161 17.7225 33.1611 17.4175 32.8511 17.2275C32.5461 17.0325 32.1811 16.935 31.7561 16.935C31.3061 16.935 30.8761 17.03 30.4661 17.22C30.0561 17.405 29.7036 17.64 29.4086 17.925L28.5986 17.0175C29.0186 16.5875 29.5011 16.2575 30.0461 16.0275C30.5961 15.7925 31.1936 15.675 31.8386 15.675C32.3586 15.675 32.8336 15.7675 33.2636 15.9525C33.6986 16.1325 34.0436 16.4 34.2986 16.755C34.5586 17.105 34.6886 17.5325 34.6886 18.0375C34.6886 18.4675 34.5886 18.85 34.3886 19.185C34.1886 19.52 33.8936 19.8125 33.5036 20.0625L33.4511 19.59C33.7811 19.67 34.0536 19.8175 34.2686 20.0325C34.4886 20.2425 34.6511 20.4925 34.7561 20.7825C34.8611 21.0725 34.9136 21.375 34.9136 21.69C34.9136 22.22 34.7736 22.675 34.4936 23.055C34.2186 23.43 33.8461 23.72 33.3761 23.925C32.9061 24.125 32.3811 24.225 31.8011 24.225ZM36.5523 24V15.9H37.6998L40.7748 22.185L43.8498 15.9H44.9973V24H43.7073V18.6825L41.1273 24H40.4223L37.8423 18.6825V24H36.5523ZM50.602 24.225C49.807 24.225 49.112 24.05 48.517 23.7C47.927 23.345 47.467 22.8525 47.137 22.2225C46.807 21.5875 46.642 20.8475 46.642 20.0025C46.642 19.1175 46.8045 18.3525 47.1295 17.7075C47.4545 17.0575 47.907 16.5575 48.487 16.2075C49.072 15.8525 49.757 15.675 50.542 15.675C51.357 15.675 52.0495 15.8625 52.6195 16.2375C53.1945 16.6125 53.6245 17.1475 53.9095 17.8425C54.1995 18.5375 54.3245 19.365 54.2845 20.325H52.9345V19.845C52.9195 18.85 52.717 18.1075 52.327 17.6175C51.937 17.1225 51.357 16.875 50.587 16.875C49.762 16.875 49.1345 17.14 48.7045 17.67C48.2745 18.2 48.0595 18.96 48.0595 19.95C48.0595 20.905 48.2745 21.645 48.7045 22.17C49.1345 22.695 49.747 22.9575 50.542 22.9575C51.077 22.9575 51.542 22.835 51.937 22.59C52.332 22.345 52.642 21.9925 52.867 21.5325L54.1495 21.975C53.8345 22.69 53.3595 23.245 52.7245 23.64C52.0945 24.03 51.387 24.225 50.602 24.225ZM47.6095 20.325V19.2525H53.5945V20.325H47.6095ZM59.3668 24.225C58.5468 24.225 57.8493 24.0425 57.2743 23.6775C56.7043 23.3075 56.2693 22.8 55.9693 22.155C55.6693 21.51 55.5143 20.775 55.5043 19.95C55.5143 19.105 55.6718 18.3625 55.9768 17.7225C56.2868 17.0775 56.7293 16.575 57.3043 16.215C57.8793 15.855 58.5718 15.675 59.3818 15.675C60.2368 15.675 60.9718 15.885 61.5868 16.305C62.2068 16.725 62.6218 17.3 62.8318 18.03L61.5118 18.4275C61.3418 17.9575 61.0643 17.5925 60.6793 17.3325C60.2993 17.0725 59.8618 16.9425 59.3668 16.9425C58.8118 16.9425 58.3543 17.0725 57.9943 17.3325C57.6343 17.5875 57.3668 17.9425 57.1918 18.3975C57.0168 18.8475 56.9268 19.365 56.9218 19.95C56.9318 20.85 57.1393 21.5775 57.5443 22.1325C57.9543 22.6825 58.5618 22.9575 59.3668 22.9575C59.8968 22.9575 60.3368 22.8375 60.6868 22.5975C61.0368 22.3525 61.3018 22 61.4818 21.54L62.8318 21.8925C62.5518 22.6475 62.1143 23.225 61.5193 23.625C60.9243 24.025 60.2068 24.225 59.3668 24.225ZM66.361 24V17.115H63.541V15.9H70.516V17.115H67.696V24H66.361ZM78.5657 15.9V24H77.2757V18.03L73.0307 24H71.9282V15.9H73.2182V21.7875L77.4707 15.9H78.5657ZM82.8112 24V17.115H79.9912V15.9H86.9662V17.115H84.1462V24H82.8112ZM88.3859 24L88.3784 15.9H89.7209V18.8325H91.4684C91.7034 18.8325 91.9434 18.8375 92.1884 18.8475C92.4334 18.8575 92.6459 18.88 92.8259 18.915C93.2459 18.995 93.6134 19.135 93.9284 19.335C94.2434 19.535 94.4884 19.8075 94.6634 20.1525C94.8384 20.4925 94.9259 20.915 94.9259 21.42C94.9259 22.12 94.7434 22.675 94.3784 23.085C94.0184 23.49 93.5459 23.76 92.9609 23.895C92.7609 23.94 92.5309 23.97 92.2709 23.985C92.0159 23.995 91.7734 24 91.5434 24H88.3859ZM89.7209 22.8975H91.5659C91.7159 22.8975 91.8834 22.8925 92.0684 22.8825C92.2534 22.8725 92.4184 22.8475 92.5634 22.8075C92.8184 22.7325 93.0459 22.585 93.2459 22.365C93.4509 22.145 93.5534 21.83 93.5534 21.42C93.5534 21.005 93.4534 20.685 93.2534 20.46C93.0584 20.235 92.8009 20.0875 92.4809 20.0175C92.3359 19.9825 92.1834 19.96 92.0234 19.95C91.8634 19.94 91.7109 19.935 91.5659 19.935H89.7209V22.8975ZM103.027 24.225C102.222 24.225 101.527 24.0425 100.942 23.6775C100.362 23.3125 99.9148 22.8075 99.5998 22.1625C99.2848 21.5175 99.1273 20.7775 99.1273 19.9425C99.1273 19.0925 99.2873 18.3475 99.6073 17.7075C99.9273 17.0675 100.38 16.57 100.965 16.215C101.55 15.855 102.237 15.675 103.027 15.675C103.837 15.675 104.535 15.8575 105.12 16.2225C105.705 16.5825 106.152 17.085 106.462 17.73C106.777 18.37 106.935 19.1075 106.935 19.9425C106.935 20.7875 106.777 21.5325 106.462 22.1775C106.147 22.8175 105.697 23.32 105.112 23.685C104.527 24.045 103.832 24.225 103.027 24.225ZM103.027 22.9575C103.867 22.9575 104.492 22.6775 104.902 22.1175C105.312 21.5575 105.517 20.8325 105.517 19.9425C105.517 19.0275 105.31 18.3 104.895 17.76C104.48 17.215 103.857 16.9425 103.027 16.9425C102.462 16.9425 101.997 17.07 101.632 17.325C101.267 17.58 100.995 17.9325 100.815 18.3825C100.635 18.8325 100.545 19.3525 100.545 19.9425C100.545 20.8525 100.755 21.5825 101.175 22.1325C101.595 22.6825 102.212 22.9575 103.027 22.9575ZM111.879 24.2325C111.114 24.2275 110.461 24.0625 109.921 23.7375C109.381 23.4075 108.961 22.925 108.661 22.29C108.361 21.655 108.194 20.8775 108.159 19.9575C108.139 19.5325 108.144 19.065 108.174 18.555C108.209 18.045 108.264 17.555 108.339 17.085C108.419 16.615 108.519 16.2275 108.639 15.9225C108.774 15.5575 108.964 15.22 109.209 14.91C109.459 14.595 109.739 14.335 110.049 14.13C110.364 13.915 110.716 13.7475 111.106 13.6275C111.496 13.5075 111.904 13.415 112.329 13.35C112.759 13.28 113.189 13.22 113.619 13.17C114.049 13.115 114.459 13.05 114.849 12.975L114.984 14.175C114.709 14.235 114.384 14.2875 114.009 14.3325C113.634 14.3725 113.244 14.42 112.839 14.475C112.439 14.53 112.054 14.6075 111.684 14.7075C111.319 14.8025 111.004 14.935 110.739 15.105C110.349 15.34 110.049 15.6925 109.839 16.1625C109.634 16.6275 109.509 17.15 109.464 17.73C109.774 17.25 110.176 16.8975 110.671 16.6725C111.166 16.4475 111.694 16.335 112.254 16.335C112.979 16.335 113.604 16.505 114.129 16.845C114.654 17.18 115.056 17.6425 115.336 18.2325C115.621 18.8225 115.764 19.495 115.764 20.25C115.764 21.05 115.604 21.75 115.284 22.35C114.964 22.95 114.511 23.415 113.926 23.745C113.346 24.075 112.664 24.2375 111.879 24.2325ZM111.961 22.965C112.746 22.965 113.341 22.7225 113.746 22.2375C114.151 21.7475 114.354 21.0975 114.354 20.2875C114.354 19.4575 114.144 18.805 113.724 18.33C113.304 17.85 112.714 17.61 111.954 17.61C111.184 17.61 110.594 17.85 110.184 18.33C109.779 18.805 109.576 19.4575 109.576 20.2875C109.576 21.1225 109.781 21.7775 110.191 22.2525C110.601 22.7275 111.191 22.965 111.961 22.965ZM117.802 24L117.794 17.0025H116.669V15.9H119.137V18.8325H120.884C121.119 18.8325 121.359 18.8375 121.604 18.8475C121.849 18.8575 122.062 18.88 122.242 18.915C122.662 18.995 123.029 19.135 123.344 19.335C123.659 19.535 123.904 19.8075 124.079 20.1525C124.254 20.4925 124.342 20.915 124.342 21.42C124.342 22.12 124.159 22.675 123.794 23.085C123.434 23.49 122.962 23.76 122.377 23.895C122.177 23.94 121.947 23.97 121.687 23.985C121.432 23.995 121.189 24 120.959 24H117.802ZM119.137 22.8975H120.982C121.132 22.8975 121.299 22.8925 121.484 22.8825C121.669 22.8725 121.834 22.8475 121.979 22.8075C122.234 22.7325 122.462 22.585 122.662 22.365C122.867 22.145 122.969 21.83 122.969 21.42C122.969 21.005 122.869 20.685 122.669 20.46C122.474 20.235 122.217 20.0875 121.897 20.0175C121.752 19.9825 121.599 19.96 121.439 19.95C121.279 19.94 121.127 19.935 120.982 19.935H119.137V22.8975ZM130.991 24V21.0675H129.243C129.038 21.0675 128.811 21.06 128.561 21.045C128.316 21.025 128.086 20.9975 127.871 20.9625C127.286 20.8525 126.791 20.595 126.386 20.19C125.986 19.785 125.786 19.225 125.786 18.51C125.786 17.815 125.973 17.2575 126.348 16.8375C126.728 16.4125 127.196 16.1375 127.751 16.0125C128.001 15.9525 128.253 15.92 128.508 15.915C128.768 15.905 128.988 15.9 129.168 15.9H132.326L132.333 24H130.991ZM125.538 24L127.691 20.7H129.131L126.978 24H125.538ZM129.146 19.965H130.991V17.0025H129.146C129.031 17.0025 128.878 17.0075 128.688 17.0175C128.503 17.0275 128.326 17.0575 128.156 17.1075C127.996 17.1525 127.838 17.235 127.683 17.355C127.533 17.475 127.408 17.63 127.308 17.82C127.208 18.01 127.158 18.235 127.158 18.495C127.158 18.87 127.263 19.175 127.473 19.41C127.683 19.64 127.938 19.795 128.238 19.875C128.403 19.915 128.566 19.94 128.726 19.95C128.891 19.96 129.031 19.965 129.146 19.965ZM134.433 24V15.9H137.883C138.088 15.9 138.308 15.9125 138.543 15.9375C138.783 15.9575 139.001 15.995 139.196 16.05C139.631 16.165 139.988 16.4025 140.268 16.7625C140.553 17.1175 140.696 17.5675 140.696 18.1125C140.696 18.4175 140.648 18.6825 140.553 18.9075C140.463 19.1325 140.333 19.3275 140.163 19.4925C140.088 19.5675 140.006 19.635 139.916 19.695C139.826 19.755 139.736 19.8025 139.646 19.8375C139.821 19.8675 139.998 19.935 140.178 20.04C140.463 20.195 140.686 20.4125 140.846 20.6925C141.011 20.9725 141.093 21.33 141.093 21.765C141.093 22.315 140.961 22.77 140.696 23.13C140.431 23.485 140.066 23.73 139.601 23.865C139.406 23.92 139.191 23.9575 138.956 23.9775C138.721 23.9925 138.493 24 138.273 24H134.433ZM135.783 22.9125H138.198C138.303 22.9125 138.428 22.9025 138.573 22.8825C138.723 22.8625 138.856 22.8375 138.971 22.8075C139.231 22.7325 139.418 22.5925 139.533 22.3875C139.653 22.1825 139.713 21.96 139.713 21.72C139.713 21.4 139.623 21.14 139.443 20.94C139.268 20.74 139.036 20.615 138.746 20.565C138.641 20.535 138.526 20.5175 138.401 20.5125C138.281 20.5075 138.173 20.505 138.078 20.505H135.783V22.9125ZM135.783 19.4025H137.793C137.933 19.4025 138.081 19.395 138.236 19.38C138.391 19.36 138.526 19.3275 138.641 19.2825C138.871 19.1975 139.038 19.0575 139.143 18.8625C139.253 18.6625 139.308 18.445 139.308 18.21C139.308 17.95 139.248 17.7225 139.128 17.5275C139.013 17.3275 138.836 17.19 138.596 17.115C138.436 17.055 138.256 17.0225 138.056 17.0175C137.861 17.0075 137.736 17.0025 137.681 17.0025H135.783V19.4025ZM141.85 24V22.8525C142.15 22.9075 142.377 22.8975 142.532 22.8225C142.692 22.7425 142.81 22.605 142.885 22.41C142.965 22.21 143.03 21.96 143.08 21.66C143.165 21.185 143.237 20.655 143.297 20.07C143.362 19.485 143.42 18.845 143.47 18.15C143.525 17.45 143.575 16.7 143.62 15.9H149.282V24H147.947V17.1675H144.835C144.805 17.6275 144.767 18.1 144.722 18.585C144.682 19.07 144.64 19.5425 144.595 20.0025C144.55 20.4575 144.5 20.8825 144.445 21.2775C144.395 21.6675 144.34 22.005 144.28 22.29C144.185 22.78 144.052 23.1725 143.882 23.4675C143.712 23.7575 143.467 23.945 143.147 24.03C142.827 24.12 142.395 24.11 141.85 24ZM154.899 24.225C154.104 24.225 153.409 24.05 152.814 23.7C152.224 23.345 151.764 22.8525 151.434 22.2225C151.104 21.5875 150.939 20.8475 150.939 20.0025C150.939 19.1175 151.101 18.3525 151.426 17.7075C151.751 17.0575 152.204 16.5575 152.784 16.2075C153.369 15.8525 154.054 15.675 154.839 15.675C155.654 15.675 156.346 15.8625 156.916 16.2375C157.491 16.6125 157.921 17.1475 158.206 17.8425C158.496 18.5375 158.621 19.365 158.581 20.325H157.231V19.845C157.216 18.85 157.014 18.1075 156.624 17.6175C156.234 17.1225 155.654 16.875 154.884 16.875C154.059 16.875 153.431 17.14 153.001 17.67C152.571 18.2 152.356 18.96 152.356 19.95C152.356 20.905 152.571 21.645 153.001 22.17C153.431 22.695 154.044 22.9575 154.839 22.9575C155.374 22.9575 155.839 22.835 156.234 22.59C156.629 22.345 156.939 21.9925 157.164 21.5325L158.446 21.975C158.131 22.69 157.656 23.245 157.021 23.64C156.391 24.03 155.684 24.225 154.899 24.225ZM151.906 20.325V19.2525H157.891V20.325H151.906ZM160.244 24V15.9H161.579V19.3125H165.839V15.9H167.174V24H165.839V20.58H161.579V24H160.244ZM175.905 15.9V24H174.615V18.03L170.37 24H169.267V15.9H170.557V21.7875L174.81 15.9H175.905ZM181.515 24.225C180.72 24.225 180.025 24.05 179.43 23.7C178.84 23.345 178.38 22.8525 178.05 22.2225C177.72 21.5875 177.555 20.8475 177.555 20.0025C177.555 19.1175 177.718 18.3525 178.043 17.7075C178.368 17.0575 178.82 16.5575 179.4 16.2075C179.985 15.8525 180.67 15.675 181.455 15.675C182.27 15.675 182.963 15.8625 183.533 16.2375C184.108 16.6125 184.538 17.1475 184.823 17.8425C185.113 18.5375 185.238 19.365 185.198 20.325H183.848V19.845C183.833 18.85 183.63 18.1075 183.24 17.6175C182.85 17.1225 182.27 16.875 181.5 16.875C180.675 16.875 180.048 17.14 179.618 17.67C179.188 18.2 178.973 18.96 178.973 19.95C178.973 20.905 179.188 21.645 179.618 22.17C180.048 22.695 180.66 22.9575 181.455 22.9575C181.99 22.9575 182.455 22.835 182.85 22.59C183.245 22.345 183.555 21.9925 183.78 21.5325L185.063 21.975C184.748 22.69 184.273 23.245 183.638 23.64C183.008 24.03 182.3 24.225 181.515 24.225ZM178.523 20.325V19.2525H184.508V20.325H178.523Z" fill="white"/>
<defs>
<filter id="filter0_d_207_373" x="0" y="0" width="204" height="43" filterUnits="userSpaceOnUse" color-interpolation-filters="sRGB">
<feFlood flood-opacity="0" result="BackgroundImageFix"/>
<feColorMatrix in="SourceAlpha" type="matrix" values="0 0 0 0 0 0 0 0 0 0 0 0 0 0 0 0 0 0 127 0" result="hardAlpha"/>
<feOffset dx="4" dy="4"/>
<feGaussianBlur stdDeviation="2"/>
<feComposite in2="hardAlpha" operator="out"/>
<feColorMatrix type="matrix" values="0 0 0 0 0 0 0 0 0 0 0 0 0 0 0 0 0 0 0.25 0"/>
<feBlend mode="normal" in2="BackgroundImageFix" result="effect1_dropShadow_207_373"/>
<feBlend mode="normal" in="SourceGraphic" in2="effect1_dropShadow_207_373" result="shape"/>
</filter>
</defs>
</svg>
