<svg width="55" height="55" viewBox="0 0 55 55" fill="none" xmlns="http://www.w3.org/2000/svg">
<g clip-path="url(#clip0_116_91)">
<path d="M28.0441 11.7621L26.2824 8.66082L21.9349 11.1304L23.5813 14.0288L17.7846 17.3216L16.1382 14.4233L11.7906 16.8929L13.5523 19.9941C11.4302 22.0622 10.8512 25.3621 12.3824 28.0576L22.2608 45.4477C23.1664 47.0418 25.2115 47.6051 26.8056 46.6996L44.1957 36.8211C45.7898 35.9156 46.3532 33.8704 45.4476 32.2763L35.5692 14.8863C34.038 12.1908 30.9071 10.9983 28.0441 11.7621ZM42.5493 33.9228L25.1592 43.8013L15.2807 26.4112C14.3752 24.8171 14.9386 22.7719 16.5326 21.8664L28.126 15.2807C29.7201 14.3752 31.7653 14.9386 32.6708 16.5327L42.5493 33.9228ZM33.7899 23.5642L37.0827 29.3609L34.1844 31.0073L32.5379 28.1089L22.3937 33.8714L20.7473 30.973L33.7899 23.5642Z" fill="#E0E0E0"/>
</g>
<defs>
<clipPath id="clip0_116_91">
<rect width="40" height="40" fill="white" transform="translate(0 19.757) rotate(-29.5988)"/>
</clipPath>
</defs>
</svg>
