<svg width="69" height="28" viewBox="0 0 69 28" fill="none" xmlns="http://www.w3.org/2000/svg">
<rect width="69" height="28" rx="14" fill="#242424"/>
<path d="M18.4499 20V9.2H22.6574C23.3024 9.2 23.8524 9.3325 24.3074 9.5975C24.7674 9.8625 25.1174 10.2125 25.3574 10.6475C25.6024 11.0775 25.7249 11.5425 25.7249 12.0425C25.7249 12.6275 25.5749 13.14 25.2749 13.58C24.9749 14.02 24.5699 14.3225 24.0599 14.4875L24.0449 14.12C24.7399 14.305 25.2799 14.645 25.6649 15.14C26.0499 15.635 26.2424 16.225 26.2424 16.91C26.2424 17.54 26.1124 18.085 25.8524 18.545C25.5974 19.005 25.2274 19.3625 24.7424 19.6175C24.2624 19.8725 23.6924 20 23.0324 20H18.4499ZM19.7999 18.725H22.7774C23.1774 18.725 23.5349 18.6525 23.8499 18.5075C24.1649 18.3575 24.4124 18.1475 24.5924 17.8775C24.7774 17.6075 24.8699 17.2825 24.8699 16.9025C24.8699 16.5375 24.7874 16.21 24.6224 15.92C24.4624 15.63 24.2349 15.4 23.9399 15.23C23.6499 15.055 23.3124 14.9675 22.9274 14.9675H19.7999V18.725ZM19.7999 13.7075H22.6424C22.9624 13.7075 23.2499 13.64 23.5049 13.505C23.7649 13.365 23.9699 13.17 24.1199 12.92C24.2749 12.67 24.3524 12.3775 24.3524 12.0425C24.3524 11.5775 24.1949 11.1975 23.8799 10.9025C23.5649 10.6075 23.1524 10.46 22.6424 10.46H19.7999V13.7075ZM26.837 20L29.9345 15.905L26.9045 11.9H28.4945L30.7145 14.87L32.912 11.9H34.502L31.472 15.905L34.577 20H32.9795L30.7145 16.94L28.4345 20H26.837ZM38.936 20.225C38.131 20.225 37.436 20.0425 36.851 19.6775C36.271 19.3125 35.8235 18.8075 35.5085 18.1625C35.1935 17.5175 35.036 16.7775 35.036 15.9425C35.036 15.0925 35.196 14.3475 35.516 13.7075C35.836 13.0675 36.2885 12.57 36.8735 12.215C37.4585 11.855 38.146 11.675 38.936 11.675C39.746 11.675 40.4435 11.8575 41.0285 12.2225C41.6135 12.5825 42.061 13.085 42.371 13.73C42.686 14.37 42.8435 15.1075 42.8435 15.9425C42.8435 16.7875 42.686 17.5325 42.371 18.1775C42.056 18.8175 41.606 19.32 41.021 19.685C40.436 20.045 39.741 20.225 38.936 20.225ZM38.936 18.9575C39.776 18.9575 40.401 18.6775 40.811 18.1175C41.221 17.5575 41.426 16.8325 41.426 15.9425C41.426 15.0275 41.2185 14.3 40.8035 13.76C40.3885 13.215 39.766 12.9425 38.936 12.9425C38.371 12.9425 37.906 13.07 37.541 13.325C37.176 13.58 36.9035 13.9325 36.7235 14.3825C36.5435 14.8325 36.4535 15.3525 36.4535 15.9425C36.4535 16.8525 36.6635 17.5825 37.0835 18.1325C37.5035 18.6825 38.121 18.9575 38.936 18.9575ZM43.8948 21.8V18.8975C44.3498 18.8975 44.6748 18.75 44.8698 18.455C45.0648 18.155 45.2223 17.6625 45.3423 16.9775C45.4223 16.5475 45.4873 16.0875 45.5373 15.5975C45.5873 15.1075 45.6298 14.5625 45.6648 13.9625C45.7048 13.3575 45.7423 12.67 45.7773 11.9H51.3573V18.8975H52.1448V21.8H50.8698V20H45.1698V21.8H43.8948ZM45.9498 18.8975H50.0223V13.0025H46.9848C46.9698 13.3575 46.9498 13.73 46.9248 14.12C46.8998 14.505 46.8698 14.89 46.8348 15.275C46.8048 15.66 46.7673 16.025 46.7223 16.37C46.6823 16.71 46.6348 17.015 46.5798 17.285C46.5148 17.66 46.4398 17.9775 46.3548 18.2375C46.2698 18.4975 46.1348 18.7175 45.9498 18.8975Z" fill="white"/>
</svg>
