<svg width="53" height="54" viewBox="0 0 53 54" fill="none" xmlns="http://www.w3.org/2000/svg">
<g clip-path="url(#clip0_116_93)">
<path fill-rule="evenodd" clip-rule="evenodd" d="M30.6582 42.155C30.7469 42.5838 30.7501 43.0258 30.6679 43.4559C30.5857 43.8859 30.4195 44.2955 30.1789 44.6614C29.9383 45.0272 29.628 45.342 29.2657 45.5879C28.9035 45.8338 28.4963 46.0058 28.0675 46.0943L24.9712 31.094L11.9348 39.1343C11.7049 38.7617 11.5507 38.3474 11.481 37.9152C11.4113 37.4829 11.4274 37.0411 11.5284 36.6151C11.6294 36.1891 11.8134 35.7872 12.0698 35.4322C12.3262 35.0773 12.65 34.7764 13.0228 34.5467L24.2541 27.619L22.9497 21.3022C21.3273 21.2909 19.7647 20.6883 18.5547 19.6074C17.3448 18.5265 16.5705 17.0414 16.3771 15.4305C16.1837 13.8196 16.5843 12.1935 17.504 10.8569C18.4236 9.52024 19.7992 8.56484 21.3728 8.16975C22.9464 7.77465 24.6101 7.96696 26.052 8.71064C27.494 9.45433 28.6153 10.6983 29.2057 12.2095C29.7962 13.7207 29.8153 15.3954 29.2595 16.9197C28.7036 18.4439 27.611 19.7132 26.1864 20.4896L27.2719 25.7571L31.8523 22.9321C31.4395 21.3631 31.6131 19.6973 32.3406 18.2471C33.068 16.7969 34.2993 15.6617 35.8038 15.0543C37.3083 14.4469 38.9826 14.4089 40.513 14.9476C42.0434 15.4863 43.3249 16.5646 44.1172 17.9804C44.9096 19.3962 45.1584 21.0524 44.8171 22.6385C44.4758 24.2247 43.5678 25.6319 42.2632 26.5965C40.9587 27.5612 39.3471 28.0169 37.7306 27.8784C36.1141 27.74 34.6035 27.0167 33.482 25.8443L27.9912 29.2313L30.6582 42.155ZM36.9796 24.2965C37.7913 24.6467 38.7089 24.6601 39.5306 24.3337C40.3522 24.0074 41.0105 23.368 41.3607 22.5563C41.7109 21.7445 41.7243 20.8269 41.3979 20.0053C41.0716 19.1837 40.4322 18.5254 39.6205 18.1752C38.8087 17.825 37.8911 17.8116 37.0695 18.138C36.2479 18.4643 35.5896 19.1037 35.2394 19.9154C34.8892 20.7272 34.8758 21.6448 35.2021 22.4664C35.5285 23.288 36.1679 23.9463 36.9796 24.2965ZM21.6764 17.6944C22.4881 18.0446 23.4057 18.0579 24.2273 17.7316C25.0489 17.4052 25.7072 16.7659 26.0574 15.9541C26.4076 15.1424 26.421 14.2248 26.0947 13.4032C25.7683 12.5816 25.129 11.9233 24.3172 11.5731C23.5055 11.2229 22.5879 11.2095 21.7663 11.5358C20.9447 11.8622 20.2863 12.5015 19.9361 13.3133C19.5859 14.125 19.5725 15.0426 19.8989 15.8642C20.2253 16.6858 20.8646 17.3442 21.6764 17.6944Z" fill="#E0E0E0"/>
</g>
<defs>
<clipPath id="clip0_116_93">
<rect width="40" height="40" fill="white" transform="translate(37.1284 53.4032) rotate(-156.664)"/>
</clipPath>
</defs>
</svg>
