<svg width="20" height="20" viewBox="0 0 20 20" fill="none" xmlns="http://www.w3.org/2000/svg">
<g clip-path="url(#clip0_105_41)">
<path fill-rule="evenodd" clip-rule="evenodd" d="M4.18753 7.02417L5.83502 8.67167V10.44C5.835 10.8282 5.74455 11.2111 5.57086 11.5583L4.68336 13.3333H10.4967L12.9267 15.7633C12.606 16.3501 12.1164 16.8269 11.5214 17.1319C10.9263 17.4369 10.2533 17.5559 9.58975 17.4736C8.92618 17.3913 8.30267 17.1115 7.80015 16.6704C7.29763 16.2293 6.93931 15.6473 6.77169 15H3.47003C3.31376 15 3.16008 14.9601 3.02358 14.884C2.88709 14.8079 2.77231 14.6982 2.69015 14.5653C2.60799 14.4324 2.56117 14.2806 2.55415 14.1245C2.54713 13.9684 2.58013 13.8131 2.65002 13.6733L4.08002 10.8125C4.13798 10.6969 4.16822 10.5693 4.16836 10.44V7.5C4.16836 7.34 4.17475 7.18139 4.18753 7.02417ZM10.0017 1.66667C10.7677 1.66667 11.5263 1.81755 12.234 2.1107C12.9417 2.40386 13.5848 2.83354 14.1265 3.37521C14.6682 3.91689 15.0978 4.55995 15.391 5.26768C15.6841 5.97541 15.835 6.73396 15.835 7.5V10.44C15.8349 10.5693 15.8649 10.6968 15.9225 10.8125L17.3534 13.6733C17.4233 13.8131 17.4563 13.9684 17.4492 14.1245C17.4422 14.2806 17.3954 14.4324 17.3132 14.5653C17.2311 14.6982 17.1163 14.8079 16.9798 14.884C16.8433 14.9601 16.6896 15 16.5334 15H16.1784L17.0709 15.8925C17.2227 16.0497 17.3067 16.2602 17.3048 16.4787C17.3029 16.6972 17.2152 16.9062 17.0607 17.0607C16.9062 17.2152 16.6972 17.3028 16.4787 17.3047C16.2602 17.3066 16.0497 17.2226 15.8925 17.0708L2.92919 4.10833C2.8496 4.03146 2.78611 3.93951 2.74244 3.83784C2.69877 3.73617 2.67578 3.62682 2.67482 3.51617C2.67385 3.40552 2.69494 3.29579 2.73684 3.19337C2.77874 3.09096 2.84062 2.99792 2.91886 2.91967C2.99711 2.84143 3.09015 2.77955 3.19256 2.73765C3.29498 2.69575 3.40471 2.67466 3.51536 2.67563C3.62601 2.67659 3.73536 2.69958 3.83703 2.74325C3.9387 2.78692 4.03065 2.85041 4.10752 2.93L5.26836 4.09083C5.80826 3.34005 6.51915 2.7286 7.34224 2.30706C8.16532 1.88552 9.07694 1.66601 10.0017 1.66667ZM11.4434 15H8.55669C8.70298 15.2533 8.91337 15.4637 9.16673 15.61C9.42009 15.7563 9.70748 15.8333 10 15.8333C10.2926 15.8333 10.58 15.7563 10.8333 15.61C11.0867 15.4637 11.2971 15.2533 11.4434 15ZM10.0017 3.33333C9.29516 3.33316 8.60018 3.51264 7.98209 3.85492C7.364 4.19721 6.8431 4.69104 6.46836 5.29L14.5117 13.3333H15.32L14.4325 11.5583C14.2588 11.2111 14.1684 10.8282 14.1684 10.44V7.5C14.1684 6.39493 13.7294 5.33512 12.948 4.55372C12.1666 3.77232 11.1068 3.33333 10.0017 3.33333Z" fill="white"/>
</g>
<defs>
<clipPath id="clip0_105_41">
<rect width="20" height="20" fill="white"/>
</clipPath>
</defs>
</svg>
