<svg width="20" height="20" viewBox="0 0 20 20" fill="none" xmlns="http://www.w3.org/2000/svg">
<path fill-rule="evenodd" clip-rule="evenodd" d="M4.16689 7.5C4.16689 5.9529 4.78147 4.46917 5.87544 3.37521C6.9694 2.28125 8.45313 1.66666 10.0002 1.66666C11.5473 1.66666 13.0311 2.28125 14.125 3.37521C15.219 4.46917 15.8336 5.9529 15.8336 7.5V10.6367L17.3519 13.6733C17.4218 13.8131 17.4548 13.9684 17.4478 14.1245C17.4407 14.2806 17.3939 14.4324 17.3118 14.5653C17.2296 14.6982 17.1148 14.8079 16.9783 14.884C16.8418 14.9601 16.6882 15 16.5319 15H13.2286C13.0432 15.7152 12.6256 16.3486 12.0413 16.8008C11.457 17.2529 10.7391 17.4983 10.0002 17.4983C9.2614 17.4983 8.54348 17.2529 7.95917 16.8008C7.37487 16.3486 6.95726 15.7152 6.77189 15H3.46856C3.31229 15 3.15861 14.9601 3.02212 14.884C2.88562 14.8079 2.77084 14.6982 2.68868 14.5653C2.60652 14.4324 2.55971 14.2806 2.55268 14.1245C2.54566 13.9684 2.57867 13.8131 2.64856 13.6733L4.16689 10.6367V7.5ZM8.55689 15C8.70318 15.2533 8.91357 15.4637 9.16693 15.61C9.42029 15.7563 9.70768 15.8333 10.0002 15.8333C10.2928 15.8333 10.5802 15.7563 10.8335 15.61C11.0869 15.4637 11.2973 15.2533 11.4436 15H8.55689ZM10.0002 3.33333C8.89516 3.33333 7.83535 3.77232 7.05395 4.55372C6.27255 5.33512 5.83356 6.39493 5.83356 7.5V10.6367C5.83354 10.8953 5.77334 11.1503 5.65773 11.3817L4.68273 13.3333H15.3186L14.3436 11.3817C14.2277 11.1504 14.1672 10.8953 14.1669 10.6367V7.5C14.1669 6.39493 13.7279 5.33512 12.9465 4.55372C12.1651 3.77232 11.1053 3.33333 10.0002 3.33333Z" fill="white"/>
</svg>
