<svg width="67" height="68" viewBox="0 0 67 68" fill="none" xmlns="http://www.w3.org/2000/svg">
<path fill-rule="evenodd" clip-rule="evenodd" d="M29.3125 5.66671C30.9316 5.66671 32.5229 5.83104 34.0555 6.14837C34.7811 6.29791 35.4184 6.73387 35.8273 7.36033C36.2362 7.9868 36.3831 8.75246 36.2358 9.48887C36.0885 10.2253 35.6589 10.8721 35.0417 11.2871C34.4244 11.7021 33.67 11.8512 32.9444 11.7017C29.4283 10.9737 25.7784 11.3202 22.4563 12.6973C19.1342 14.0744 16.2889 16.4204 14.2803 19.4385C12.2717 22.4566 11.19 26.0115 11.1718 29.6535C11.1537 33.2956 12.1999 36.8614 14.1783 39.9C16.1567 42.9386 18.9784 45.3136 22.2866 46.7248C25.5949 48.136 29.2411 48.5199 32.7643 47.8281C36.2875 47.1362 39.5295 45.3997 42.0804 42.838C44.6313 40.2763 46.3765 37.0045 47.0954 33.4362C47.1683 33.0716 47.3113 32.7251 47.5162 32.4165C47.7211 32.108 47.9839 31.8434 48.2895 31.638C48.5952 31.4325 48.9377 31.2901 49.2975 31.219C49.6574 31.1478 50.0275 31.1493 50.3868 31.2234C50.746 31.2974 51.0874 31.4426 51.3914 31.6505C51.6954 31.8585 51.9561 32.1251 52.1586 32.4353C52.361 32.7455 52.5013 33.0932 52.5714 33.4584C52.6415 33.8236 52.64 34.1992 52.5671 34.5639C51.8871 37.943 50.5 41.1344 48.4996 43.9224L47.9496 44.659L58.1448 55.0064C58.6508 55.5151 58.9461 56.2008 58.9703 56.9233C58.9944 57.6457 58.7456 58.3502 58.2747 58.8925C57.8038 59.4349 57.1465 59.774 56.4374 59.8406C55.7282 59.9072 55.0207 59.6962 54.4598 59.2507L54.1974 59.0127L44.0022 48.6654C41.0303 51.0424 37.5415 52.6637 33.8267 53.394C30.1118 54.1242 26.2788 53.9422 22.6474 52.8632C19.016 51.7842 15.6915 49.8395 12.9512 47.1913C10.2109 44.543 8.13435 41.2681 6.89477 37.6397C5.65519 34.0113 5.28853 30.1346 5.82537 26.3332C6.36221 22.5317 7.78699 18.9156 9.98084 15.7867C12.1747 12.6577 15.074 10.1066 18.4369 8.34617C21.7997 6.58574 25.5286 5.66703 29.3125 5.66671ZM53.0416 2.83337C53.5639 2.83337 54.0757 2.98206 54.5189 3.26254C54.962 3.54302 55.3188 3.94405 55.5486 4.42004L55.6826 4.75154L56.0455 5.82254C56.4285 6.96206 57.0457 8.00599 57.8561 8.88521C58.6666 9.76443 59.6518 10.4589 60.7466 10.9225L61.2631 11.1209L62.3183 11.4864C62.8409 11.6673 63.2989 12.0015 63.6343 12.4466C63.9698 12.8917 64.1677 13.4278 64.2029 13.987C64.2382 14.5463 64.1093 15.1035 63.8324 15.5884C63.5556 16.0733 63.1434 16.464 62.6478 16.711L62.3183 16.847L61.2631 17.2154C60.1403 17.6041 59.1118 18.2305 58.2455 19.0531C57.3792 19.8756 56.695 20.8756 56.2381 21.9867L56.0427 22.5109L55.6826 23.5819C55.504 24.1121 55.1745 24.5767 54.7357 24.9168C54.297 25.257 53.7688 25.4575 53.2178 25.493C52.6668 25.5285 52.1178 25.3974 51.6402 25.1162C51.1626 24.835 50.7779 24.4164 50.5347 23.9134L50.4007 23.5819L50.0378 22.5109C49.6548 21.3714 49.0376 20.3274 48.2271 19.4482C47.4167 18.569 46.4314 17.8745 45.3366 17.4109L44.8202 17.2125L43.7649 16.847C43.2424 16.6661 42.7844 16.3319 42.4489 15.8868C42.1135 15.4417 41.9156 14.9057 41.8804 14.3464C41.8451 13.7872 41.974 13.2299 42.2508 12.745C42.5277 12.2601 42.9399 11.8694 43.4355 11.6224L43.7649 11.4864L44.8202 11.118C45.9429 10.7293 46.9715 10.1029 47.8378 9.28036C48.7041 8.4578 49.3883 7.45785 49.8452 6.34671L50.0406 5.82254L50.4007 4.75154C50.5888 4.1922 50.9445 3.70656 51.4181 3.36261C51.8916 3.01866 52.4593 2.83361 53.0416 2.83337ZM53.0416 11.8887C52.3813 12.7322 51.6282 13.4965 50.7971 14.1667C51.6309 14.8373 52.3791 15.5966 53.0416 16.4447C53.7023 15.5985 54.4505 14.8392 55.2861 14.1667C54.4551 13.4965 53.702 12.7322 53.0416 11.8887Z" fill="#466EE5"/>
</svg>
