<svg width="68" height="68" viewBox="0 0 68 68" fill="none" xmlns="http://www.w3.org/2000/svg">
<path d="M34 5.66675C18.377 5.66675 5.66669 18.3771 5.66669 34.0001V45.7386C5.66669 48.6399 8.20819 51.0001 11.3334 51.0001H14.1667C14.9181 51.0001 15.6388 50.7016 16.1702 50.1702C16.7015 49.6389 17 48.9182 17 48.1667V33.5949C17 32.8435 16.7015 32.1228 16.1702 31.5914C15.6388 31.0601 14.9181 30.7616 14.1667 30.7616H11.594C13.1694 19.7966 22.6044 11.3334 34 11.3334C45.3957 11.3334 54.8307 19.7966 56.406 30.7616H53.8334C53.0819 30.7616 52.3612 31.0601 51.8299 31.5914C51.2985 32.1228 51 32.8435 51 33.5949V51.0001C51 54.1252 48.4585 56.6667 45.3334 56.6667H39.6667V53.8334H28.3334V62.3334H45.3334C51.5837 62.3334 56.6667 57.2504 56.6667 51.0001C59.7919 51.0001 62.3334 48.6399 62.3334 45.7386V34.0001C62.3334 18.3771 49.623 5.66675 34 5.66675Z" fill="#466EE5"/>
</svg>
