<svg width="40" height="40" viewBox="0 0 40 40" fill="none" xmlns="http://www.w3.org/2000/svg">
<path d="M30.625 21.2317L17.8033 34.0533C16.3968 35.4599 14.4891 36.25 12.5 36.25C10.5108 36.25 8.60318 35.4599 7.19665 34.0533C5.79012 32.6468 4.99994 30.7391 4.99994 28.75C4.99994 26.7609 5.79012 24.8532 7.19665 23.4467L25.43 5.21333C25.8944 4.74911 26.4458 4.38091 27.0525 4.12976C27.6592 3.8786 28.3095 3.74942 28.9662 3.74957C29.6228 3.74973 30.273 3.87922 30.8797 4.13066C31.4863 4.3821 32.0374 4.75055 32.5017 5.215C32.9659 5.67944 33.3341 6.23077 33.5852 6.83751C33.8364 7.44424 33.9656 8.09451 33.9654 8.75118C33.9653 9.40784 33.8358 10.058 33.5843 10.6647C33.3329 11.2713 32.9644 11.8224 32.5 12.2867L14.2533 30.5333C13.78 30.9871 13.1473 31.2351 12.4916 31.2268C11.8359 31.2185 11.2097 30.9529 10.748 30.4872C10.2863 30.0216 10.026 29.3932 10.0233 28.7375C10.0205 28.0817 10.2755 27.4512 10.7333 26.9817L23.75 13.965M14.2683 30.5167L14.2517 30.5333" stroke="#E0E0E0" stroke-width="3" stroke-linecap="round" stroke-linejoin="round"/>
</svg>
