<svg width="309" height="108" viewBox="0 0 309 108" fill="none" xmlns="http://www.w3.org/2000/svg">
<g filter="url(#filter0_d_45_38)">
<rect x="5" y="1" width="299" height="97.8645" rx="19" fill="white" stroke="#466EE5" stroke-width="2"/>
<rect width="58.3715" height="58.3715" transform="translate(222.014 20.3949)" fill="white"/>
<path d="M259.109 46.3921C256.709 43.5221 255.51 42.0872 254.128 42.3061C252.749 42.5274 252.105 44.2591 250.816 47.7225L250.48 48.6175C250.115 49.6025 249.93 50.0938 249.573 50.4562C249.218 50.8186 248.726 51.0107 247.749 51.395L246.856 51.7428C243.41 53.0926 241.685 53.7688 241.488 55.1478C241.291 56.5268 242.753 57.6991 245.674 60.0388L246.428 60.6469C247.26 61.3109 247.676 61.6441 247.914 62.0989C248.157 62.5537 248.194 63.0815 248.269 64.1346L248.34 65.0928C248.607 68.797 248.743 70.6503 250.001 71.2826C251.258 71.915 252.807 70.9057 255.904 68.8919L256.704 68.3689C257.584 67.7974 258.024 67.5104 258.528 67.4277C259.034 67.3474 259.549 67.4812 260.573 67.7487L261.51 67.992C265.121 68.9308 266.929 69.4026 267.904 68.4127C268.879 67.4228 268.373 65.6303 267.366 62.0405L267.104 61.1163C266.819 60.0948 266.676 59.584 266.746 59.0806C266.819 58.5747 267.099 58.132 267.656 57.2419L268.166 56.4344C270.129 53.3091 271.109 51.7477 270.453 50.5048C269.798 49.262 267.94 49.1599 264.222 48.9604L263.258 48.9069C262.203 48.851 261.673 48.8218 261.213 48.5907C260.751 48.3597 260.41 47.9511 259.729 47.1339L259.109 46.3921Z" fill="#466EE5"/>
<path d="M258.2 32.9618L258.645 34.2314C259.134 35.625 259.379 36.323 259.854 36.8337C260.33 37.3494 260.982 37.6218 262.288 38.1641L263.478 38.6603C268.074 40.572 270.373 41.5302 270.633 43.4832C270.742 44.2956 270.47 45.0593 269.83 45.9105C269.626 45.8552 269.42 45.8065 269.213 45.7646C267.933 45.5043 266.306 45.4168 264.647 45.3268L263.456 45.2636L262.896 45.2319L262.529 44.7942L261.76 43.8772C260.69 42.5931 259.645 41.3405 258.667 40.4698C257.628 39.5407 255.892 38.3295 253.552 38.7041C251.188 39.0835 249.928 40.803 249.247 42.0288C248.617 43.1671 248.05 44.6896 247.476 46.2291L247.063 47.343L246.888 47.8125C246.758 47.8611 246.602 47.9227 246.419 47.9973L245.309 48.4302C243.777 49.031 242.262 49.622 241.133 50.2714C239.922 50.9694 238.215 52.2584 237.877 54.6322C237.544 56.9841 238.796 58.7012 239.742 59.7202C240.448 60.4766 241.399 61.2768 242.413 62.0989C238.597 63.1325 236.568 63.5192 235.415 62.274C234.117 60.8731 234.788 58.3339 236.133 53.2507L236.478 51.9374C236.86 50.4902 237.052 49.7703 236.957 49.0528C236.86 48.3378 236.488 47.7079 235.744 46.4505L235.068 45.3073C232.448 40.8784 231.14 38.6652 232.01 36.9018C232.886 35.141 235.364 34.9975 240.324 34.7129L241.605 34.64C243.016 34.5573 243.719 34.5183 244.334 34.19C244.947 33.8617 245.402 33.2852 246.311 32.1275L247.138 31.0769C250.339 27.0079 251.939 24.9746 253.778 25.2884C255.617 25.6021 256.478 28.0537 258.197 32.9593" fill="#466EE5"/>
<path d="M51.0275 48V38.64H58.613V48H57.0465V40.109H52.594V48H51.0275ZM63.8083 48.195C63.1236 48.195 62.5494 48.0325 62.0857 47.7075C61.6221 47.3825 61.2732 46.9405 61.0392 46.3815C60.8052 45.8182 60.6882 45.1877 60.6882 44.49C60.6882 43.7837 60.8052 43.151 61.0392 42.592C61.2732 42.033 61.6156 41.5932 62.0662 41.2725C62.5212 40.9475 63.0824 40.785 63.7497 40.785C64.4127 40.785 64.9869 40.9475 65.4722 41.2725C65.9619 41.5932 66.3411 42.033 66.6097 42.592C66.8784 43.1467 67.0128 43.7793 67.0128 44.49C67.0128 45.192 66.8806 45.8225 66.6163 46.3815C66.3519 46.9405 65.9793 47.3825 65.4982 47.7075C65.0172 48.0325 64.4539 48.195 63.8083 48.195ZM60.4217 51.12V40.98H61.8062V45.907H62.0012V51.12H60.4217ZM63.5678 46.791C63.9751 46.791 64.3109 46.6892 64.5752 46.4855C64.8396 46.2818 65.0346 46.0067 65.1603 45.66C65.2902 45.309 65.3552 44.919 65.3552 44.49C65.3552 44.0653 65.2902 43.6797 65.1603 43.333C65.0302 42.982 64.8287 42.7047 64.5558 42.501C64.2827 42.293 63.9361 42.189 63.5157 42.189C63.1171 42.189 62.7921 42.2865 62.5407 42.4815C62.2894 42.6722 62.1031 42.9408 61.9817 43.2875C61.8647 43.6298 61.8062 44.0307 61.8062 44.49C61.8062 44.945 61.8647 45.3458 61.9817 45.6925C62.1031 46.0392 62.2916 46.31 62.5472 46.505C62.8072 46.6957 63.1474 46.791 63.5678 46.791ZM71.546 48.195C70.844 48.195 70.2308 48.0368 69.7065 47.7205C69.1822 47.4042 68.7748 46.9687 68.4845 46.414C68.1985 45.855 68.0555 45.2137 68.0555 44.49C68.0555 43.7533 68.2028 43.1077 68.4975 42.553C68.7922 41.9983 69.2017 41.565 69.726 41.253C70.2503 40.941 70.857 40.785 71.546 40.785C72.2523 40.785 72.8677 40.9432 73.392 41.2595C73.9163 41.5758 74.3237 42.0135 74.614 42.5725C74.9043 43.1272 75.0495 43.7663 75.0495 44.49C75.0495 45.218 74.9022 45.8615 74.6075 46.4205C74.3172 46.9752 73.9098 47.4107 73.3855 47.727C72.8612 48.039 72.248 48.195 71.546 48.195ZM71.546 46.726C72.17 46.726 72.6337 46.518 72.937 46.102C73.2403 45.686 73.392 45.1487 73.392 44.49C73.392 43.8097 73.2382 43.268 72.9305 42.865C72.6228 42.4577 72.1613 42.254 71.546 42.254C71.1257 42.254 70.779 42.3493 70.506 42.54C70.2373 42.7263 70.038 42.9885 69.908 43.3265C69.778 43.6602 69.713 44.048 69.713 44.49C69.713 45.1703 69.8668 45.7142 70.1745 46.1215C70.4865 46.5245 70.9437 46.726 71.546 46.726ZM78.7491 48.195C78.0818 48.195 77.4729 48.0542 76.9226 47.7725C76.3723 47.4908 75.9389 47.1052 75.6226 46.6155L76.8576 45.79C77.1089 46.089 77.3884 46.3208 77.6961 46.4855C78.0038 46.6458 78.3461 46.726 78.7231 46.726C79.1174 46.726 79.4273 46.6393 79.6526 46.466C79.8779 46.2927 79.9906 46.0608 79.9906 45.7705C79.9906 45.5148 79.9148 45.335 79.7631 45.231C79.6114 45.1227 79.4121 45.0577 79.1651 45.036C78.9181 45.0143 78.6538 45.0035 78.3721 45.0035H77.8521V43.762H78.3656C78.7599 43.762 79.0893 43.7165 79.3536 43.6255C79.6223 43.5345 79.7566 43.333 79.7566 43.021C79.7566 42.7393 79.6526 42.54 79.4446 42.423C79.2366 42.3017 78.9939 42.241 78.7166 42.241C78.3786 42.241 78.0449 42.3125 77.7156 42.4555C77.3863 42.5985 77.0916 42.7718 76.8316 42.9755L75.9476 41.9095C76.3376 41.5628 76.7731 41.2898 77.2541 41.0905C77.7351 40.8868 78.2486 40.785 78.7946 40.785C79.2453 40.785 79.6656 40.863 80.0556 41.019C80.4499 41.175 80.7663 41.409 81.0046 41.721C81.2473 42.033 81.3686 42.4187 81.3686 42.878C81.3686 43.2073 81.2971 43.5172 81.1541 43.8075C81.0154 44.0978 80.7923 44.373 80.4846 44.633L80.4651 44.126C80.7034 44.2257 80.9049 44.3643 81.0696 44.542C81.2386 44.7197 81.3664 44.9277 81.4531 45.166C81.5441 45.4043 81.5896 45.6578 81.5896 45.9265C81.5896 46.4162 81.4596 46.83 81.1996 47.168C80.9396 47.506 80.5929 47.7617 80.1596 47.935C79.7306 48.1083 79.2604 48.195 78.7491 48.195ZM86.3932 48.195C85.7085 48.195 85.1344 48.0325 84.6707 47.7075C84.207 47.3825 83.8582 46.9405 83.6242 46.3815C83.3902 45.8182 83.2732 45.1877 83.2732 44.49C83.2732 43.7837 83.3902 43.151 83.6242 42.592C83.8582 42.033 84.2005 41.5932 84.6512 41.2725C85.1062 40.9475 85.6674 40.785 86.3347 40.785C86.9977 40.785 87.5719 40.9475 88.0572 41.2725C88.5469 41.5932 88.926 42.033 89.1947 42.592C89.4634 43.1467 89.5977 43.7793 89.5977 44.49C89.5977 45.192 89.4655 45.8225 89.2012 46.3815C88.9369 46.9405 88.5642 47.3825 88.0832 47.7075C87.6022 48.0325 87.0389 48.195 86.3932 48.195ZM83.0067 51.12V40.98H84.3912V45.907H84.5862V51.12H83.0067ZM86.1527 46.791C86.56 46.791 86.8959 46.6892 87.1602 46.4855C87.4245 46.2818 87.6195 46.0067 87.7452 45.66C87.8752 45.309 87.9402 44.919 87.9402 44.49C87.9402 44.0653 87.8752 43.6797 87.7452 43.333C87.6152 42.982 87.4137 42.7047 87.1407 42.501C86.8677 42.293 86.521 42.189 86.1007 42.189C85.702 42.189 85.377 42.2865 85.1257 42.4815C84.8744 42.6722 84.688 42.9408 84.5667 43.2875C84.4497 43.6298 84.3912 44.0307 84.3912 44.49C84.3912 44.945 84.4497 45.3458 84.5667 45.6925C84.688 46.0392 84.8765 46.31 85.1322 46.505C85.3922 46.6957 85.7324 46.791 86.1527 46.791ZM92.9935 48.195C92.4865 48.195 92.0575 48.0997 91.7065 47.909C91.3555 47.714 91.089 47.4562 90.907 47.1355C90.7293 46.8148 90.6405 46.4617 90.6405 46.076C90.6405 45.738 90.6968 45.4347 90.8095 45.166C90.9221 44.893 91.0955 44.659 91.3295 44.464C91.5635 44.2647 91.8668 44.1022 92.2395 43.9765C92.5211 43.8855 92.8505 43.8032 93.2275 43.7295C93.6088 43.6558 94.0205 43.5887 94.4625 43.528C94.9088 43.463 95.3746 43.3937 95.86 43.32L95.301 43.6385C95.3053 43.1532 95.197 42.7957 94.976 42.566C94.755 42.3363 94.3823 42.2215 93.858 42.2215C93.5416 42.2215 93.2361 42.2952 92.9415 42.4425C92.6468 42.5898 92.441 42.8433 92.324 43.203L90.894 42.7545C91.0673 42.1608 91.3966 41.6842 91.882 41.3245C92.3716 40.9648 93.0303 40.785 93.858 40.785C94.482 40.785 95.0301 40.8868 95.5025 41.0905C95.9791 41.2942 96.3323 41.6278 96.562 42.0915C96.6876 42.3385 96.7635 42.592 96.7895 42.852C96.8155 43.1077 96.8285 43.3872 96.8285 43.6905V48H95.457V46.479L95.6845 46.726C95.3681 47.233 94.9976 47.6057 94.573 47.844C94.1526 48.078 93.6261 48.195 92.9935 48.195ZM93.3055 46.947C93.6608 46.947 93.9641 46.8842 94.2155 46.7585C94.4668 46.6328 94.6661 46.479 94.8135 46.297C94.9651 46.115 95.067 45.9438 95.119 45.7835C95.2013 45.5842 95.2468 45.3567 95.2555 45.101C95.2685 44.841 95.275 44.6308 95.275 44.4705L95.756 44.6135C95.2836 44.6872 94.8785 44.7522 94.5405 44.8085C94.2025 44.8648 93.9121 44.919 93.6695 44.971C93.4268 45.0187 93.2123 45.0728 93.026 45.1335C92.844 45.1985 92.6901 45.2743 92.5645 45.361C92.4388 45.4477 92.3413 45.5473 92.272 45.66C92.207 45.7727 92.1745 45.9048 92.1745 46.0565C92.1745 46.2298 92.2178 46.3837 92.3045 46.518C92.3911 46.648 92.5168 46.752 92.6815 46.83C92.8505 46.908 93.0585 46.947 93.3055 46.947ZM102.609 48V45.6405C102.367 45.7618 102.089 45.8572 101.777 45.9265C101.47 45.9958 101.147 46.0305 100.809 46.0305C100.085 46.0305 99.5065 45.868 99.0732 45.543C98.6442 45.218 98.3669 44.7457 98.2412 44.126C98.2022 43.9483 98.174 43.7642 98.1567 43.5735C98.1437 43.3785 98.135 43.203 98.1307 43.047C98.1307 42.8867 98.1307 42.7653 98.1307 42.683V40.98H99.7167V42.683C99.7167 42.7783 99.721 42.9192 99.7297 43.1055C99.7384 43.2875 99.7622 43.4695 99.8012 43.6515C99.8835 43.9982 100.033 44.2517 100.25 44.412C100.466 44.5723 100.776 44.6525 101.179 44.6525C101.491 44.6525 101.766 44.6113 102.005 44.529C102.243 44.4467 102.445 44.3427 102.609 44.217V40.98H104.182V48H102.609ZM105.985 48V40.98H107.552V43.749H110.704V40.98H112.271V48H110.704V45.218H107.552V48H105.985ZM116.048 48.195C115.541 48.195 115.112 48.0997 114.761 47.909C114.41 47.714 114.144 47.4562 113.962 47.1355C113.784 46.8148 113.695 46.4617 113.695 46.076C113.695 45.738 113.751 45.4347 113.864 45.166C113.977 44.893 114.15 44.659 114.384 44.464C114.618 44.2647 114.921 44.1022 115.294 43.9765C115.576 43.8855 115.905 43.8032 116.282 43.7295C116.663 43.6558 117.075 43.5887 117.517 43.528C117.963 43.463 118.429 43.3937 118.915 43.32L118.356 43.6385C118.36 43.1532 118.252 42.7957 118.031 42.566C117.81 42.3363 117.437 42.2215 116.913 42.2215C116.596 42.2215 116.291 42.2952 115.996 42.4425C115.701 42.5898 115.496 42.8433 115.379 43.203L113.949 42.7545C114.122 42.1608 114.451 41.6842 114.937 41.3245C115.426 40.9648 116.085 40.785 116.913 40.785C117.537 40.785 118.085 40.8868 118.557 41.0905C119.034 41.2942 119.387 41.6278 119.617 42.0915C119.742 42.3385 119.818 42.592 119.844 42.852C119.87 43.1077 119.883 43.3872 119.883 43.6905V48H118.512V46.479L118.739 46.726C118.423 47.233 118.052 47.6057 117.628 47.844C117.207 48.078 116.681 48.195 116.048 48.195ZM116.36 46.947C116.715 46.947 117.019 46.8842 117.27 46.7585C117.521 46.6328 117.721 46.479 117.868 46.297C118.02 46.115 118.122 45.9438 118.174 45.7835C118.256 45.5842 118.301 45.3567 118.31 45.101C118.323 44.841 118.33 44.6308 118.33 44.4705L118.811 44.6135C118.338 44.6872 117.933 44.7522 117.595 44.8085C117.257 44.8648 116.967 44.919 116.724 44.971C116.481 45.0187 116.267 45.0728 116.081 45.1335C115.899 45.1985 115.745 45.2743 115.619 45.361C115.493 45.4477 115.396 45.5473 115.327 45.66C115.262 45.7727 115.229 45.9048 115.229 46.0565C115.229 46.2298 115.272 46.3837 115.359 46.518C115.446 46.648 115.571 46.752 115.736 46.83C115.905 46.908 116.113 46.947 116.36 46.947ZM125.774 48V45.66H124.52C124.36 45.66 124.158 45.6557 123.915 45.647C123.677 45.6383 123.454 45.6167 123.246 45.582C122.704 45.4823 122.256 45.2462 121.9 44.8735C121.545 44.4965 121.367 43.9852 121.367 43.3395C121.367 42.7068 121.536 42.1977 121.874 41.812C122.212 41.4263 122.652 41.1793 123.194 41.071C123.419 41.0233 123.651 40.9973 123.889 40.993C124.132 40.9843 124.334 40.98 124.494 40.98H127.341V48H125.774ZM121.185 48L122.862 45.3155H124.494L122.83 48H121.185ZM124.357 44.4315H125.774V42.2085H124.357C124.275 42.2085 124.175 42.2128 124.058 42.2215C123.941 42.2302 123.824 42.2497 123.707 42.28C123.582 42.319 123.463 42.3862 123.35 42.4815C123.237 42.5768 123.144 42.696 123.07 42.839C122.997 42.982 122.96 43.1445 122.96 43.3265C122.96 43.5995 123.038 43.827 123.194 44.009C123.354 44.1867 123.541 44.3058 123.753 44.3665C123.857 44.3925 123.963 44.4098 124.071 44.4185C124.184 44.4272 124.279 44.4315 124.357 44.4315ZM134.806 48.195C134.082 48.195 133.464 48.0347 132.953 47.714C132.442 47.389 132.05 46.947 131.777 46.388C131.508 45.829 131.371 45.1963 131.367 44.49C131.371 43.7707 131.512 43.1337 131.79 42.579C132.071 42.02 132.47 41.5823 132.986 41.266C133.501 40.9453 134.114 40.785 134.825 40.785C135.622 40.785 136.296 40.9865 136.847 41.3895C137.401 41.7882 137.763 42.3342 137.932 43.0275L136.372 43.45C136.251 43.073 136.049 42.7805 135.768 42.5725C135.486 42.3602 135.165 42.254 134.806 42.254C134.398 42.254 134.062 42.3515 133.798 42.5465C133.534 42.7372 133.339 43.0015 133.213 43.3395C133.087 43.6775 133.025 44.061 133.025 44.49C133.025 45.1573 133.174 45.6968 133.473 46.1085C133.772 46.5202 134.216 46.726 134.806 46.726C135.222 46.726 135.549 46.6307 135.787 46.44C136.03 46.2493 136.212 45.9742 136.333 45.6145L137.932 45.972C137.715 46.687 137.336 47.2373 136.795 47.623C136.253 48.0043 135.59 48.195 134.806 48.195ZM145.319 40.98V48H143.817V43.4175L140.476 48H139.222V40.98H140.723V45.4455L144.077 40.98H145.319ZM150.192 48.195C149.469 48.195 148.851 48.0347 148.34 47.714C147.828 47.389 147.436 46.947 147.163 46.388C146.895 45.829 146.758 45.1963 146.754 44.49C146.758 43.7707 146.899 43.1337 147.176 42.579C147.458 42.02 147.857 41.5823 148.372 41.266C148.888 40.9453 149.501 40.785 150.212 40.785C151.009 40.785 151.683 40.9865 152.233 41.3895C152.788 41.7882 153.15 42.3342 153.319 43.0275L151.759 43.45C151.637 43.073 151.436 42.7805 151.154 42.5725C150.873 42.3602 150.552 42.254 150.192 42.254C149.785 42.254 149.449 42.3515 149.185 42.5465C148.92 42.7372 148.725 43.0015 148.6 43.3395C148.474 43.6775 148.411 44.061 148.411 44.49C148.411 45.1573 148.561 45.6968 148.86 46.1085C149.159 46.5202 149.603 46.726 150.192 46.726C150.608 46.726 150.935 46.6307 151.174 46.44C151.416 46.2493 151.598 45.9742 151.72 45.6145L153.319 45.972C153.102 46.687 152.723 47.2373 152.181 47.623C151.64 48.0043 150.977 48.195 150.192 48.195ZM156.345 48V42.371H153.998V40.98H160.258V42.371H157.911V48H156.345ZM164.681 48.195C163.97 48.195 163.346 48.0412 162.809 47.7335C162.272 47.4258 161.851 46.999 161.548 46.453C161.249 45.907 161.099 45.2787 161.099 44.568C161.099 43.801 161.247 43.1358 161.541 42.5725C161.836 42.0048 162.246 41.565 162.77 41.253C163.294 40.941 163.901 40.785 164.59 40.785C165.318 40.785 165.935 40.9562 166.442 41.2985C166.954 41.6365 167.333 42.1153 167.58 42.735C167.827 43.3547 167.92 44.0848 167.859 44.9255H166.306V44.3535C166.302 43.5908 166.167 43.034 165.903 42.683C165.639 42.332 165.223 42.1565 164.655 42.1565C164.014 42.1565 163.537 42.3558 163.225 42.7545C162.913 43.1488 162.757 43.7273 162.757 44.49C162.757 45.2007 162.913 45.751 163.225 46.141C163.537 46.531 163.992 46.726 164.59 46.726C164.976 46.726 165.307 46.6415 165.584 46.4725C165.866 46.2992 166.083 46.05 166.234 45.725L167.781 46.193C167.513 46.8257 167.097 47.3175 166.533 47.6685C165.974 48.0195 165.357 48.195 164.681 48.195ZM162.263 44.9255V43.7425H167.092V44.9255H162.263ZM169.106 48V40.98H170.393L172.909 45.829L175.431 40.98H176.711V48H175.216V44.1325L173.221 48H172.603L170.608 44.1325V48H169.106ZM180.49 48.195C179.983 48.195 179.554 48.0997 179.203 47.909C178.852 47.714 178.585 47.4562 178.403 47.1355C178.225 46.8148 178.137 46.4617 178.137 46.076C178.137 45.738 178.193 45.4347 178.306 45.166C178.418 44.893 178.592 44.659 178.826 44.464C179.06 44.2647 179.363 44.1022 179.736 43.9765C180.017 43.8855 180.347 43.8032 180.724 43.7295C181.105 43.6558 181.517 43.5887 181.959 43.528C182.405 43.463 182.871 43.3937 183.356 43.32L182.797 43.6385C182.801 43.1532 182.693 42.7957 182.472 42.566C182.251 42.3363 181.878 42.2215 181.354 42.2215C181.038 42.2215 180.732 42.2952 180.438 42.4425C180.143 42.5898 179.937 42.8433 179.82 43.203L178.39 42.7545C178.563 42.1608 178.893 41.6842 179.378 41.3245C179.868 40.9648 180.526 40.785 181.354 40.785C181.978 40.785 182.526 40.8868 182.999 41.0905C183.475 41.2942 183.828 41.6278 184.058 42.0915C184.184 42.3385 184.26 42.592 184.286 42.852C184.312 43.1077 184.325 43.3872 184.325 43.6905V48H182.953V46.479L183.181 46.726C182.864 47.233 182.494 47.6057 182.069 47.844C181.649 48.078 181.122 48.195 180.49 48.195ZM180.802 46.947C181.157 46.947 181.46 46.8842 181.712 46.7585C181.963 46.6328 182.162 46.479 182.31 46.297C182.461 46.115 182.563 45.9438 182.615 45.7835C182.697 45.5842 182.743 45.3567 182.752 45.101C182.765 44.841 182.771 44.6308 182.771 44.4705L183.252 44.6135C182.78 44.6872 182.375 44.7522 182.037 44.8085C181.699 44.8648 181.408 44.919 181.166 44.971C180.923 45.0187 180.708 45.0728 180.522 45.1335C180.34 45.1985 180.186 45.2743 180.061 45.361C179.935 45.4477 179.837 45.5473 179.768 45.66C179.703 45.7727 179.671 45.9048 179.671 46.0565C179.671 46.2298 179.714 46.3837 179.801 46.518C179.887 46.648 180.013 46.752 180.178 46.83C180.347 46.908 180.555 46.947 180.802 46.947ZM38.8492 66.195C38.1472 66.195 37.534 66.0368 37.0097 65.7205C36.4854 65.4042 36.078 64.9687 35.7877 64.414C35.5017 63.855 35.3587 63.2137 35.3587 62.49C35.3587 61.7533 35.506 61.1077 35.8007 60.553C36.0954 59.9983 36.5049 59.565 37.0292 59.253C37.5535 58.941 38.1602 58.785 38.8492 58.785C39.5555 58.785 40.1709 58.9432 40.6952 59.2595C41.2195 59.5758 41.6269 60.0135 41.9172 60.5725C42.2075 61.1272 42.3527 61.7663 42.3527 62.49C42.3527 63.218 42.2054 63.8615 41.9107 64.4205C41.6204 64.9752 41.213 65.4107 40.6887 65.727C40.1644 66.039 39.5512 66.195 38.8492 66.195ZM38.8492 64.726C39.4732 64.726 39.9369 64.518 40.2402 64.102C40.5435 63.686 40.6952 63.1487 40.6952 62.49C40.6952 61.8097 40.5414 61.268 40.2337 60.865C39.926 60.4577 39.4645 60.254 38.8492 60.254C38.4289 60.254 38.0822 60.3493 37.8092 60.54C37.5405 60.7263 37.3412 60.9885 37.2112 61.3265C37.0812 61.6602 37.0162 62.048 37.0162 62.49C37.0162 63.1703 37.17 63.7142 37.4777 64.1215C37.7897 64.5245 38.2469 64.726 38.8492 64.726ZM49.6608 67.4755V66H43.7718V58.98H45.3383V64.531H48.3023V58.98H49.8688V64.609H51.2273V67.4755H49.6608ZM55.4568 66.195C54.7461 66.195 54.1221 66.0412 53.5848 65.7335C53.0475 65.4258 52.6271 64.999 52.3238 64.453C52.0248 63.907 51.8753 63.2787 51.8753 62.568C51.8753 61.801 52.0226 61.1358 52.3173 60.5725C52.612 60.0048 53.0215 59.565 53.5458 59.253C54.0701 58.941 54.6768 58.785 55.3658 58.785C56.0938 58.785 56.7113 58.9562 57.2183 59.2985C57.7297 59.6365 58.1088 60.1153 58.3558 60.735C58.6028 61.3547 58.696 62.0848 58.6353 62.9255H57.0818V62.3535C57.0775 61.5908 56.9431 61.034 56.6788 60.683C56.4145 60.332 55.9985 60.1565 55.4308 60.1565C54.7895 60.1565 54.3128 60.3558 54.0008 60.7545C53.6888 61.1488 53.5328 61.7273 53.5328 62.49C53.5328 63.2007 53.6888 63.751 54.0008 64.141C54.3128 64.531 54.7678 64.726 55.3658 64.726C55.7515 64.726 56.083 64.6415 56.3603 64.4725C56.642 64.2992 56.8586 64.05 57.0103 63.725L58.5573 64.193C58.2886 64.8257 57.8726 65.3175 57.3093 65.6685C56.7503 66.0195 56.1328 66.195 55.4568 66.195ZM53.0388 62.9255V61.7425H57.8683V62.9255H53.0388ZM60.0726 66V58.98H61.6391V61.749H64.7916V58.98H66.3581V66H64.7916V63.218H61.6391V66H60.0726ZM74.2565 58.98V66H72.755V61.4175L69.414 66H68.1595V58.98H69.661V63.4455L73.015 58.98H74.2565ZM76.0687 66V58.98H79.2602C79.4899 58.98 79.7044 58.993 79.9037 59.019C80.1031 59.045 80.2742 59.0775 80.4172 59.1165C80.7552 59.2162 81.0542 59.4112 81.3142 59.7015C81.5742 59.9875 81.7042 60.384 81.7042 60.891C81.7042 61.19 81.6566 61.437 81.5612 61.632C81.4659 61.8227 81.3402 61.983 81.1842 62.113C81.1106 62.1737 81.0347 62.2257 80.9567 62.269C80.8787 62.3123 80.8007 62.347 80.7227 62.373C80.8917 62.399 81.0521 62.4488 81.2037 62.5225C81.4421 62.6395 81.6414 62.8128 81.8017 63.0425C81.9664 63.2722 82.0487 63.595 82.0487 64.011C82.0487 64.4833 81.9339 64.882 81.7042 65.207C81.4789 65.5277 81.1474 65.7508 80.7097 65.8765C80.5494 65.9198 80.3652 65.9523 80.1572 65.974C79.9492 65.9913 79.7369 66 79.5202 66H76.0687ZM77.6547 64.791H79.4097C79.5007 64.791 79.6004 64.7823 79.7087 64.765C79.8171 64.7477 79.9146 64.7238 80.0012 64.6935C80.1572 64.6372 80.2699 64.5375 80.3392 64.3945C80.4129 64.2515 80.4497 64.102 80.4497 63.946C80.4497 63.7337 80.3956 63.5647 80.2872 63.439C80.1832 63.309 80.0576 63.2223 79.9102 63.179C79.8236 63.1443 79.7282 63.1248 79.6242 63.1205C79.5246 63.1118 79.4422 63.1075 79.3772 63.1075H77.6547V64.791ZM77.6547 61.879H78.9547C79.0891 61.879 79.2191 61.8725 79.3447 61.8595C79.4747 61.8422 79.5831 61.814 79.6697 61.775C79.8127 61.7187 79.9167 61.6233 79.9817 61.489C80.0511 61.3547 80.0857 61.2052 80.0857 61.0405C80.0857 60.8672 80.0467 60.7112 79.9687 60.5725C79.8951 60.4295 79.7759 60.3342 79.6112 60.2865C79.5029 60.2432 79.3707 60.2193 79.2147 60.215C79.0631 60.2107 78.9656 60.2085 78.9222 60.2085H77.6547V61.879ZM85.3064 66.195C84.7994 66.195 84.3704 66.0997 84.0194 65.909C83.6684 65.714 83.4019 65.4562 83.2199 65.1355C83.0423 64.8148 82.9534 64.4617 82.9534 64.076C82.9534 63.738 83.0098 63.4347 83.1224 63.166C83.2351 62.893 83.4084 62.659 83.6424 62.464C83.8764 62.2647 84.1798 62.1022 84.5524 61.9765C84.8341 61.8855 85.1634 61.8032 85.5404 61.7295C85.9218 61.6558 86.3334 61.5887 86.7754 61.528C87.2218 61.463 87.6876 61.3937 88.1729 61.32L87.6139 61.6385C87.6183 61.1532 87.5099 60.7957 87.2889 60.566C87.0679 60.3363 86.6953 60.2215 86.1709 60.2215C85.8546 60.2215 85.5491 60.2952 85.2544 60.4425C84.9598 60.5898 84.7539 60.8433 84.6369 61.203L83.2069 60.7545C83.3803 60.1608 83.7096 59.6842 84.1949 59.3245C84.6846 58.9648 85.3433 58.785 86.1709 58.785C86.7949 58.785 87.3431 58.8868 87.8154 59.0905C88.2921 59.2942 88.6453 59.6278 88.8749 60.0915C89.0006 60.3385 89.0764 60.592 89.1024 60.852C89.1284 61.1077 89.1414 61.3872 89.1414 61.6905V66H87.7699V64.479L87.9974 64.726C87.6811 65.233 87.3106 65.6057 86.8859 65.844C86.4656 66.078 85.9391 66.195 85.3064 66.195ZM85.6184 64.947C85.9738 64.947 86.2771 64.8842 86.5284 64.7585C86.7798 64.6328 86.9791 64.479 87.1264 64.297C87.2781 64.115 87.3799 63.9438 87.4319 63.7835C87.5143 63.5842 87.5598 63.3567 87.5684 63.101C87.5814 62.841 87.5879 62.6308 87.5879 62.4705L88.0689 62.6135C87.5966 62.6872 87.1914 62.7522 86.8534 62.8085C86.5154 62.8648 86.2251 62.919 85.9824 62.971C85.7398 63.0187 85.5253 63.0728 85.3389 63.1335C85.1569 63.1985 85.0031 63.2743 84.8774 63.361C84.7518 63.4477 84.6543 63.5473 84.5849 63.66C84.5199 63.7727 84.4874 63.9048 84.4874 64.0565C84.4874 64.2298 84.5308 64.3837 84.6174 64.518C84.7041 64.648 84.8298 64.752 84.9944 64.83C85.1634 64.908 85.3714 64.947 85.6184 64.947ZM90.8207 66V58.98H92.3872V61.749H95.5397V58.98H97.1062V66H95.5397V63.218H92.3872V66H90.8207ZM105.005 58.98V66H103.503V61.4175L100.162 66H98.9076V58.98H100.409V63.4455L103.763 58.98H105.005ZM111.029 66V63.66H109.774C109.614 63.66 109.412 63.6557 109.17 63.647C108.931 63.6383 108.708 63.6167 108.5 63.582C107.959 63.4823 107.51 63.2462 107.155 62.8735C106.799 62.4965 106.622 61.9852 106.622 61.3395C106.622 60.7068 106.791 60.1977 107.129 59.812C107.467 59.4263 107.907 59.1793 108.448 59.071C108.674 59.0233 108.905 58.9973 109.144 58.993C109.386 58.9843 109.588 58.98 109.748 58.98H112.595V66H111.029ZM106.44 66L108.117 63.3155H109.748L108.084 66H106.44ZM109.612 62.4315H111.029V60.2085H109.612C109.529 60.2085 109.43 60.2128 109.313 60.2215C109.196 60.2302 109.079 60.2497 108.962 60.28C108.836 60.319 108.717 60.3862 108.604 60.4815C108.492 60.5768 108.398 60.696 108.325 60.839C108.251 60.982 108.214 61.1445 108.214 61.3265C108.214 61.5995 108.292 61.827 108.448 62.009C108.609 62.1867 108.795 62.3058 109.007 62.3665C109.111 62.3925 109.217 62.4098 109.326 62.4185C109.438 62.4272 109.534 62.4315 109.612 62.4315ZM120.385 66.195C119.7 66.195 119.126 66.0325 118.662 65.7075C118.199 65.3825 117.85 64.9405 117.616 64.3815C117.382 63.8182 117.265 63.1877 117.265 62.49C117.265 61.7837 117.382 61.151 117.616 60.592C117.85 60.033 118.192 59.5932 118.643 59.2725C119.098 58.9475 119.659 58.785 120.326 58.785C120.989 58.785 121.564 58.9475 122.049 59.2725C122.539 59.5932 122.918 60.033 123.186 60.592C123.455 61.1467 123.589 61.7793 123.589 62.49C123.589 63.192 123.457 63.8225 123.193 64.3815C122.929 64.9405 122.556 65.3825 122.075 65.7075C121.594 66.0325 121.031 66.195 120.385 66.195ZM116.998 69.12V58.98H118.383V63.907H118.578V69.12H116.998ZM120.144 64.791C120.552 64.791 120.888 64.6892 121.152 64.4855C121.416 64.2818 121.611 64.0067 121.737 63.66C121.867 63.309 121.932 62.919 121.932 62.49C121.932 62.0653 121.867 61.6797 121.737 61.333C121.607 60.982 121.405 60.7047 121.132 60.501C120.859 60.293 120.513 60.189 120.092 60.189C119.694 60.189 119.369 60.2865 119.117 60.4815C118.866 60.6722 118.68 60.9408 118.558 61.2875C118.441 61.6298 118.383 62.0307 118.383 62.49C118.383 62.945 118.441 63.3458 118.558 63.6925C118.68 64.0392 118.868 64.31 119.124 64.505C119.384 64.6957 119.724 64.791 120.144 64.791ZM128.214 66.195C127.503 66.195 126.879 66.0412 126.342 65.7335C125.804 65.4258 125.384 64.999 125.081 64.453C124.782 63.907 124.632 63.2787 124.632 62.568C124.632 61.801 124.779 61.1358 125.074 60.5725C125.369 60.0048 125.778 59.565 126.303 59.253C126.827 58.941 127.434 58.785 128.123 58.785C128.851 58.785 129.468 58.9562 129.975 59.2985C130.486 59.6365 130.866 60.1153 131.113 60.735C131.36 61.3547 131.453 62.0848 131.392 62.9255H129.839V62.3535C129.834 61.5908 129.7 61.034 129.436 60.683C129.171 60.332 128.755 60.1565 128.188 60.1565C127.546 60.1565 127.07 60.3558 126.758 60.7545C126.446 61.1488 126.29 61.7273 126.29 62.49C126.29 63.2007 126.446 63.751 126.758 64.141C127.07 64.531 127.525 64.726 128.123 64.726C128.508 64.726 128.84 64.6415 129.117 64.4725C129.399 64.2992 129.615 64.05 129.767 63.725L131.314 64.193C131.045 64.8257 130.629 65.3175 130.066 65.6685C129.507 66.0195 128.89 66.195 128.214 66.195ZM125.796 62.9255V61.7425H130.625V62.9255H125.796ZM132.829 66V58.98H138.926V66H137.36V60.449H134.396V66H132.829ZM143.943 66.195C143.232 66.195 142.608 66.0412 142.071 65.7335C141.534 65.4258 141.113 64.999 140.81 64.453C140.511 63.907 140.362 63.2787 140.362 62.568C140.362 61.801 140.509 61.1358 140.804 60.5725C141.098 60.0048 141.508 59.565 142.032 59.253C142.556 58.941 143.163 58.785 143.852 58.785C144.58 58.785 145.198 58.9562 145.705 59.2985C146.216 59.6365 146.595 60.1153 146.842 60.735C147.089 61.3547 147.182 62.0848 147.122 62.9255H145.568V62.3535C145.564 61.5908 145.429 61.034 145.165 60.683C144.901 60.332 144.485 60.1565 143.917 60.1565C143.276 60.1565 142.799 60.3558 142.487 60.7545C142.175 61.1488 142.019 61.7273 142.019 62.49C142.019 63.2007 142.175 63.751 142.487 64.141C142.799 64.531 143.254 64.726 143.852 64.726C144.238 64.726 144.569 64.6415 144.847 64.4725C145.128 64.2992 145.345 64.05 145.497 63.725L147.044 64.193C146.775 64.8257 146.359 65.3175 145.796 65.6685C145.237 66.0195 144.619 66.195 143.943 66.195ZM141.525 62.9255V61.7425H146.355V62.9255H141.525ZM150.118 66V60.371H147.771V58.98H154.031V60.371H151.684V66H150.118ZM161.346 58.98V66H159.845V61.4175L156.504 66H155.249V58.98H156.751V63.4455L160.105 58.98H161.346ZM164.933 66V60.371H162.587V58.98H168.846V60.371H166.5V66H164.933ZM173.051 66.195C172.349 66.195 171.736 66.0368 171.212 65.7205C170.688 65.4042 170.28 64.9687 169.99 64.414C169.704 63.855 169.561 63.2137 169.561 62.49C169.561 61.7533 169.708 61.1077 170.003 60.553C170.298 59.9983 170.707 59.565 171.231 59.253C171.756 58.941 172.362 58.785 173.051 58.785C173.758 58.785 174.373 58.9432 174.897 59.2595C175.422 59.5758 175.829 60.0135 176.119 60.5725C176.41 61.1272 176.555 61.7663 176.555 62.49C176.555 63.218 176.408 63.8615 176.113 64.4205C175.823 64.9752 175.415 65.4107 174.891 65.727C174.367 66.039 173.753 66.195 173.051 66.195ZM173.051 64.726C173.675 64.726 174.139 64.518 174.442 64.102C174.746 63.686 174.897 63.1487 174.897 62.49C174.897 61.8097 174.744 61.268 174.436 60.865C174.128 60.4577 173.667 60.254 173.051 60.254C172.631 60.254 172.284 60.3493 172.011 60.54C171.743 60.7263 171.543 60.9885 171.413 61.3265C171.283 61.6602 171.218 62.048 171.218 62.49C171.218 63.1703 171.372 63.7142 171.68 64.1215C171.992 64.5245 172.449 64.726 173.051 64.726ZM181.36 66.195C180.676 66.195 180.102 66.0325 179.638 65.7075C179.174 65.3825 178.825 64.9405 178.591 64.3815C178.357 63.8182 178.24 63.1877 178.24 62.49C178.24 61.7837 178.357 61.151 178.591 60.592C178.825 60.033 179.168 59.5932 179.618 59.2725C180.073 58.9475 180.635 58.785 181.302 58.785C181.965 58.785 182.539 58.9475 183.024 59.2725C183.514 59.5932 183.893 60.033 184.162 60.592C184.431 61.1467 184.565 61.7793 184.565 62.49C184.565 63.192 184.433 63.8225 184.168 64.3815C183.904 64.9405 183.531 65.3825 183.05 65.7075C182.569 66.0325 182.006 66.195 181.36 66.195ZM177.974 69.12V58.98H179.358V63.907H179.553V69.12H177.974ZM181.12 64.791C181.527 64.791 181.863 64.6892 182.127 64.4855C182.392 64.2818 182.587 64.0067 182.712 63.66C182.842 63.309 182.907 62.919 182.907 62.49C182.907 62.0653 182.842 61.6797 182.712 61.333C182.582 60.982 182.381 60.7047 182.108 60.501C181.835 60.293 181.488 60.189 181.068 60.189C180.669 60.189 180.344 60.2865 180.093 60.4815C179.842 60.6722 179.655 60.9408 179.534 61.2875C179.417 61.6298 179.358 62.0307 179.358 62.49C179.358 62.945 179.417 63.3458 179.534 63.6925C179.655 64.0392 179.844 64.31 180.099 64.505C180.359 64.6957 180.7 64.791 181.12 64.791ZM189.098 66.195C188.396 66.195 187.783 66.0368 187.259 65.7205C186.734 65.4042 186.327 64.9687 186.037 64.414C185.751 63.855 185.608 63.2137 185.608 62.49C185.608 61.7533 185.755 61.1077 186.05 60.553C186.344 59.9983 186.754 59.565 187.278 59.253C187.803 58.941 188.409 58.785 189.098 58.785C189.805 58.785 190.42 58.9432 190.944 59.2595C191.469 59.5758 191.876 60.0135 192.166 60.5725C192.457 61.1272 192.602 61.7663 192.602 62.49C192.602 63.218 192.454 63.8615 192.16 64.4205C191.869 64.9752 191.462 65.4107 190.938 65.727C190.413 66.039 189.8 66.195 189.098 66.195ZM189.098 64.726C189.722 64.726 190.186 64.518 190.489 64.102C190.793 63.686 190.944 63.1487 190.944 62.49C190.944 61.8097 190.79 61.268 190.483 60.865C190.175 60.4577 189.714 60.254 189.098 60.254C188.678 60.254 188.331 60.3493 188.058 60.54C187.79 60.7263 187.59 60.9885 187.46 61.3265C187.33 61.6602 187.265 62.048 187.265 62.49C187.265 63.1703 187.419 63.7142 187.727 64.1215C188.039 64.5245 188.496 64.726 189.098 64.726ZM194.021 66V58.98H197.212C197.442 58.98 197.657 58.993 197.856 59.019C198.055 59.045 198.226 59.0775 198.369 59.1165C198.707 59.2162 199.006 59.4112 199.266 59.7015C199.526 59.9875 199.656 60.384 199.656 60.891C199.656 61.19 199.609 61.437 199.513 61.632C199.418 61.8227 199.292 61.983 199.136 62.113C199.063 62.1737 198.987 62.2257 198.909 62.269C198.831 62.3123 198.753 62.347 198.675 62.373C198.844 62.399 199.004 62.4488 199.156 62.5225C199.394 62.6395 199.594 62.8128 199.754 63.0425C199.919 63.2722 200.001 63.595 200.001 64.011C200.001 64.4833 199.886 64.882 199.656 65.207C199.431 65.5277 199.1 65.7508 198.662 65.8765C198.502 65.9198 198.317 65.9523 198.109 65.974C197.901 65.9913 197.689 66 197.472 66H194.021ZM195.607 64.791H197.362C197.453 64.791 197.553 64.7823 197.661 64.765C197.769 64.7477 197.867 64.7238 197.953 64.6935C198.109 64.6372 198.222 64.5375 198.291 64.3945C198.365 64.2515 198.402 64.102 198.402 63.946C198.402 63.7337 198.348 63.5647 198.239 63.439C198.135 63.309 198.01 63.2223 197.862 63.179C197.776 63.1443 197.68 63.1248 197.576 63.1205C197.477 63.1118 197.394 63.1075 197.329 63.1075H195.607V64.791ZM195.607 61.879H196.907C197.041 61.879 197.171 61.8725 197.297 61.8595C197.427 61.8422 197.535 61.814 197.622 61.775C197.765 61.7187 197.869 61.6233 197.934 61.489C198.003 61.3547 198.038 61.2052 198.038 61.0405C198.038 60.8672 197.999 60.7112 197.921 60.5725C197.847 60.4295 197.728 60.3342 197.563 60.2865C197.455 60.2432 197.323 60.2193 197.167 60.215C197.015 60.2107 196.918 60.2085 196.874 60.2085H195.607V61.879Z" fill="black"/>
</g>
<defs>
<filter id="filter0_d_45_38" x="0" y="0" width="309" height="107.865" filterUnits="userSpaceOnUse" color-interpolation-filters="sRGB">
<feFlood flood-opacity="0" result="BackgroundImageFix"/>
<feColorMatrix in="SourceAlpha" type="matrix" values="0 0 0 0 0 0 0 0 0 0 0 0 0 0 0 0 0 0 127 0" result="hardAlpha"/>
<feOffset dy="4"/>
<feGaussianBlur stdDeviation="2"/>
<feComposite in2="hardAlpha" operator="out"/>
<feColorMatrix type="matrix" values="0 0 0 0 0 0 0 0 0 0 0 0 0 0 0 0 0 0 0.25 0"/>
<feBlend mode="normal" in2="BackgroundImageFix" result="effect1_dropShadow_45_38"/>
<feBlend mode="normal" in="SourceGraphic" in2="effect1_dropShadow_45_38" result="shape"/>
</filter>
</defs>
</svg>
