<svg width="22" height="22" viewBox="0 0 22 22" fill="none" xmlns="http://www.w3.org/2000/svg">
<path fill-rule="evenodd" clip-rule="evenodd" d="M11.9168 2.75C11.9168 2.50689 11.8203 2.27373 11.6483 2.10182C11.4764 1.92991 11.2433 1.83333 11.0002 1.83333C10.757 1.83333 10.5239 1.92991 10.352 2.10182C10.1801 2.27373 10.0835 2.50689 10.0835 2.75V4.58333C10.0835 4.82645 10.1801 5.05961 10.352 5.23151C10.5239 5.40342 10.757 5.5 11.0002 5.5C11.2433 5.5 11.4764 5.40342 11.6483 5.23151C11.8203 5.05961 11.9168 4.82645 11.9168 4.58333V2.75ZM5.81458 4.51825C5.64092 4.3554 5.41071 4.2665 5.17267 4.27037C4.93462 4.27423 4.70742 4.37056 4.53914 4.53896C4.37085 4.70736 4.27469 4.93463 4.27099 5.17268C4.2673 5.41072 4.35636 5.64087 4.51933 5.81442L5.8155 7.11058C5.98838 7.27756 6.21993 7.36996 6.46028 7.36787C6.70063 7.36578 6.93054 7.26937 7.1005 7.09942C7.27045 6.92946 7.36686 6.69955 7.36895 6.4592C7.37104 6.21885 7.27864 5.9873 7.11166 5.81442L5.81458 4.51825ZM17.4819 5.81442C17.6489 5.64153 17.7413 5.40998 17.7392 5.16963C17.7371 4.92929 17.6407 4.69937 17.4707 4.52942C17.3008 4.35946 17.0709 4.26305 16.8305 4.26097C16.5902 4.25888 16.3586 4.35127 16.1857 4.51825L14.8896 5.81442C14.7226 5.9873 14.6302 6.21885 14.6323 6.4592C14.6344 6.69955 14.7308 6.92946 14.9007 7.09942C15.0707 7.26937 15.3006 7.36578 15.541 7.36787C15.7813 7.36996 16.0129 7.27756 16.1857 7.11058L17.4819 5.81442ZM11.0002 6.41667C9.78459 6.41667 8.6188 6.89955 7.75926 7.75909C6.89971 8.61864 6.41683 9.78442 6.41683 11C6.41683 12.2156 6.89971 13.3814 7.75926 14.2409C8.6188 15.1004 9.78459 15.5833 11.0002 15.5833C12.2157 15.5833 13.3815 15.1004 14.2411 14.2409C15.1006 13.3814 15.5835 12.2156 15.5835 11C15.5835 9.78442 15.1006 8.61864 14.2411 7.75909C13.3815 6.89955 12.2157 6.41667 11.0002 6.41667ZM2.75016 10.0833C2.50705 10.0833 2.27389 10.1799 2.10198 10.3518C1.93007 10.5237 1.8335 10.7569 1.8335 11C1.8335 11.2431 1.93007 11.4763 2.10198 11.6482C2.27389 11.8201 2.50705 11.9167 2.75016 11.9167H4.5835C4.82661 11.9167 5.05977 11.8201 5.23168 11.6482C5.40359 11.4763 5.50016 11.2431 5.50016 11C5.50016 10.7569 5.40359 10.5237 5.23168 10.3518C5.05977 10.1799 4.82661 10.0833 4.5835 10.0833H2.75016ZM17.4168 10.0833C17.1737 10.0833 16.9406 10.1799 16.7686 10.3518C16.5967 10.5237 16.5002 10.7569 16.5002 11C16.5002 11.2431 16.5967 11.4763 16.7686 11.6482C16.9406 11.8201 17.1737 11.9167 17.4168 11.9167H19.2502C19.4933 11.9167 19.7264 11.8201 19.8983 11.6482C20.0703 11.4763 20.1668 11.2431 20.1668 11C20.1668 10.7569 20.0703 10.5237 19.8983 10.3518C19.7264 10.1799 19.4933 10.0833 19.2502 10.0833H17.4168ZM7.11075 16.1856C7.1983 16.101 7.26813 15.9999 7.31617 15.888C7.36421 15.7762 7.3895 15.6559 7.39056 15.5342C7.39162 15.4125 7.36842 15.2918 7.32233 15.1791C7.27624 15.0665 7.20818 14.9641 7.12211 14.8781C7.03604 14.792 6.93369 14.7239 6.82104 14.6778C6.70838 14.6317 6.58768 14.6085 6.46596 14.6096C6.34425 14.6107 6.22396 14.6359 6.11213 14.684C6.00029 14.732 5.89914 14.8019 5.81458 14.8894L4.51841 16.1856C4.43086 16.2701 4.36103 16.3713 4.31299 16.4831C4.26495 16.595 4.23966 16.7153 4.2386 16.837C4.23754 16.9587 4.26074 17.0794 4.30683 17.192C4.35292 17.3047 4.42098 17.407 4.50705 17.4931C4.59312 17.5792 4.69547 17.6472 4.80812 17.6933C4.92078 17.7394 5.04148 17.7626 5.1632 17.7616C5.28491 17.7605 5.4052 17.7352 5.51703 17.6872C5.62887 17.6391 5.73002 17.5693 5.81458 17.4817L7.11075 16.1856ZM16.1857 14.8894C16.0129 14.7224 15.7813 14.63 15.541 14.6321C15.3006 14.6342 15.0707 14.7306 14.9007 14.9006C14.7308 15.0705 14.6344 15.3005 14.6323 15.5408C14.6302 15.7811 14.7226 16.0127 14.8896 16.1856L16.1857 17.4817C16.3586 17.6487 16.5902 17.7411 16.8305 17.739C17.0709 17.7369 17.3008 17.6405 17.4707 17.4706C17.6407 17.3006 17.7371 17.0707 17.7392 16.8304C17.7413 16.59 17.6489 16.3585 17.4819 16.1856L16.1857 14.8894ZM11.9168 17.4167C11.9168 17.1736 11.8203 16.9404 11.6483 16.7685C11.4764 16.5966 11.2433 16.5 11.0002 16.5C10.757 16.5 10.5239 16.5966 10.352 16.7685C10.1801 16.9404 10.0835 17.1736 10.0835 17.4167V19.25C10.0835 19.4931 10.1801 19.7263 10.352 19.8982C10.5239 20.0701 10.757 20.1667 11.0002 20.1667C11.2433 20.1667 11.4764 20.0701 11.6483 19.8982C11.8203 19.7263 11.9168 19.4931 11.9168 19.25V17.4167Z" fill="white"/>
</svg>
