<svg width="44" height="44" viewBox="0 0 44 44" fill="none" xmlns="http://www.w3.org/2000/svg">
<path fill-rule="evenodd" clip-rule="evenodd" d="M13.0049 5.44044C11.081 5.44044 9.23598 6.2047 7.8756 7.56507C6.51523 8.92544 5.75098 10.7705 5.75098 12.6944V30.8292C5.75098 32.753 6.51523 34.5981 7.8756 35.9585C9.23598 37.3188 11.081 38.0831 13.0049 38.0831H31.1397C33.0636 38.0831 34.9086 37.3188 36.269 35.9585C37.6294 34.5981 38.3936 32.753 38.3936 30.8292V12.6944C38.3936 10.7705 37.6294 8.92544 36.269 7.56507C34.9086 6.2047 33.0636 5.44044 31.1397 5.44044H13.0049ZM31.7418 18.2346C32.0087 17.8344 32.1058 17.3446 32.0116 16.8729C31.9173 16.4012 31.6396 15.9862 31.2395 15.7193C30.8393 15.4523 30.3495 15.3553 29.8778 15.4495C29.4061 15.5437 28.9911 15.8214 28.7242 16.2216C28.0822 17.0739 27.4094 17.89 26.6223 18.6154C25.7101 19.4568 24.7871 20.0879 23.8876 20.4615L23.8731 17.0159C23.8211 16.5748 23.6091 16.168 23.2771 15.8729C22.9452 15.5777 22.5165 15.4146 22.0723 15.4146C21.0894 15.4708 20.2588 16.1962 20.2588 17.2281V25.1584C16.7262 24.1791 14.8184 20.7517 14.8184 17.2281C14.8184 16.7471 14.6273 16.2858 14.2872 15.9457C13.9471 15.6057 13.4859 15.4146 13.0049 15.4146C12.5239 15.4146 12.0627 15.6057 11.7226 15.9457C11.3825 16.2858 11.1914 16.7471 11.1914 17.2281C11.1914 23.8146 15.7433 29.0157 22.0723 29.0157C22.5533 29.0157 23.0145 28.8246 23.3546 28.4845C23.6947 28.1444 23.8858 27.6832 23.8858 27.2022V24.3677C26.3013 24.56 28.6444 26.2665 29.5185 28.0128C29.6203 28.2333 29.7654 28.4311 29.9451 28.5944C30.1249 28.7578 30.3356 28.8833 30.5648 28.9637C30.794 29.044 31.037 29.0775 31.2793 29.0622C31.5217 29.0469 31.7586 28.983 31.9758 28.8744C32.193 28.7658 32.3862 28.6146 32.5439 28.4299C32.7016 28.2452 32.8206 28.0307 32.8938 27.7992C32.9671 27.5676 32.9931 27.3237 32.9702 27.0819C32.9474 26.8401 32.8762 26.6054 32.761 26.3916C31.8941 24.6561 30.2765 23.033 28.2853 21.9739C28.5537 21.7539 28.8197 21.523 29.0832 21.2812C30.0824 20.3701 30.9744 19.3479 31.7418 18.2346Z" fill="black"/>
</svg>
