<svg width="944" height="537" viewBox="0 0 944 537" fill="none" xmlns="http://www.w3.org/2000/svg">
<path fill-rule="evenodd" clip-rule="evenodd" d="M-283.124 211.394L-205.275 167.366C-127.427 123.338 29.0381 36.051 123.797 8.93322C219.324 -17.4159 253.144 16.4044 226.795 111.932C199.677 206.69 112.39 363.155 125.898 417.288C139.405 471.421 255.245 424.759 278.909 468.736C303.342 513.481 235.598 648.865 219.406 734.236C202.444 818.838 237.033 853.427 331.792 826.309C426.55 799.191 583.015 711.904 626.992 735.568C671.737 760.001 603.994 895.385 638.583 929.974C672.403 963.794 808.556 896.819 876.248 862.948L943.94 829.076L517.373 1255.64L500.463 1238.73C483.553 1221.82 448.964 1187.23 415.143 1153.41C380.554 1118.82 346.734 1085 312.145 1050.42C278.325 1016.59 243.736 982.006 209.915 948.185C176.095 914.365 141.506 879.776 107.686 845.956C73.0968 811.367 39.2764 777.546 4.68746 742.958C-29.1329 709.137 -63.7219 674.548 -97.5422 640.728C-131.363 606.908 -165.952 572.319 -199.772 538.498C-234.361 503.909 -268.181 470.089 -302.77 435.5C-336.59 401.68 -371.179 367.091 -388.09 350.18L-405 333.27L-283.124 211.394Z" fill="#466EE5"/>
</svg>
