<svg width="400" height="400" viewBox="0 0 400 400" fill="none" xmlns="http://www.w3.org/2000/svg">
<rect width="400" height="400" rx="15" fill="#E8EDFF"/>
<path d="M40.47 63L52.0085 45.8685L40.7755 29.16H46.7915L55.04 41.709L63.2415 29.16H69.281L58.048 45.8685L69.563 63H63.547L55.04 50.0515L46.5095 63H40.47ZM94.6926 37.62V63H89.9691V45.3515L77.2791 63H73.2841V37.62H78.0076V54.916L90.7211 37.62H94.6926ZM101.236 63V37.62H105.349L114.725 56.232L124.078 37.62H128.214V63H123.467V47.678L115.83 63H113.597L105.96 47.678V63H101.236ZM156.196 37.62V63H151.473V45.3515L138.783 63H134.788V37.62H139.511V54.916L152.225 37.62H156.196ZM178.203 63V54.1875H173.174C172.579 54.1875 171.866 54.164 171.036 54.117C170.221 54.07 169.453 53.9838 168.733 53.8585C166.837 53.5138 165.255 52.6913 163.986 51.391C162.717 50.075 162.082 48.2655 162.082 45.9625C162.082 43.7378 162.677 41.9518 163.868 40.6045C165.074 39.2415 166.602 38.3642 168.451 37.9725C169.25 37.7845 170.064 37.6827 170.895 37.667C171.741 37.6357 172.453 37.62 173.033 37.62H183.115L183.138 63H178.203ZM161.354 63L167.769 52.9655H172.963L166.594 63H161.354ZM172.751 50.2395H178.203V41.568H172.751C172.406 41.568 171.983 41.5837 171.482 41.615C170.981 41.6463 170.495 41.7325 170.025 41.8735C169.539 42.0145 169.069 42.2652 168.615 42.6255C168.176 42.9858 167.816 43.448 167.534 44.012C167.252 44.5603 167.111 45.1948 167.111 45.9155C167.111 46.9965 167.417 47.8895 168.028 48.5945C168.639 49.2838 169.367 49.7382 170.213 49.9575C170.667 50.0828 171.122 50.1612 171.576 50.1925C172.03 50.2238 172.422 50.2395 172.751 50.2395Z" fill="black"/>
<g clip-path="url(#clip0_602_367)">
<path d="M213.163 94.1372C213.417 94.8692 213.83 95.5366 214.37 96.0922C214.911 96.6479 215.567 97.0783 216.293 97.3533C217.018 97.6282 217.795 97.7409 218.568 97.6834C219.342 97.626 220.094 97.3997 220.77 97.0207L266.793 111.768L282.024 99.8301L222.662 89.4464C221.949 88.353 220.859 87.5588 219.6 87.2142C218.34 86.8697 216.997 86.9987 215.827 87.5769C214.656 88.1551 213.738 89.1423 213.247 90.3514C212.756 91.5605 212.726 92.9075 213.163 94.1372Z" fill="#FFB6B6"/>
<path d="M298.405 113.845C298.405 113.845 297.988 112.824 292.481 115.047C285.646 117.806 249.255 115.961 247.238 106.049C246.595 106.713 245.748 107.144 244.832 107.274C243.916 107.404 242.982 107.227 242.179 106.769L247.868 94.295C250.829 93.3493 252.438 92.6497 252.629 93.8544L261.533 93.3312L297.591 99.3948L298.587 111.829L298.405 113.845Z" fill="#F2F2F2"/>
<path d="M287.065 101.34L304.972 99.7909L321.76 107.457L331.187 237.73L294.193 220.639L278.32 225.026L287.065 101.34Z" fill="#F2F2F2"/>
<path d="M331.121 328.699L324.329 328.699L321.098 302.526L331.122 302.527L331.121 328.699Z" fill="#FFB6B6"/>
<path d="M332.853 335.277L310.952 335.276V334.999C310.952 332.741 311.85 330.575 313.449 328.978C315.048 327.381 317.216 326.483 319.477 326.483L323.478 323.451L330.942 326.484L332.854 326.484L332.853 335.277Z" fill="#2F2E41"/>
<path d="M304.8 324.423L298.174 325.918L289.251 301.099L299.03 298.893L304.8 324.423Z" fill="#FFB6B6"/>
<path d="M307.939 330.458L286.576 335.277L286.515 335.007C286.017 332.804 286.416 330.493 287.623 328.584C288.83 326.674 290.747 325.322 292.952 324.824L292.953 324.824L296.187 320.986L304.136 322.302L306.001 321.881L307.939 330.458Z" fill="#2F2E41"/>
<path d="M339.723 168.695C342.908 178.29 342.571 188.705 338.958 199.883L337.413 262.818C339.967 265.626 340.357 290.746 336.424 298.943C331.171 309.889 336.002 311.352 332.289 318.614H321.519L316.541 285.715L316.186 259.049C314.756 255.666 315.93 243.759 315.93 243.759L315.517 219.069L296.098 262.32C304.896 269.843 304.104 294.143 304.249 304.921L307.133 317.64L293.878 318.824L288.029 301.576L281.452 290.947C278.1 272.115 277.107 258.289 279.964 252.642L299.458 180.188L339.723 168.695Z" fill="#2F2E41"/>
<path d="M341.104 165.493L339.328 161.945C337.155 148.494 335.008 135.948 337.925 124.663C338.108 114.812 335.06 105.556 326.597 100.502L322.779 98.2214L320.846 93.3243L303.05 93.7586L302.998 100.178L296.624 110.333V110.375L297.022 165.634L298.782 171.337L296.127 177.971L297.536 182.203L332.62 176.6L336.699 175.946C337.17 175.795 337.625 175.597 338.056 175.355C339.52 174.543 340.667 173.262 341.313 171.719C341.35 171.63 341.381 171.546 341.413 171.457C341.688 170.737 341.847 169.977 341.884 169.207C341.948 167.923 341.679 166.643 341.104 165.493Z" fill="#3F3D56"/>
<path opacity="0.2" d="M341.884 169.207C341.847 169.977 341.687 170.737 341.412 171.457L338.055 175.355C337.624 175.597 337.17 175.795 336.699 175.946L332.619 176.6L338.521 165.513L325.549 137.141L341.884 169.207Z" fill="black"/>
<path d="M66.2525 283.838C62.1305 283.88 58.0117 283.595 53.9348 282.986C50.1387 282.344 48.2139 281.433 48.2139 280.278L48.2153 280.257L55.2968 226.395L51.7303 216.181C51.5805 215.753 51.5363 215.294 51.6014 214.844C51.6665 214.395 51.8389 213.968 52.1041 213.599C52.3693 213.23 52.7195 212.93 53.1251 212.725C53.5307 212.52 53.9798 212.415 54.4345 212.42L77.8888 212.664C78.3351 212.669 78.774 212.778 79.1697 212.985C79.5654 213.191 79.9067 213.488 80.1658 213.851C80.4249 214.214 80.5944 214.633 80.6606 215.074C80.7267 215.515 80.6876 215.965 80.5465 216.388L77.2079 226.394L84.2897 280.257C84.2911 283.088 72.9523 283.838 66.2525 283.838Z" fill="#F2F2F2"/>
<path d="M64.3415 276.256H52.8848V276.899H64.3415V276.256Z" fill="#CCCCCC"/>
<path d="M64.3415 272.394H52.8848V273.038H64.3415V272.394Z" fill="#CCCCCC"/>
<path d="M64.3415 268.533H52.8848V269.176H64.3415V268.533Z" fill="#CCCCCC"/>
<path d="M64.3415 264.671H52.8848V265.315H64.3415V264.671Z" fill="#CCCCCC"/>
<path d="M64.3415 260.81H52.8848V261.453H64.3415V260.81Z" fill="#CCCCCC"/>
<path d="M169.331 283.838C165.209 283.88 161.09 283.595 157.013 282.986C153.217 282.344 151.292 281.433 151.292 280.278L151.293 280.257L158.375 226.395L154.808 216.181C154.659 215.753 154.614 215.294 154.68 214.844C154.745 214.395 154.917 213.968 155.182 213.599C155.447 213.23 155.798 212.93 156.203 212.725C156.609 212.52 157.058 212.415 157.513 212.42L180.967 212.664C181.413 212.669 181.852 212.778 182.248 212.985C182.644 213.191 182.985 213.488 183.244 213.851C183.503 214.214 183.673 214.633 183.739 215.074C183.805 215.515 183.766 215.965 183.625 216.388L180.286 226.394L187.368 280.257C187.369 283.088 176.03 283.838 169.331 283.838Z" fill="#F2F2F2"/>
<path d="M167.42 276.256H155.963V276.899H167.42V276.256Z" fill="#CCCCCC"/>
<path d="M167.42 272.394H155.963V273.038H167.42V272.394Z" fill="#CCCCCC"/>
<path d="M167.42 268.533H155.963V269.176H167.42V268.533Z" fill="#CCCCCC"/>
<path d="M167.42 264.671H155.963V265.315H167.42V264.671Z" fill="#CCCCCC"/>
<path d="M167.42 260.81H155.963V261.453H167.42V260.81Z" fill="#CCCCCC"/>
<path d="M121.012 283.838C116.89 283.88 112.771 283.595 108.695 282.986C104.898 282.344 102.974 281.433 102.974 280.278L102.975 280.257L110.057 226.395L106.49 216.181C106.34 215.753 106.296 215.294 106.361 214.844C106.426 214.395 106.599 213.968 106.864 213.599C107.129 213.23 107.479 212.93 107.885 212.725C108.291 212.52 108.74 212.415 109.194 212.42L132.649 212.664C133.095 212.669 133.534 212.778 133.93 212.985C134.325 213.191 134.667 213.488 134.926 213.851C135.185 214.214 135.354 214.633 135.42 215.074C135.486 215.515 135.447 215.965 135.306 216.388L131.968 226.394L139.049 280.257C139.051 283.088 127.712 283.838 121.012 283.838Z" fill="#F2F2F2"/>
<path d="M119.101 276.256H107.645V276.899H119.101V276.256Z" fill="#CCCCCC"/>
<path d="M119.101 272.394H107.645V273.038H119.101V272.394Z" fill="#CCCCCC"/>
<path d="M119.101 268.533H107.645V269.176H119.101V268.533Z" fill="#CCCCCC"/>
<path d="M119.101 264.671H107.645V265.315H119.101V264.671Z" fill="#CCCCCC"/>
<path d="M119.101 260.81H107.645V261.453H119.101V260.81Z" fill="#CCCCCC"/>
<path d="M197.194 287.84H175.29V251.156H197.194C198.39 251.156 199.537 250.682 200.382 249.837C201.228 248.992 201.703 247.846 201.703 246.651C201.703 245.456 201.228 244.31 200.382 243.466C199.537 242.621 198.39 242.146 197.194 242.146H44.5096C43.3136 242.146 42.1666 242.621 41.3208 243.466C40.4751 244.31 40 245.456 40 246.651C40 247.846 40.4751 248.992 41.3208 249.837C42.1666 250.682 43.3136 251.156 44.5096 251.156H63.1925V287.84H44.5096C43.3136 287.84 42.1666 288.315 41.3208 289.16C40.4751 290.005 40 291.151 40 292.345C40 293.54 40.4751 294.686 41.3208 295.531C42.1666 296.376 43.3136 296.85 44.5096 296.85H197.194C197.786 296.851 198.373 296.735 198.921 296.509C199.469 296.283 199.966 295.951 200.386 295.533C200.805 295.114 201.137 294.617 201.364 294.071C201.591 293.524 201.708 292.937 201.708 292.345C201.708 291.753 201.591 291.167 201.364 290.62C201.137 290.073 200.805 289.577 200.386 289.158C199.966 288.74 199.469 288.408 198.921 288.182C198.373 287.956 197.786 287.84 197.194 287.84ZM72.2118 287.84V251.156H166.27V287.84H72.2118Z" fill="#CCCCCC"/>
<path d="M193.646 335.337C182.443 335.337 171.994 334.614 164.225 333.301C154.641 331.681 149.981 329.328 149.981 326.106L149.987 326.005L166.809 198.045L158.387 173.926C157.982 172.792 157.861 171.576 158.034 170.384C158.206 169.192 158.667 168.06 159.377 167.086C160.07 166.097 160.996 165.294 162.075 164.749C163.153 164.205 164.349 163.935 165.557 163.963L221.327 164.544C222.509 164.556 223.672 164.847 224.72 165.393C225.768 165.94 226.672 166.726 227.358 167.687C228.044 168.649 228.493 169.759 228.668 170.927C228.844 172.095 228.74 173.288 228.366 174.408L220.482 198.036L237.307 326.007V326.056C237.309 329.53 232.035 331.996 221.182 333.596C210.52 335.168 198.374 335.337 193.646 335.337Z" fill="white"/>
<path d="M193.646 335.337C182.443 335.337 171.994 334.614 164.225 333.301C154.641 331.681 149.981 329.328 149.981 326.106L149.987 326.005L166.809 198.045L158.387 173.926C157.982 172.792 157.861 171.576 158.034 170.384C158.206 169.192 158.667 168.06 159.377 167.086C160.07 166.097 160.996 165.294 162.075 164.749C163.153 164.205 164.349 163.935 165.557 163.963L221.327 164.544C222.509 164.556 223.672 164.847 224.72 165.393C225.768 165.94 226.672 166.726 227.358 167.687C228.044 168.649 228.493 169.759 228.668 170.927C228.844 172.095 228.74 173.288 228.366 174.408L220.482 198.036L237.307 326.007V326.056C237.309 329.53 232.035 331.996 221.182 333.596C210.52 335.168 198.374 335.337 193.646 335.337ZM165.403 165.492C164.465 165.491 163.54 165.717 162.707 166.15C161.875 166.583 161.159 167.21 160.621 167.979C160.057 168.754 159.69 169.654 159.553 170.603C159.415 171.551 159.512 172.519 159.833 173.422L168.375 197.883L168.352 198.063L151.511 326.156C151.514 327.411 153.198 329.885 164.481 331.791C172.168 333.091 182.525 333.807 193.646 333.807C203.421 333.807 213.631 333.162 220.958 332.082C230.318 330.702 235.71 328.525 235.775 326.102L218.917 197.886L226.913 173.924C227.21 173.033 227.293 172.083 227.153 171.154C227.014 170.225 226.656 169.341 226.11 168.576C225.564 167.811 224.845 167.185 224.011 166.751C223.177 166.316 222.252 166.084 221.311 166.074L165.533 165.494C165.49 165.493 165.446 165.492 165.403 165.492Z" fill="#3F3D56"/>
<path opacity="0.5" d="M225.437 310.45H161.855L171.935 242.364L172.209 240.487L176.408 212.142C176.664 210.413 178.657 211.756 180.066 210.72C188.813 204.285 197.665 204.098 206.594 210.3C207.974 211.259 209.88 210.137 210.138 211.797L214.549 240.227L214.975 242.977L225.437 310.45Z" fill="#466EE5"/>
<path d="M217.59 319.984H169.635C168.378 319.984 167.135 319.713 165.992 319.191C164.849 318.668 163.832 317.905 163.011 316.954C162.19 316.003 161.583 314.887 161.233 313.681C160.882 312.474 160.796 311.207 160.98 309.965L174.991 215.316C175.063 214.832 175.262 214.375 175.568 213.993C175.873 213.61 176.275 213.315 176.731 213.138C177.187 212.96 177.683 212.906 178.167 212.981C178.651 213.056 179.106 213.257 179.487 213.565C188.026 220.398 197.333 220.244 207.148 213.109C207.529 212.831 207.975 212.657 208.443 212.602C208.911 212.548 209.386 212.615 209.82 212.799C210.264 212.98 210.652 213.274 210.949 213.65C211.245 214.027 211.438 214.474 211.51 214.947L226.237 309.906C226.43 311.152 226.351 312.425 226.005 313.637C225.659 314.85 225.055 315.974 224.234 316.931C223.412 317.889 222.393 318.657 221.247 319.184C220.1 319.711 218.853 319.984 217.59 319.984Z" fill="#466EE5"/>
<path d="M198.294 308.888H171.048V310.418H198.294V308.888Z" fill="white"/>
<path d="M198.294 299.704H171.048V301.235H198.294V299.704Z" fill="white"/>
<path d="M198.294 290.521H171.048V292.052H198.294V290.521Z" fill="white"/>
<path d="M198.294 281.338H171.048V282.869H198.294V281.338Z" fill="white"/>
<path d="M198.294 272.155H171.048V273.685H198.294V272.155Z" fill="white"/>
<path d="M216.26 248.064C214.147 250.16 211.605 251.775 208.808 252.797C206.012 253.82 203.027 254.226 200.058 253.987C196.673 253.681 193.585 252.418 190.613 250.827C187.541 249.181 184.569 247.215 181.168 246.296C178.188 245.493 174.656 245.386 172.098 247.375C171.889 247.537 171.633 247.628 171.369 247.635C171.104 247.642 170.844 247.564 170.627 247.414L170.918 245.424C173.768 243.434 177.23 243.128 180.624 243.809C187.457 245.187 192.643 250.834 199.645 251.646C202.665 251.985 205.723 251.57 208.542 250.437C211.362 249.305 213.857 247.49 215.801 245.156L215.808 245.148L216.26 248.064Z" fill="white"/>
<path d="M304.872 99.7699L322.779 98.2213L339.567 105.888L348.994 236.161L311.999 219.069L296.127 223.456L304.872 99.7699Z" fill="#F2F2F2"/>
<path d="M216.493 99.6094C218.228 99.6094 219.635 98.204 219.635 96.4703C219.635 94.7366 218.228 93.3312 216.493 93.3312C214.757 93.3312 213.351 94.7366 213.351 96.4703C213.351 98.204 214.757 99.6094 216.493 99.6094Z" fill="#466EE5"/>
<path d="M211.256 137.802C212.991 137.802 214.398 136.396 214.398 134.663C214.398 132.929 212.991 131.524 211.256 131.524C209.52 131.524 208.113 132.929 208.113 134.663C208.113 136.396 209.52 137.802 211.256 137.802Z" fill="#466EE5"/>
<path d="M194.497 160.299C196.232 160.299 197.639 158.893 197.639 157.16C197.639 155.426 196.232 154.021 194.497 154.021C192.761 154.021 191.354 155.426 191.354 157.16C191.354 158.893 192.761 160.299 194.497 160.299Z" fill="#466EE5"/>
<path d="M272.942 184.621V150.922C272.943 150.24 273.215 149.586 273.697 149.104C274.18 148.622 274.835 148.351 275.518 148.35H300.993C301.676 148.351 302.33 148.622 302.813 149.104C303.296 149.586 303.567 150.24 303.568 150.922V184.621C303.567 185.303 303.296 185.956 302.813 186.439C302.33 186.921 301.676 187.192 300.993 187.193H275.518C274.835 187.192 274.18 186.921 273.697 186.439C273.215 185.956 272.943 185.303 272.942 184.621Z" fill="#E6E6E6"/>
<path d="M274.896 174.442V152.778C274.897 152.139 275.151 151.527 275.604 151.075C276.056 150.624 276.669 150.369 277.308 150.369H299.202C299.842 150.369 300.455 150.624 300.907 151.075C301.359 151.527 301.613 152.139 301.614 152.778V182.765C301.613 183.404 301.359 184.016 300.907 184.468C300.455 184.919 299.842 185.173 299.202 185.174H285.639C282.791 185.171 280.061 184.039 278.047 182.027C276.033 180.015 274.9 177.288 274.896 174.442Z" fill="white"/>
<path d="M278.441 158.823C278.442 158.199 278.691 157.6 279.132 157.159C279.574 156.717 280.173 156.469 280.798 156.468H295.986C296.611 156.468 297.21 156.716 297.652 157.158C298.094 157.599 298.343 158.198 298.343 158.823C298.343 159.447 298.094 160.046 297.652 160.487C297.21 160.929 296.611 161.177 295.986 161.177H280.798C280.173 161.176 279.574 160.928 279.132 160.487C278.691 160.045 278.442 159.447 278.441 158.823Z" fill="#E6E6E6"/>
<path d="M278.441 166.147C278.442 165.523 278.691 164.925 279.132 164.483C279.574 164.042 280.173 163.794 280.798 163.793H295.986C296.611 163.793 297.21 164.041 297.652 164.483C298.094 164.924 298.343 165.523 298.343 166.147C298.343 166.772 298.094 167.371 297.652 167.812C297.21 168.254 296.611 168.502 295.986 168.502H280.798C280.173 168.501 279.574 168.253 279.132 167.811C278.691 167.37 278.442 166.772 278.441 166.147Z" fill="#E6E6E6"/>
<path d="M278.441 173.472C278.442 172.848 278.691 172.249 279.132 171.808C279.574 171.366 280.173 171.118 280.798 171.118H295.986C296.611 171.118 297.21 171.366 297.652 171.807C298.094 172.249 298.343 172.847 298.343 173.472C298.343 174.096 298.094 174.695 297.652 175.137C297.21 175.578 296.611 175.826 295.986 175.826H280.798C280.173 175.826 279.574 175.577 279.132 175.136C278.691 174.695 278.442 174.096 278.441 173.472Z" fill="#E6E6E6"/>
<path d="M293.695 190.434C294.412 190.138 295.055 189.689 295.58 189.118C296.104 188.546 296.496 187.867 296.729 187.128C296.963 186.389 297.031 185.608 296.929 184.839C296.827 184.071 296.558 183.334 296.14 182.681L314.612 165.918L321.092 140.878L309.591 139.922L306.076 159.572L288.462 181.23C287.41 182.003 286.679 183.135 286.407 184.412C286.135 185.688 286.341 187.019 286.986 188.154C287.631 189.289 288.67 190.147 289.907 190.568C291.143 190.988 292.491 190.94 293.695 190.434Z" fill="#FFB6B6"/>
<path d="M322.864 118.264C322.864 118.264 325.667 118.305 324.404 124.103C323.393 128.744 319.559 154.864 316.498 160.708C317.199 161.312 317.678 162.131 317.861 163.038C318.044 163.944 317.919 164.885 317.508 165.713L304.716 160.755C303.601 157.856 305.47 156.955 306.663 156.695L306.429 147.601L308.263 124.422L320.838 118.198L322.864 118.264Z" fill="#F2F2F2"/>
<path d="M326.632 75.353C326.035 79.7006 323.735 83.6338 320.237 86.2883C316.739 88.9428 312.329 90.1014 307.976 89.5096C303.624 88.9178 299.684 86.624 297.024 83.1322C294.363 79.6403 293.199 75.2362 293.787 70.8873L293.819 70.6523C294.506 66.3618 296.853 62.513 300.355 59.936C303.857 57.359 308.232 56.2604 312.538 56.8772C316.843 57.494 320.733 59.7767 323.369 63.2329C326.004 66.6892 327.175 71.0419 326.627 75.3523L326.632 75.353Z" fill="#FFB8B8"/>
<path d="M322.413 83.881C323.264 82.1539 324.139 80.2995 323.899 78.3893C323.66 76.4791 321.785 74.6532 319.944 75.2209C318.843 75.5604 318.01 76.6466 316.859 76.7022C315.276 76.7787 314.368 74.968 313.875 73.4626L311.867 67.3313C309.939 68.8323 307.703 69.8896 305.319 70.4278C302.935 70.966 300.462 70.9718 298.075 70.4448C296.211 70.019 294.328 69.189 293.234 67.6219C292.141 66.0549 292.147 63.6241 293.647 62.4391C294.383 61.8581 295.361 61.6374 296.064 61.0174C296.5 60.6328 296.8 60.1182 296.921 59.5497C297.041 58.9813 296.975 58.3892 296.733 57.8612C296.49 57.3331 296.084 56.897 295.574 56.6176C295.064 56.3381 294.478 56.23 293.901 56.3094L298.957 55.6782L297.45 52.957C298.536 53.8116 300.046 53.9265 301.406 53.6819C302.766 53.4373 304.047 52.8779 305.377 52.5048C311.765 50.7139 319.188 53.8278 322.38 59.6373C323.624 59.2223 324.965 59.1947 326.225 59.5582C327.485 59.9216 328.605 60.659 329.436 61.6725C330.789 63.3882 331.157 65.6779 331.209 67.8616C331.308 72.1674 330.368 76.4336 328.469 80.3003C327.925 81.5285 327.143 82.637 326.168 83.5621C325.677 84.0208 325.091 84.3666 324.452 84.5753C323.814 84.784 323.137 84.8505 322.47 84.7702" fill="#2F2E41"/>
</g>
<defs>
<clipPath id="clip0_602_367">
<rect width="334" height="284" fill="white" transform="translate(40 52)"/>
</clipPath>
</defs>
</svg>
