<svg width="1920" height="244" viewBox="0 0 1920 244" fill="none" xmlns="http://www.w3.org/2000/svg">
<path opacity="0.63" d="M1428.5 31.9251C1658.04 -35.7419 1853.68 53.1082 1920 81.3028V243.925H0V44.0456C78.1463 89.694 257.763 138.176 500.5 58.4252C743.237 -21.3251 898.178 -3.90944 942 20.4251C1018.75 47.1094 1198.96 99.5922 1428.5 31.9251Z" fill="#466EE5"/>
<path opacity="0.7" d="M1434.13 81.303C1663.67 13.636 1853.68 53.1084 1920 81.303V243.925H0V44.0458C78.1463 89.6942 295.123 161.053 537.86 81.303C780.597 1.55268 928.925 30.2842 972.747 54.6188C1049.5 81.303 1204.59 148.97 1434.13 81.303Z" fill="#466EE5"/>
<path d="M1440.5 97.425C1670.04 29.758 1853.68 24.2307 1920 52.4253V243.85H0V81.2276C78.1463 126.876 256.263 177.176 499 97.4256C741.737 17.6752 899.678 56.8929 943.5 81.2275C1020.25 107.912 1210.96 165.092 1440.5 97.425Z" fill="url(#paint0_linear_532_23)"/>
<path d="M41.9803 223C41.9803 222.683 42.0083 222.365 42.0643 222.048C42.1203 221.721 42.2276 221.399 42.3863 221.082C42.5449 220.765 42.7783 220.461 43.0863 220.172C43.3943 219.873 43.8003 219.593 44.3043 219.332C44.5749 219.192 44.8549 219.057 45.1443 218.926C45.4336 218.786 45.7043 218.637 45.9563 218.478C46.2176 218.31 46.4229 218.123 46.5723 217.918C46.7309 217.703 46.8103 217.451 46.8103 217.162C46.8103 216.929 46.7403 216.7 46.6003 216.476C46.4696 216.252 46.2643 216.07 45.9843 215.93C45.7136 215.79 45.3729 215.72 44.9623 215.72C44.6636 215.72 44.3929 215.762 44.1503 215.846C43.9076 215.93 43.6929 216.037 43.5063 216.168C43.3196 216.289 43.1609 216.415 43.0303 216.546C42.8996 216.667 42.7923 216.77 42.7083 216.854L42.1063 216.196C42.1529 216.14 42.2556 216.042 42.4143 215.902C42.5823 215.753 42.7923 215.599 43.0443 215.44C43.3056 215.281 43.6089 215.146 43.9543 215.034C44.3089 214.922 44.6963 214.866 45.1163 214.866C45.6856 214.866 46.1709 214.969 46.5723 215.174C46.9829 215.37 47.2956 215.636 47.5103 215.972C47.7249 216.308 47.8323 216.672 47.8323 217.064C47.8323 217.447 47.7483 217.778 47.5803 218.058C47.4216 218.329 47.2116 218.567 46.9503 218.772C46.6983 218.968 46.4323 219.141 46.1523 219.29C45.8816 219.43 45.6343 219.551 45.4103 219.654C44.9716 219.859 44.6029 220.065 44.3043 220.27C44.0056 220.475 43.7676 220.685 43.5903 220.9C43.4129 221.105 43.2729 221.311 43.1703 221.516C43.0769 221.712 43.0116 221.917 42.9743 222.132H47.9863V223H41.9803ZM56.463 218.898C56.463 219.719 56.309 220.452 56.001 221.096C55.7024 221.731 55.287 222.23 54.755 222.594C54.223 222.958 53.621 223.14 52.949 223.14C52.277 223.14 51.675 222.958 51.143 222.594C50.6204 222.23 50.205 221.731 49.897 221.096C49.589 220.452 49.435 219.719 49.435 218.898C49.435 218.077 49.589 217.349 49.897 216.714C50.205 216.07 50.6204 215.566 51.143 215.202C51.675 214.829 52.277 214.642 52.949 214.642C53.621 214.642 54.223 214.829 54.755 215.202C55.287 215.566 55.7024 216.07 56.001 216.714C56.309 217.349 56.463 218.077 56.463 218.898ZM55.497 218.898C55.497 218.235 55.3897 217.652 55.175 217.148C54.9604 216.644 54.6617 216.252 54.279 215.972C53.8964 215.683 53.453 215.538 52.949 215.538C52.445 215.538 52.0017 215.683 51.619 215.972C51.2364 216.252 50.933 216.644 50.709 217.148C50.4944 217.652 50.387 218.235 50.387 218.898C50.387 219.561 50.4944 220.144 50.709 220.648C50.933 221.152 51.2364 221.544 51.619 221.824C52.0017 222.104 52.445 222.244 52.949 222.244C53.453 222.244 53.8964 222.104 54.279 221.824C54.6617 221.535 54.9604 221.143 55.175 220.648C55.3897 220.144 55.497 219.561 55.497 218.898ZM57.8533 223C57.8533 222.683 57.8813 222.365 57.9373 222.048C57.9933 221.721 58.1006 221.399 58.2593 221.082C58.418 220.765 58.6513 220.461 58.9593 220.172C59.2673 219.873 59.6733 219.593 60.1773 219.332C60.448 219.192 60.728 219.057 61.0173 218.926C61.3066 218.786 61.5773 218.637 61.8293 218.478C62.0906 218.31 62.296 218.123 62.4453 217.918C62.604 217.703 62.6833 217.451 62.6833 217.162C62.6833 216.929 62.6133 216.7 62.4733 216.476C62.3426 216.252 62.1373 216.07 61.8573 215.93C61.5866 215.79 61.246 215.72 60.8353 215.72C60.5366 215.72 60.266 215.762 60.0233 215.846C59.7806 215.93 59.566 216.037 59.3793 216.168C59.1926 216.289 59.034 216.415 58.9033 216.546C58.7726 216.667 58.6653 216.77 58.5813 216.854L57.9793 216.196C58.026 216.14 58.1286 216.042 58.2873 215.902C58.4553 215.753 58.6653 215.599 58.9173 215.44C59.1786 215.281 59.482 215.146 59.8273 215.034C60.182 214.922 60.5693 214.866 60.9893 214.866C61.5586 214.866 62.044 214.969 62.4453 215.174C62.856 215.37 63.1686 215.636 63.3833 215.972C63.598 216.308 63.7053 216.672 63.7053 217.064C63.7053 217.447 63.6213 217.778 63.4533 218.058C63.2946 218.329 63.0846 218.567 62.8233 218.772C62.5713 218.968 62.3053 219.141 62.0253 219.29C61.7546 219.43 61.5073 219.551 61.2833 219.654C60.8446 219.859 60.476 220.065 60.1773 220.27C59.8786 220.475 59.6406 220.685 59.4633 220.9C59.286 221.105 59.146 221.311 59.0433 221.516C58.95 221.712 58.8846 221.917 58.8473 222.132H63.8593V223H57.8533ZM69.5221 224.778V222.286H64.8601V221.446L69.8301 215.006H70.4741V221.418H71.7061V222.286H70.4741V224.778H69.5221ZM65.8681 221.418H69.6201V216.504L65.8681 221.418ZM84.471 220.438C84.471 220.933 84.345 221.376 84.093 221.768C83.841 222.151 83.5004 222.454 83.071 222.678C82.651 222.893 82.189 223 81.685 223H76.995V213.06H81.783C82.2497 213.06 82.651 213.186 82.987 213.438C83.3324 213.681 83.5937 213.998 83.771 214.39C83.9577 214.773 84.051 215.174 84.051 215.594C84.051 216.089 83.925 216.546 83.673 216.966C83.421 217.386 83.071 217.699 82.623 217.904C83.1924 218.072 83.6404 218.385 83.967 218.842C84.303 219.299 84.471 219.831 84.471 220.438ZM83.491 220.27C83.491 219.934 83.4164 219.626 83.267 219.346C83.1177 219.057 82.9124 218.823 82.651 218.646C82.399 218.469 82.1097 218.38 81.783 218.38H77.975V222.146H81.685C82.021 222.146 82.3244 222.057 82.595 221.88C82.8657 221.703 83.0804 221.474 83.239 221.194C83.407 220.905 83.491 220.597 83.491 220.27ZM77.975 213.914V217.582H81.391C81.7177 217.582 82.007 217.498 82.259 217.33C82.511 217.153 82.7117 216.924 82.861 216.644C83.0104 216.364 83.085 216.065 83.085 215.748C83.085 215.412 83.015 215.109 82.875 214.838C82.735 214.558 82.5437 214.334 82.301 214.166C82.0584 213.998 81.783 213.914 81.475 213.914H77.975ZM89.2872 223.14C88.7552 223.14 88.2652 223.042 87.8172 222.846C87.3786 222.641 86.9912 222.361 86.6552 222.006C86.3286 221.651 86.0719 221.245 85.8852 220.788C85.7079 220.331 85.6192 219.845 85.6192 219.332C85.6192 218.641 85.7732 218.011 86.0812 217.442C86.3892 216.873 86.8186 216.42 87.3692 216.084C87.9199 215.748 88.5546 215.58 89.2732 215.58C89.9546 215.58 90.5566 215.739 91.0792 216.056C91.6019 216.364 91.9892 216.784 92.2412 217.316L91.3172 217.61C91.1119 217.237 90.8226 216.947 90.4492 216.742C90.0852 216.527 89.6792 216.42 89.2312 216.42C88.7459 216.42 88.3026 216.546 87.9012 216.798C87.4999 217.05 87.1779 217.395 86.9352 217.834C86.7019 218.273 86.5852 218.772 86.5852 219.332C86.5852 219.883 86.7066 220.382 86.9492 220.83C87.1919 221.278 87.5139 221.637 87.9152 221.908C88.3166 222.169 88.7599 222.3 89.2452 222.3C89.5626 222.3 89.8659 222.244 90.1552 222.132C90.4539 222.02 90.7106 221.871 90.9252 221.684C91.1492 221.488 91.2986 221.278 91.3732 221.054L92.3112 221.334C92.1806 221.679 91.9612 221.992 91.6532 222.272C91.3546 222.543 90.9999 222.757 90.5892 222.916C90.1879 223.065 89.7539 223.14 89.2872 223.14ZM96.8885 223.14C96.3658 223.14 95.8805 223.042 95.4325 222.846C94.9845 222.641 94.5971 222.365 94.2705 222.02C93.9438 221.665 93.6871 221.259 93.5005 220.802C93.3231 220.345 93.2345 219.855 93.2345 219.332C93.2345 218.651 93.3885 218.025 93.6965 217.456C94.0138 216.887 94.4478 216.434 94.9985 216.098C95.5491 215.753 96.1745 215.58 96.8745 215.58C97.5931 215.58 98.2185 215.753 98.7505 216.098C99.2918 216.443 99.7165 216.901 100.024 217.47C100.332 218.03 100.486 218.646 100.486 219.318C100.486 219.393 100.486 219.467 100.486 219.542C100.486 219.607 100.482 219.659 100.472 219.696H94.2285C94.2751 220.219 94.4198 220.685 94.6625 221.096C94.9145 221.497 95.2365 221.819 95.6285 222.062C96.0298 222.295 96.4638 222.412 96.9305 222.412C97.4065 222.412 97.8545 222.291 98.2745 222.048C98.7038 221.805 99.0025 221.488 99.1705 221.096L99.9965 221.32C99.8471 221.665 99.6185 221.978 99.3105 222.258C99.0025 222.538 98.6385 222.757 98.2185 222.916C97.8078 223.065 97.3645 223.14 96.8885 223.14ZM94.2005 219.01H99.5905C99.5531 218.478 99.4085 218.011 99.1565 217.61C98.9138 217.209 98.5918 216.896 98.1905 216.672C97.7985 216.439 97.3645 216.322 96.8885 216.322C96.4125 216.322 95.9785 216.439 95.5865 216.672C95.1945 216.896 94.8725 217.213 94.6205 217.624C94.3778 218.025 94.2378 218.487 94.2005 219.01ZM105.51 223V215.706H111.376V223H110.424V216.56H106.462V223H105.51ZM117.205 223.14C116.598 223.14 116.052 222.981 115.567 222.664C115.091 222.347 114.713 221.955 114.433 221.488V225.982H113.481V215.706H114.335V217.12C114.624 216.663 115.011 216.294 115.497 216.014C115.982 215.725 116.5 215.58 117.051 215.58C117.555 215.58 118.017 215.687 118.437 215.902C118.857 216.107 119.221 216.387 119.529 216.742C119.837 217.097 120.075 217.503 120.243 217.96C120.42 218.408 120.509 218.875 120.509 219.36C120.509 220.041 120.369 220.671 120.089 221.25C119.818 221.819 119.435 222.277 118.941 222.622C118.446 222.967 117.867 223.14 117.205 223.14ZM116.939 222.3C117.34 222.3 117.699 222.221 118.017 222.062C118.334 221.894 118.605 221.67 118.829 221.39C119.062 221.11 119.239 220.797 119.361 220.452C119.482 220.097 119.543 219.733 119.543 219.36C119.543 218.968 119.473 218.595 119.333 218.24C119.202 217.885 119.011 217.573 118.759 217.302C118.507 217.031 118.217 216.817 117.891 216.658C117.564 216.499 117.209 216.42 116.827 216.42C116.584 216.42 116.332 216.467 116.071 216.56C115.809 216.653 115.557 216.789 115.315 216.966C115.081 217.134 114.885 217.325 114.727 217.54C114.568 217.755 114.47 217.983 114.433 218.226V220.466C114.582 220.811 114.783 221.124 115.035 221.404C115.287 221.675 115.576 221.894 115.903 222.062C116.239 222.221 116.584 222.3 116.939 222.3ZM121.533 220.9C121.533 220.443 121.664 220.051 121.925 219.724C122.187 219.388 122.546 219.131 123.003 218.954C123.47 218.767 124.007 218.674 124.613 218.674C124.968 218.674 125.337 218.702 125.719 218.758C126.102 218.814 126.443 218.898 126.741 219.01V218.394C126.741 217.778 126.559 217.288 126.195 216.924C125.831 216.56 125.327 216.378 124.683 216.378C124.291 216.378 123.904 216.453 123.521 216.602C123.148 216.742 122.756 216.952 122.345 217.232L121.981 216.56C122.457 216.233 122.924 215.991 123.381 215.832C123.839 215.664 124.305 215.58 124.781 215.58C125.677 215.58 126.387 215.837 126.909 216.35C127.432 216.863 127.693 217.573 127.693 218.478V221.852C127.693 221.983 127.721 222.081 127.777 222.146C127.833 222.202 127.922 222.235 128.043 222.244V223C127.941 223.009 127.852 223.019 127.777 223.028C127.703 223.037 127.647 223.037 127.609 223.028C127.376 223.019 127.199 222.944 127.077 222.804C126.956 222.664 126.891 222.515 126.881 222.356L126.867 221.824C126.541 222.244 126.116 222.571 125.593 222.804C125.071 223.028 124.539 223.14 123.997 223.14C123.531 223.14 123.106 223.042 122.723 222.846C122.35 222.641 122.056 222.37 121.841 222.034C121.636 221.689 121.533 221.311 121.533 220.9ZM126.419 221.46C126.522 221.329 126.601 221.203 126.657 221.082C126.713 220.961 126.741 220.853 126.741 220.76V219.696C126.424 219.575 126.093 219.481 125.747 219.416C125.411 219.351 125.071 219.318 124.725 219.318C124.044 219.318 123.493 219.453 123.073 219.724C122.653 219.995 122.443 220.363 122.443 220.83C122.443 221.101 122.513 221.357 122.653 221.6C122.793 221.833 122.999 222.029 123.269 222.188C123.54 222.337 123.857 222.412 124.221 222.412C124.679 222.412 125.103 222.323 125.495 222.146C125.897 221.969 126.205 221.74 126.419 221.46ZM129.736 223V215.706H133.376C133.787 215.706 134.132 215.795 134.412 215.972C134.692 216.14 134.902 216.359 135.042 216.63C135.192 216.901 135.266 217.19 135.266 217.498C135.266 217.89 135.173 218.245 134.986 218.562C134.8 218.87 134.529 219.103 134.174 219.262C134.594 219.383 134.935 219.603 135.196 219.92C135.458 220.237 135.588 220.62 135.588 221.068C135.588 221.46 135.49 221.801 135.294 222.09C135.108 222.379 134.846 222.603 134.51 222.762C134.184 222.921 133.806 223 133.376 223H129.736ZM130.646 222.314H133.348C133.591 222.314 133.81 222.253 134.006 222.132C134.212 222.001 134.37 221.833 134.482 221.628C134.604 221.423 134.664 221.208 134.664 220.984C134.664 220.741 134.608 220.522 134.496 220.326C134.384 220.121 134.235 219.957 134.048 219.836C133.862 219.715 133.647 219.654 133.404 219.654H130.646V222.314ZM130.646 218.996H133.124C133.367 218.996 133.582 218.931 133.768 218.8C133.955 218.669 134.1 218.501 134.202 218.296C134.305 218.091 134.356 217.876 134.356 217.652C134.356 217.316 134.244 217.022 134.02 216.77C133.806 216.518 133.526 216.392 133.18 216.392H130.646V218.996ZM136.654 220.9C136.654 220.443 136.785 220.051 137.046 219.724C137.308 219.388 137.667 219.131 138.124 218.954C138.591 218.767 139.128 218.674 139.734 218.674C140.089 218.674 140.458 218.702 140.84 218.758C141.223 218.814 141.564 218.898 141.862 219.01V218.394C141.862 217.778 141.68 217.288 141.316 216.924C140.952 216.56 140.448 216.378 139.804 216.378C139.412 216.378 139.025 216.453 138.642 216.602C138.269 216.742 137.877 216.952 137.466 217.232L137.102 216.56C137.578 216.233 138.045 215.991 138.502 215.832C138.96 215.664 139.426 215.58 139.902 215.58C140.798 215.58 141.508 215.837 142.03 216.35C142.553 216.863 142.814 217.573 142.814 218.478V221.852C142.814 221.983 142.842 222.081 142.898 222.146C142.954 222.202 143.043 222.235 143.164 222.244V223C143.062 223.009 142.973 223.019 142.898 223.028C142.824 223.037 142.768 223.037 142.73 223.028C142.497 223.019 142.32 222.944 142.198 222.804C142.077 222.664 142.012 222.515 142.002 222.356L141.988 221.824C141.662 222.244 141.237 222.571 140.714 222.804C140.192 223.028 139.66 223.14 139.118 223.14C138.652 223.14 138.227 223.042 137.844 222.846C137.471 222.641 137.177 222.37 136.962 222.034C136.757 221.689 136.654 221.311 136.654 220.9ZM141.54 221.46C141.643 221.329 141.722 221.203 141.778 221.082C141.834 220.961 141.862 220.853 141.862 220.76V219.696C141.545 219.575 141.214 219.481 140.868 219.416C140.532 219.351 140.192 219.318 139.846 219.318C139.165 219.318 138.614 219.453 138.194 219.724C137.774 219.995 137.564 220.363 137.564 220.83C137.564 221.101 137.634 221.357 137.774 221.6C137.914 221.833 138.12 222.029 138.39 222.188C138.661 222.337 138.978 222.412 139.342 222.412C139.8 222.412 140.224 222.323 140.616 222.146C141.018 221.969 141.326 221.74 141.54 221.46ZM148.426 223V215.706H149.378V218.842H153.55V215.706H154.502V223H153.55V219.696H149.378V223H148.426ZM159.752 223.14C159.229 223.14 158.744 223.042 158.296 222.846C157.848 222.641 157.46 222.365 157.134 222.02C156.807 221.665 156.55 221.259 156.364 220.802C156.186 220.345 156.098 219.855 156.098 219.332C156.098 218.651 156.252 218.025 156.56 217.456C156.877 216.887 157.311 216.434 157.862 216.098C158.412 215.753 159.038 215.58 159.738 215.58C160.456 215.58 161.082 215.753 161.614 216.098C162.155 216.443 162.58 216.901 162.888 217.47C163.196 218.03 163.35 218.646 163.35 219.318C163.35 219.393 163.35 219.467 163.35 219.542C163.35 219.607 163.345 219.659 163.336 219.696H157.092C157.138 220.219 157.283 220.685 157.526 221.096C157.778 221.497 158.1 221.819 158.492 222.062C158.893 222.295 159.327 222.412 159.794 222.412C160.27 222.412 160.718 222.291 161.138 222.048C161.567 221.805 161.866 221.488 162.034 221.096L162.86 221.32C162.71 221.665 162.482 221.978 162.174 222.258C161.866 222.538 161.502 222.757 161.082 222.916C160.671 223.065 160.228 223.14 159.752 223.14ZM157.064 219.01H162.454C162.416 218.478 162.272 218.011 162.02 217.61C161.777 217.209 161.455 216.896 161.054 216.672C160.662 216.439 160.228 216.322 159.752 216.322C159.276 216.322 158.842 216.439 158.45 216.672C158.058 216.896 157.736 217.213 157.484 217.624C157.241 218.025 157.101 218.487 157.064 219.01ZM170.501 223.084C169.829 223.084 169.255 222.958 168.779 222.706C168.303 222.445 167.939 222.081 167.687 221.614L168.471 221.264C168.648 221.591 168.905 221.847 169.241 222.034C169.577 222.211 169.983 222.3 170.459 222.3C171.028 222.3 171.481 222.169 171.817 221.908C172.162 221.647 172.335 221.297 172.335 220.858C172.335 220.457 172.2 220.135 171.929 219.892C171.658 219.649 171.285 219.523 170.809 219.514H170.067V218.856H170.865C171.07 218.856 171.257 218.8 171.425 218.688C171.593 218.576 171.724 218.427 171.817 218.24C171.91 218.053 171.957 217.843 171.957 217.61C171.957 217.246 171.826 216.952 171.565 216.728C171.313 216.504 170.94 216.392 170.445 216.392C170.034 216.392 169.689 216.476 169.409 216.644C169.138 216.803 168.919 217.041 168.751 217.358L168.023 216.966C168.238 216.537 168.555 216.201 168.975 215.958C169.404 215.715 169.904 215.594 170.473 215.594C170.94 215.594 171.346 215.673 171.691 215.832C172.046 215.981 172.321 216.201 172.517 216.49C172.722 216.77 172.825 217.111 172.825 217.512C172.825 217.857 172.741 218.179 172.573 218.478C172.405 218.767 172.172 218.987 171.873 219.136C172.302 219.267 172.634 219.495 172.867 219.822C173.11 220.149 173.231 220.531 173.231 220.97C173.231 221.409 173.114 221.787 172.881 222.104C172.648 222.421 172.326 222.664 171.915 222.832C171.504 223 171.033 223.084 170.501 223.084ZM174.238 220.9C174.238 220.443 174.369 220.051 174.63 219.724C174.892 219.388 175.251 219.131 175.708 218.954C176.175 218.767 176.712 218.674 177.318 218.674C177.673 218.674 178.042 218.702 178.424 218.758C178.807 218.814 179.148 218.898 179.446 219.01V218.394C179.446 217.778 179.264 217.288 178.9 216.924C178.536 216.56 178.032 216.378 177.388 216.378C176.996 216.378 176.609 216.453 176.226 216.602C175.853 216.742 175.461 216.952 175.05 217.232L174.686 216.56C175.162 216.233 175.629 215.991 176.086 215.832C176.544 215.664 177.01 215.58 177.486 215.58C178.382 215.58 179.092 215.837 179.614 216.35C180.137 216.863 180.398 217.573 180.398 218.478V221.852C180.398 221.983 180.426 222.081 180.482 222.146C180.538 222.202 180.627 222.235 180.748 222.244V223C180.646 223.009 180.557 223.019 180.482 223.028C180.408 223.037 180.352 223.037 180.314 223.028C180.081 223.019 179.904 222.944 179.782 222.804C179.661 222.664 179.596 222.515 179.586 222.356L179.572 221.824C179.246 222.244 178.821 222.571 178.298 222.804C177.776 223.028 177.244 223.14 176.702 223.14C176.236 223.14 175.811 223.042 175.428 222.846C175.055 222.641 174.761 222.37 174.546 222.034C174.341 221.689 174.238 221.311 174.238 220.9ZM179.124 221.46C179.227 221.329 179.306 221.203 179.362 221.082C179.418 220.961 179.446 220.853 179.446 220.76V219.696C179.129 219.575 178.798 219.481 178.452 219.416C178.116 219.351 177.776 219.318 177.43 219.318C176.749 219.318 176.198 219.453 175.778 219.724C175.358 219.995 175.148 220.363 175.148 220.83C175.148 221.101 175.218 221.357 175.358 221.6C175.498 221.833 175.704 222.029 175.974 222.188C176.245 222.337 176.562 222.412 176.926 222.412C177.384 222.412 177.808 222.323 178.2 222.146C178.602 221.969 178.91 221.74 179.124 221.46ZM191.681 224.694V223H182.441V215.706H183.393V222.146H186.515V215.706H187.481V222.146H190.589V215.706H191.541V222.146H192.535V224.694H191.681ZM193.967 223V215.72H194.919V221.712L199.357 215.706H200.211V223H199.259V217.106L194.891 223H193.967ZM211.519 224.694V223H202.279V215.706H203.231V222.146H206.353V215.706H207.319V222.146H210.427V215.706H211.379V222.146H212.373V224.694H211.519ZM216.969 223.14C216.446 223.14 215.961 223.042 215.513 222.846C215.065 222.641 214.677 222.365 214.351 222.02C214.024 221.665 213.767 221.259 213.581 220.802C213.403 220.345 213.315 219.855 213.315 219.332C213.315 218.651 213.469 218.025 213.777 217.456C214.094 216.887 214.528 216.434 215.079 216.098C215.629 215.753 216.255 215.58 216.955 215.58C217.673 215.58 218.299 215.753 218.831 216.098C219.372 216.443 219.797 216.901 220.105 217.47C220.413 218.03 220.567 218.646 220.567 219.318C220.567 219.393 220.567 219.467 220.567 219.542C220.567 219.607 220.562 219.659 220.553 219.696H214.309C214.355 220.219 214.5 220.685 214.743 221.096C214.995 221.497 215.317 221.819 215.709 222.062C216.11 222.295 216.544 222.412 217.011 222.412C217.487 222.412 217.935 222.291 218.355 222.048C218.784 221.805 219.083 221.488 219.251 221.096L220.077 221.32C219.927 221.665 219.699 221.978 219.391 222.258C219.083 222.538 218.719 222.757 218.299 222.916C217.888 223.065 217.445 223.14 216.969 223.14ZM214.281 219.01H219.671C219.633 218.478 219.489 218.011 219.237 217.61C218.994 217.209 218.672 216.896 218.271 216.672C217.879 216.439 217.445 216.322 216.969 216.322C216.493 216.322 216.059 216.439 215.667 216.672C215.275 216.896 214.953 217.213 214.701 217.624C214.458 218.025 214.318 218.487 214.281 219.01ZM222.021 223V215.706H222.973V218.842H227.145V215.706H228.097V223H227.145V219.696H222.973V223H222.021ZM230.183 223V215.706H231.135V218.282H232.787C233.618 218.282 234.243 218.497 234.663 218.926C235.093 219.346 235.307 219.901 235.307 220.592C235.307 221.04 235.214 221.446 235.027 221.81C234.841 222.174 234.565 222.463 234.201 222.678C233.847 222.893 233.399 223 232.857 223H230.183ZM231.135 222.244H232.731C233.114 222.244 233.422 222.169 233.655 222.02C233.889 221.861 234.061 221.661 234.173 221.418C234.285 221.166 234.341 220.895 234.341 220.606C234.341 220.326 234.29 220.069 234.187 219.836C234.094 219.593 233.926 219.402 233.683 219.262C233.45 219.113 233.123 219.038 232.703 219.038H231.135V222.244ZM236.637 223V215.72H237.589V223H236.637Z" fill="#BBBBBB"/>
<path d="M44.2344 186.92C43.781 187.107 43.2344 187.32 42.5944 187.56C41.9544 187.8 41.261 187.987 40.5144 188.12C39.7944 188.28 39.061 188.36 38.3144 188.36C37.3277 188.36 36.421 188.187 35.5944 187.84C34.7677 187.493 34.101 186.947 33.5944 186.2C33.1144 185.427 32.8744 184.427 32.8744 183.2V171.16H30.1144V167.04H32.8744V160.24H38.2344V167.04H42.6344V171.16H38.2344V181.4C38.261 182.12 38.461 182.64 38.8344 182.96C39.2077 183.28 39.6744 183.44 40.2344 183.44C40.7944 183.44 41.341 183.347 41.8744 183.16C42.4077 182.973 42.8344 182.813 43.1544 182.68L44.2344 186.92ZM59.5059 171.68C57.8793 171.68 56.4259 172 55.1459 172.64C53.8659 173.253 52.9459 174.147 52.3859 175.32V188H47.0259V167.04H51.9459V171.52C52.6926 170.08 53.6393 168.947 54.7859 168.12C55.9326 167.293 57.1459 166.84 58.4259 166.76C58.7193 166.76 58.9459 166.76 59.1059 166.76C59.2659 166.76 59.3993 166.773 59.5059 166.8V171.68ZM71.9413 188.4C70.2613 188.4 68.7413 188.12 67.3813 187.56C66.0213 186.973 64.8613 186.187 63.9013 185.2C62.9413 184.187 62.1946 183.04 61.6613 181.76C61.1546 180.453 60.9013 179.08 60.9013 177.64C60.9013 175.64 61.3413 173.813 62.2213 172.16C63.1279 170.507 64.4079 169.187 66.0613 168.2C67.7413 167.187 69.7146 166.68 71.9813 166.68C74.2746 166.68 76.2346 167.187 77.8613 168.2C79.4879 169.187 80.7279 170.507 81.5813 172.16C82.4613 173.787 82.9013 175.547 82.9013 177.44C82.9013 177.76 82.8879 178.093 82.8613 178.44C82.8346 178.76 82.8079 179.027 82.7813 179.24H66.5813C66.6879 180.307 66.9946 181.24 67.5013 182.04C68.0346 182.84 68.7013 183.453 69.5013 183.88C70.3279 184.28 71.2079 184.48 72.1413 184.48C73.2079 184.48 74.2079 184.227 75.1413 183.72C76.1013 183.187 76.7546 182.493 77.1013 181.64L81.7013 182.92C81.1946 183.987 80.4613 184.933 79.5013 185.76C78.5679 186.587 77.4613 187.24 76.1813 187.72C74.9013 188.173 73.4879 188.4 71.9413 188.4ZM66.4613 175.84H77.4213C77.3146 174.773 77.0079 173.853 76.5013 173.08C76.0213 172.28 75.3813 171.667 74.5813 171.24C73.7813 170.787 72.8879 170.56 71.9013 170.56C70.9413 170.56 70.0613 170.787 69.2613 171.24C68.4879 171.667 67.8479 172.28 67.3413 173.08C66.8613 173.853 66.5679 174.773 66.4613 175.84ZM84.7266 181.8C84.7266 180.44 85.0999 179.253 85.8466 178.24C86.6199 177.2 87.6866 176.4 89.0466 175.84C90.4066 175.28 91.9666 175 93.7266 175C94.6066 175 95.4999 175.067 96.4066 175.2C97.3132 175.333 98.0999 175.547 98.7666 175.84V174.72C98.7666 173.387 98.3666 172.36 97.5666 171.64C96.7932 170.92 95.6332 170.56 94.0866 170.56C92.9399 170.56 91.8466 170.76 90.8066 171.16C89.7666 171.56 88.6732 172.147 87.5266 172.92L85.8066 169.4C87.1932 168.493 88.6066 167.813 90.0466 167.36C91.5132 166.907 93.0466 166.68 94.6466 166.68C97.6332 166.68 99.9532 167.427 101.607 168.92C103.287 170.413 104.127 172.547 104.127 175.32V182C104.127 182.56 104.22 182.96 104.407 183.2C104.62 183.44 104.953 183.587 105.407 183.64V188C104.927 188.08 104.487 188.147 104.087 188.2C103.713 188.253 103.393 188.28 103.127 188.28C102.06 188.28 101.247 188.04 100.687 187.56C100.153 187.08 99.8199 186.493 99.6866 185.8L99.5666 184.72C98.6599 185.893 97.5266 186.8 96.1666 187.44C94.8066 188.08 93.4199 188.4 92.0066 188.4C90.6199 188.4 89.3666 188.12 88.2466 187.56C87.1532 186.973 86.2866 186.187 85.6466 185.2C85.0332 184.187 84.7266 183.053 84.7266 181.8ZM97.7666 182.88C98.0599 182.56 98.2999 182.24 98.4866 181.92C98.6732 181.6 98.7666 181.307 98.7666 181.04V178.92C98.1266 178.653 97.4332 178.453 96.6866 178.32C95.9399 178.16 95.2332 178.08 94.5666 178.08C93.1799 178.08 92.0332 178.387 91.1266 179C90.2466 179.587 89.8066 180.373 89.8066 181.36C89.8066 181.893 89.9532 182.4 90.2466 182.88C90.5399 183.36 90.9666 183.747 91.5266 184.04C92.0866 184.333 92.7532 184.48 93.5266 184.48C94.3266 184.48 95.1132 184.333 95.8866 184.04C96.6599 183.72 97.2866 183.333 97.7666 182.88ZM121.5 186.92C121.047 187.107 120.5 187.32 119.86 187.56C119.22 187.8 118.527 187.987 117.78 188.12C117.06 188.28 116.327 188.36 115.58 188.36C114.593 188.36 113.687 188.187 112.86 187.84C112.033 187.493 111.367 186.947 110.86 186.2C110.38 185.427 110.14 184.427 110.14 183.2V171.16H107.38V167.04H110.14V160.24H115.5V167.04H119.9V171.16H115.5V181.4C115.527 182.12 115.727 182.64 116.1 182.96C116.473 183.28 116.94 183.44 117.5 183.44C118.06 183.44 118.607 183.347 119.14 183.16C119.673 182.973 120.1 182.813 120.42 182.68L121.5 186.92ZM124.653 192.08C125.133 192.187 125.573 192.28 125.973 192.36C126.4 192.44 126.76 192.48 127.053 192.48C127.56 192.48 127.973 192.347 128.293 192.08C128.64 191.84 128.973 191.387 129.293 190.72C129.613 190.08 129.947 189.173 130.293 188L122.013 167.04H127.573L133.213 182.52L138.173 167.04H143.293L134.493 192.16C134.173 193.093 133.68 193.933 133.013 194.68C132.373 195.453 131.56 196.053 130.573 196.48C129.613 196.933 128.533 197.16 127.333 197.16C126.907 197.16 126.48 197.12 126.053 197.04C125.627 196.987 125.16 196.88 124.653 196.72V192.08Z" fill="white"/>
<path d="M34.04 214.43C34.065 214.265 34.12 214.12 34.19 213.995C34.26 213.87 34.36 213.765 34.485 213.685C34.605 213.61 34.755 213.575 34.94 213.57C35.055 213.575 35.16 213.595 35.255 213.635C35.355 213.68 35.445 213.74 35.515 213.815C35.585 213.89 35.64 213.98 35.685 214.08C35.73 214.18 35.75 214.29 35.755 214.4H36.65C36.64 214.165 36.595 213.95 36.51 213.755C36.425 213.56 36.31 213.39 36.16 213.25C36.01 213.11 35.83 213 35.62 212.92C35.41 212.84 35.18 212.805 34.925 212.805C34.6 212.805 34.315 212.86 34.075 212.975C33.835 213.09 33.635 213.24 33.475 213.435C33.315 213.63 33.195 213.855 33.12 214.115C33.045 214.375 33 214.645 33 214.935V215.07C33 215.36 33.04 215.63 33.115 215.89C33.19 216.15 33.31 216.375 33.47 216.565C33.63 216.755 33.83 216.91 34.07 217.02C34.31 217.13 34.595 217.19 34.92 217.19C35.155 217.19 35.375 217.15 35.58 217.075C35.785 217 35.965 216.895 36.12 216.76C36.275 216.625 36.4 216.47 36.49 216.29C36.58 216.11 36.635 215.92 36.64 215.715H35.745C35.74 215.82 35.715 215.915 35.67 216.005C35.625 216.095 35.565 216.17 35.49 216.235C35.415 216.3 35.33 216.35 35.23 216.385C35.135 216.42 35.035 216.43 34.93 216.435C34.75 216.43 34.6 216.395 34.485 216.32C34.36 216.24 34.26 216.135 34.19 216.01C34.12 215.885 34.065 215.735 34.04 215.57C34.015 215.405 34 215.235 34 215.07V214.935C34 214.76 34.015 214.595 34.04 214.43ZM35 210C32.24 210 30 212.24 30 215C30 217.76 32.24 220 35 220C37.76 220 40 217.76 40 215C40 212.24 37.76 210 35 210ZM35 219C32.795 219 31 217.205 31 215C31 212.795 32.795 211 35 211C37.205 211 39 212.795 39 215C39 217.205 37.205 219 35 219Z" fill="#BBBBBB"/>
<defs>
<linearGradient id="paint0_linear_532_23" x1="0" y1="140.131" x2="1920" y2="140.131" gradientUnits="userSpaceOnUse">
<stop stop-color="#466EE5"/>
<stop offset="1" stop-color="#7B9CFF"/>
</linearGradient>
</defs>
</svg>
