<svg width="400" height="400" viewBox="0 0 400 400" fill="none" xmlns="http://www.w3.org/2000/svg">
<rect width="400" height="400" rx="15" fill="#E8EDFF"/>
<path d="M69.9155 66H64.9335V40.8315L48.272 66H43.29V32.16H48.272V57.305L64.9335 32.16H69.9155V66ZM87.3316 66.705C84.7309 66.705 82.5219 66.1253 80.7046 64.966C78.8872 63.8067 77.4929 62.2165 76.5216 60.1955C75.5659 58.1745 75.0802 55.8793 75.0646 53.31C75.0802 50.6937 75.5816 48.3828 76.5686 46.3775C77.5556 44.3565 78.9656 42.7742 80.7986 41.6305C82.6316 40.4868 84.8327 39.915 87.4021 39.915C90.1751 39.915 92.5407 40.6043 94.4991 41.983C96.4731 43.3617 97.7734 45.2495 98.4001 47.6465L93.5121 49.0565C93.0264 47.6308 92.2274 46.5263 91.1151 45.743C90.0184 44.944 88.7572 44.5445 87.3316 44.5445C85.7179 44.5445 84.3941 44.9283 83.3601 45.696C82.3261 46.448 81.5584 47.482 81.0571 48.798C80.5557 50.114 80.2972 51.618 80.2816 53.31C80.2972 55.9263 80.8926 58.0413 82.0676 59.655C83.2582 61.2687 85.0129 62.0755 87.3316 62.0755C88.9139 62.0755 90.1907 61.7152 91.1621 60.9945C92.1491 60.2582 92.9011 59.2085 93.4181 57.8455L98.4001 59.0205C97.5697 61.4958 96.1989 63.3993 94.2876 64.731C92.3762 66.047 90.0576 66.705 87.3316 66.705ZM109.469 66V45.038H100.797V40.62H123.052V45.038H114.38V66H109.469ZM138.076 66.705C135.538 66.705 133.337 66.1332 131.473 64.9895C129.608 63.8458 128.167 62.2713 127.149 60.266C126.146 58.245 125.645 55.9185 125.645 53.2865C125.645 50.6388 126.162 48.3123 127.196 46.307C128.23 44.286 129.679 42.7193 131.543 41.607C133.407 40.479 135.585 39.915 138.076 39.915C140.614 39.915 142.815 40.4868 144.68 41.6305C146.544 42.7742 147.985 44.3487 149.004 46.354C150.022 48.3593 150.531 50.6702 150.531 53.2865C150.531 55.9342 150.014 58.2685 148.98 60.2895C147.962 62.2948 146.52 63.8693 144.656 65.013C142.792 66.141 140.598 66.705 138.076 66.705ZM138.076 62.0755C140.504 62.0755 142.314 61.2608 143.505 59.6315C144.711 57.9865 145.314 55.8715 145.314 53.2865C145.314 50.6388 144.703 48.5238 143.481 46.9415C142.275 45.3435 140.473 44.5445 138.076 44.5445C136.431 44.5445 135.076 44.9205 134.011 45.6725C132.945 46.4088 132.154 47.435 131.637 48.751C131.12 50.0513 130.862 51.5632 130.862 53.2865C130.862 55.9498 131.473 58.0805 132.695 59.6785C133.917 61.2765 135.71 62.0755 138.076 62.0755ZM167.61 66.705C165.181 66.705 163.145 66.1175 161.5 64.9425C159.855 63.7518 158.609 62.146 157.763 60.125C156.917 58.104 156.494 55.8245 156.494 53.2865C156.494 50.7485 156.909 48.469 157.74 46.448C158.586 44.427 159.823 42.8368 161.453 41.6775C163.098 40.5025 165.119 39.915 167.516 39.915C169.897 39.915 171.949 40.5025 173.673 41.6775C175.412 42.8368 176.751 44.427 177.691 46.448C178.631 48.4533 179.101 50.7328 179.101 53.2865C179.101 55.8245 178.631 58.1118 177.691 60.1485C176.767 62.1695 175.443 63.7675 173.72 64.9425C172.012 66.1175 169.975 66.705 167.61 66.705ZM155.672 77.28V40.62H160.043V58.8795H160.607V77.28H155.672ZM166.928 62.2635C168.495 62.2635 169.787 61.864 170.806 61.065C171.84 60.266 172.607 59.1928 173.109 57.8455C173.626 56.4825 173.884 54.9628 173.884 53.2865C173.884 51.6258 173.626 50.1218 173.109 48.7745C172.607 47.4272 171.832 46.354 170.782 45.555C169.733 44.756 168.393 44.3565 166.764 44.3565C165.228 44.3565 163.959 44.7325 162.957 45.4845C161.97 46.2365 161.233 47.2862 160.748 48.6335C160.278 49.9808 160.043 51.5318 160.043 53.2865C160.043 55.0412 160.278 56.5922 160.748 57.9395C161.218 59.2868 161.962 60.3443 162.98 61.112C163.999 61.8797 165.315 62.2635 166.928 62.2635ZM205.675 40.62V66H200.952V48.3515L188.262 66H184.267V40.62H188.99V57.916L201.704 40.62H205.675ZM227.682 66V57.1875H222.653C222.057 57.1875 221.344 57.164 220.514 57.117C219.699 57.07 218.932 56.9838 218.211 56.8585C216.315 56.5138 214.733 55.6913 213.464 54.391C212.195 53.075 211.561 51.2655 211.561 48.9625C211.561 46.7378 212.156 44.9518 213.347 43.6045C214.553 42.2415 216.08 41.3642 217.929 40.9725C218.728 40.7845 219.543 40.6827 220.373 40.667C221.219 40.6357 221.932 40.62 222.512 40.62H232.593L232.617 66H227.682ZM210.832 66L217.248 55.9655H222.441L216.073 66H210.832ZM222.23 53.2395H227.682V44.568H222.23C221.885 44.568 221.462 44.5837 220.961 44.615C220.459 44.6463 219.974 44.7325 219.504 44.8735C219.018 45.0145 218.548 45.2652 218.094 45.6255C217.655 45.9858 217.295 46.448 217.013 47.012C216.731 47.5603 216.59 48.1948 216.59 48.9155C216.59 49.9965 216.895 50.8895 217.506 51.5945C218.117 52.2838 218.846 52.7382 219.692 52.9575C220.146 53.0828 220.6 53.1612 221.055 53.1925C221.509 53.2238 221.901 53.2395 222.23 53.2395Z" fill="black"/>
<path d="M118.731 184.608C102.891 168.967 96.2014 152.649 99.8929 138.662C104.63 120.712 125.677 108.301 157.635 104.611L157.753 105.641C126.24 109.279 105.514 121.411 100.892 138.927C97.299 152.539 103.892 168.5 119.456 183.869L118.731 184.608Z" fill="#F0F0F0"/>
<path d="M271.555 240.128C251.786 240.128 230.304 237.181 208.966 231.515C182.579 224.508 158.385 213.931 138.999 200.928L139.573 200.067C158.865 213.007 182.952 223.535 209.23 230.513C232.977 236.819 256.902 239.741 278.41 238.97L278.447 240.005C276.176 240.087 273.878 240.128 271.555 240.128Z" fill="#F0F0F0"/>
<path d="M316.907 233.611L316.576 232.63C334.256 226.634 345.315 216.974 348.556 204.695C352.675 189.086 343.725 170.972 323.355 153.691C302.88 136.321 273.355 121.909 240.217 113.109L240.481 112.108C273.764 120.946 303.432 135.433 324.021 152.899C344.714 170.454 353.782 188.943 349.554 204.961C346.221 217.592 334.931 227.499 316.907 233.611Z" fill="#F0F0F0"/>
<path d="M154.559 240.561C115.715 223.28 85.7827 200.86 70.2764 177.431L71.1369 176.858C86.536 200.125 116.311 222.412 154.978 239.614L154.559 240.561Z" fill="#F0F0F0"/>
<path d="M291.132 270.499C287.126 270.499 283.051 270.409 278.907 270.23L278.952 269.194C309.873 270.537 337.155 266.826 357.855 258.458L358.241 259.42C340.184 266.718 317.17 270.499 291.132 270.499Z" fill="#F0F0F0"/>
<path d="M268.595 105.54C262.174 103.443 255.571 101.491 248.967 99.7375C210.964 89.6458 173.607 86.0628 140.933 89.3777L140.829 88.3465C173.625 85.0207 211.11 88.6124 249.231 98.7356C255.854 100.494 262.476 102.452 268.914 104.555L268.595 105.54Z" fill="#F0F0F0"/>
<path d="M94.4543 186.162C78.6148 170.521 71.925 154.204 75.6166 140.216C80.3541 122.266 101.4 109.855 133.359 106.165L133.477 107.195C101.963 110.833 81.238 122.965 76.6153 140.481C73.0226 154.094 79.6154 170.055 95.1792 185.424L94.4543 186.162Z" fill="#F0F0F0"/>
<path d="M247.278 241.682C227.51 241.682 206.027 238.735 184.689 233.069C158.302 226.062 134.108 215.485 114.723 202.482L115.297 201.621C134.589 214.561 158.676 225.089 184.954 232.067C208.701 238.374 232.626 241.296 254.134 240.525L254.171 241.56C251.9 241.642 249.602 241.683 247.278 241.682Z" fill="#F0F0F0"/>
<path d="M292.63 235.166L292.299 234.184C309.979 228.188 321.037 218.529 324.278 206.25C328.398 190.64 319.448 172.526 299.077 155.245C278.602 137.876 249.077 123.463 215.939 114.664L216.204 113.662C249.486 122.5 279.155 136.987 299.744 154.454C320.437 172.008 329.505 190.497 325.277 206.515C321.943 219.146 310.654 229.053 292.63 235.166Z" fill="#F0F0F0"/>
<path d="M130.283 242.115C91.4387 224.834 61.5063 202.414 46 178.985L46.8605 178.412C62.2597 201.679 92.035 223.966 130.702 241.168L130.283 242.115Z" fill="#F0F0F0"/>
<path d="M266.856 272.053C262.849 272.053 258.774 271.964 254.631 271.784L254.675 270.749C285.597 272.092 312.879 268.38 333.578 260.013L333.965 260.974C315.908 268.272 292.894 272.053 266.856 272.053Z" fill="#F0F0F0"/>
<path d="M244.318 107.095C237.898 104.998 231.294 103.045 224.69 101.292C186.688 91.2001 149.331 87.6171 116.657 90.932L116.553 89.9008C149.349 86.575 186.834 90.1667 224.955 100.29C231.577 102.049 238.2 104.007 244.638 106.109L244.318 107.095Z" fill="#F0F0F0"/>
<path d="M250.743 200.368L259.524 199.332L262.623 226.274L270.536 263.479C271.636 264.017 272.534 264.897 273.096 265.988C273.658 267.079 273.853 268.323 273.653 269.534C273.453 270.745 272.868 271.86 271.986 272.711C271.103 273.562 269.971 274.104 268.756 274.257C267.541 274.411 266.31 274.166 265.245 273.561C264.18 272.955 263.339 272.021 262.846 270.897C262.353 269.772 262.236 268.519 262.511 267.322C262.786 266.126 263.439 265.05 264.372 264.256L256.425 242.336L250.743 200.368Z" fill="#FFB6B6"/>
<path d="M237.986 392.441H245.221L248.663 364.45H237.985L237.986 392.441Z" fill="#FFB6B6"/>
<path d="M236.142 399.474H259.469V399.178C259.469 396.763 258.512 394.447 256.81 392.739C255.107 391.031 252.798 390.071 250.39 390.071H236.142V399.474Z" fill="#2F2E41"/>
<path d="M182.466 388.483L189.569 389.859L198.24 363.031L187.755 361L182.466 388.483Z" fill="#FFB6B6"/>
<path d="M179.326 395.039L202.23 399.476L202.286 399.185C202.743 396.813 202.241 394.357 200.892 392.356C199.543 390.355 197.457 388.974 195.093 388.515L181.104 385.806L179.326 395.039Z" fill="#2F2E41"/>
<path d="M249.331 156.218L245.127 164.308L213.645 157.343L217.093 141.658C219.823 129.243 230.767 120.277 243.144 123.015C255.521 125.753 261.295 137.888 258.566 150.303L253.492 166.157L248.359 165.021L249.331 156.218Z" fill="#2F2E41"/>
<path d="M260.557 245.445C260.557 245.445 263.656 260.988 259.524 283.785C255.392 306.583 254.359 316.427 254.359 316.427C254.359 316.427 257.458 320.054 255.392 322.126C253.326 324.199 255.392 328.343 255.392 328.343L250.743 378.601L234.731 376.01L236.797 328.862C236.797 328.862 234.731 324.717 235.764 323.68C236.797 322.644 234.731 316.427 234.731 316.427L232.148 267.206L216.136 321.09C216.136 321.09 217.685 323.162 216.136 324.717C214.586 326.271 211.487 334.043 211.487 334.043L201.157 370.311L184.628 367.202L193.925 325.753C193.925 325.753 192.892 323.162 194.442 321.608C194.894 321.132 195.224 320.554 195.404 319.922C195.584 319.29 195.608 318.624 195.475 317.981C195.475 317.981 193.925 316.427 195.991 314.354C198.058 312.282 199.091 303.992 199.091 303.992C199.091 303.992 200.64 248.554 205.805 245.445C210.971 242.336 260.557 245.445 260.557 245.445Z" fill="#2F2E41"/>
<path d="M237.201 159.716C245.188 159.716 251.664 153.221 251.664 145.209C251.664 137.197 245.188 130.702 237.201 130.702C229.213 130.702 222.738 137.197 222.738 145.209C222.738 153.221 229.213 159.716 237.201 159.716Z" fill="#FFB6B6"/>
<path d="M216.819 163.779C216.819 163.779 206.321 162.546 203.222 165.654L206.321 228.347C206.321 228.347 204.255 229.901 205.288 233.528C205.888 235.908 205.888 238.401 205.288 240.781C205.288 240.781 202.189 244.408 203.738 245.962C205.288 247.517 261.072 246.481 261.072 246.481C261.072 246.481 263.138 242.854 260.039 240.781C256.94 238.709 258.49 233.01 258.49 233.01C258.49 233.01 259.523 231.455 256.94 228.865C254.358 226.274 252.291 205.031 252.291 205.031L259.006 179.125C259.006 179.125 252.247 171.472 244.521 170.895L216.819 163.779Z" fill="#E6E6E6"/>
<path d="M251.004 179.481L259.006 179.125C259.006 179.125 263.655 188.451 264.172 196.741L267.016 227.666L248.676 230.419L251.004 179.481Z" fill="#E6E6E6"/>
<path d="M249.592 145.929L254.964 138.995C255.28 137.536 255.008 136.009 254.207 134.75C253.405 133.491 252.139 132.602 250.686 132.276L230.39 127.785C228.935 127.468 227.414 127.741 226.158 128.545C224.903 129.349 224.016 130.618 223.691 132.076L223.68 132.128L225.133 140.5L225.388 140.455C237.984 138.202 241.572 138.995 249.386 145.753L249.592 145.929Z" fill="#2F2E41"/>
<path d="M195.539 256.709L196.507 215.912L197.54 186.898L209.937 188.452L203.279 257.799C203.979 258.681 204.403 259.751 204.497 260.874C204.591 261.998 204.35 263.124 203.806 264.11C203.262 265.096 202.439 265.898 201.44 266.415C200.441 266.932 199.312 267.14 198.196 267.013C197.079 266.886 196.025 266.43 195.167 265.703C194.309 264.975 193.685 264.008 193.374 262.925C193.064 261.841 193.081 260.69 193.423 259.616C193.765 258.543 194.416 257.595 195.295 256.892C195.375 256.829 195.456 256.768 195.539 256.709Z" fill="#FFB6B6"/>
<path d="M212.265 166.529L203.222 165.654C203.222 165.654 201.672 165.654 200.123 170.835C198.573 176.016 190.055 230.775 190.055 230.775L208.904 232.491L212.265 166.529Z" fill="#E6E6E6"/>
<path d="M342.914 172.018C351.827 172.018 359.052 164.77 359.052 155.83C359.052 146.89 351.827 139.642 342.914 139.642C334.001 139.642 326.775 146.89 326.775 155.83C326.775 164.77 334.001 172.018 342.914 172.018Z" fill="#466EE5"/>
<path d="M346.699 165.941C343.405 165.941 340.185 164.961 337.446 163.126C334.707 161.29 332.572 158.681 331.312 155.628C330.051 152.575 329.721 149.216 330.364 145.976C331.007 142.735 332.593 139.758 334.922 137.422C337.251 135.085 340.219 133.494 343.45 132.85C346.68 132.205 350.029 132.536 353.072 133.8C356.116 135.065 358.717 137.206 360.547 139.953C362.377 142.701 363.354 145.931 363.354 149.235C363.349 153.664 361.592 157.911 358.47 161.042C355.348 164.174 351.114 165.936 346.699 165.941ZM346.699 133.565C343.609 133.565 340.589 134.484 338.02 136.206C335.451 137.928 333.449 140.375 332.266 143.238C331.084 146.102 330.774 149.252 331.377 152.292C331.98 155.332 333.468 158.124 335.653 160.315C337.837 162.507 340.621 163.999 343.651 164.604C346.682 165.208 349.823 164.898 352.677 163.712C355.532 162.526 357.971 160.518 359.688 157.941C361.404 155.364 362.321 152.334 362.321 149.235C362.316 145.08 360.669 141.097 357.74 138.16C354.811 135.222 350.841 133.57 346.699 133.565Z" fill="#3F3D56"/>
<path d="M359.89 378.927C358.26 379.501 356.51 379.645 354.809 379.345C353.108 379.044 351.512 378.309 350.176 377.21C346.774 374.346 345.707 369.626 344.84 365.257L342.272 352.333L347.647 356.045C351.512 358.714 355.464 361.47 358.141 365.336C360.817 369.203 361.985 374.482 359.835 378.666" fill="#FD6584"/>
<path d="M359.061 395.473C359.737 390.529 360.433 385.522 359.958 380.526C359.537 376.088 358.187 371.754 355.439 368.2C353.981 366.317 352.206 364.704 350.195 363.433C349.671 363.101 349.188 363.935 349.71 364.266C353.19 366.472 355.881 369.729 357.396 373.569C359.07 377.839 359.339 382.493 359.049 387.028C358.875 389.771 358.505 392.496 358.133 395.218C358.104 395.341 358.122 395.471 358.184 395.581C358.247 395.691 358.348 395.773 358.469 395.811C358.592 395.844 358.722 395.827 358.833 395.764C358.944 395.701 359.025 395.597 359.06 395.474L359.061 395.473Z" fill="#F2F2F2"/>
<path d="M354.191 387.541C353.492 388.607 352.531 389.474 351.401 390.059C350.271 390.644 349.01 390.927 347.739 390.882C344.473 390.726 341.75 388.44 339.299 386.27L332.05 379.848L336.848 379.618C340.298 379.452 343.838 379.298 347.127 380.365C350.415 381.432 353.444 384.001 354.045 387.411" fill="#E6E6E6"/>
<path d="M360.973 398.316C357.719 392.535 353.939 386.111 347.189 384.058C345.313 383.489 343.345 383.285 341.392 383.458C340.776 383.509 340.93 384.463 341.547 384.409C344.82 384.137 348.088 385.004 350.799 386.865C353.408 388.646 355.439 391.122 357.158 393.748C358.211 395.354 359.154 397.034 360.097 398.708C360.396 399.243 361.278 398.857 360.973 398.316Z" fill="#F2F2F2"/>
<path d="M104.367 385.656C105.54 386.147 106.82 386.327 108.083 386.178C109.346 386.029 110.55 385.557 111.578 384.806C114.199 382.845 115.181 379.422 116.004 376.249L118.435 366.86L114.329 369.361C111.376 371.159 108.356 373.016 106.224 375.746C104.093 378.475 103.015 382.3 104.419 385.468" fill="#E6E6E6"/>
<path d="M104.751 398.392C104.226 391.775 103.779 384.329 108.23 378.841C109.468 377.316 110.986 376.043 112.702 375.09C113.241 374.788 113.645 375.665 113.104 375.966C110.238 377.577 108.012 380.128 106.802 383.192C105.632 386.132 105.329 389.324 105.368 392.465C105.39 394.388 105.544 396.309 105.696 398.226C105.746 398.837 104.8 399.011 104.751 398.392Z" fill="#F2F2F2"/>
<path d="M95.0004 234.559C107.813 234.559 118.199 224.141 118.199 211.289C118.199 198.437 107.813 188.019 95.0004 188.019C82.1881 188.019 71.8018 198.437 71.8018 211.289C71.8018 224.141 82.1881 234.559 95.0004 234.559Z" fill="#E4E4E4"/>
<path d="M100.442 225.597C95.7511 225.597 91.1661 224.202 87.2662 221.588C83.3662 218.974 80.3267 215.259 78.5317 210.912C76.7368 206.566 76.2672 201.783 77.1823 197.168C78.0974 192.554 80.356 188.315 83.6727 184.988C86.9893 181.661 91.2149 179.396 95.8152 178.478C100.415 177.56 105.184 178.031 109.517 179.832C113.851 181.632 117.554 184.681 120.16 188.593C122.766 192.505 124.157 197.104 124.157 201.809C124.15 208.116 121.649 214.163 117.203 218.622C112.757 223.082 106.729 225.59 100.442 225.597ZM100.442 179.057C95.9555 179.057 91.5701 180.392 87.8401 182.892C84.1101 185.392 81.2029 188.945 79.4862 193.102C77.7694 197.26 77.3203 201.834 78.1954 206.248C79.0706 210.661 81.2309 214.715 84.403 217.897C87.5752 221.079 91.6167 223.246 96.0166 224.124C100.416 225.002 104.977 224.551 109.122 222.829C113.266 221.107 116.809 218.191 119.301 214.449C121.793 210.708 123.124 206.309 123.124 201.809C123.117 195.777 120.725 189.994 116.473 185.729C112.221 181.463 106.455 179.064 100.442 179.057Z" fill="#2F2E41"/>
<path d="M80.9955 130.402C83.2776 130.402 85.1277 128.546 85.1277 126.257C85.1277 123.968 83.2776 122.112 80.9955 122.112C78.7133 122.112 76.8633 123.968 76.8633 126.257C76.8633 128.546 78.7133 130.402 80.9955 130.402Z" fill="#F2F2F2"/>
<path d="M293.286 109.677C295.569 109.677 297.419 107.822 297.419 105.533C297.419 103.243 295.569 101.388 293.286 101.388C291.004 101.388 289.154 103.243 289.154 105.533C289.154 107.822 291.004 109.677 293.286 109.677Z" fill="#FD6584"/>
<path d="M320.662 256.822C322.945 256.822 324.795 254.967 324.795 252.678C324.795 250.388 322.945 248.533 320.662 248.533C318.38 248.533 316.53 250.388 316.53 252.678C316.53 254.967 318.38 256.822 320.662 256.822Z" fill="#F2F2F2"/>
<path d="M135.606 142.475L135.763 141.45L155.945 144.556C153.888 142.564 147.077 136.405 140.9 135.781C133.52 135.035 130.274 138.203 129.845 142.474C129.415 146.745 131.966 150.5 139.346 151.246C145.601 151.878 153.624 147.079 155.924 145.601L135.606 142.475Z" fill="#F2F2F2"/>
<path d="M328.729 87.5982L328.106 86.771L344.4 74.4279C341.542 74.5176 332.392 75.1188 327.638 79.1241C321.959 83.909 321.958 88.453 324.71 91.7397C327.462 95.0265 331.924 95.8113 337.604 91.0263C342.418 86.9704 344.584 77.8556 345.132 75.1717L328.729 87.5982Z" fill="#F2F2F2"/>
<path d="M290.257 206.421L289.809 205.826L301.531 196.946C299.476 197.011 292.892 197.443 289.472 200.325C285.386 203.767 285.386 207.036 287.366 209.401C289.346 211.766 292.556 212.33 296.642 208.888C300.106 205.97 301.664 199.412 302.058 197.481L290.257 206.421Z" fill="#F2F2F2"/>
<path d="M210.944 53.8677C211.338 54.1844 211.804 54.3981 212.3 54.4895C212.796 54.581 213.308 54.5473 213.788 54.3916C214.034 54.311 214.125 54.7033 213.881 54.7834C213.35 54.9529 212.785 54.9894 212.236 54.8896C211.688 54.7898 211.172 54.5568 210.734 54.2108C210.69 54.1817 210.659 54.1368 210.646 54.0854C210.634 54.0339 210.642 53.9797 210.668 53.9338C210.696 53.8885 210.741 53.8562 210.793 53.8438C210.844 53.8314 210.899 53.84 210.944 53.8677Z" fill="white"/>
<path d="M153.556 183.203C156.732 174.638 164.236 167.237 173.304 166.356C167.852 174.654 165.502 184.619 166.67 194.488C167.134 198.293 168.045 202.475 166.001 205.713C164.728 207.728 162.487 208.968 160.176 209.528C157.864 210.088 155.456 210.045 153.079 209.998L152.547 210.262C150.875 201.278 150.38 191.769 153.556 183.203Z" fill="#F0F0F0"/>
<path d="M173.347 166.543C167.166 170.875 162.502 177.051 160.018 184.193C159.456 185.721 159.138 187.328 159.075 188.956C159.065 190.543 159.479 192.104 160.273 193.477C160.989 194.772 161.87 196.013 162.259 197.46C162.447 198.203 162.477 198.978 162.346 199.734C162.214 200.49 161.925 201.209 161.497 201.845C160.472 203.457 158.931 204.603 157.384 205.671C155.668 206.858 153.866 208.063 152.815 209.927C152.688 210.152 152.346 209.941 152.473 209.716C154.301 206.473 158.136 205.295 160.483 202.541C161.578 201.256 162.293 199.632 161.955 197.921C161.659 196.424 160.751 195.143 160.015 193.838C159.22 192.511 158.762 191.008 158.679 189.462C158.659 187.836 158.915 186.219 159.436 184.68C160.554 181.196 162.211 177.91 164.346 174.942C166.764 171.541 169.745 168.58 173.158 166.187C173.37 166.039 173.557 166.396 173.347 166.543Z" fill="white"/>
<path d="M160.684 181.846C159.546 181.265 158.65 180.298 158.158 179.116C157.665 177.935 157.608 176.616 157.995 175.395C158.074 175.149 158.46 175.261 158.381 175.508C158.018 176.643 158.072 177.872 158.533 178.971C158.994 180.071 159.831 180.968 160.894 181.503C161.125 181.619 160.913 181.962 160.684 181.846Z" fill="white"/>
<path d="M159.825 192.868C162.314 192.08 164.415 190.379 165.71 188.106C165.838 187.88 166.18 188.092 166.052 188.317C164.7 190.68 162.51 192.445 159.918 193.26C159.671 193.337 159.58 192.945 159.825 192.868Z" fill="white"/>
<path d="M167.04 171.998C167.434 172.315 167.899 172.529 168.396 172.62C168.892 172.711 169.403 172.678 169.884 172.522C170.13 172.441 170.221 172.834 169.977 172.914C169.445 173.083 168.881 173.12 168.332 173.02C167.784 172.92 167.268 172.687 166.83 172.341C166.786 172.312 166.754 172.267 166.742 172.216C166.73 172.164 166.738 172.11 166.764 172.064C166.792 172.019 166.837 171.987 166.888 171.974C166.94 171.962 166.994 171.971 167.04 171.998Z" fill="white"/>
<path d="M195.161 188.19C195.009 188.244 194.857 188.299 194.704 188.357C192.662 189.103 190.684 190.014 188.789 191.082C188.641 191.162 188.492 191.246 188.347 191.33C183.809 193.951 179.796 197.394 176.511 201.484C175.205 203.113 174.025 204.839 172.98 206.647C171.538 209.145 170.172 211.968 168.053 213.788C167.835 213.981 167.604 214.159 167.363 214.323L152.909 210.892C152.88 210.868 152.85 210.847 152.821 210.822L152.237 210.712C152.285 210.615 152.336 210.515 152.383 210.418C152.411 210.362 152.441 210.306 152.468 210.25C152.487 210.212 152.507 210.175 152.522 210.14C152.528 210.128 152.535 210.115 152.54 210.106C152.556 210.071 152.573 210.041 152.588 210.009C152.873 209.451 153.162 208.895 153.455 208.339C153.456 208.336 153.456 208.336 153.46 208.333C155.657 204.078 158.349 200.099 161.48 196.481C161.575 196.374 161.67 196.264 161.772 196.159C163.202 194.567 164.759 193.095 166.428 191.758C167.344 191.029 168.297 190.347 169.282 189.715C171.83 188.085 174.618 186.868 177.544 186.107C183.376 184.592 189.626 184.965 194.771 187.957C194.902 188.034 195.031 188.11 195.161 188.19Z" fill="#F0F0F0"/>
<path d="M195.085 188.366C187.549 188.091 180.119 190.206 173.849 194.409C172.483 195.289 171.264 196.381 170.237 197.642C169.276 198.903 168.67 200.4 168.48 201.976C168.274 203.441 168.233 204.965 167.675 206.355C167.379 207.062 166.937 207.699 166.379 208.223C165.82 208.747 165.158 209.147 164.435 209.396C162.649 210.064 160.73 210.048 158.854 209.968C156.771 209.878 154.609 209.752 152.652 210.606C152.415 210.709 152.268 210.334 152.505 210.231C155.911 208.745 159.68 210.121 163.207 209.339C164.852 208.974 166.398 208.11 167.155 206.539C167.817 205.165 167.861 203.594 168.057 202.108C168.219 200.568 168.755 199.091 169.617 197.807C170.577 196.497 171.752 195.361 173.092 194.446C176.075 192.339 179.371 190.716 182.857 189.636C186.829 188.381 190.986 187.817 195.148 187.968C195.405 187.977 195.341 188.375 195.085 188.366Z" fill="white"/>
<path d="M175.788 192.936C175.228 191.785 175.094 190.472 175.41 189.231C175.726 187.99 176.471 186.902 177.513 186.162C177.724 186.013 177.965 186.335 177.753 186.484C176.782 187.172 176.088 188.186 175.796 189.342C175.504 190.498 175.634 191.721 176.162 192.789C176.276 193.021 175.902 193.167 175.788 192.936Z" fill="white"/>
<path d="M168.488 201.219C170.948 202.092 173.647 202.003 176.045 200.97C176.282 200.867 176.428 201.242 176.191 201.345C173.694 202.416 170.885 202.502 168.327 201.588C168.083 201.5 168.245 201.132 168.488 201.219Z" fill="white"/>
<path d="M186.774 188.912C186.899 189.403 187.143 189.855 187.484 190.227C187.825 190.6 188.254 190.882 188.731 191.048C188.975 191.132 188.813 191.5 188.57 191.417C188.044 191.231 187.571 190.919 187.193 190.508C186.815 190.097 186.543 189.6 186.401 189.059C186.383 189.009 186.385 188.954 186.406 188.906C186.427 188.857 186.466 188.819 186.514 188.798C186.564 188.779 186.619 188.78 186.668 188.801C186.717 188.823 186.755 188.862 186.774 188.912Z" fill="white"/>
<path d="M333.484 247.405C331.864 241.328 333.135 234.173 337.875 230.053C338.112 236.891 340.753 243.424 345.33 248.497C347.102 250.447 349.275 252.431 349.414 255.066C349.422 256.726 348.795 258.326 347.66 259.536C346.532 260.728 345.256 261.77 343.864 262.637L343.67 262.997C339.162 258.623 335.105 253.483 333.484 247.405Z" fill="#F0F0F0"/>
<path d="M337.974 230.141C336.225 235.044 336.061 240.375 337.505 245.377C337.797 246.46 338.257 247.489 338.868 248.428C339.493 249.323 340.346 250.034 341.338 250.486C342.292 250.856 343.197 251.34 344.035 251.928C344.436 252.27 344.76 252.694 344.987 253.17C345.213 253.647 345.337 254.166 345.349 254.694C345.343 255.999 345.075 257.288 344.561 258.487C344.069 259.839 343.537 261.236 343.687 262.702C343.706 262.88 343.43 262.898 343.412 262.72C343.149 260.169 344.834 257.975 345.057 255.491C345.141 254.918 345.095 254.334 344.92 253.782C344.745 253.231 344.446 252.727 344.047 252.309C343.286 251.587 342.268 251.231 341.336 250.793C340.363 250.365 339.508 249.705 338.847 248.87C338.19 247.965 337.691 246.956 337.372 245.883C336.615 243.481 336.239 240.974 336.259 238.454C336.265 235.578 336.761 232.725 337.727 230.017C337.786 229.849 338.033 229.974 337.974 230.141Z" fill="white"/>
<path d="M336.946 243.794C336.076 243.923 335.189 243.738 334.443 243.272C333.697 242.805 333.141 242.088 332.873 241.248C332.82 241.078 333.081 240.987 333.135 241.157C333.382 241.939 333.901 242.607 334.596 243.04C335.292 243.473 336.119 243.642 336.928 243.517C337.103 243.49 337.121 243.767 336.946 243.794Z" fill="white"/>
<path d="M340.843 250.324C341.927 248.887 342.431 247.092 342.254 245.298C342.237 245.121 342.512 245.102 342.53 245.28C342.71 247.147 342.182 249.013 341.051 250.507C340.943 250.649 340.736 250.466 340.843 250.324Z" fill="white"/>
<path d="M336.601 235.725C336.948 235.745 337.294 235.679 337.609 235.532C337.924 235.385 338.197 235.161 338.405 234.882C338.511 234.738 338.718 234.922 338.613 235.065C338.382 235.372 338.08 235.619 337.732 235.782C337.385 235.945 337.002 236.021 336.619 236.002C336.583 236.003 336.547 235.99 336.52 235.966C336.493 235.942 336.475 235.909 336.472 235.872C336.47 235.836 336.482 235.8 336.506 235.772C336.53 235.745 336.564 235.728 336.601 235.725Z" fill="white"/>
<path d="M358.82 233.57C358.757 233.662 358.693 233.753 358.63 233.847C357.78 235.082 357.032 236.385 356.392 237.742C356.341 237.846 356.291 237.952 356.243 238.057C354.737 241.343 353.852 244.88 353.634 248.489C353.548 249.926 353.572 251.366 353.704 252.799C353.887 254.778 354.242 256.909 353.776 258.777C353.729 258.973 353.671 259.165 353.601 259.354L344.124 263.207C344.098 263.205 344.073 263.205 344.047 263.203L343.675 263.374C343.663 263.301 343.653 263.224 343.641 263.151C343.633 263.108 343.628 263.065 343.621 263.022C343.617 262.994 343.613 262.965 343.608 262.939C343.607 262.93 343.605 262.92 343.605 262.913C343.599 262.887 343.597 262.863 343.593 262.839C343.531 262.413 343.472 261.984 343.416 261.555C343.415 261.553 343.415 261.553 343.417 261.55C342.959 258.283 342.889 254.974 343.209 251.69C343.219 251.592 343.229 251.492 343.244 251.393C343.415 249.928 343.704 248.479 344.11 247.061C344.334 246.286 344.598 245.522 344.9 244.773C345.682 242.84 346.764 241.042 348.104 239.445C350.775 236.263 354.432 233.973 358.509 233.596C358.613 233.586 358.715 233.578 358.82 233.57Z" fill="#F0F0F0"/>
<path d="M358.848 233.699C354.508 236.558 351.178 240.716 349.328 245.582C348.912 246.622 348.661 247.722 348.586 248.841C348.547 249.933 348.802 251.016 349.321 251.976C349.862 252.847 350.294 253.78 350.61 254.756C350.725 255.271 350.73 255.805 350.624 256.323C350.519 256.84 350.306 257.33 349.999 257.759C349.211 258.796 348.223 259.664 347.094 260.311C345.889 261.093 344.625 261.887 343.866 263.148C343.774 263.301 343.543 263.149 343.634 262.997C344.956 260.801 347.619 260.067 349.287 258.218C349.699 257.812 350.012 257.317 350.203 256.771C350.394 256.225 350.459 255.642 350.391 255.067C350.217 254.032 349.617 253.132 349.137 252.22C348.616 251.29 348.33 250.247 348.303 249.181C348.322 248.062 348.53 246.955 348.918 245.906C349.756 243.53 350.96 241.302 352.488 239.301C354.219 237.009 356.328 235.03 358.724 233.451C358.873 233.354 358.995 233.602 358.848 233.699Z" fill="white"/>
<path d="M349.831 243.98C349.06 243.558 348.462 242.874 348.147 242.052C347.831 241.229 347.817 240.32 348.108 239.488C348.167 239.32 348.43 239.404 348.371 239.573C348.099 240.347 348.112 241.194 348.408 241.959C348.703 242.725 349.262 243.359 349.983 243.748C350.139 243.833 349.987 244.064 349.831 243.98Z" fill="white"/>
<path d="M349.024 251.548C350.753 251.055 352.232 249.926 353.167 248.387C353.26 248.235 353.491 248.387 353.399 248.539C352.422 250.139 350.88 251.31 349.081 251.82C348.909 251.868 348.854 251.596 349.024 251.548Z" fill="white"/>
<path d="M354.399 237.329C354.663 237.555 354.98 237.711 355.32 237.784C355.659 237.856 356.012 237.843 356.345 237.746C356.516 237.695 356.572 237.967 356.402 238.017C356.033 238.123 355.644 238.137 355.268 238.058C354.892 237.978 354.542 237.808 354.247 237.561C354.218 237.54 354.197 237.509 354.19 237.473C354.182 237.437 354.189 237.4 354.207 237.369C354.228 237.338 354.259 237.317 354.295 237.31C354.331 237.302 354.368 237.309 354.399 237.329Z" fill="white"/>
</svg>
