<svg width="400" height="400" viewBox="0 0 400 400" fill="none" xmlns="http://www.w3.org/2000/svg">
<rect width="400" height="400" rx="15" fill="#E8EDFF"/>
<g clip-path="url(#clip0_602_364)">
<path d="M392 201.5C392.018 217.738 389.369 233.869 384.158 249.248C383.859 250.127 383.553 251.003 383.239 251.876C377.721 267.137 369.741 281.392 359.616 294.075C356.593 297.867 353.39 301.502 350.007 304.98C346.624 308.464 343.073 311.778 339.353 314.922C318.604 332.518 293.399 344.042 266.518 348.225H266.513C263.086 348.757 259.626 349.171 256.131 349.468C251.971 349.82 247.76 349.997 243.5 350C223.689 350.026 204.073 346.075 185.817 338.381C167.56 330.687 151.034 319.406 137.217 305.208C136.246 304.215 135.29 303.208 134.348 302.186C132.002 299.642 129.745 297.019 127.578 294.317C126.361 292.797 125.173 291.253 124.015 289.686C116.879 280.046 110.942 269.574 106.335 258.501C104.37 253.785 102.655 248.969 101.195 244.073C101.089 243.726 100.988 243.379 100.887 243.032C100.668 242.285 100.455 241.533 100.25 240.778C96.7553 227.978 94.9895 214.768 95 201.5C95 119.487 161.487 53 243.5 53C325.513 53 392 119.487 392 201.5Z" fill="#F2F2F2"/>
<path d="M157.98 141.763C157.75 143.158 157.829 144.588 158.212 145.95C158.594 147.312 159.27 148.574 160.193 149.646C161.115 150.719 162.262 151.576 163.552 152.157C164.841 152.738 166.243 153.03 167.657 153.011L191.362 221.986L206.487 211.591L177.289 142.509C177.1 140.135 176.046 137.912 174.328 136.263C172.61 134.613 170.346 133.651 167.966 133.559C165.586 133.467 163.255 134.252 161.414 135.764C159.574 137.275 158.352 139.41 157.98 141.763Z" fill="#A0616A"/>
<path d="M281.703 165.1C271.177 177.077 245.22 198.183 223.837 212.717C219.215 215.858 214.804 218.687 210.81 221.055C208.112 222.655 205.604 224.039 203.346 225.168C201.83 225.923 200.175 226.357 198.483 226.442C196.792 226.528 195.102 226.264 193.517 225.665C191.933 225.067 190.49 224.149 189.277 222.967C188.064 221.785 187.109 220.365 186.47 218.797L171.664 182.977L176.787 179.581L189.418 171.202L192.287 169.304L204.132 197.515L216.623 187.489L224.377 181.264L259.727 152.895L262.776 151.99L269.889 158.931L274.92 163.843L279.652 164.665C280.359 164.788 281.044 164.933 281.703 165.1Z" fill="#466EE5"/>
<path d="M376.149 263.519C376.882 264.451 377.642 265.378 378.403 266.309C375.784 271.685 372.841 276.897 369.589 281.915C369.348 281.744 369.106 281.572 368.864 281.401C368.826 281.38 368.789 281.357 368.754 281.331C367.854 280.689 366.949 280.057 366.048 279.415V279.411C365.305 276.882 364.89 274.269 364.813 271.634C365.278 271.528 365.699 271.281 366.018 270.927C366.338 270.574 366.541 270.13 366.6 269.657C366.659 269.184 366.571 268.705 366.348 268.284C366.125 267.862 365.778 267.52 365.354 267.302C365.235 267.096 365.152 266.946 365.033 266.736C365.038 266.683 365.046 266.626 365.051 266.573C365.74 261.086 372.735 259.17 376.149 263.519Z" fill="white"/>
<path d="M384.034 244.715C384.561 246.165 385.042 247.631 385.475 249.113C385.176 249.992 384.87 250.868 384.557 251.74C384.438 251.279 384.315 250.818 384.188 250.357C383.473 247.791 382.615 245.269 381.618 242.8C380.801 240.774 379.896 238.791 378.903 236.851C373.503 226.309 365.679 217.199 356.074 210.27C352.104 209.352 348.512 207.239 345.78 204.216C344.795 203.13 343.971 201.908 343.333 200.587C343.737 200.53 344.141 200.451 344.537 200.367C344.66 200.341 344.787 200.31 344.91 200.284L344.958 200.275C345.391 200.175 345.785 199.952 346.093 199.633C346.402 199.314 346.612 198.913 346.698 198.477C346.783 198.042 346.742 197.591 346.577 197.179C346.413 196.767 346.133 196.411 345.771 196.154C345.547 195.991 345.319 195.833 345.095 195.675C344.752 195.425 344.405 195.187 344.058 194.941C344.021 194.919 343.986 194.894 343.952 194.867C343.557 194.586 343.162 194.313 342.771 194.028C343.074 193.049 343.599 192.153 344.304 191.409C346.76 188.874 351.145 188.931 354.009 190.996C356.878 193.061 358.319 196.677 358.504 200.2C358.666 203.219 358.016 206.206 357.159 209.119C357.374 209.277 357.599 209.427 357.814 209.589C361.769 212.521 365.427 215.833 368.736 219.479C366.825 214.945 366.131 209.031 366.627 204.959C367.194 200.319 369.448 195.912 371.293 191.523C373.503 186.251 381.042 186.181 383.169 191.488C383.191 191.541 383.213 191.589 383.23 191.642C382.874 191.998 382.532 192.367 382.202 192.749C381.788 193.231 381.53 193.826 381.46 194.457C381.39 195.088 381.513 195.726 381.812 196.286C382.11 196.846 382.571 197.303 383.134 197.597C383.697 197.891 384.335 198.008 384.966 197.933L385.032 197.925C385.306 199.491 385.461 201.076 385.497 202.665C385.552 207.113 384.687 211.523 382.957 215.621C381.227 219.719 378.67 223.415 375.445 226.478C375.234 226.676 375.028 226.869 374.812 227.058C376.848 229.952 378.675 232.987 380.282 236.139C381.708 238.918 382.961 241.782 384.034 244.715Z" fill="white"/>
<path d="M299.379 203.499L298.052 294.624L190.868 291.549L207.985 253.765C207.862 252.552 215.498 244.042 215.454 242.781C215.322 239.086 218.081 235.664 218.53 231.797C219.443 223.823 214.211 193.71 216.623 187.489C217.65 184.711 218.967 182.049 220.551 179.546C221.921 177.472 223.327 176.075 224.672 175.57L228.635 166.335L232.149 161.062L259.727 152.895L262.776 151.99L269.889 158.931L274.92 163.843L279.652 164.665C280.359 164.788 281.045 164.933 281.704 165.1C284.878 165.832 287.836 167.297 290.341 169.379C298.601 176.396 299.563 189.594 299.379 203.499Z" fill="#466EE5"/>
<path d="M360.933 293.94C357.911 297.732 354.708 301.367 351.325 304.845L339.735 304.853L277.404 304.924L266.183 304.937L258.723 304.946L247.625 304.955L239.089 304.963L223.32 304.981L214.019 304.994L194.433 305.012L185.084 305.025L159.175 305.051L142.902 305.069L138.535 305.073C137.564 304.08 136.608 303.073 135.666 302.05C133.32 299.507 131.063 296.884 128.896 294.182L137.937 294.173L144.097 294.169L158.358 294.151L185.879 294.125L195.18 294.116L198.941 294.111H198.954L201.907 294.107L203.229 294.103L206.616 294.098H208.049L218.092 294.089L239.756 294.063L249.29 294.054L258.42 294.046L266.979 294.037L279.258 294.024L344.844 293.958L360.933 293.94Z" fill="#CCCCCC"/>
<path d="M212.643 157.113L212.619 157.116C211.351 157.234 210.089 156.843 209.109 156.03C208.13 155.218 207.513 154.049 207.395 152.781L204.897 126.113C204.444 121.336 204.957 116.516 206.405 111.941C209.243 103.011 215.417 95.5212 223.641 91.0316C227.887 88.7195 232.558 87.2911 237.371 86.8325C257.062 84.9565 264.258 89.0577 276.422 119.09C288.586 149.123 278.924 145.799 278.924 145.799C278.985 146.442 278.916 147.09 278.721 147.706C278.338 148.906 277.506 149.913 276.399 150.514C275.831 150.822 275.207 151.013 274.563 151.075C251.284 156.993 227.794 163.221 212.639 157.114L212.643 157.113Z" fill="#2F2E41"/>
<path d="M255.972 112.102C258.895 116.425 260.47 121.518 260.5 126.736C260.529 131.955 259.012 137.065 256.139 141.422C253.266 145.778 249.166 149.186 244.358 151.214C239.549 153.242 234.248 153.799 229.123 152.816C225.73 152.176 222.498 150.87 219.614 148.972C216.73 147.074 214.251 144.623 212.321 141.76C209.405 137.438 207.834 132.349 207.806 127.135C207.778 121.921 209.294 116.815 212.164 112.462C215.034 108.109 219.128 104.703 223.93 102.673C228.733 100.643 234.029 100.081 239.151 101.057C242.546 101.693 245.782 102.997 248.669 104.893C251.557 106.789 254.039 109.24 255.972 112.103L255.972 112.102Z" fill="#9E616A"/>
<path d="M196.641 129.076C196.284 125.298 196.69 121.486 197.835 117.867C198.1 109.016 200.668 100.998 211.464 101.335C214.802 99.5193 218.47 98.3937 222.251 98.0248L227.586 97.498C227.646 97.492 227.706 97.4862 227.766 97.4806C231.462 97.1366 235.19 97.524 238.737 98.6207C242.283 99.7174 245.579 101.502 248.436 103.872C251.293 106.243 253.655 109.153 255.387 112.436C257.12 115.719 258.188 119.311 258.532 123.008L258.582 123.542L247.295 124.645L242.437 114.249L242.677 125.099L236.847 125.671L234.397 120.426L234.517 125.896C225.861 133.52 212.735 133.919 196.697 129.611L196.641 129.076Z" fill="#2F2E41"/>
<path d="M232.747 154.382C232.651 155.261 232.803 156.149 233.187 156.945C233.38 157.353 233.63 157.732 233.928 158.07C234.183 158.359 234.472 158.616 234.788 158.837C235.723 159.488 236.859 159.784 237.993 159.673C238.064 159.666 238.134 159.657 238.205 159.647C238.275 159.637 238.345 159.626 238.415 159.612C238.486 159.6 238.556 159.585 238.626 159.569C238.696 159.552 238.766 159.534 238.836 159.515L242.775 158.411L247.191 146.101L248.203 156.903L266.116 151.916L261.821 106.076L231.289 109.085L232.126 109.891C234.909 112.599 236.89 116.022 237.852 119.784C238.807 123.595 239.101 127.542 238.723 131.454C238.37 135.408 237.638 139.32 236.537 143.135C235.578 146.513 234.426 149.833 233.085 153.079C232.912 153.495 232.798 153.934 232.747 154.382Z" fill="#2F2E41"/>
<path d="M236.818 298.908C236.293 298.907 235.775 298.79 235.301 298.565L150.718 300.723C150.069 300.415 149.528 299.918 149.167 299.297C148.807 298.676 148.643 297.96 148.698 297.244C148.753 296.528 149.023 295.845 149.474 295.286C149.925 294.727 150.535 294.318 151.223 294.113L206.56 277.613C207.133 277.442 207.74 277.419 208.324 277.545L293.921 287.978C294.678 288.142 295.361 288.549 295.866 289.137C296.37 289.726 296.668 290.463 296.714 291.237C296.76 292.01 296.552 292.778 296.121 293.422C295.69 294.066 295.06 294.551 294.328 294.804L237.977 298.712C237.605 298.841 237.213 298.907 236.818 298.908Z" fill="#3F3D56"/>
<path d="M239.929 293.02C239.547 293.02 239.172 292.922 238.838 292.736L170.144 295.945C169.754 295.726 169.439 295.395 169.24 294.995C169.041 294.594 168.967 294.143 169.028 293.7C169.088 293.257 169.281 292.842 169.581 292.51C169.881 292.178 170.274 291.944 170.708 291.839L195.577 285.803C195.965 285.709 196.371 285.721 196.753 285.837L260.614 285.761C261.069 285.9 261.467 286.181 261.75 286.563C262.034 286.944 262.188 287.407 262.189 287.882C262.191 288.358 262.04 288.821 261.76 289.205C261.479 289.589 261.083 289.872 260.629 290.015L240.594 292.918C240.379 292.985 240.155 293.02 239.929 293.02Z" fill="#2F2E41"/>
<path d="M232.699 289.358C233.888 290.125 235.231 290.621 236.632 290.813C238.034 291.004 239.461 290.886 240.812 290.467C242.163 290.047 243.405 289.337 244.452 288.385C245.499 287.434 246.324 286.264 246.87 284.959L319.58 290.67L316.066 272.657L241.07 271.942C238.816 271.171 236.358 271.253 234.161 272.172C231.964 273.092 230.181 274.786 229.149 276.932C228.117 279.079 227.908 281.53 228.563 283.82C229.217 286.11 230.689 288.081 232.699 289.358Z" fill="#A0616A"/>
<path d="M275.645 172.046C275.645 172.046 286.629 163.259 299.81 179.076C308.698 189.742 325.845 254.224 327.267 280.944C327.357 282.635 327.096 284.326 326.502 285.912C325.908 287.497 324.993 288.943 323.813 290.158C322.634 291.373 321.217 292.332 319.65 292.973C318.083 293.615 316.401 293.926 314.708 293.888L275.953 293.213L271.619 268.851L302.217 269.214L275.645 172.046Z" fill="#466EE5"/>
<path d="M232.113 298.918C230.784 298.917 229.468 298.65 228.243 298.134L149.844 299.923C147.775 299.06 146.058 297.524 144.969 295.564C143.881 293.605 143.485 291.335 143.847 289.122L140.934 220.271C141.32 217.812 142.614 215.587 144.561 214.036C146.508 212.484 148.966 211.719 151.449 211.891L224.233 214.91C225.631 215.002 226.993 215.386 228.232 216.038C229.471 216.69 230.559 217.595 231.426 218.695C232.293 219.794 232.918 221.064 233.263 222.421C233.608 223.778 233.663 225.192 233.426 226.572L241.953 290.615C241.552 292.936 240.346 295.041 238.546 296.559C236.746 298.078 234.468 298.913 232.113 298.918Z" fill="#3F3D56"/>
<path d="M172.583 93.9341L139.864 93.8418C138.987 93.8408 138.146 94.1875 137.524 94.806C136.902 95.4245 136.551 96.2643 136.547 97.1413L136.429 140.466C136.427 141.342 136.773 142.183 137.391 142.804C138.009 143.425 138.848 143.775 139.724 143.778L157.873 143.831L172.447 143.87C173.323 143.872 174.165 143.525 174.786 142.907C175.407 142.288 175.757 141.448 175.759 140.571L175.768 138.01L175.882 97.2512C175.884 96.3739 175.538 95.5318 174.919 94.9099C174.3 94.2879 173.46 93.937 172.583 93.9341Z" fill="#E6E6E6"/>
<path d="M170.276 96.522L142.158 96.4429C141.337 96.4418 140.549 96.7664 139.967 97.3453C139.384 97.9243 139.055 98.7104 139.052 99.5315L138.973 127.386C138.967 131.044 140.413 134.555 142.992 137.149C145.572 139.742 149.075 141.207 152.733 141.221L158.076 141.235L170.153 141.27C170.975 141.271 171.763 140.947 172.345 140.368C172.928 139.789 173.257 139.002 173.259 138.181L173.268 135.378L173.365 99.6282C173.367 98.8068 173.042 98.0184 172.463 97.436C171.884 96.8536 171.098 96.5248 170.276 96.522Z" fill="white"/>
<path d="M167.117 115.554H145.194C145.021 115.554 144.85 115.588 144.69 115.655C144.531 115.721 144.386 115.818 144.263 115.94C144.141 116.062 144.044 116.207 143.978 116.367C143.912 116.526 143.878 116.697 143.878 116.87C143.878 117.043 143.912 117.214 143.978 117.374C144.044 117.533 144.141 117.679 144.263 117.801C144.386 117.923 144.531 118.02 144.69 118.086C144.85 118.152 145.021 118.186 145.194 118.186H167.117C167.466 118.186 167.801 118.048 168.048 117.801C168.295 117.554 168.433 117.219 168.433 116.87C168.433 116.521 168.295 116.187 168.048 115.94C167.801 115.693 167.466 115.554 167.117 115.554Z" fill="#466EE5"/>
<path d="M150.013 108.34H145.194C144.845 108.34 144.51 108.479 144.263 108.726C144.017 108.973 143.878 109.307 143.878 109.656C143.878 110.005 144.017 110.34 144.263 110.587C144.51 110.834 144.845 110.972 145.194 110.972H150.013C150.362 110.972 150.697 110.834 150.944 110.587C151.191 110.34 151.329 110.005 151.329 109.656C151.329 109.307 151.191 108.973 150.944 108.726C150.697 108.479 150.362 108.34 150.013 108.34Z" fill="#466EE5"/>
<path d="M167.117 127.123H145.194C144.845 127.123 144.51 127.261 144.263 127.508C144.017 127.755 143.878 128.089 143.878 128.438C143.878 128.787 144.017 129.122 144.263 129.369C144.51 129.616 144.845 129.754 145.194 129.754H167.117C167.466 129.754 167.801 129.616 168.048 129.369C168.295 129.122 168.433 128.787 168.433 128.438C168.433 128.089 168.295 127.755 168.048 127.508C167.801 127.261 167.466 127.123 167.117 127.123Z" fill="#466EE5"/>
<path d="M167.117 121.341H145.194C144.845 121.341 144.511 121.479 144.265 121.725C144.018 121.972 143.88 122.306 143.88 122.654C143.88 123.003 144.018 123.337 144.265 123.583C144.511 123.83 144.845 123.968 145.194 123.968H167.117C167.465 123.968 167.8 123.83 168.046 123.583C168.292 123.337 168.431 123.003 168.431 122.654C168.431 122.306 168.292 121.972 168.046 121.725C167.8 121.479 167.465 121.341 167.117 121.341Z" fill="#466EE5"/>
<path d="M162.857 112.993C161.317 112.993 159.813 112.537 158.533 111.681C157.253 110.826 156.255 109.611 155.666 108.188C155.077 106.766 154.922 105.201 155.223 103.691C155.523 102.181 156.264 100.794 157.353 99.7057C158.442 98.6171 159.829 97.8758 161.338 97.5755C162.848 97.2751 164.413 97.4293 165.836 98.0184C167.258 98.6075 168.474 99.6052 169.329 100.885C170.184 102.165 170.641 103.67 170.641 105.21C170.638 107.273 169.817 109.252 168.358 110.711C166.899 112.17 164.921 112.991 162.857 112.993ZM162.857 97.9668C161.424 97.9668 160.024 98.3916 158.833 99.1874C157.642 99.9833 156.714 101.114 156.165 102.438C155.617 103.761 155.474 105.218 155.753 106.623C156.033 108.028 156.723 109.318 157.735 110.331C158.748 111.344 160.039 112.034 161.444 112.313C162.849 112.593 164.305 112.449 165.629 111.901C166.952 111.353 168.083 110.425 168.879 109.233C169.675 108.042 170.1 106.642 170.1 105.21C170.098 103.289 169.334 101.448 167.976 100.091C166.618 98.7328 164.777 97.969 162.857 97.9668Z" fill="#466EE5"/>
<path d="M166.126 108.224C165.588 105.449 164.468 102.818 162.84 100.507C162.804 100.447 162.752 100.397 162.691 100.363C162.629 100.329 162.56 100.311 162.49 100.311C162.42 100.311 162.351 100.329 162.289 100.363C162.228 100.397 162.176 100.447 162.14 100.507C160.722 102.987 159.815 105.726 159.474 108.563C159.411 109.08 160.223 109.075 160.286 108.563C160.4 107.643 160.577 106.733 160.817 105.839C160.849 105.833 160.879 105.823 160.908 105.811C161.987 105.269 163.206 105.071 164.401 105.242C164.411 105.244 164.421 105.241 164.432 105.242C164.826 106.28 165.131 107.35 165.343 108.44C165.442 108.952 166.225 108.735 166.126 108.224ZM161.11 104.844C161.482 103.688 161.956 102.568 162.526 101.497C163.13 102.419 163.654 103.391 164.093 104.401C163.078 104.325 162.059 104.476 161.11 104.844Z" fill="#466EE5"/>
</g>
<path d="M69.9155 67H64.9335V41.8315L48.272 67H43.29V33.16H48.272V58.305L64.9335 33.16H69.9155V67ZM76.4511 67V41.62H81.3626V51.9835H93.7471V41.62H98.6586V67H93.7471V56.613H81.3626V67H76.4511ZM117.191 77.575V67.4465C114.716 67.8382 112.467 67.5718 110.446 66.6475C108.425 65.7232 106.82 64.2192 105.629 62.1355C104.438 60.0518 103.843 57.4512 103.843 54.3335C103.843 51.2158 104.438 48.6073 105.629 46.508C106.82 44.4087 108.425 42.8968 110.446 41.9725C112.467 41.0482 114.716 40.7818 117.191 41.1735V33.489H121.609V41.1735C124.084 40.7818 126.332 41.0482 128.353 41.9725C130.374 42.8968 131.98 44.4087 133.171 46.508C134.362 48.6073 134.957 51.2158 134.957 54.3335C134.957 57.4512 134.362 60.0518 133.171 62.1355C131.98 64.2192 130.374 65.7232 128.353 66.6475C126.332 67.5718 124.084 67.8382 121.609 67.4465V77.575H117.191ZM117.191 63.005V45.6385C115.922 45.4192 114.77 45.4583 113.736 45.756C112.718 46.0537 111.849 46.5785 111.128 47.3305C110.407 48.0668 109.851 49.0303 109.459 50.221C109.068 51.396 108.872 52.7668 108.872 54.3335C108.872 55.9002 109.068 57.271 109.459 58.446C109.867 59.621 110.439 60.5845 111.175 61.3365C111.927 62.0728 112.812 62.5898 113.83 62.8875C114.849 63.1695 115.969 63.2087 117.191 63.005ZM121.609 63.005C122.831 63.2087 123.951 63.1695 124.969 62.8875C125.988 62.6055 126.865 62.0963 127.601 61.36C128.353 60.6237 128.925 59.668 129.317 58.493C129.724 57.3023 129.928 55.9158 129.928 54.3335C129.928 52.7355 129.732 51.349 129.34 50.174C128.949 48.9833 128.393 48.0198 127.672 47.2835C126.951 46.5315 126.074 46.0145 125.04 45.7325C124.022 45.4505 122.878 45.4192 121.609 45.6385V63.005ZM151.157 67.705C148.619 67.705 146.418 67.1332 144.554 65.9895C142.689 64.8458 141.248 63.2713 140.23 61.266C139.227 59.245 138.726 56.9185 138.726 54.2865C138.726 51.6388 139.243 49.3123 140.277 47.307C141.311 45.286 142.76 43.7193 144.624 42.607C146.489 41.479 148.666 40.915 151.157 40.915C153.695 40.915 155.896 41.4868 157.761 42.6305C159.625 43.7742 161.066 45.3487 162.085 47.354C163.103 49.3593 163.612 51.6702 163.612 54.2865C163.612 56.9342 163.095 59.2685 162.061 61.2895C161.043 63.2948 159.602 64.8693 157.737 66.013C155.873 67.141 153.68 67.705 151.157 67.705ZM151.157 63.0755C153.586 63.0755 155.395 62.2608 156.586 60.6315C157.792 58.9865 158.395 56.8715 158.395 54.2865C158.395 51.6388 157.784 49.5238 156.562 47.9415C155.356 46.3435 153.554 45.5445 151.157 45.5445C149.512 45.5445 148.157 45.9205 147.092 46.6725C146.026 47.4088 145.235 48.435 144.718 49.751C144.201 51.0513 143.943 52.5632 143.943 54.2865C143.943 56.9498 144.554 59.0805 145.776 60.6785C146.998 62.2765 148.792 63.0755 151.157 63.0755ZM180.691 67.705C178.262 67.705 176.226 67.1175 174.581 65.9425C172.936 64.7518 171.69 63.146 170.844 61.125C169.998 59.104 169.575 56.8245 169.575 54.2865C169.575 51.7485 169.99 49.469 170.821 47.448C171.667 45.427 172.904 43.8368 174.534 42.6775C176.179 41.5025 178.2 40.915 180.597 40.915C182.978 40.915 185.03 41.5025 186.754 42.6775C188.493 43.8368 189.832 45.427 190.772 47.448C191.712 49.4533 192.182 51.7328 192.182 54.2865C192.182 56.8245 191.712 59.1118 190.772 61.1485C189.848 63.1695 188.524 64.7675 186.801 65.9425C185.093 67.1175 183.056 67.705 180.691 67.705ZM168.753 78.28V41.62H173.124V59.8795H173.688V78.28H168.753ZM180.009 63.2635C181.576 63.2635 182.868 62.864 183.887 62.065C184.921 61.266 185.688 60.1928 186.19 58.8455C186.707 57.4825 186.965 55.9628 186.965 54.2865C186.965 52.6258 186.707 51.1218 186.19 49.7745C185.688 48.4272 184.913 47.354 183.863 46.555C182.814 45.756 181.474 45.3565 179.845 45.3565C178.309 45.3565 177.04 45.7325 176.038 46.4845C175.051 47.2365 174.314 48.2862 173.829 49.6335C173.359 50.9808 173.124 52.5318 173.124 54.2865C173.124 56.0412 173.359 57.5922 173.829 58.9395C174.299 60.2868 175.043 61.3443 176.061 62.112C177.08 62.8797 178.396 63.2635 180.009 63.2635ZM197.348 67V41.62H201.46L210.837 60.232L220.19 41.62H224.326V67H219.579V51.678L211.941 67H209.709L202.071 51.678V67H197.348ZM238.09 67.705C236.21 67.705 234.636 67.3603 233.367 66.671C232.098 65.966 231.134 65.0417 230.476 63.898C229.834 62.7387 229.513 61.4697 229.513 60.091C229.513 58.8063 229.74 57.6783 230.194 56.707C230.649 55.7357 231.322 54.9132 232.215 54.2395C233.108 53.5502 234.205 52.994 235.505 52.571C236.633 52.242 237.91 51.9522 239.336 51.7015C240.761 51.4508 242.258 51.2158 243.824 50.9965C245.407 50.7772 246.973 50.5578 248.524 50.3385L246.738 51.3255C246.77 49.3358 246.347 47.8632 245.469 46.9075C244.608 45.9362 243.119 45.4505 241.004 45.4505C239.673 45.4505 238.451 45.7638 237.338 46.3905C236.226 47.0015 235.45 48.0198 235.012 49.4455L230.429 48.0355C231.056 45.8578 232.247 44.1267 234.001 42.842C235.772 41.5573 238.122 40.915 241.051 40.915C243.323 40.915 245.297 41.3067 246.973 42.09C248.665 42.8577 249.903 44.0797 250.686 45.756C251.094 46.5863 251.344 47.4637 251.438 48.388C251.532 49.3123 251.579 50.3072 251.579 51.3725V67H247.232V61.1955L248.078 61.9475C247.028 63.8902 245.689 65.3393 244.059 66.295C242.446 67.235 240.456 67.705 238.09 67.705ZM238.96 63.6865C240.354 63.6865 241.553 63.4437 242.555 62.958C243.558 62.4567 244.365 61.8222 244.976 61.0545C245.587 60.2868 245.986 59.4878 246.174 58.6575C246.441 57.9055 246.589 57.0595 246.621 56.1195C246.668 55.1795 246.691 54.4275 246.691 53.8635L248.289 54.451C246.738 54.686 245.328 54.8975 244.059 55.0855C242.79 55.2735 241.639 55.4615 240.605 55.6495C239.586 55.8218 238.678 56.0333 237.879 56.284C237.205 56.519 236.602 56.801 236.069 57.13C235.552 57.459 235.137 57.8585 234.824 58.3285C234.526 58.7985 234.377 59.3703 234.377 60.044C234.377 60.702 234.542 61.313 234.871 61.877C235.2 62.4253 235.701 62.864 236.375 63.193C237.048 63.522 237.91 63.6865 238.96 63.6865ZM264.238 67V46.038H255.567V41.62H277.821V46.038H269.15V67H264.238ZM303.668 41.62V67H298.945V49.3515L286.255 67H282.26V41.62H286.983V58.916L299.697 41.62H303.668ZM310.212 67L310.235 41.62H315.217V53.84L325.181 41.62H331.432L320.904 54.31L332.513 67H325.839L315.217 54.78V67H310.212ZM342.05 67.705C340.17 67.705 338.596 67.3603 337.327 66.671C336.058 65.966 335.094 65.0417 334.436 63.898C333.794 62.7387 333.473 61.4697 333.473 60.091C333.473 58.8063 333.7 57.6783 334.154 56.707C334.609 55.7357 335.282 54.9132 336.175 54.2395C337.068 53.5502 338.165 52.994 339.465 52.571C340.593 52.242 341.87 51.9522 343.296 51.7015C344.721 51.4508 346.218 51.2158 347.784 50.9965C349.367 50.7772 350.933 50.5578 352.484 50.3385L350.698 51.3255C350.73 49.3358 350.307 47.8632 349.429 46.9075C348.568 45.9362 347.079 45.4505 344.964 45.4505C343.633 45.4505 342.411 45.7638 341.298 46.3905C340.186 47.0015 339.41 48.0198 338.972 49.4455L334.389 48.0355C335.016 45.8578 336.207 44.1267 337.961 42.842C339.732 41.5573 342.082 40.915 345.011 40.915C347.283 40.915 349.257 41.3067 350.933 42.09C352.625 42.8577 353.863 44.0797 354.646 45.756C355.054 46.5863 355.304 47.4637 355.398 48.388C355.492 49.3123 355.539 50.3072 355.539 51.3725V67H351.192V61.1955L352.038 61.9475C350.988 63.8902 349.649 65.3393 348.019 66.295C346.406 67.235 344.416 67.705 342.05 67.705ZM342.92 63.6865C344.314 63.6865 345.513 63.4437 346.515 62.958C347.518 62.4567 348.325 61.8222 348.936 61.0545C349.547 60.2868 349.946 59.4878 350.134 58.6575C350.401 57.9055 350.549 57.0595 350.581 56.1195C350.628 55.1795 350.651 54.4275 350.651 53.8635L352.249 54.451C350.698 54.686 349.288 54.8975 348.019 55.0855C346.75 55.2735 345.599 55.4615 344.565 55.6495C343.546 55.8218 342.638 56.0333 341.839 56.284C341.165 56.519 340.562 56.801 340.029 57.13C339.512 57.459 339.097 57.8585 338.784 58.3285C338.486 58.7985 338.337 59.3703 338.337 60.044C338.337 60.702 338.502 61.313 338.831 61.877C339.16 62.4253 339.661 62.864 340.335 63.193C341.008 63.522 341.87 63.6865 342.92 63.6865Z" fill="black"/>
<defs>
<clipPath id="clip0_602_364">
<rect width="297" height="297" fill="white" transform="translate(95 53)"/>
</clipPath>
</defs>
</svg>
