<svg width="50" height="47" viewBox="0 0 50 47" fill="none" xmlns="http://www.w3.org/2000/svg">
<path d="M0 0H39C45.0751 0 50 4.92487 50 11V13C50 31.7777 34.7777 47 16 47H0V0Z" fill="#466EE5"/>
<path d="M21.5 34.875L11.875 29.65V21.4L6.375 18.375L21.5 10.125L36.625 18.375V29.375H33.875V19.8875L31.125 21.4V29.65L21.5 34.875ZM21.5 23.4625L30.9188 18.375L21.5 13.2875L12.0813 18.375L21.5 23.4625ZM21.5 31.7469L28.375 28.0344V22.8438L21.5 26.625L14.625 22.8438V28.0344L21.5 31.7469Z" fill="white"/>
</svg>
