<svg width="145" height="40" viewBox="0 0 145 40" fill="none" xmlns="http://www.w3.org/2000/svg">
<path d="M1.4 34V19.6H10.5V21.29H3.18V34H1.4ZM15.3769 34.3C14.3169 34.3 13.3902 34.0667 12.5969 33.6C11.8102 33.1267 11.1969 32.47 10.7569 31.63C10.3169 30.7833 10.0969 29.7967 10.0969 28.67C10.0969 27.49 10.3135 26.47 10.7469 25.61C11.1802 24.7433 11.7835 24.0767 12.5569 23.61C13.3369 23.1367 14.2502 22.9 15.2969 22.9C16.3835 22.9 17.3069 23.15 18.0669 23.65C18.8335 24.15 19.4069 24.8633 19.7869 25.79C20.1735 26.7167 20.3402 27.82 20.2869 29.1H18.4869V28.46C18.4669 27.1333 18.1969 26.1433 17.6769 25.49C17.1569 24.83 16.3835 24.5 15.3569 24.5C14.2569 24.5 13.4202 24.8533 12.8469 25.56C12.2735 26.2667 11.9869 27.28 11.9869 28.6C11.9869 29.8733 12.2735 30.86 12.8469 31.56C13.4202 32.26 14.2369 32.61 15.2969 32.61C16.0102 32.61 16.6302 32.4467 17.1569 32.12C17.6835 31.7933 18.0969 31.3233 18.3969 30.71L20.1069 31.3C19.6869 32.2533 19.0535 32.9933 18.2069 33.52C17.3669 34.04 16.4235 34.3 15.3769 34.3ZM11.3869 29.1V27.67H19.3669V29.1H11.3869ZM27.1133 34.3C26.0399 34.3 25.1133 34.0567 24.3333 33.57C23.5599 33.0833 22.9633 32.41 22.5433 31.55C22.1233 30.69 21.9133 29.7033 21.9133 28.59C21.9133 27.4567 22.1266 26.4633 22.5533 25.61C22.9799 24.7567 23.5833 24.0933 24.3633 23.62C25.1433 23.14 26.0599 22.9 27.1133 22.9C28.1933 22.9 29.1233 23.1433 29.9033 23.63C30.6833 24.11 31.2799 24.78 31.6933 25.64C32.1133 26.4933 32.3233 27.4767 32.3233 28.59C32.3233 29.7167 32.1133 30.71 31.6933 31.57C31.2733 32.4233 30.6733 33.0933 29.8933 33.58C29.1133 34.06 28.1866 34.3 27.1133 34.3ZM27.1133 32.61C28.2333 32.61 29.0666 32.2367 29.6133 31.49C30.1599 30.7433 30.4333 29.7767 30.4333 28.59C30.4333 27.37 30.1566 26.4 29.6033 25.68C29.0499 24.9533 28.2199 24.59 27.1133 24.59C26.3599 24.59 25.7399 24.76 25.2533 25.1C24.7666 25.44 24.4033 25.91 24.1633 26.51C23.9233 27.11 23.8033 27.8033 23.8033 28.59C23.8033 29.8033 24.0833 30.7767 24.6433 31.51C25.2033 32.2433 26.0266 32.61 27.1133 32.61ZM34.515 34V23.2H36.045L40.145 31.58L44.245 23.2H45.775V34H44.055V26.91L40.615 34H39.675L36.235 26.91V34H34.515ZM53.248 34.3C52.188 34.3 51.2613 34.0667 50.468 33.6C49.6813 33.1267 49.068 32.47 48.628 31.63C48.188 30.7833 47.968 29.7967 47.968 28.67C47.968 27.49 48.1846 26.47 48.618 25.61C49.0513 24.7433 49.6546 24.0767 50.428 23.61C51.208 23.1367 52.1213 22.9 53.168 22.9C54.2546 22.9 55.178 23.15 55.938 23.65C56.7046 24.15 57.278 24.8633 57.658 25.79C58.0446 26.7167 58.2113 27.82 58.158 29.1H56.358V28.46C56.338 27.1333 56.068 26.1433 55.548 25.49C55.028 24.83 54.2546 24.5 53.228 24.5C52.128 24.5 51.2913 24.8533 50.718 25.56C50.1446 26.2667 49.858 27.28 49.858 28.6C49.858 29.8733 50.1446 30.86 50.718 31.56C51.2913 32.26 52.108 32.61 53.168 32.61C53.8813 32.61 54.5013 32.4467 55.028 32.12C55.5546 31.7933 55.968 31.3233 56.268 30.71L57.978 31.3C57.558 32.2533 56.9246 32.9933 56.078 33.52C55.238 34.04 54.2946 34.3 53.248 34.3ZM49.258 29.1V27.67H57.238V29.1H49.258ZM63.0491 34V24.82H59.2891V23.2H68.5891V24.82H64.8291V34H63.0491ZM75.442 34.3C74.4287 34.3 73.5754 34.05 72.882 33.55C72.1887 33.0433 71.662 32.36 71.302 31.5C70.9487 30.6333 70.772 29.6633 70.772 28.59C70.772 27.5033 70.9487 26.53 71.302 25.67C71.662 24.81 72.1887 24.1333 72.882 23.64C73.582 23.1467 74.4387 22.9 75.452 22.9C76.452 22.9 77.312 23.15 78.032 23.65C78.7587 24.1433 79.3154 24.82 79.702 25.68C80.0887 26.54 80.282 27.51 80.282 28.59C80.282 29.67 80.0887 30.64 79.702 31.5C79.3154 32.36 78.7587 33.0433 78.032 33.55C77.312 34.05 76.4487 34.3 75.442 34.3ZM70.472 38.8V23.2H72.062V31.15H72.262V38.8H70.472ZM75.222 32.67C75.9354 32.67 76.5254 32.49 76.992 32.13C77.4587 31.77 77.8087 31.2833 78.042 30.67C78.2754 30.05 78.392 29.3567 78.392 28.59C78.392 27.83 78.2754 27.1433 78.042 26.53C77.8154 25.9167 77.462 25.43 76.982 25.07C76.5087 24.71 75.9054 24.53 75.172 24.53C74.472 24.53 73.892 24.7033 73.432 25.05C72.972 25.39 72.6287 25.8667 72.402 26.48C72.1754 27.0867 72.062 27.79 72.062 28.59C72.062 29.3767 72.172 30.08 72.392 30.7C72.6187 31.3133 72.9654 31.7967 73.432 32.15C73.8987 32.4967 74.4954 32.67 75.222 32.67ZM91.3142 23.2V34H89.5942V26.04L83.9342 34H82.4642V23.2H84.1842V31.05L89.8542 23.2H91.3142ZM100.785 34V30.09H98.4548C98.1815 30.09 97.8782 30.08 97.5448 30.06C97.2182 30.0333 96.9115 29.9967 96.6248 29.95C95.8448 29.8033 95.1848 29.46 94.6448 28.92C94.1115 28.38 93.8448 27.6333 93.8448 26.68C93.8448 25.7533 94.0948 25.01 94.5948 24.45C95.1015 23.8833 95.7248 23.5167 96.4648 23.35C96.7982 23.27 97.1348 23.2267 97.4748 23.22C97.8215 23.2067 98.1148 23.2 98.3548 23.2H102.565L102.575 34H100.785ZM93.5148 34L96.3848 29.6H98.3048L95.4348 34H93.5148ZM98.3248 28.62H100.785V24.67H98.3248C98.1715 24.67 97.9682 24.6767 97.7148 24.69C97.4682 24.7033 97.2315 24.7433 97.0048 24.81C96.7915 24.87 96.5815 24.98 96.3748 25.14C96.1748 25.3 96.0082 25.5067 95.8748 25.76C95.7415 26.0133 95.6748 26.3133 95.6748 26.66C95.6748 27.16 95.8148 27.5667 96.0948 27.88C96.3748 28.1867 96.7148 28.3933 97.1148 28.5C97.3348 28.5533 97.5515 28.5867 97.7648 28.6C97.9848 28.6133 98.1715 28.62 98.3248 28.62Z" fill="black"/>
<g clip-path="url(#clip0_430_79)">
<path d="M144.076 34.4406L137.771 28.2443C139.909 27.8379 141.531 25.9572 141.531 23.7031V5.20312C141.531 2.65302 139.456 0.578125 136.906 0.578125H124.187C121.637 0.578125 119.562 2.65302 119.562 5.20312V10.3496L110.545 1.48752C110.212 1.16145 109.717 1.06664 109.287 1.24586C108.857 1.42623 108.578 1.84653 108.578 2.3125V35.2656C108.578 35.9039 109.096 36.4219 109.734 36.4219H143.266C143.735 36.4219 144.158 36.138 144.336 35.7038C144.513 35.2691 144.411 34.7702 144.076 34.4406ZM121.875 5.20312C121.875 3.92778 122.912 2.89062 124.187 2.89062H136.906C138.182 2.89062 139.219 3.92778 139.219 5.20312V23.7031C139.219 24.9785 138.182 26.0156 136.906 26.0156H124.187C122.912 26.0156 121.875 24.9785 121.875 23.7031V5.20312ZM127.681 29.4844H115.503V17.7507L119.562 21.6623V23.7031C119.562 26.2532 121.637 28.3281 124.187 28.3281H126.48L127.681 29.4844ZM110.891 34.1094V5.07016L119.562 13.5935V18.4514L115.149 14.1987C114.815 13.8762 114.319 13.7854 113.895 13.9675C113.468 14.149 113.191 14.5676 113.191 15.0312V30.6406C113.191 31.2789 113.709 31.7969 114.347 31.7969H130.547C131.018 31.7969 131.443 31.5107 131.619 31.0731C131.796 30.636 131.689 30.1353 131.349 29.8081L129.813 28.3281H134.556L140.439 34.1094H110.891Z" fill="black"/>
<path d="M124.766 13.875H136.328C136.966 13.875 137.484 13.357 137.484 12.7188V5.78125C137.484 5.143 136.966 4.625 136.328 4.625H124.766C124.127 4.625 123.609 5.143 123.609 5.78125V12.7188C123.609 13.357 124.127 13.875 124.766 13.875ZM125.922 6.9375H135.172V11.5625H125.922V6.9375ZM124.766 17.3438H125.922C126.56 17.3438 127.078 16.8258 127.078 16.1875C127.078 15.5492 126.56 15.0312 125.922 15.0312H124.766C124.127 15.0312 123.609 15.5492 123.609 16.1875C123.609 16.8258 124.127 17.3438 124.766 17.3438ZM131.125 15.0312H129.969C129.331 15.0312 128.812 15.5492 128.812 16.1875C128.812 16.8258 129.331 17.3438 129.969 17.3438H131.125C131.763 17.3438 132.281 16.8258 132.281 16.1875C132.281 15.5492 131.763 15.0312 131.125 15.0312ZM136.328 15.0312H135.172C134.534 15.0312 134.016 15.5492 134.016 16.1875C134.016 16.8258 134.534 17.3438 135.172 17.3438H136.328C136.966 17.3438 137.484 16.8258 137.484 16.1875C137.484 15.5492 136.966 15.0312 136.328 15.0312ZM124.766 20.8125H125.922C126.56 20.8125 127.078 20.2945 127.078 19.6562C127.078 19.018 126.56 18.5 125.922 18.5H124.766C124.127 18.5 123.609 19.018 123.609 19.6562C123.609 20.2945 124.127 20.8125 124.766 20.8125ZM131.125 18.5H129.969C129.331 18.5 128.812 19.018 128.812 19.6562C128.812 20.2945 129.331 20.8125 129.969 20.8125H131.125C131.763 20.8125 132.281 20.2945 132.281 19.6562C132.281 19.018 131.763 18.5 131.125 18.5ZM136.328 18.5H135.172C134.534 18.5 134.016 19.018 134.016 19.6562C134.016 20.2945 134.534 20.8125 135.172 20.8125H136.328C136.966 20.8125 137.484 20.2945 137.484 19.6562C137.484 19.018 136.966 18.5 136.328 18.5ZM124.766 24.2812H125.922C126.56 24.2812 127.078 23.7633 127.078 23.125C127.078 22.4867 126.56 21.9688 125.922 21.9688H124.766C124.127 21.9688 123.609 22.4867 123.609 23.125C123.609 23.7633 124.127 24.2812 124.766 24.2812ZM131.125 21.9688H129.969C129.331 21.9688 128.812 22.4867 128.812 23.125C128.812 23.7633 129.331 24.2812 129.969 24.2812H131.125C131.763 24.2812 132.281 23.7633 132.281 23.125C132.281 22.4867 131.763 21.9688 131.125 21.9688ZM136.328 21.9688H135.172C134.534 21.9688 134.016 22.4867 134.016 23.125C134.016 23.7633 134.534 24.2812 135.172 24.2812H136.328C136.966 24.2812 137.484 23.7633 137.484 23.125C137.484 22.4867 136.966 21.9688 136.328 21.9688Z" fill="black"/>
</g>
<defs>
<clipPath id="clip0_430_79">
<rect width="37" height="37" fill="white" transform="translate(108)"/>
</clipPath>
</defs>
</svg>
