<svg width="98" height="36" viewBox="0 0 98 36" fill="none" xmlns="http://www.w3.org/2000/svg">
<path d="M0.2 30L5.15 22.71L0.33 15.6H2.5L6.23 21.21L9.95 15.6H12.13L7.31 22.71L12.25 30H10.08L6.23 24.22L2.38 30H0.2ZM22.6814 19.2V30H20.9614V22.04L15.3014 30H13.8314V19.2H15.5514V27.05L21.2214 19.2H22.6814ZM25.472 30V19.2H27.002L31.102 27.58L35.202 19.2H36.732V30H35.012V22.91L31.572 30H30.632L27.192 22.91V30H25.472ZM48.365 19.2V30H46.645V22.04L40.985 30H39.515V19.2H41.235V27.05L46.905 19.2H48.365ZM57.8356 30V26.09H55.5056C55.2323 26.09 54.929 26.08 54.5956 26.06C54.269 26.0333 53.9623 25.9967 53.6756 25.95C52.8956 25.8033 52.2356 25.46 51.6956 24.92C51.1623 24.38 50.8956 23.6333 50.8956 22.68C50.8956 21.7533 51.1456 21.01 51.6456 20.45C52.1523 19.8833 52.7756 19.5167 53.5156 19.35C53.849 19.27 54.1856 19.2267 54.5256 19.22C54.8723 19.2067 55.1656 19.2 55.4056 19.2H59.6156L59.6256 30H57.8356ZM50.5656 30L53.4356 25.6H55.3556L52.4856 30H50.5656ZM55.3756 24.62H57.8356V20.67H55.3756C55.2223 20.67 55.019 20.6767 54.7656 20.69C54.519 20.7033 54.2823 20.7433 54.0556 20.81C53.8423 20.87 53.6323 20.98 53.4256 21.14C53.2256 21.3 53.059 21.5067 52.9256 21.76C52.7923 22.0133 52.7256 22.3133 52.7256 22.66C52.7256 23.16 52.8656 23.5667 53.1456 23.88C53.4256 24.1867 53.7656 24.3933 54.1656 24.5C54.3856 24.5533 54.6023 24.5867 54.8156 24.6C55.0356 24.6133 55.2223 24.62 55.3756 24.62Z" fill="black"/>
<path d="M78.5 10.5L81.5 15L78.5 19.5H74L71 15L74 10.5H78.5Z" stroke="black" stroke-width="2" stroke-linecap="round" stroke-linejoin="round"/>
<path d="M86 15L89 10.5L86 6H81.5L78.5 10.5L81.5 15M86 15H81.5M86 15L89 19.5M81.5 15L78.5 19.5L81.5 24M86 24L89 28.5M86 24L89 19.5M86 24H81.5M69.5 6L74 10.5M74 19.5L71 22.5M81.5 24L78.5 27M71 15H68M89 19.5H93.5" stroke="black" stroke-width="2" stroke-linecap="round" stroke-linejoin="round"/>
<path d="M75.5 31.5C76.3284 31.5 77 30.8284 77 30C77 29.1716 76.3284 28.5 75.5 28.5C74.6716 28.5 74 29.1716 74 30C74 30.8284 74.6716 31.5 75.5 31.5Z" fill="black"/>
<path d="M68 27C68.8284 27 69.5 26.3284 69.5 25.5C69.5 24.6716 68.8284 24 68 24C67.1716 24 66.5 24.6716 66.5 25.5C66.5 26.3284 67.1716 27 68 27Z" fill="black"/>
<path d="M93.5 12C94.3284 12 95 11.3284 95 10.5C95 9.67157 94.3284 9 93.5 9C92.6716 9 92 9.67157 92 10.5C92 11.3284 92.6716 12 93.5 12Z" fill="black"/>
</svg>
