<svg width="116" height="41" viewBox="0 0 116 41" fill="none" xmlns="http://www.w3.org/2000/svg">
<path d="M1.4 21V6.6H7.09C7.23 6.6 7.39667 6.60667 7.59 6.62C7.78333 6.62667 7.97 6.64667 8.15 6.68C8.93 6.8 9.58333 7.06667 10.11 7.48C10.6433 7.89333 11.0433 8.41667 11.31 9.05C11.5767 9.67667 11.71 10.3733 11.71 11.14C11.71 11.9 11.5733 12.5967 11.3 13.23C11.0333 13.8567 10.6333 14.38 10.1 14.8C9.57333 15.2133 8.92333 15.48 8.15 15.6C7.97 15.6267 7.78333 15.6467 7.59 15.66C7.39667 15.6733 7.23 15.68 7.09 15.68H3.18V21H1.4ZM3.18 13.99H7.03C7.15667 13.99 7.3 13.9833 7.46 13.97C7.62667 13.9567 7.78333 13.9333 7.93 13.9C8.39 13.7933 8.76333 13.6 9.05 13.32C9.34333 13.0333 9.55667 12.7 9.69 12.32C9.82333 11.9333 9.89 11.54 9.89 11.14C9.89 10.74 9.82333 10.35 9.69 9.97C9.55667 9.58333 9.34333 9.24667 9.05 8.96C8.76333 8.67333 8.39 8.48 7.93 8.38C7.78333 8.34 7.62667 8.31667 7.46 8.31C7.3 8.29667 7.15667 8.29 7.03 8.29H3.18V13.99ZM15.2047 25.8L17.2947 20.12L17.3247 21.8L12.6047 10.2H14.4747L18.1747 19.53H17.5347L21.0047 10.2H22.8147L16.9347 25.8H15.2047ZM28.6258 21.3C27.5324 21.3 26.6024 21.0567 25.8358 20.57C25.0758 20.0767 24.4958 19.4 24.0958 18.54C23.6958 17.68 23.4891 16.7 23.4758 15.6C23.4891 14.4733 23.6991 13.4833 24.1058 12.63C24.5191 11.77 25.1091 11.1 25.8758 10.62C26.6424 10.14 27.5658 9.9 28.6458 9.9C29.7858 9.9 30.7658 10.18 31.5858 10.74C32.4124 11.3 32.9658 12.0667 33.2458 13.04L31.4858 13.57C31.2591 12.9433 30.8891 12.4567 30.3758 12.11C29.8691 11.7633 29.2858 11.59 28.6258 11.59C27.8858 11.59 27.2758 11.7633 26.7958 12.11C26.3158 12.45 25.9591 12.9233 25.7258 13.53C25.4924 14.13 25.3724 14.82 25.3658 15.6C25.3791 16.8 25.6558 17.77 26.1958 18.51C26.7424 19.2433 27.5524 19.61 28.6258 19.61C29.3324 19.61 29.9191 19.45 30.3858 19.13C30.8524 18.8033 31.2058 18.3333 31.4458 17.72L33.2458 18.19C32.8724 19.1967 32.2891 19.9667 31.4958 20.5C30.7024 21.0333 29.7458 21.3 28.6258 21.3ZM39.5438 21.3C38.4504 21.3 37.5204 21.0567 36.7538 20.57C35.9938 20.0767 35.4138 19.4 35.0138 18.54C34.6138 17.68 34.4071 16.7 34.3938 15.6C34.4071 14.4733 34.6171 13.4833 35.0238 12.63C35.4371 11.77 36.0271 11.1 36.7938 10.62C37.5604 10.14 38.4838 9.9 39.5638 9.9C40.7038 9.9 41.6838 10.18 42.5038 10.74C43.3304 11.3 43.8838 12.0667 44.1638 13.04L42.4038 13.57C42.1771 12.9433 41.8071 12.4567 41.2938 12.11C40.7871 11.7633 40.2038 11.59 39.5438 11.59C38.8038 11.59 38.1938 11.7633 37.7138 12.11C37.2338 12.45 36.8771 12.9233 36.6438 13.53C36.4104 14.13 36.2904 14.82 36.2838 15.6C36.2971 16.8 36.5738 17.77 37.1138 18.51C37.6604 19.2433 38.4704 19.61 39.5438 19.61C40.2504 19.61 40.8371 19.45 41.3038 19.13C41.7704 18.8033 42.1238 18.3333 42.3638 17.72L44.1638 18.19C43.7904 19.1967 43.2071 19.9667 42.4138 20.5C41.6204 21.0333 40.6638 21.3 39.5438 21.3ZM46.1947 21L46.2047 10.2H48.0047V15.4L52.5347 10.2H54.8447L50.0747 15.6L55.4047 21H52.9147L48.0047 15.8V21H46.1947ZM65.24 10.2V21H63.52V13.04L57.86 21H56.39V10.2H58.11V18.05L63.78 10.2H65.24ZM72.6906 8.94C72.1906 8.94 71.734 8.81667 71.3206 8.57C70.9073 8.32333 70.5773 7.99667 70.3306 7.59C70.084 7.17667 69.9606 6.71667 69.9606 6.21H71.4006C71.4006 6.56333 71.5273 6.86667 71.7806 7.12C72.034 7.37333 72.3373 7.5 72.6906 7.5C73.0506 7.5 73.354 7.37333 73.6006 7.12C73.854 6.86667 73.9806 6.56333 73.9806 6.21H75.4206C75.4206 6.71667 75.2973 7.17667 75.0506 7.59C74.8106 7.99667 74.4806 8.32333 74.0606 8.57C73.6473 8.81667 73.1906 8.94 72.6906 8.94ZM76.8806 10.2V21H75.1606V13.04L69.5006 21H68.0306V10.2H69.7506V18.05L75.4206 10.2H76.8806Z" fill="black"/>
<path d="M40.07 35V31.09H37.74C37.4667 31.09 37.1633 31.08 36.83 31.06C36.5033 31.0333 36.1967 30.9967 35.91 30.95C35.13 30.8033 34.47 30.46 33.93 29.92C33.3967 29.38 33.13 28.6333 33.13 27.68C33.13 26.7533 33.38 26.01 33.88 25.45C34.3867 24.8833 35.01 24.5167 35.75 24.35C36.0833 24.27 36.42 24.2267 36.76 24.22C37.1067 24.2067 37.4 24.2 37.64 24.2H41.85L41.86 35H40.07ZM32.8 35L35.67 30.6H37.59L34.72 35H32.8ZM37.61 29.62H40.07V25.67H37.61C37.4567 25.67 37.2533 25.6767 37 25.69C36.7533 25.7033 36.5167 25.7433 36.29 25.81C36.0767 25.87 35.8667 25.98 35.66 26.14C35.46 26.3 35.2933 26.5067 35.16 26.76C35.0267 27.0133 34.96 27.3133 34.96 27.66C34.96 28.16 35.1 28.5667 35.38 28.88C35.66 29.1867 36 29.3933 36.4 29.5C36.62 29.5533 36.8367 29.5867 37.05 29.6C37.27 29.6133 37.4567 29.62 37.61 29.62ZM48.5395 35.3C47.4729 35.3 46.5295 35.07 45.7095 34.61C44.8895 34.1433 44.2429 33.5033 43.7695 32.69L45.1895 31.77C45.5829 32.3633 46.0529 32.82 46.5995 33.14C47.1462 33.4533 47.7695 33.61 48.4695 33.61C49.2029 33.61 49.7862 33.4433 50.2195 33.11C50.6529 32.77 50.8695 32.3133 50.8695 31.74C50.8695 31.3133 50.7629 30.9867 50.5495 30.76C50.3362 30.5333 50.0295 30.3767 49.6295 30.29C49.2295 30.2033 48.7529 30.16 48.1995 30.16H47.0795V28.69H48.1895C48.8895 28.69 49.4595 28.5767 49.8995 28.35C50.3395 28.1233 50.5595 27.7367 50.5595 27.19C50.5595 26.63 50.3529 26.2233 49.9395 25.97C49.5329 25.71 49.0462 25.58 48.4795 25.58C47.8795 25.58 47.3062 25.7067 46.7595 25.96C46.2129 26.2067 45.7429 26.52 45.3495 26.9L44.2695 25.69C44.8295 25.1167 45.4729 24.6767 46.1995 24.37C46.9329 24.0567 47.7295 23.9 48.5895 23.9C49.2829 23.9 49.9162 24.0233 50.4895 24.27C51.0695 24.51 51.5295 24.8667 51.8695 25.34C52.2162 25.8067 52.3895 26.3767 52.3895 27.05C52.3895 27.6233 52.2562 28.1333 51.9895 28.58C51.7229 29.0267 51.3295 29.4167 50.8095 29.75L50.7395 29.12C51.1795 29.2267 51.5429 29.4233 51.8295 29.71C52.1229 29.99 52.3395 30.3233 52.4795 30.71C52.6195 31.0967 52.6895 31.5 52.6895 31.92C52.6895 32.6267 52.5029 33.2333 52.1295 33.74C51.7629 34.24 51.2662 34.6267 50.6395 34.9C50.0129 35.1667 49.3129 35.3 48.5395 35.3ZM54.8844 35L54.8744 24.2H56.6644V28.11H58.3144C58.6277 28.11 58.9477 28.1167 59.2744 28.13C59.601 28.1433 59.8844 28.1733 60.1244 28.22C60.6844 28.3333 61.1744 28.5233 61.5944 28.79C62.0144 29.0567 62.341 29.4167 62.5744 29.87C62.8077 30.3233 62.9244 30.8867 62.9244 31.56C62.9244 32.4933 62.681 33.2333 62.1944 33.78C61.7144 34.32 61.0844 34.68 60.3044 34.86C60.0377 34.92 59.731 34.96 59.3844 34.98C59.0444 34.9933 58.721 35 58.4144 35H54.8844ZM56.6644 33.53H58.4444C58.6444 33.53 58.8677 33.5233 59.1144 33.51C59.361 33.4967 59.581 33.4633 59.7744 33.41C60.1144 33.31 60.4177 33.1133 60.6844 32.82C60.9577 32.5267 61.0944 32.1067 61.0944 31.56C61.0944 31.0067 60.961 30.58 60.6944 30.28C60.4344 29.98 60.091 29.7833 59.6644 29.69C59.471 29.6433 59.2677 29.6133 59.0544 29.6C58.841 29.5867 58.6377 29.58 58.4444 29.58H56.6644V33.53ZM64.1644 35V24.2H65.9444V35H64.1644ZM68.7416 35L68.7516 24.2H70.5516V29.4L75.0816 24.2H77.3916L72.6216 29.6L77.9516 35H75.4616L70.5516 29.8V35H68.7416Z" fill="black"/>
<g clip-path="url(#clip0_430_70)">
<path d="M99.5312 20.6562H98.4688V22.25H99.5312V20.6562Z" fill="black"/>
<path d="M114.466 14.4793L112.812 12.4951V10.0311H111.75V12.4951L110.096 14.4793C109.45 15.2555 109.094 16.2388 109.094 17.2487C109.094 17.7922 109.287 18.3011 109.625 18.7176V26.4999H107.5V25.8534C108.12 25.6132 108.562 25.014 108.562 24.3106C108.562 23.8739 108.386 23.4468 108.077 23.1381L106.282 21.343C106.074 21.1353 105.738 21.1353 105.531 21.343L103.736 23.1381C103.427 23.4468 103.25 23.8739 103.25 24.3106C103.25 25.0145 103.693 25.6132 104.312 25.8534V28.0936H101.656V23.5568L103.508 21.9699C104.694 20.9526 105.375 19.473 105.375 17.9101C105.375 16.8168 105.046 15.7649 104.424 14.8666L102.617 12.256C101.372 10.4583 100.687 8.36886 100.609 6.19233C101.221 5.94795 101.656 5.35242 101.656 4.65436C101.656 4.21767 101.479 3.79054 101.171 3.48189L99.3756 1.68679C99.1679 1.47908 98.8321 1.47908 98.6244 1.68679L96.8293 3.48189C96.5207 3.79054 96.3438 4.21767 96.3438 4.65436C96.3438 5.35242 96.7788 5.94848 97.3908 6.19233C97.3128 8.36939 96.628 10.4583 95.3832 12.256L93.5759 14.8666C92.9538 15.7644 92.625 16.8168 92.625 17.9101C92.625 19.4725 93.3055 20.9526 94.4918 21.9694L96.3438 23.5568V28.0936H93.6875V25.8534C94.3075 25.6132 94.75 25.014 94.75 24.3106C94.75 23.8739 94.5731 23.4468 94.2644 23.1381L92.4693 21.343C92.2616 21.1353 91.9259 21.1353 91.7182 21.343L89.9231 23.1381C89.6144 23.4468 89.4375 23.8739 89.4375 24.3106C89.4375 25.0145 89.88 25.6132 90.5 25.8534V26.4999H88.375V18.7176C88.7129 18.3011 88.9062 17.7922 88.9062 17.2487C88.9062 16.2388 88.5503 15.2555 87.9038 14.4793L86.25 12.4951V10.0311H85.1875V12.4951L83.5337 14.4793C82.8872 15.2555 82.5312 16.2388 82.5312 17.2487C82.5312 17.7922 82.7246 18.3011 83.0625 18.7176V33.9374C83.0625 34.2312 83.3005 34.4686 83.5938 34.4686H114.406C114.7 34.4686 114.938 34.2312 114.938 33.9374V18.7176C115.275 18.3011 115.469 17.7922 115.469 17.2487C115.469 16.2388 115.113 15.2555 114.466 14.4793ZM109.625 33.4061H107.501V30.7467C107.502 30.1623 107.978 29.6874 108.562 29.6874C109.148 29.6874 109.625 30.1639 109.625 30.7499V33.4061ZM105.375 25.9686H106.438L106.438 30.7467C106.438 30.7478 106.438 30.7488 106.438 30.7499L106.438 33.4061H105.375V28.6249V25.9686ZM113.875 22.7811V25.2175L112.657 23.9993C112.449 23.7916 112.113 23.7916 111.906 23.9993L110.688 25.2175V22.7811H113.875ZM113.124 25.9686H111.439L112.281 25.1261L113.124 25.9686ZM110.688 27.0311H113.875V30.2325C113.43 29.8951 112.882 29.6874 112.281 29.6874C111.681 29.6874 111.133 29.8951 110.688 30.2325V27.0311ZM113.875 21.7186H112.812V20.6561H111.75V21.7186H110.688V19.4608C110.927 19.5421 111.178 19.5936 111.439 19.5936H113.124C113.385 19.5936 113.635 19.5421 113.875 19.4608V21.7186ZM110.912 15.1598L112.281 13.5172L113.65 15.1598C114.138 15.7453 114.406 16.4864 114.406 17.2487C114.406 17.5914 114.273 17.9133 114.03 18.1555C113.788 18.3978 113.466 18.5311 113.124 18.5311H111.439C111.096 18.5311 110.774 18.3978 110.532 18.1555C110.29 17.9133 110.156 17.5908 110.156 17.2487C110.156 16.4864 110.425 15.7453 110.912 15.1598ZM109.625 27.5624V28.9203C109.311 28.7375 108.951 28.6249 108.562 28.6249C108.174 28.6249 107.814 28.7375 107.5 28.9203V27.5624H109.625ZM104.487 23.8893L105.906 22.4698L107.326 23.8893C107.436 24.0004 107.5 24.1539 107.5 24.3106C107.5 24.6389 107.233 24.9061 106.904 24.9061H104.908C104.58 24.9061 104.312 24.6389 104.312 24.3106C104.312 24.1539 104.376 24.0004 104.487 23.8893ZM104.312 33.4061H93.6875V29.1561H104.312V33.4061ZM84.8762 19.5936H86.5613C86.8222 19.5936 87.0729 19.5421 87.3125 19.4608V21.7186H86.25V20.6561H85.1875V21.7186H84.125V19.4608C84.3646 19.5421 84.6153 19.5936 84.8762 19.5936ZM86.0943 23.9993C85.8866 23.7916 85.5509 23.7916 85.3432 23.9993L84.125 25.2175V22.7811H87.3125V25.2175L86.0943 23.9993ZM86.5613 25.9686H84.8762L85.7188 25.1261L86.5613 25.9686ZM87.3125 27.0311V30.2325C86.8673 29.8951 86.3191 29.6874 85.7188 29.6874C85.1184 29.6874 84.5702 29.8951 84.125 30.2325V27.0311H87.3125ZM88.375 30.7499C88.375 30.1639 88.8515 29.6874 89.4375 29.6874C90.0224 29.6874 90.4979 30.1623 90.4995 30.7467V33.4061H88.375V30.7499ZM91.562 30.7499C91.5625 30.7488 91.562 30.7478 91.562 30.7467L91.5625 25.9686H92.625V28.6249V33.4061H91.562V30.7499ZM100.749 18.1555C100.507 18.3978 100.185 18.5311 99.8426 18.5311H98.1574C97.8148 18.5311 97.4928 18.3978 97.2506 18.1555C97.0083 17.9133 96.875 17.5908 96.875 17.2487C96.875 16.4864 97.1433 15.7453 97.631 15.1598L99 13.5172L100.369 15.1598C100.857 15.7453 101.125 16.4864 101.125 17.2487C101.125 17.5908 100.992 17.9133 100.749 18.1555ZM97.4062 19.4608C97.6458 19.5421 97.8966 19.5936 98.1574 19.5936H99.8426C100.103 19.5936 100.354 19.5421 100.594 19.4608V23.3124H97.4062V19.4608ZM97.5805 4.23308L99 2.81358L100.42 4.23308C100.53 4.34411 100.594 4.49764 100.594 4.65436C100.594 4.98267 100.327 5.24989 99.9982 5.24989H98.0018C97.6735 5.24989 97.4062 4.98267 97.4062 4.65436C97.4062 4.49764 97.47 4.34411 97.5805 4.23308ZM95.1835 21.1624C94.2326 20.348 93.6875 19.1623 93.6875 17.9101C93.6875 17.0346 93.951 16.1915 94.4493 15.4717L96.2566 12.8611C97.6023 10.9178 98.3492 8.66264 98.4486 6.31239H99.5514C99.6508 8.66264 100.398 10.9178 101.743 12.8611L103.551 15.4717C104.049 16.1915 104.312 17.0346 104.312 17.9101C104.312 19.1623 103.767 20.348 102.816 21.163L101.656 22.1575V18.7176C101.994 18.3011 102.188 17.7922 102.188 17.2487C102.188 16.2388 101.832 15.2555 101.185 14.4793L99.408 12.3469C99.2061 12.1051 98.7939 12.1051 98.592 12.3469L96.815 14.4793C96.1684 15.2555 95.8125 16.2388 95.8125 17.2487C95.8125 17.7922 96.0059 18.3011 96.3438 18.7176V22.1575L95.1835 21.1624ZM97.4062 24.3749H100.594V28.0936H99.5312V26.4999H98.4688V28.0936H97.4062V24.3749ZM90.6742 23.8893L92.0938 22.4698L93.5133 23.8893C93.6238 24.0004 93.6875 24.1539 93.6875 24.3106C93.6875 24.6389 93.4203 24.9061 93.092 24.9061H91.0955C90.7672 24.9061 90.5 24.6389 90.5 24.3106C90.5 24.1539 90.5637 24.0004 90.6742 23.8893ZM90.5 27.5624V28.9203C90.186 28.7375 89.8264 28.6249 89.4375 28.6249C89.0486 28.6249 88.689 28.7375 88.375 28.9203V27.5624H90.5ZM84.3497 15.1598L85.7188 13.5172L87.0878 15.1598C87.5755 15.7453 87.8438 16.4864 87.8438 17.2487C87.8438 17.5914 87.7104 17.9133 87.4676 18.1555C87.2259 18.3978 86.904 18.5311 86.5613 18.5311H84.8762C84.5335 18.5311 84.2116 18.3978 83.9693 18.1555C83.7271 17.9133 83.5938 17.5908 83.5938 17.2487C83.5938 16.4864 83.862 15.7453 84.3497 15.1598ZM84.125 32.3436C84.125 31.465 84.8401 30.7499 85.7188 30.7499C86.5974 30.7499 87.3125 31.465 87.3125 32.3436V33.4061H84.125V32.3436ZM113.875 33.4061H110.688V32.3436C110.688 31.465 111.403 30.7499 112.281 30.7499C113.16 30.7499 113.875 31.465 113.875 32.3436V33.4061Z" fill="black"/>
<path d="M96.3438 30.2188H95.2812V32.3438H96.3438V30.2188Z" fill="black"/>
<path d="M99.5312 30.2188H98.4688V32.3438H99.5312V30.2188Z" fill="black"/>
<path d="M102.719 30.2188H101.656V32.3438H102.719V30.2188Z" fill="black"/>
</g>
<defs>
<clipPath id="clip0_430_70">
<rect width="34" height="34" fill="white" transform="translate(82 1)"/>
</clipPath>
</defs>
</svg>
