<svg width="117" height="39" viewBox="0 0 117 39" fill="none" xmlns="http://www.w3.org/2000/svg">
<path d="M12.51 32H10.71V20.74L3.2 32H1.4V17.6H3.2V28.85L10.71 17.6H12.51V32ZM19.8563 32.3C18.7629 32.3 17.8329 32.0567 17.0663 31.57C16.3063 31.0767 15.7263 30.4 15.3263 29.54C14.9263 28.68 14.7196 27.7 14.7063 26.6C14.7196 25.4733 14.9296 24.4833 15.3363 23.63C15.7496 22.77 16.3396 22.1 17.1063 21.62C17.8729 21.14 18.7963 20.9 19.8763 20.9C21.0163 20.9 21.9963 21.18 22.8163 21.74C23.6429 22.3 24.1963 23.0667 24.4763 24.04L22.7163 24.57C22.4896 23.9433 22.1196 23.4567 21.6063 23.11C21.0996 22.7633 20.5163 22.59 19.8563 22.59C19.1163 22.59 18.5063 22.7633 18.0263 23.11C17.5463 23.45 17.1896 23.9233 16.9563 24.53C16.7229 25.13 16.6029 25.82 16.5963 26.6C16.6096 27.8 16.8863 28.77 17.4263 29.51C17.9729 30.2433 18.7829 30.61 19.8563 30.61C20.5629 30.61 21.1496 30.45 21.6163 30.13C22.0829 29.8033 22.4363 29.3333 22.6763 28.72L24.4763 29.19C24.1029 30.1967 23.5196 30.9667 22.7263 31.5C21.9329 32.0333 20.9763 32.3 19.8563 32.3ZM29.1819 32V22.82H25.4219V21.2H34.7219V22.82H30.9619V32H29.1819ZM41.0195 32.3C39.9462 32.3 39.0195 32.0567 38.2395 31.57C37.4662 31.0833 36.8695 30.41 36.4495 29.55C36.0295 28.69 35.8195 27.7033 35.8195 26.59C35.8195 25.4567 36.0329 24.4633 36.4595 23.61C36.8862 22.7567 37.4895 22.0933 38.2695 21.62C39.0495 21.14 39.9662 20.9 41.0195 20.9C42.0995 20.9 43.0295 21.1433 43.8095 21.63C44.5895 22.11 45.1862 22.78 45.5995 23.64C46.0195 24.4933 46.2295 25.4767 46.2295 26.59C46.2295 27.7167 46.0195 28.71 45.5995 29.57C45.1795 30.4233 44.5795 31.0933 43.7995 31.58C43.0195 32.06 42.0929 32.3 41.0195 32.3ZM41.0195 30.61C42.1395 30.61 42.9729 30.2367 43.5195 29.49C44.0662 28.7433 44.3395 27.7767 44.3395 26.59C44.3395 25.37 44.0629 24.4 43.5095 23.68C42.9562 22.9533 42.1262 22.59 41.0195 22.59C40.2662 22.59 39.6462 22.76 39.1595 23.1C38.6729 23.44 38.3095 23.91 38.0695 24.51C37.8295 25.11 37.7095 25.8033 37.7095 26.59C37.7095 27.8033 37.9895 28.7767 38.5495 29.51C39.1095 30.2433 39.9329 30.61 41.0195 30.61ZM53.3913 32.3C52.3779 32.3 51.5246 32.05 50.8313 31.55C50.1379 31.0433 49.6113 30.36 49.2513 29.5C48.8979 28.6333 48.7213 27.6633 48.7213 26.59C48.7213 25.5033 48.8979 24.53 49.2513 23.67C49.6113 22.81 50.1379 22.1333 50.8313 21.64C51.5313 21.1467 52.3879 20.9 53.4013 20.9C54.4013 20.9 55.2613 21.15 55.9813 21.65C56.7079 22.1433 57.2646 22.82 57.6513 23.68C58.0379 24.54 58.2313 25.51 58.2313 26.59C58.2313 27.67 58.0379 28.64 57.6513 29.5C57.2646 30.36 56.7079 31.0433 55.9813 31.55C55.2613 32.05 54.3979 32.3 53.3913 32.3ZM48.4213 36.8V21.2H50.0113V29.15H50.2113V36.8H48.4213ZM53.1713 30.67C53.8846 30.67 54.4746 30.49 54.9413 30.13C55.4079 29.77 55.7579 29.2833 55.9913 28.67C56.2246 28.05 56.3413 27.3567 56.3413 26.59C56.3413 25.83 56.2246 25.1433 55.9913 24.53C55.7646 23.9167 55.4113 23.43 54.9313 23.07C54.4579 22.71 53.8546 22.53 53.1213 22.53C52.4213 22.53 51.8413 22.7033 51.3813 23.05C50.9213 23.39 50.5779 23.8667 50.3513 24.48C50.1246 25.0867 50.0113 25.79 50.0113 26.59C50.0113 27.3767 50.1213 28.08 50.3413 28.7C50.5679 29.3133 50.9146 29.7967 51.3813 30.15C51.8479 30.4967 52.4446 30.67 53.1713 30.67ZM69.2634 21.2V32H67.5434V24.04L61.8834 32H60.4134V21.2H62.1334V29.05L67.8034 21.2H69.2634ZM78.7341 32V28.09H76.4041C76.1307 28.09 75.8274 28.08 75.4941 28.06C75.1674 28.0333 74.8607 27.9967 74.5741 27.95C73.7941 27.8033 73.1341 27.46 72.5941 26.92C72.0607 26.38 71.7941 25.6333 71.7941 24.68C71.7941 23.7533 72.0441 23.01 72.5441 22.45C73.0507 21.8833 73.6741 21.5167 74.4141 21.35C74.7474 21.27 75.0841 21.2267 75.4241 21.22C75.7707 21.2067 76.0641 21.2 76.3041 21.2H80.5141L80.5241 32H78.7341ZM71.4641 32L74.3341 27.6H76.2541L73.3841 32H71.4641ZM76.2741 26.62H78.7341V22.67H76.2741C76.1207 22.67 75.9174 22.6767 75.6641 22.69C75.4174 22.7033 75.1807 22.7433 74.9541 22.81C74.7407 22.87 74.5307 22.98 74.3241 23.14C74.1241 23.3 73.9574 23.5067 73.8241 23.76C73.6907 24.0133 73.6241 24.3133 73.6241 24.66C73.6241 25.16 73.7641 25.5667 74.0441 25.88C74.3241 26.1867 74.6641 26.3933 75.0641 26.5C75.2841 26.5533 75.5007 26.5867 75.7141 26.6C75.9341 26.6133 76.1207 26.62 76.2741 26.62Z" fill="black"/>
<path d="M91.0004 32.5C90.1066 32.5 89.3418 32.182 88.7059 31.5461C88.07 30.9102 87.7515 30.1448 87.7504 29.25V26C87.7504 25.5396 87.9064 25.1539 88.2184 24.843C88.5304 24.5321 88.9161 24.3761 89.3754 24.375H92.6254V20.7188C91.8129 20.6646 91.0074 20.4956 90.209 20.2118C89.4106 19.9279 88.7129 19.5011 88.116 18.9312C87.9535 18.7687 87.8251 18.5862 87.7309 18.3836C87.6366 18.181 87.589 17.9709 87.5879 17.7531V16.6562H86.4098C86.1931 16.6562 85.9835 16.6156 85.7809 16.5344C85.5783 16.4531 85.3952 16.3312 85.2316 16.1687L81.5754 12.5125C81.2504 12.1875 81.0879 11.8083 81.0879 11.375C81.0879 10.9417 81.2504 10.5625 81.5754 10.2375C82.3608 9.45208 83.4171 8.87683 84.7441 8.51175C86.0712 8.14667 87.29 7.96358 88.4004 7.9625C89.1316 7.9625 89.8428 8.01667 90.534 8.125C91.2252 8.23333 91.9223 8.43646 92.6254 8.73438C92.6254 8.11146 92.8421 7.58333 93.2754 7.15C93.7087 6.71667 94.2368 6.5 94.8598 6.5H108.875C109.769 6.5 110.535 6.8185 111.172 7.4555C111.809 8.0925 112.126 8.85733 112.125 9.75V27.625C112.125 28.9792 111.651 30.1302 110.704 31.0781C109.756 32.026 108.605 32.5 107.25 32.5H91.0004ZM95.8754 24.375H104C104.461 24.375 104.847 24.531 105.159 24.843C105.471 25.155 105.626 25.5407 105.625 26V27.625C105.625 28.0854 105.781 28.4716 106.093 28.7836C106.405 29.0956 106.791 29.2511 107.25 29.25C107.71 29.2489 108.096 29.0929 108.409 28.782C108.722 28.4711 108.878 28.0854 108.875 27.625V9.75H95.8754V10.725L105.179 20.0281C105.422 20.2719 105.571 20.5498 105.625 20.8618C105.68 21.1738 105.639 21.4782 105.504 21.775C105.368 22.0718 105.179 22.3085 104.935 22.4851C104.691 22.6617 104.38 22.75 104 22.75C103.784 22.75 103.574 22.7023 103.372 22.607C103.169 22.5117 102.999 22.3968 102.863 22.2625L98.7191 18.1187L98.3941 18.4438C98.015 18.8229 97.6158 19.1615 97.1965 19.4594C96.7773 19.7573 96.3369 19.9875 95.8754 20.15V24.375ZM87.1004 13.4062H89.2129C89.6733 13.4062 90.0595 13.5623 90.3715 13.8743C90.6835 14.1863 90.839 14.5719 90.8379 15.0312V16.9C91.1629 17.1167 91.5014 17.2656 91.8535 17.3469C92.2056 17.4281 92.5712 17.4688 92.9504 17.4688C93.5733 17.4688 94.1356 17.374 94.6371 17.1844C95.1387 16.9948 95.6327 16.6562 96.1191 16.1687L96.4441 15.8438L94.1691 13.5688C93.3837 12.7833 92.5035 12.194 91.5285 11.8008C90.5535 11.4075 89.5108 11.2114 88.4004 11.2125C87.8587 11.2125 87.3441 11.2531 86.8566 11.3344C86.3691 11.4156 85.8816 11.5375 85.3941 11.7L87.1004 13.4062ZM102.375 27.625H91.0004V29.25H102.619C102.538 29.0063 102.477 28.749 102.437 28.4781C102.397 28.2073 102.376 27.9229 102.375 27.625Z" fill="black"/>
</svg>
