<svg width="137" height="41" viewBox="0 0 137 41" fill="none" xmlns="http://www.w3.org/2000/svg">
<path d="M1.4 21V6.6H3.18V12.95H10.76V6.6H12.54V21H10.76V14.64H3.18V21H1.4ZM20.0253 21.3C18.9653 21.3 18.0386 21.0667 17.2453 20.6C16.4586 20.1267 15.8453 19.47 15.4053 18.63C14.9653 17.7833 14.7453 16.7967 14.7453 15.67C14.7453 14.49 14.962 13.47 15.3953 12.61C15.8286 11.7433 16.432 11.0767 17.2053 10.61C17.9853 10.1367 18.8986 9.9 19.9453 9.9C21.032 9.9 21.9553 10.15 22.7153 10.65C23.482 11.15 24.0553 11.8633 24.4353 12.79C24.822 13.7167 24.9886 14.82 24.9353 16.1H23.1353V15.46C23.1153 14.1333 22.8453 13.1433 22.3253 12.49C21.8053 11.83 21.032 11.5 20.0053 11.5C18.9053 11.5 18.0686 11.8533 17.4953 12.56C16.922 13.2667 16.6353 14.28 16.6353 15.6C16.6353 16.8733 16.922 17.86 17.4953 18.56C18.0686 19.26 18.8853 19.61 19.9453 19.61C20.6586 19.61 21.2786 19.4467 21.8053 19.12C22.332 18.7933 22.7453 18.3233 23.0453 17.71L24.7553 18.3C24.3353 19.2533 23.702 19.9933 22.8553 20.52C22.0153 21.04 21.072 21.3 20.0253 21.3ZM16.0353 16.1V14.67H24.0153V16.1H16.0353ZM26.8588 21V10.2H28.3888L32.4888 18.58L36.5888 10.2H38.1188V21H36.3988V13.91L32.9588 21H32.0188L28.5788 13.91V21H26.8588ZM45.5917 21.3C44.5317 21.3 43.6051 21.0667 42.8117 20.6C42.0251 20.1267 41.4117 19.47 40.9717 18.63C40.5317 17.7833 40.3117 16.7967 40.3117 15.67C40.3117 14.49 40.5284 13.47 40.9617 12.61C41.3951 11.7433 41.9984 11.0767 42.7717 10.61C43.5517 10.1367 44.4651 9.9 45.5117 9.9C46.5984 9.9 47.5217 10.15 48.2817 10.65C49.0484 11.15 49.6217 11.8633 50.0017 12.79C50.3884 13.7167 50.5551 14.82 50.5017 16.1H48.7017V15.46C48.6817 14.1333 48.4117 13.1433 47.8917 12.49C47.3717 11.83 46.5984 11.5 45.5717 11.5C44.4717 11.5 43.6351 11.8533 43.0617 12.56C42.4884 13.2667 42.2017 14.28 42.2017 15.6C42.2017 16.8733 42.4884 17.86 43.0617 18.56C43.6351 19.26 44.4517 19.61 45.5117 19.61C46.2251 19.61 46.8451 19.4467 47.3717 19.12C47.8984 18.7933 48.3117 18.3233 48.6117 17.71L50.3217 18.3C49.9017 19.2533 49.2684 19.9933 48.4217 20.52C47.5817 21.04 46.6384 21.3 45.5917 21.3ZM41.6017 16.1V14.67H49.5817V16.1H41.6017ZM61.9281 23V21H52.7181V10.2H54.4981V19.31H59.7881V10.2H61.5681V19.38H63.7081V23H61.9281ZM65.2963 21L65.3063 10.2H67.1063V15.4L71.6363 10.2H73.9463L69.1763 15.6L74.5063 21H72.0163L67.1063 15.8V21H65.2963ZM84.3416 10.2V21H82.6216V13.04L76.9616 21H75.4916V10.2H77.2116V18.05L82.8816 10.2H84.3416ZM91.7922 8.94C91.2922 8.94 90.8355 8.81667 90.4222 8.57C90.0089 8.32333 89.6789 7.99667 89.4322 7.59C89.1855 7.17667 89.0622 6.71667 89.0622 6.21H90.5022C90.5022 6.56333 90.6289 6.86667 90.8822 7.12C91.1355 7.37333 91.4389 7.5 91.7922 7.5C92.1522 7.5 92.4555 7.37333 92.7022 7.12C92.9555 6.86667 93.0822 6.56333 93.0822 6.21H94.5222C94.5222 6.71667 94.3989 7.17667 94.1522 7.59C93.9122 7.99667 93.5822 8.32333 93.1622 8.57C92.7489 8.81667 92.2922 8.94 91.7922 8.94ZM95.9822 10.2V21H94.2622V13.04L88.6022 21H87.1322V10.2H88.8522V18.05L94.5222 10.2H95.9822Z" fill="black"/>
<path d="M60.07 35V31.09H57.74C57.4667 31.09 57.1633 31.08 56.83 31.06C56.5033 31.0333 56.1967 30.9967 55.91 30.95C55.13 30.8033 54.47 30.46 53.93 29.92C53.3967 29.38 53.13 28.6333 53.13 27.68C53.13 26.7533 53.38 26.01 53.88 25.45C54.3867 24.8833 55.01 24.5167 55.75 24.35C56.0833 24.27 56.42 24.2267 56.76 24.22C57.1067 24.2067 57.4 24.2 57.64 24.2H61.85L61.86 35H60.07ZM52.8 35L55.67 30.6H57.59L54.72 35H52.8ZM57.61 29.62H60.07V25.67H57.61C57.4567 25.67 57.2533 25.6767 57 25.69C56.7533 25.7033 56.5167 25.7433 56.29 25.81C56.0767 25.87 55.8667 25.98 55.66 26.14C55.46 26.3 55.2933 26.5067 55.16 26.76C55.0267 27.0133 54.96 27.3133 54.96 27.66C54.96 28.16 55.1 28.5667 55.38 28.88C55.66 29.1867 56 29.3933 56.4 29.5C56.62 29.5533 56.8367 29.5867 57.05 29.6C57.27 29.6133 57.4567 29.62 57.61 29.62ZM68.5395 35.3C67.4729 35.3 66.5295 35.07 65.7095 34.61C64.8895 34.1433 64.2429 33.5033 63.7695 32.69L65.1895 31.77C65.5829 32.3633 66.0529 32.82 66.5995 33.14C67.1462 33.4533 67.7695 33.61 68.4695 33.61C69.2029 33.61 69.7862 33.4433 70.2195 33.11C70.6529 32.77 70.8695 32.3133 70.8695 31.74C70.8695 31.3133 70.7629 30.9867 70.5495 30.76C70.3362 30.5333 70.0295 30.3767 69.6295 30.29C69.2295 30.2033 68.7529 30.16 68.1995 30.16H67.0795V28.69H68.1895C68.8895 28.69 69.4595 28.5767 69.8995 28.35C70.3395 28.1233 70.5595 27.7367 70.5595 27.19C70.5595 26.63 70.3529 26.2233 69.9395 25.97C69.5329 25.71 69.0462 25.58 68.4795 25.58C67.8795 25.58 67.3062 25.7067 66.7595 25.96C66.2129 26.2067 65.7429 26.52 65.3495 26.9L64.2695 25.69C64.8295 25.1167 65.4729 24.6767 66.1995 24.37C66.9329 24.0567 67.7295 23.9 68.5895 23.9C69.2829 23.9 69.9162 24.0233 70.4895 24.27C71.0695 24.51 71.5295 24.8667 71.8695 25.34C72.2162 25.8067 72.3895 26.3767 72.3895 27.05C72.3895 27.6233 72.2562 28.1333 71.9895 28.58C71.7229 29.0267 71.3295 29.4167 70.8095 29.75L70.7395 29.12C71.1795 29.2267 71.5429 29.4233 71.8295 29.71C72.1229 29.99 72.3395 30.3233 72.4795 30.71C72.6195 31.0967 72.6895 31.5 72.6895 31.92C72.6895 32.6267 72.5029 33.2333 72.1295 33.74C71.7629 34.24 71.2662 34.6267 70.6395 34.9C70.0129 35.1667 69.3129 35.3 68.5395 35.3ZM74.8844 35L74.8744 24.2H76.6644V28.11H78.3144C78.6277 28.11 78.9477 28.1167 79.2744 28.13C79.601 28.1433 79.8844 28.1733 80.1244 28.22C80.6844 28.3333 81.1744 28.5233 81.5944 28.79C82.0144 29.0567 82.341 29.4167 82.5744 29.87C82.8077 30.3233 82.9244 30.8867 82.9244 31.56C82.9244 32.4933 82.681 33.2333 82.1944 33.78C81.7144 34.32 81.0844 34.68 80.3044 34.86C80.0377 34.92 79.731 34.96 79.3844 34.98C79.0444 34.9933 78.721 35 78.4144 35H74.8844ZM76.6644 33.53H78.4444C78.6444 33.53 78.8677 33.5233 79.1144 33.51C79.361 33.4967 79.581 33.4633 79.7744 33.41C80.1144 33.31 80.4177 33.1133 80.6844 32.82C80.9577 32.5267 81.0944 32.1067 81.0944 31.56C81.0944 31.0067 80.961 30.58 80.6944 30.28C80.4344 29.98 80.091 29.7833 79.6644 29.69C79.471 29.6433 79.2677 29.6133 79.0544 29.6C78.841 29.5867 78.6377 29.58 78.4444 29.58H76.6644V33.53ZM84.1644 35V24.2H85.9444V35H84.1644ZM88.7416 35L88.7516 24.2H90.5516V29.4L95.0816 24.2H97.3916L92.6216 29.6L97.9516 35H95.4616L90.5516 29.8V35H88.7416Z" fill="black"/>
<path fill-rule="evenodd" clip-rule="evenodd" d="M122.375 6.45125V5.3625C122.375 4.1925 123.326 3.25 124.487 3.25H125.243C125.901 3.25 126.486 3.55062 126.876 4.02187C127.291 3.9975 127.892 3.9975 128.558 4.095C129.72 4.2575 131.044 4.72875 131.93 5.80125C132.531 6.52438 132.937 7.53188 132.937 8.9375C132.937 11.0419 131.922 12.1469 131.312 12.6263C131.312 13.7313 130.419 14.625 129.314 14.625H126.584C126.088 16.4613 125.349 18.2731 124.309 20.0363C125.3 20.6538 126.218 21.3525 126.925 22.2463C127.713 23.2294 128.062 24.6513 128.387 26.1219C128.656 27.3569 128.907 28.6406 129.549 29.6156C129.874 30.1113 130.402 30.4606 130.931 30.7694C131.581 31.1513 132.247 31.46 132.718 31.7688C133.401 32.2156 133.75 32.7519 133.75 33.3044C133.75 34.1169 133.311 34.71 132.572 35.1C131.418 35.7094 129.306 35.7419 128.062 35.7419C127.185 35.7419 126.307 35.5306 125.438 35.3113C124.691 35.1244 123.943 34.9294 123.187 34.9294C122.562 34.9294 122.091 35.0513 121.571 35.1894C120.636 35.4331 119.556 35.7419 117.5 35.7419C115.444 35.7419 114.364 35.4331 113.429 35.1894C112.909 35.0513 112.438 34.9294 111.812 34.9294C111.057 34.9294 110.309 35.1244 109.562 35.3113C108.684 35.5306 107.815 35.7419 106.937 35.7419C105.694 35.7419 103.582 35.7094 102.428 35.1C101.681 34.71 101.25 34.1169 101.25 33.3044C101.25 32.7519 101.599 32.2156 102.282 31.7688C102.761 31.4519 103.427 31.1431 104.069 30.7694C104.597 30.4606 105.117 30.1031 105.451 29.6156C106.101 28.6406 106.344 27.3569 106.612 26.1219C106.929 24.6513 107.287 23.2375 108.075 22.2463C108.782 21.3525 109.708 20.6619 110.691 20.0363C109.651 18.2731 108.912 16.4613 108.416 14.625H105.686C104.581 14.625 103.687 13.7313 103.687 12.6263C103.078 12.155 102.062 11.0419 102.062 8.9375C102.062 7.53188 102.477 6.5325 103.07 5.80125C103.956 4.72875 105.28 4.2575 106.442 4.095C107.108 3.9975 107.709 3.9975 108.116 4.02187C108.506 3.55062 109.091 3.25 109.741 3.25H110.504C111.674 3.25 112.617 4.1925 112.617 5.3625V6.45125C113.624 6.54063 114.534 7.085 115.225 7.84062C115.729 7.58063 116.476 7.3125 117.492 7.3125C118.507 7.3125 119.255 7.58063 119.759 7.84062C120.449 7.085 121.359 6.54063 122.367 6.45125H122.375ZM110.716 21.9781C110.204 22.3519 109.732 22.7663 109.351 23.2538C108.709 24.0663 108.465 25.2525 108.205 26.4631C107.888 27.9013 107.563 29.38 106.807 30.5094C106.06 31.6388 104.622 32.305 103.566 32.8981C103.354 33.02 103.159 33.1338 103.005 33.2475C102.964 33.28 102.907 33.3369 102.883 33.3694C102.899 33.4588 102.964 33.5238 103.037 33.5806C103.176 33.6863 103.354 33.7594 103.557 33.8244C104.573 34.1494 106.027 34.125 106.937 34.125C107.685 34.125 108.424 33.93 109.172 33.7431C110.049 33.5238 110.927 33.3125 111.812 33.3125C112.592 33.3125 113.186 33.4506 113.844 33.6294C114.681 33.8488 115.647 34.125 117.5 34.125C119.352 34.125 120.311 33.8488 121.156 33.6294C121.814 33.4588 122.407 33.3125 123.187 33.3125C124.081 33.3125 124.959 33.5238 125.828 33.7431C126.576 33.93 127.315 34.125 128.062 34.125C128.972 34.125 130.427 34.1494 131.442 33.8244C131.637 33.7594 131.824 33.6863 131.962 33.5806C132.036 33.5238 132.101 33.4588 132.117 33.3694C132.084 33.3369 132.036 33.28 131.995 33.2475C131.841 33.1256 131.654 33.0119 131.434 32.8981C130.378 32.3131 128.94 31.6388 128.192 30.5094C127.445 29.38 127.112 27.9013 126.795 26.4631C126.535 25.2525 126.291 24.0663 125.649 23.2538C125.259 22.7663 124.796 22.3519 124.284 21.9781L125.341 28.3075C125.568 29.6563 124.666 30.94 123.326 31.2C123.326 31.2 123.317 31.2 123.309 31.2C121.936 31.4275 119.856 31.6875 117.5 31.6875C115.144 31.6875 113.064 31.4194 111.691 31.1919C111.691 31.1919 111.682 31.1919 111.674 31.1919C110.326 30.94 109.432 29.6563 109.659 28.3075C109.944 26.5606 110.407 23.79 110.707 21.9781H110.716ZM122.505 21.125H112.511C112.259 22.6525 111.634 26.3981 111.276 28.5675C111.195 29.0469 111.512 29.4938 111.983 29.5831C113.291 29.8025 115.274 30.0544 117.508 30.0544C119.742 30.0544 121.733 29.8025 123.049 29.5831C123.521 29.4856 123.829 29.0388 123.748 28.5594L122.505 21.1169V21.125ZM119.954 24.3506C119.905 25.8375 120.1 27.3244 120.856 28.8031C121.059 29.2013 121.546 29.3638 121.944 29.1606C122.342 28.9575 122.505 28.47 122.302 28.0719C121.684 26.8531 121.538 25.6263 121.579 24.3994C121.595 23.9525 121.237 23.5788 120.791 23.5625C120.344 23.5463 119.97 23.9038 119.954 24.3506ZM113.446 22.7744C113.486 24.0013 113.34 25.2281 112.722 26.4469C112.519 26.845 112.682 27.3325 113.08 27.5356C113.478 27.7388 113.966 27.5763 114.169 27.1781C114.916 25.6994 115.111 24.2125 115.071 22.7256C115.054 22.2788 114.681 21.9213 114.234 21.9375C113.787 21.9538 113.429 22.3275 113.446 22.7744ZM122.741 19.5H112.267C109.529 15.0069 108.92 10.2294 109.269 5.33C109.286 5.07813 109.497 4.88313 109.757 4.88313H110.512C110.781 4.88313 111 5.1025 111 5.37063V8.10063C111 10.8063 113.194 13.0081 115.907 13.0081H119.092C121.798 13.0081 124 10.8144 124 8.10063V5.37063C124 5.1025 124.219 4.88313 124.487 4.88313H125.243C125.495 4.88313 125.706 5.07813 125.731 5.33813C126.08 10.2456 125.471 15.0231 122.732 19.5081L122.741 19.5ZM115.688 16.25L113.892 17.1519C113.494 17.355 113.332 17.8425 113.527 18.2406C113.73 18.6388 114.217 18.8013 114.616 18.6063L117.5 17.16L120.384 18.6063C120.782 18.8094 121.278 18.6469 121.473 18.2406C121.676 17.8425 121.514 17.3469 121.107 17.1519L119.312 16.25L121.107 15.3481C121.506 15.145 121.668 14.6575 121.473 14.2594C121.27 13.8612 120.782 13.6988 120.384 13.8938L117.5 15.34L114.616 13.8938C114.217 13.6906 113.722 13.8531 113.527 14.2594C113.324 14.6575 113.486 15.1531 113.892 15.3481L115.688 16.25ZM127.388 5.63875C127.534 8.13313 127.445 10.595 126.974 13H129.322C129.533 13 129.696 12.8294 129.696 12.6263V12.1875C129.696 11.8869 129.866 11.6025 130.142 11.4644C130.142 11.4644 131.321 10.8063 131.321 8.9375C131.321 8.00313 131.077 7.32063 130.679 6.83313C130.069 6.09375 129.135 5.8175 128.331 5.70375C127.989 5.655 127.664 5.63875 127.388 5.63875ZM107.628 5.63875C107.352 5.63875 107.027 5.655 106.686 5.70375C105.881 5.8175 104.947 6.09375 104.337 6.83313C103.939 7.32063 103.696 7.995 103.696 8.9375C103.696 10.8063 104.874 11.4644 104.874 11.4644C105.15 11.6025 105.321 11.8869 105.321 12.1875V12.6263C105.321 12.8375 105.491 13 105.694 13H108.042C107.571 10.5869 107.474 8.13313 107.628 5.63875ZM112.633 8.08438C112.633 9.90438 114.104 11.375 115.916 11.375H119.101C120.912 11.375 122.383 9.90438 122.383 8.0925C121.66 8.19 121.042 8.75875 120.62 9.38438C120.482 9.5875 120.262 9.7175 120.027 9.74188C119.783 9.76625 119.547 9.67688 119.369 9.50625C119.369 9.50625 118.743 8.92938 117.508 8.92938C116.273 8.92938 115.647 9.50625 115.647 9.50625C115.477 9.67688 115.233 9.76625 114.989 9.74188C114.746 9.7175 114.526 9.5875 114.396 9.38438C113.974 8.75063 113.356 8.19 112.633 8.07625V8.08438Z" fill="black"/>
</svg>
