<svg width="110" height="34" viewBox="0 0 110 34" fill="none" xmlns="http://www.w3.org/2000/svg">
<path d="M106.688 3.60938H105.656V3.09375C105.656 1.38755 104.269 0 102.562 0H87.0938C85.3875 0 84 1.38755 84 3.09375V24.75C84 26.4562 85.3875 27.8438 87.0938 27.8438H88.125V28.3594C88.125 30.0656 89.5125 31.4531 91.2188 31.4531H106.688C108.394 31.4531 109.781 30.0656 109.781 28.3594V6.70312C109.781 4.99692 108.394 3.60938 106.688 3.60938ZM87.0938 25.7812C86.525 25.7812 86.0625 25.3187 86.0625 24.75V3.09375C86.0625 2.52502 86.525 2.0625 87.0938 2.0625H102.562C103.131 2.0625 103.594 2.52502 103.594 3.09375V3.60938H91.2188C89.5125 3.60938 88.125 4.99692 88.125 6.70312V25.7812H87.0938ZM107.719 28.3594C107.719 28.9281 107.256 29.3906 106.688 29.3906H91.2188C90.65 29.3906 90.1875 28.9281 90.1875 28.3594V6.70312C90.1875 6.13439 90.65 5.67188 91.2188 5.67188H106.688C107.256 5.67188 107.719 6.13439 107.719 6.70312V28.3594Z" fill="black"/>
<path d="M94.0989 16.1978C94.2964 16.3953 94.5594 16.5 94.828 16.5C94.961 16.5 95.0951 16.4742 95.223 16.4216C95.6081 16.2618 95.8592 15.8859 95.8592 15.4688V9.28125H103.594C104.163 9.28125 104.625 8.81925 104.625 8.25C104.625 7.68075 104.163 7.21875 103.594 7.21875H94.828C94.2587 7.21875 93.7967 7.68075 93.7967 8.25V12.9793L93.4946 12.6772C93.0919 12.2745 92.4391 12.2745 92.0364 12.6772C91.6337 13.0799 91.6337 13.7326 92.0364 14.1353L94.0989 16.1978Z" fill="black"/>
<path d="M102.047 15.4688C102.047 14.8995 101.585 14.4375 101.016 14.4375H100.927C101.311 14.0436 101.531 13.5037 101.531 12.953C101.531 11.7815 100.578 10.8281 99.4064 10.8281H98.4375C97.8683 10.8281 97.4062 11.2901 97.4062 11.8594C97.4062 12.4286 97.8683 12.8906 98.4375 12.8906H99.4064C99.4404 12.8906 99.4688 12.919 99.4507 12.9974L97.7084 14.7397C97.4135 15.0346 97.3253 15.478 97.4846 15.8637C97.6445 16.2489 98.0204 16.5 98.4375 16.5H101.016C101.585 16.5 102.047 16.038 102.047 15.4688ZM96.375 20.1094C95.8058 20.1094 95.3438 20.5714 95.3438 21.1406C95.3438 21.7099 95.8058 22.1719 96.375 22.1719H97.4062C97.9755 22.1719 98.4375 21.7099 98.4375 21.1406C98.4375 20.5714 97.9755 20.1094 97.4062 20.1094H96.375ZM102.562 25.7812H92.7656C92.1964 25.7812 91.7344 26.2433 91.7344 26.8125C91.7344 27.3817 92.1964 27.8438 92.7656 27.8438H102.562C103.132 27.8438 103.594 27.3817 103.594 26.8125C103.594 26.2433 103.132 25.7812 102.562 25.7812ZM94.4156 18.2531C93.9588 17.9108 93.3137 18.0046 92.9719 18.4589C91.788 20.0377 91.788 22.243 92.9719 23.8214C93.1745 24.091 93.4839 24.2339 93.7979 24.2339C94.0129 24.2339 94.23 24.1668 94.4156 24.0276C94.8714 23.6863 94.9632 23.0397 94.6214 22.5839C93.984 21.7341 93.984 20.5466 94.6214 19.6964C94.9637 19.2411 94.8714 18.5945 94.4156 18.2531ZM99.3656 24.0281C99.5512 24.1679 99.7683 24.2344 99.9833 24.2344C100.297 24.2344 100.607 24.0921 100.809 23.8219C101.993 22.243 101.993 20.0377 100.809 18.4594C100.468 18.0046 99.823 17.9113 99.3656 18.2536C98.9098 18.595 98.818 19.2416 99.1599 19.6974C99.7972 20.5471 99.7972 21.7346 99.1599 22.5849C98.8175 23.0402 98.9098 23.6868 99.3656 24.0281ZM105.141 20.1094H103.594C103.025 20.1094 102.562 20.5714 102.562 21.1406C102.562 21.7099 103.025 22.1719 103.594 22.1719H105.141C105.71 22.1719 106.172 21.7099 106.172 21.1406C106.172 20.5714 105.71 20.1094 105.141 20.1094Z" fill="black"/>
<path d="M0.4 28L5.22 13.6H7.7L12.52 28H10.67L6.16 14.64H6.72L2.25 28H0.4ZM2.72 24.63V22.96H10.2V24.63H2.72ZM13.3102 28V26.47C13.7102 26.5433 14.0135 26.53 14.2202 26.43C14.4335 26.3233 14.5902 26.14 14.6902 25.88C14.7968 25.6133 14.8835 25.28 14.9502 24.88C15.0635 24.2467 15.1602 23.54 15.2402 22.76C15.3268 21.98 15.4035 21.1267 15.4702 20.2C15.5435 19.2667 15.6102 18.2667 15.6702 17.2H23.2202V28H21.4402V18.89H17.2902C17.2502 19.5033 17.2002 20.1333 17.1402 20.78C17.0868 21.4267 17.0302 22.0567 16.9702 22.67C16.9102 23.2767 16.8435 23.8433 16.7702 24.37C16.7035 24.89 16.6302 25.34 16.5502 25.72C16.4235 26.3733 16.2468 26.8967 16.0202 27.29C15.7935 27.6767 15.4668 27.9267 15.0402 28.04C14.6135 28.16 14.0368 28.1467 13.3102 28ZM26.0289 28V17.2H33.5289V18.89H27.8089V28H26.0289ZM40.1034 28.3C39.0434 28.3 38.1168 28.0667 37.3234 27.6C36.5368 27.1267 35.9234 26.47 35.4834 25.63C35.0434 24.7833 34.8234 23.7967 34.8234 22.67C34.8234 21.49 35.0401 20.47 35.4734 19.61C35.9068 18.7433 36.5101 18.0767 37.2834 17.61C38.0634 17.1367 38.9768 16.9 40.0234 16.9C41.1101 16.9 42.0334 17.15 42.7934 17.65C43.5601 18.15 44.1334 18.8633 44.5134 19.79C44.9001 20.7167 45.0668 21.82 45.0134 23.1H43.2134V22.46C43.1934 21.1333 42.9234 20.1433 42.4034 19.49C41.8834 18.83 41.1101 18.5 40.0834 18.5C38.9834 18.5 38.1468 18.8533 37.5734 19.56C37.0001 20.2667 36.7134 21.28 36.7134 22.6C36.7134 23.8733 37.0001 24.86 37.5734 25.56C38.1468 26.26 38.9634 26.61 40.0234 26.61C40.7368 26.61 41.3568 26.4467 41.8834 26.12C42.4101 25.7933 42.8234 25.3233 43.1234 24.71L44.8334 25.3C44.4134 26.2533 43.7801 26.9933 42.9334 27.52C42.0934 28.04 41.1501 28.3 40.1034 28.3ZM36.1134 23.1V21.67H44.0934V23.1H36.1134ZM51.6298 28.31C50.6098 28.3033 49.7398 28.0833 49.0198 27.65C48.2998 27.21 47.7398 26.5667 47.3398 25.72C46.9398 24.8733 46.7165 23.8367 46.6698 22.61C46.6432 22.0433 46.6498 21.42 46.6898 20.74C46.7365 20.06 46.8098 19.4067 46.9098 18.78C47.0165 18.1533 47.1498 17.6367 47.3098 17.23C47.4898 16.7433 47.7432 16.2933 48.0698 15.88C48.4032 15.46 48.7765 15.1133 49.1898 14.84C49.6098 14.5533 50.0798 14.33 50.5998 14.17C51.1198 14.01 51.6632 13.8867 52.2298 13.8C52.8032 13.7067 53.3765 13.6267 53.9498 13.56C54.5232 13.4867 55.0698 13.4 55.5898 13.3L55.7698 14.9C55.4032 14.98 54.9698 15.05 54.4698 15.11C53.9698 15.1633 53.4498 15.2267 52.9098 15.3C52.3765 15.3733 51.8632 15.4767 51.3698 15.61C50.8832 15.7367 50.4632 15.9133 50.1098 16.14C49.5898 16.4533 49.1898 16.9233 48.9098 17.55C48.6365 18.17 48.4698 18.8667 48.4098 19.64C48.8232 19 49.3598 18.53 50.0198 18.23C50.6798 17.93 51.3832 17.78 52.1298 17.78C53.0965 17.78 53.9298 18.0067 54.6298 18.46C55.3298 18.9067 55.8665 19.5233 56.2398 20.31C56.6198 21.0967 56.8098 21.9933 56.8098 23C56.8098 24.0667 56.5965 25 56.1698 25.8C55.7432 26.6 55.1398 27.22 54.3598 27.66C53.5865 28.1 52.6765 28.3167 51.6298 28.31ZM51.7398 26.62C52.7865 26.62 53.5798 26.2967 54.1198 25.65C54.6598 24.9967 54.9298 24.13 54.9298 23.05C54.9298 21.9433 54.6498 21.0733 54.0898 20.44C53.5298 19.8 52.7432 19.48 51.7298 19.48C50.7032 19.48 49.9165 19.8 49.3698 20.44C48.8298 21.0733 48.5598 21.9433 48.5598 23.05C48.5598 24.1633 48.8332 25.0367 49.3798 25.67C49.9265 26.3033 50.7132 26.62 51.7398 26.62ZM63.9772 28.3C62.9639 28.3 62.1105 28.05 61.4172 27.55C60.7239 27.0433 60.1972 26.36 59.8372 25.5C59.4839 24.6333 59.3072 23.6633 59.3072 22.59C59.3072 21.5033 59.4839 20.53 59.8372 19.67C60.1972 18.81 60.7239 18.1333 61.4172 17.64C62.1172 17.1467 62.9739 16.9 63.9872 16.9C64.9872 16.9 65.8472 17.15 66.5672 17.65C67.2939 18.1433 67.8505 18.82 68.2372 19.68C68.6239 20.54 68.8172 21.51 68.8172 22.59C68.8172 23.67 68.6239 24.64 68.2372 25.5C67.8505 26.36 67.2939 27.0433 66.5672 27.55C65.8472 28.05 64.9839 28.3 63.9772 28.3ZM59.0072 32.8V17.2H60.5972V25.15H60.7972V32.8H59.0072ZM63.7572 26.67C64.4705 26.67 65.0605 26.49 65.5272 26.13C65.9939 25.77 66.3439 25.2833 66.5772 24.67C66.8105 24.05 66.9272 23.3567 66.9272 22.59C66.9272 21.83 66.8105 21.1433 66.5772 20.53C66.3505 19.9167 65.9972 19.43 65.5172 19.07C65.0439 18.71 64.4405 18.53 63.7072 18.53C63.0072 18.53 62.4272 18.7033 61.9672 19.05C61.5072 19.39 61.1639 19.8667 60.9372 20.48C60.7105 21.0867 60.5972 21.79 60.5972 22.59C60.5972 23.3767 60.7072 24.08 60.9272 24.7C61.1539 25.3133 61.5005 25.7967 61.9672 26.15C62.4339 26.4967 63.0305 26.67 63.7572 26.67ZM74.0794 28.3C73.2727 28.3 72.596 28.1533 72.0494 27.86C71.5094 27.56 71.0994 27.1667 70.8194 26.68C70.546 26.1933 70.4094 25.66 70.4094 25.08C70.4094 24.5133 70.516 24.0233 70.7294 23.61C70.9494 23.19 71.256 22.8433 71.6494 22.57C72.0427 22.29 72.5127 22.07 73.0594 21.91C73.5727 21.77 74.146 21.65 74.7794 21.55C75.4194 21.4433 76.066 21.3467 76.7194 21.26C77.3727 21.1733 77.9827 21.09 78.5494 21.01L77.9094 21.38C77.9294 20.42 77.736 19.71 77.3294 19.25C76.9294 18.79 76.236 18.56 75.2494 18.56C74.596 18.56 74.0227 18.71 73.5294 19.01C73.0427 19.3033 72.6994 19.7833 72.4994 20.45L70.8094 19.94C71.0694 18.9933 71.5727 18.25 72.3194 17.71C73.066 17.17 74.0494 16.9 75.2694 16.9C76.2494 16.9 77.0894 17.0767 77.7894 17.43C78.496 17.7767 79.0027 18.3033 79.3094 19.01C79.4627 19.3433 79.5594 19.7067 79.5994 20.1C79.6394 20.4867 79.6594 20.8933 79.6594 21.32V28H78.0794V25.41L78.4494 25.65C78.0427 26.5233 77.4727 27.1833 76.7394 27.63C76.0127 28.0767 75.126 28.3 74.0794 28.3ZM74.3494 26.81C74.9894 26.81 75.5427 26.6967 76.0094 26.47C76.4827 26.2367 76.8627 25.9333 77.1494 25.56C77.436 25.18 77.6227 24.7667 77.7094 24.32C77.8094 23.9867 77.8627 23.6167 77.8694 23.21C77.8827 22.7967 77.8894 22.48 77.8894 22.26L78.5094 22.53C77.9294 22.61 77.3594 22.6867 76.7994 22.76C76.2394 22.8333 75.7094 22.9133 75.2094 23C74.7094 23.08 74.2594 23.1767 73.8594 23.29C73.566 23.3833 73.2894 23.5033 73.0294 23.65C72.776 23.7967 72.5694 23.9867 72.4094 24.22C72.256 24.4467 72.1794 24.73 72.1794 25.07C72.1794 25.3633 72.2527 25.6433 72.3994 25.91C72.5527 26.1767 72.786 26.3933 73.0994 26.56C73.4194 26.7267 73.836 26.81 74.3494 26.81Z" fill="black"/>
</svg>
