<svg width="133" height="40" viewBox="0 0 133 40" fill="none" xmlns="http://www.w3.org/2000/svg">
<path d="M1.4 34V19.6H10.54V21.29H3.18V25.12H7.09C7.23 25.12 7.39667 25.1267 7.59 25.14C7.78333 25.1467 7.97 25.1633 8.15 25.19C8.91 25.2833 9.55333 25.5367 10.08 25.95C10.6133 26.3567 11.0167 26.8733 11.29 27.5C11.57 28.1267 11.71 28.8133 11.71 29.56C11.71 30.3 11.5733 30.9833 11.3 31.61C11.0267 32.2367 10.6233 32.7567 10.09 33.17C9.56333 33.5767 8.91667 33.83 8.15 33.93C7.97 33.95 7.78333 33.9667 7.59 33.98C7.39667 33.9933 7.23 34 7.09 34H1.4ZM3.18 32.31H7.03C7.15667 32.31 7.3 32.3033 7.46 32.29C7.62667 32.2767 7.78333 32.2567 7.93 32.23C8.62333 32.09 9.12333 31.76 9.43 31.24C9.73667 30.7133 9.89 30.1533 9.89 29.56C9.89 28.9533 9.73667 28.3933 9.43 27.88C9.12333 27.36 8.62333 27.03 7.93 26.89C7.78333 26.8567 7.62667 26.8367 7.46 26.83C7.3 26.8167 7.15667 26.81 7.03 26.81H3.18V32.31ZM22.5447 23.2V34H20.8247V26.04L15.1647 34H13.6947V23.2H15.4147V31.05L21.0847 23.2H22.5447ZM29.9453 34.3C28.872 34.3 27.9453 34.0567 27.1653 33.57C26.392 33.0833 25.7953 32.41 25.3753 31.55C24.9553 30.69 24.7453 29.7033 24.7453 28.59C24.7453 27.4567 24.9586 26.4633 25.3853 25.61C25.812 24.7567 26.4153 24.0933 27.1953 23.62C27.9753 23.14 28.892 22.9 29.9453 22.9C31.0253 22.9 31.9553 23.1433 32.7353 23.63C33.5153 24.11 34.112 24.78 34.5253 25.64C34.9453 26.4933 35.1553 27.4767 35.1553 28.59C35.1553 29.7167 34.9453 30.71 34.5253 31.57C34.1053 32.4233 33.5053 33.0933 32.7253 33.58C31.9453 34.06 31.0186 34.3 29.9453 34.3ZM29.9453 32.61C31.0653 32.61 31.8986 32.2367 32.4453 31.49C32.992 30.7433 33.2653 29.7767 33.2653 28.59C33.2653 27.37 32.9886 26.4 32.4353 25.68C31.882 24.9533 31.052 24.59 29.9453 24.59C29.192 24.59 28.572 24.76 28.0853 25.1C27.5986 25.44 27.2353 25.91 26.9953 26.51C26.7553 27.11 26.6353 27.8033 26.6353 28.59C26.6353 29.8033 26.9153 30.7767 27.4753 31.51C28.0353 32.2433 28.8586 32.61 29.9453 32.61ZM36.357 34V32.47C36.757 32.5433 37.0604 32.53 37.267 32.43C37.4804 32.3233 37.637 32.14 37.737 31.88C37.8437 31.6133 37.9304 31.28 37.997 30.88C38.1104 30.2467 38.207 29.54 38.287 28.76C38.3737 27.98 38.4504 27.1267 38.517 26.2C38.5904 25.2667 38.657 24.2667 38.717 23.2H46.267V34H44.487V24.89H40.337C40.297 25.5033 40.247 26.1333 40.187 26.78C40.1337 27.4267 40.077 28.0567 40.017 28.67C39.957 29.2767 39.8904 29.8433 39.817 30.37C39.7504 30.89 39.677 31.34 39.597 31.72C39.4704 32.3733 39.2937 32.8967 39.067 33.29C38.8404 33.6767 38.5137 33.9267 38.087 34.04C37.6604 34.16 37.0837 34.1467 36.357 34ZM53.6758 34.3C52.6024 34.3 51.6758 34.0567 50.8958 33.57C50.1224 33.0833 49.5258 32.41 49.1058 31.55C48.6858 30.69 48.4758 29.7033 48.4758 28.59C48.4758 27.4567 48.6891 26.4633 49.1158 25.61C49.5424 24.7567 50.1458 24.0933 50.9258 23.62C51.7058 23.14 52.6224 22.9 53.6758 22.9C54.7558 22.9 55.6858 23.1433 56.4658 23.63C57.2458 24.11 57.8424 24.78 58.2558 25.64C58.6758 26.4933 58.8858 27.4767 58.8858 28.59C58.8858 29.7167 58.6758 30.71 58.2558 31.57C57.8358 32.4233 57.2358 33.0933 56.4558 33.58C55.6758 34.06 54.7491 34.3 53.6758 34.3ZM53.6758 32.61C54.7958 32.61 55.6291 32.2367 56.1758 31.49C56.7224 30.7433 56.9958 29.7767 56.9958 28.59C56.9958 27.37 56.7191 26.4 56.1658 25.68C55.6124 24.9533 54.7824 24.59 53.6758 24.59C52.9224 24.59 52.3024 24.76 51.8158 25.1C51.3291 25.44 50.9658 25.91 50.7258 26.51C50.4858 27.11 50.3658 27.8033 50.3658 28.59C50.3658 29.8033 50.6458 30.7767 51.2058 31.51C51.7658 32.2433 52.5891 32.61 53.6758 32.61ZM61.0875 34V23.2H68.5875V24.89H62.8675V34H61.0875ZM79.322 23.2V34H77.602V26.04L71.942 34H70.472V23.2H72.192V31.05L77.862 23.2H79.322ZM88.7927 34V30.09H86.4627C86.1893 30.09 85.886 30.08 85.5527 30.06C85.226 30.0333 84.9193 29.9967 84.6327 29.95C83.8527 29.8033 83.1927 29.46 82.6527 28.92C82.1193 28.38 81.8527 27.6333 81.8527 26.68C81.8527 25.7533 82.1027 25.01 82.6027 24.45C83.1093 23.8833 83.7327 23.5167 84.4727 23.35C84.806 23.27 85.1427 23.2267 85.4827 23.22C85.8293 23.2067 86.1227 23.2 86.3627 23.2H90.5727L90.5827 34H88.7927ZM81.5227 34L84.3927 29.6H86.3127L83.4427 34H81.5227ZM86.3327 28.62H88.7927V24.67H86.3327C86.1793 24.67 85.976 24.6767 85.7227 24.69C85.476 24.7033 85.2393 24.7433 85.0127 24.81C84.7993 24.87 84.5893 24.98 84.3827 25.14C84.1827 25.3 84.016 25.5067 83.8827 25.76C83.7493 26.0133 83.6827 26.3133 83.6827 26.66C83.6827 27.16 83.8227 27.5667 84.1027 27.88C84.3827 28.1867 84.7227 28.3933 85.1227 28.5C85.3427 28.5533 85.5593 28.5867 85.7727 28.6C85.9927 28.6133 86.1793 28.62 86.3327 28.62Z" fill="black"/>
<path d="M130.688 20.8125H127.327C127.884 18.2526 127.471 15.5799 126.11 13.2917L124.04 9.81425C123.714 9.26619 123.005 9.08639 122.454 9.41245L118.977 11.4821C117.642 12.2771 116.511 13.3634 115.656 14.6399V7.31328C117.002 6.83575 117.969 5.55405 117.969 4.04688C117.969 2.13386 116.413 0.578125 114.5 0.578125H106.406C104.493 0.578125 102.938 2.13386 102.938 4.04688C102.938 5.55405 103.905 6.83575 105.25 7.31328V15.8227L98.3981 25.6109C97.5858 26.7718 97.1562 28.1345 97.1562 29.5514C97.1562 33.3399 100.238 36.4219 104.027 36.4219H121.438C127.175 36.4219 131.844 31.7535 131.844 26.0156V21.9688C131.844 21.3305 131.326 20.8125 130.688 20.8125ZM120.16 13.4697L122.644 11.9909L124.123 14.4745C125.296 16.4459 125.562 18.7844 124.9 20.964C123.592 21.1854 122.34 21.6519 121.21 22.344L122.558 17.0298C122.715 16.4107 122.341 15.7817 121.723 15.6244C121.1 15.466 120.474 15.8424 120.317 16.4604L119.196 20.8784L116.786 17.4351C117.441 15.7857 118.627 14.382 120.16 13.4697ZM106.406 2.89062H114.5C115.138 2.89062 115.656 3.4092 115.656 4.04688C115.656 4.68455 115.138 5.20312 114.5 5.20312H106.406C105.769 5.20312 105.25 4.68455 105.25 4.04688C105.25 3.4092 105.769 2.89062 106.406 2.89062ZM99.4688 29.5514C99.4688 28.6114 99.7538 27.7072 100.293 26.9372L107.354 16.8506C107.49 16.6564 107.562 16.4245 107.562 16.1875V7.51562H113.344V16.1875C113.344 16.4245 113.417 16.6564 113.552 16.85L120.613 26.9372C121.152 27.7072 121.438 28.6114 121.438 29.5514C121.438 32.0645 119.393 34.1094 116.88 34.1094H104.027C101.514 34.1094 99.4688 32.0645 99.4688 29.5514ZM129.531 26.0156C129.531 30.2776 126.219 33.7718 122.034 34.0793C122.871 33.1266 123.447 31.9431 123.656 30.6354L126.88 27.4112C127.331 26.9597 127.331 26.2278 126.88 25.7763C126.428 25.3248 125.697 25.3248 125.245 25.7763L123.456 27.5656C123.247 26.8736 122.93 26.2145 122.508 25.6115L121.861 24.6871C123.242 23.6754 124.913 23.125 126.641 23.125H129.531V26.0156Z" fill="black"/>
<path d="M119.703 29.5537C119.703 28.9727 119.528 28.4131 119.193 27.9304L114.146 20.7269C113.93 20.4182 113.576 20.2344 113.199 20.2344H107.707C107.33 20.2344 106.976 20.4182 106.76 20.7275L101.71 27.935C101.378 28.4131 101.203 28.9727 101.203 29.5537C101.203 31.1089 102.469 32.375 104.024 32.375H116.882C118.438 32.375 119.703 31.1095 119.703 29.5537ZM103.516 29.5537C103.516 29.4427 103.547 29.3445 103.606 29.2572L108.309 22.5469H112.597L117.296 29.2531C117.359 29.3445 117.391 29.4427 117.391 29.5537C117.391 29.8341 117.162 30.0625 116.882 30.0625H104.024C103.744 30.0625 103.516 29.8341 103.516 29.5537Z" fill="black"/>
<path d="M108.152 26.5938H108.147C107.508 26.5938 106.993 27.1118 106.993 27.75C106.993 28.3882 107.513 28.9062 108.152 28.9062C108.791 28.9062 109.309 28.3882 109.309 27.75C109.309 27.1118 108.791 26.5938 108.152 26.5938ZM111.621 24.2812H111.615C110.977 24.2812 110.462 24.7993 110.462 25.4375C110.462 26.0757 110.982 26.5938 111.621 26.5938C112.26 26.5938 112.777 26.0757 112.777 25.4375C112.777 24.7993 112.26 24.2812 111.621 24.2812Z" fill="black"/>
</svg>
