<svg width="155" height="38" viewBox="0 0 155 38" fill="none" xmlns="http://www.w3.org/2000/svg">
<path d="M0.4 32V30.45C0.753333 30.4833 1.04667 30.4667 1.28 30.4C1.51333 30.3333 1.70333 30.19 1.85 29.97C2.00333 29.75 2.13667 29.43 2.25 29.01C2.36333 28.5833 2.47333 28.03 2.58 27.35C2.72 26.55 2.83667 25.7433 2.93 24.93C3.02333 24.11 3.10333 23.29 3.17 22.47C3.24333 21.6433 3.30333 20.8233 3.35 20.01C3.39667 19.19 3.43667 18.3867 3.47 17.6H12.74V32H10.96V19.29H5.16C5.12 19.8967 5.07667 20.5467 5.03 21.24C4.99 21.9267 4.93667 22.6433 4.87 23.39C4.80333 24.1367 4.72333 24.9067 4.63 25.7C4.53667 26.4933 4.42 27.3 4.28 28.12C4.16667 28.78 4.03 29.3833 3.87 29.93C3.71667 30.4767 3.5 30.9333 3.22 31.3C2.94667 31.6667 2.58333 31.9167 2.13 32.05C1.68333 32.1833 1.10667 32.1667 0.4 32ZM24.3806 21.2V32H22.6606V24.04L17.0006 32H15.5306V21.2H17.2506V29.05L22.9206 21.2H24.3806ZM30.0413 32V22.82H26.2813V21.2H35.5813V22.82H31.8213V32H30.0413ZM42.1542 32.3C41.0942 32.3 40.1676 32.0667 39.3742 31.6C38.5876 31.1267 37.9742 30.47 37.5342 29.63C37.0942 28.7833 36.8742 27.7967 36.8742 26.67C36.8742 25.49 37.0909 24.47 37.5242 23.61C37.9576 22.7433 38.5609 22.0767 39.3342 21.61C40.1142 21.1367 41.0276 20.9 42.0742 20.9C43.1609 20.9 44.0842 21.15 44.8442 21.65C45.6109 22.15 46.1842 22.8633 46.5642 23.79C46.9509 24.7167 47.1176 25.82 47.0642 27.1H45.2642V26.46C45.2442 25.1333 44.9742 24.1433 44.4542 23.49C43.9342 22.83 43.1609 22.5 42.1342 22.5C41.0342 22.5 40.1976 22.8533 39.6242 23.56C39.0509 24.2667 38.7642 25.28 38.7642 26.6C38.7642 27.8733 39.0509 28.86 39.6242 29.56C40.1976 30.26 41.0142 30.61 42.0742 30.61C42.7876 30.61 43.4076 30.4467 43.9342 30.12C44.4609 29.7933 44.8742 29.3233 45.1742 28.71L46.8842 29.3C46.4642 30.2533 45.8309 30.9933 44.9842 31.52C44.1442 32.04 43.2009 32.3 42.1542 32.3ZM38.1642 27.1V25.67H46.1442V27.1H38.1642ZM54.2506 32.3C53.2373 32.3 52.384 32.05 51.6906 31.55C50.9973 31.0433 50.4706 30.36 50.1106 29.5C49.7573 28.6333 49.5806 27.6633 49.5806 26.59C49.5806 25.5033 49.7573 24.53 50.1106 23.67C50.4706 22.81 50.9973 22.1333 51.6906 21.64C52.3906 21.1467 53.2473 20.9 54.2606 20.9C55.2606 20.9 56.1206 21.15 56.8406 21.65C57.5673 22.1433 58.124 22.82 58.5106 23.68C58.8973 24.54 59.0906 25.51 59.0906 26.59C59.0906 27.67 58.8973 28.64 58.5106 29.5C58.124 30.36 57.5673 31.0433 56.8406 31.55C56.1206 32.05 55.2573 32.3 54.2506 32.3ZM49.2806 36.8V21.2H50.8706V29.15H51.0706V36.8H49.2806ZM54.0306 30.67C54.744 30.67 55.334 30.49 55.8006 30.13C56.2673 29.77 56.6173 29.2833 56.8506 28.67C57.084 28.05 57.2006 27.3567 57.2006 26.59C57.2006 25.83 57.084 25.1433 56.8506 24.53C56.624 23.9167 56.2706 23.43 55.7906 23.07C55.3173 22.71 54.714 22.53 53.9806 22.53C53.2806 22.53 52.7006 22.7033 52.2406 23.05C51.7806 23.39 51.4373 23.8667 51.2106 24.48C50.984 25.0867 50.8706 25.79 50.8706 26.59C50.8706 27.3767 50.9806 28.08 51.2006 28.7C51.4273 29.3133 51.774 29.7967 52.2406 30.15C52.7073 30.4967 53.304 30.67 54.0306 30.67ZM64.3528 32.3C63.5461 32.3 62.8695 32.1533 62.3228 31.86C61.7828 31.56 61.3728 31.1667 61.0928 30.68C60.8195 30.1933 60.6828 29.66 60.6828 29.08C60.6828 28.5133 60.7895 28.0233 61.0028 27.61C61.2228 27.19 61.5295 26.8433 61.9228 26.57C62.3161 26.29 62.7861 26.07 63.3328 25.91C63.8461 25.77 64.4195 25.65 65.0528 25.55C65.6928 25.4433 66.3395 25.3467 66.9928 25.26C67.6461 25.1733 68.2561 25.09 68.8228 25.01L68.1828 25.38C68.2028 24.42 68.0095 23.71 67.6028 23.25C67.2028 22.79 66.5095 22.56 65.5228 22.56C64.8695 22.56 64.2961 22.71 63.8028 23.01C63.3161 23.3033 62.9728 23.7833 62.7728 24.45L61.0828 23.94C61.3428 22.9933 61.8461 22.25 62.5928 21.71C63.3395 21.17 64.3228 20.9 65.5428 20.9C66.5228 20.9 67.3628 21.0767 68.0628 21.43C68.7695 21.7767 69.2761 22.3033 69.5828 23.01C69.7361 23.3433 69.8328 23.7067 69.8728 24.1C69.9128 24.4867 69.9328 24.8933 69.9328 25.32V32H68.3528V29.41L68.7228 29.65C68.3161 30.5233 67.7461 31.1833 67.0128 31.63C66.2861 32.0767 65.3995 32.3 64.3528 32.3ZM64.6228 30.81C65.2628 30.81 65.8161 30.6967 66.2828 30.47C66.7561 30.2367 67.1361 29.9333 67.4228 29.56C67.7095 29.18 67.8961 28.7667 67.9828 28.32C68.0828 27.9867 68.1361 27.6167 68.1428 27.21C68.1561 26.7967 68.1628 26.48 68.1628 26.26L68.7828 26.53C68.2028 26.61 67.6328 26.6867 67.0728 26.76C66.5128 26.8333 65.9828 26.9133 65.4828 27C64.9828 27.08 64.5328 27.1767 64.1328 27.29C63.8395 27.3833 63.5628 27.5033 63.3028 27.65C63.0495 27.7967 62.8428 27.9867 62.6828 28.22C62.5295 28.4467 62.4528 28.73 62.4528 29.07C62.4528 29.3633 62.5261 29.6433 62.6728 29.91C62.8261 30.1767 63.0595 30.3933 63.3728 30.56C63.6928 30.7267 64.1095 30.81 64.6228 30.81ZM75.3928 32V22.82H71.6328V21.2H80.9328V22.82H77.1728V32H75.3928ZM84.1305 36.8L86.2205 31.12L86.2505 32.8L81.5305 21.2H83.4005L87.1005 30.53H86.4605L89.9305 21.2H91.7405L85.8605 36.8H84.1305ZM98.3522 32.3C97.3389 32.3 96.4855 32.05 95.7922 31.55C95.0989 31.0433 94.5722 30.36 94.2122 29.5C93.8589 28.6333 93.6822 27.6633 93.6822 26.59C93.6822 25.5033 93.8589 24.53 94.2122 23.67C94.5722 22.81 95.0989 22.1333 95.7922 21.64C96.4922 21.1467 97.3489 20.9 98.3622 20.9C99.3622 20.9 100.222 21.15 100.942 21.65C101.669 22.1433 102.226 22.82 102.612 23.68C102.999 24.54 103.192 25.51 103.192 26.59C103.192 27.67 102.999 28.64 102.612 29.5C102.226 30.36 101.669 31.0433 100.942 31.55C100.222 32.05 99.3589 32.3 98.3522 32.3ZM93.3822 36.8V21.2H94.9722V29.15H95.1722V36.8H93.3822ZM98.1322 30.67C98.8455 30.67 99.4355 30.49 99.9022 30.13C100.369 29.77 100.719 29.2833 100.952 28.67C101.186 28.05 101.302 27.3567 101.302 26.59C101.302 25.83 101.186 25.1433 100.952 24.53C100.726 23.9167 100.372 23.43 99.8922 23.07C99.4189 22.71 98.8155 22.53 98.0822 22.53C97.3822 22.53 96.8022 22.7033 96.3422 23.05C95.8822 23.39 95.5389 23.8667 95.3122 24.48C95.0855 25.0867 94.9722 25.79 94.9722 26.59C94.9722 27.3767 95.0822 28.08 95.3022 28.7C95.5289 29.3133 95.8755 29.7967 96.3422 30.15C96.8089 30.4967 97.4055 30.67 98.1322 30.67ZM108.454 32.3C107.648 32.3 106.971 32.1533 106.424 31.86C105.884 31.56 105.474 31.1667 105.194 30.68C104.921 30.1933 104.784 29.66 104.784 29.08C104.784 28.5133 104.891 28.0233 105.104 27.61C105.324 27.19 105.631 26.8433 106.024 26.57C106.418 26.29 106.888 26.07 107.434 25.91C107.948 25.77 108.521 25.65 109.154 25.55C109.794 25.4433 110.441 25.3467 111.094 25.26C111.748 25.1733 112.358 25.09 112.924 25.01L112.284 25.38C112.304 24.42 112.111 23.71 111.704 23.25C111.304 22.79 110.611 22.56 109.624 22.56C108.971 22.56 108.398 22.71 107.904 23.01C107.418 23.3033 107.074 23.7833 106.874 24.45L105.184 23.94C105.444 22.9933 105.948 22.25 106.694 21.71C107.441 21.17 108.424 20.9 109.644 20.9C110.624 20.9 111.464 21.0767 112.164 21.43C112.871 21.7767 113.378 22.3033 113.684 23.01C113.838 23.3433 113.934 23.7067 113.974 24.1C114.014 24.4867 114.034 24.8933 114.034 25.32V32H112.454V29.41L112.824 29.65C112.418 30.5233 111.848 31.1833 111.114 31.63C110.388 32.0767 109.501 32.3 108.454 32.3ZM108.724 30.81C109.364 30.81 109.918 30.6967 110.384 30.47C110.858 30.2367 111.238 29.9333 111.524 29.56C111.811 29.18 111.998 28.7667 112.084 28.32C112.184 27.9867 112.238 27.6167 112.244 27.21C112.258 26.7967 112.264 26.48 112.264 26.26L112.884 26.53C112.304 26.61 111.734 26.6867 111.174 26.76C110.614 26.8333 110.084 26.9133 109.584 27C109.084 27.08 108.634 27.1767 108.234 27.29C107.941 27.3833 107.664 27.5033 107.404 27.65C107.151 27.7967 106.944 27.9867 106.784 28.22C106.631 28.4467 106.554 28.73 106.554 29.07C106.554 29.3633 106.628 29.6433 106.774 29.91C106.928 30.1767 107.161 30.3933 107.474 30.56C107.794 30.7267 108.211 30.81 108.724 30.81Z" fill="black"/>
<path d="M131.25 13.0625H124.125C123.81 13.0625 123.508 13.1876 123.285 13.4103C123.063 13.633 122.938 13.9351 122.938 14.25C122.938 14.5649 123.063 14.867 123.285 15.0897C123.508 15.3124 123.81 15.4375 124.125 15.4375H131.25C131.565 15.4375 131.867 15.3124 132.09 15.0897C132.312 14.867 132.438 14.5649 132.438 14.25C132.438 13.9351 132.312 13.633 132.09 13.4103C131.867 13.1876 131.565 13.0625 131.25 13.0625ZM131.25 17.8125H124.125C123.81 17.8125 123.508 17.9376 123.285 18.1603C123.063 18.383 122.938 18.6851 122.938 19C122.938 19.3149 123.063 19.617 123.285 19.8397C123.508 20.0624 123.81 20.1875 124.125 20.1875H131.25C131.565 20.1875 131.867 20.0624 132.09 19.8397C132.312 19.617 132.438 19.3149 132.438 19C132.438 18.6851 132.312 18.383 132.09 18.1603C131.867 17.9376 131.565 17.8125 131.25 17.8125ZM131.25 22.5625H124.125C123.81 22.5625 123.508 22.6876 123.285 22.9103C123.063 23.133 122.938 23.4351 122.938 23.75C122.938 24.0649 123.063 24.367 123.285 24.5897C123.508 24.8124 123.81 24.9375 124.125 24.9375H131.25C131.565 24.9375 131.867 24.8124 132.09 24.5897C132.312 24.367 132.438 24.0649 132.438 23.75C132.438 23.4351 132.312 23.133 132.09 22.9103C131.867 22.6876 131.565 22.5625 131.25 22.5625Z" fill="black"/>
<path d="M151.438 5.9375H140.75C139.828 5.9375 138.919 6.15211 138.095 6.56434C137.27 6.97657 136.553 7.57509 136 8.3125C135.447 7.57509 134.73 6.97657 133.905 6.56434C133.081 6.15211 132.172 5.9375 131.25 5.9375H120.562C119.933 5.9375 119.329 6.18772 118.883 6.63312C118.438 7.07852 118.188 7.68261 118.188 8.3125V29.6875C118.188 30.3174 118.438 30.9215 118.883 31.3669C119.329 31.8123 119.933 32.0625 120.562 32.0625H134.812C135.231 32.0582 135.64 31.9435 136 31.73C136.36 31.9435 136.769 32.0582 137.188 32.0625H151.438C152.067 32.0625 152.671 31.8123 153.117 31.3669C153.562 30.9215 153.812 30.3174 153.812 29.6875V8.3125C153.812 7.68261 153.562 7.07852 153.117 6.63312C152.671 6.18772 152.067 5.9375 151.438 5.9375ZM120.562 29.6875V8.3125H131.25C132.195 8.3125 133.101 8.68783 133.769 9.35593C134.437 10.024 134.812 10.9302 134.812 11.875V29.6875H120.562ZM151.438 29.6875H137.188V11.875C137.188 10.9302 137.563 10.024 138.231 9.35593C138.899 8.68783 139.805 8.3125 140.75 8.3125H151.438V29.6875Z" fill="black"/>
<path d="M139.562 14.25C139.562 14.5649 139.688 14.867 139.91 15.0897C140.133 15.3124 140.435 15.4375 140.75 15.4375H147.875C148.19 15.4375 148.492 15.3124 148.715 15.0897C148.937 14.867 149.062 14.5649 149.062 14.25C149.062 13.9351 148.937 13.633 148.715 13.4103C148.492 13.1876 148.19 13.0625 147.875 13.0625H140.75C140.435 13.0625 140.133 13.1876 139.91 13.4103C139.688 13.633 139.562 13.9351 139.562 14.25ZM147.875 17.8125H140.75C140.435 17.8125 140.133 17.9376 139.91 18.1603C139.688 18.383 139.562 18.6851 139.562 19C139.562 19.3149 139.688 19.617 139.91 19.8397C140.133 20.0624 140.435 20.1875 140.75 20.1875H147.875C148.19 20.1875 148.492 20.0624 148.715 19.8397C148.937 19.617 149.062 19.3149 149.062 19C149.062 18.6851 148.937 18.383 148.715 18.1603C148.492 17.9376 148.19 17.8125 147.875 17.8125ZM147.875 22.5625H140.75C140.435 22.5625 140.133 22.6876 139.91 22.9103C139.688 23.133 139.562 23.4351 139.562 23.75C139.562 24.0649 139.688 24.367 139.91 24.5897C140.133 24.8124 140.435 24.9375 140.75 24.9375H147.875C148.19 24.9375 148.492 24.8124 148.715 24.5897C148.937 24.367 149.062 24.0649 149.062 23.75C149.062 23.4351 148.937 23.133 148.715 22.9103C148.492 22.6876 148.19 22.5625 147.875 22.5625Z" fill="black"/>
</svg>
