<svg width="176" height="38" viewBox="0 0 176 38" fill="none" xmlns="http://www.w3.org/2000/svg">
<path d="M12.51 30H10.71V18.74L3.2 30H1.4V15.6H3.2V26.85L10.71 15.6H12.51V30ZM15.2963 30V19.2H17.0763V23.75H22.7563V19.2H24.5363V30H22.7563V25.44H17.0763V30H15.2963ZM32.4375 34.5V30.2C31.3842 30.3667 30.4242 30.2533 29.5575 29.86C28.6975 29.46 28.0108 28.8167 27.4975 27.93C26.9908 27.0367 26.7375 25.93 26.7375 24.61C26.7375 23.2833 26.9908 22.1733 27.4975 21.28C28.0108 20.3867 28.6975 19.7433 29.5575 19.35C30.4242 18.95 31.3842 18.8333 32.4375 19V15.71H34.0575V19C35.1108 18.8333 36.0675 18.95 36.9275 19.35C37.7942 19.7433 38.4808 20.3867 38.9875 21.28C39.5008 22.1733 39.7575 23.2833 39.7575 24.61C39.7575 25.93 39.5008 27.0367 38.9875 27.93C38.4808 28.8167 37.7942 29.46 36.9275 29.86C36.0675 30.2533 35.1108 30.3667 34.0575 30.2V34.5H32.4375ZM32.4375 28.57V20.64C31.8975 20.5467 31.3942 20.5633 30.9275 20.69C30.4608 20.81 30.0508 21.0367 29.6975 21.37C29.3442 21.7033 29.0675 22.14 28.8675 22.68C28.6675 23.22 28.5675 23.8633 28.5675 24.61C28.5675 25.35 28.6675 25.99 28.8675 26.53C29.0742 27.07 29.3542 27.5067 29.7075 27.84C30.0675 28.1667 30.4808 28.3933 30.9475 28.52C31.4142 28.64 31.9108 28.6567 32.4375 28.57ZM34.0575 28.57C34.5842 28.6567 35.0808 28.64 35.5475 28.52C36.0142 28.4 36.4275 28.1767 36.7875 27.85C37.1475 27.5167 37.4275 27.08 37.6275 26.54C37.8275 26 37.9275 25.3567 37.9275 24.61C37.9275 23.8567 37.8275 23.21 37.6275 22.67C37.4342 22.13 37.1608 21.6933 36.8075 21.36C36.4542 21.0267 36.0408 20.8 35.5675 20.68C35.1008 20.56 34.5975 20.5467 34.0575 20.64V28.57ZM46.5664 30.3C45.4931 30.3 44.5664 30.0567 43.7864 29.57C43.0131 29.0833 42.4164 28.41 41.9964 27.55C41.5764 26.69 41.3664 25.7033 41.3664 24.59C41.3664 23.4567 41.5797 22.4633 42.0064 21.61C42.4331 20.7567 43.0364 20.0933 43.8164 19.62C44.5964 19.14 45.5131 18.9 46.5664 18.9C47.6464 18.9 48.5764 19.1433 49.3564 19.63C50.1364 20.11 50.7331 20.78 51.1464 21.64C51.5664 22.4933 51.7764 23.4767 51.7764 24.59C51.7764 25.7167 51.5664 26.71 51.1464 27.57C50.7264 28.4233 50.1264 29.0933 49.3464 29.58C48.5664 30.06 47.6397 30.3 46.5664 30.3ZM46.5664 28.61C47.6864 28.61 48.5197 28.2367 49.0664 27.49C49.6131 26.7433 49.8864 25.7767 49.8864 24.59C49.8864 23.37 49.6097 22.4 49.0564 21.68C48.5031 20.9533 47.6731 20.59 46.5664 20.59C45.8131 20.59 45.1931 20.76 44.7064 21.1C44.2197 21.44 43.8564 21.91 43.6164 22.51C43.3764 23.11 43.2564 23.8033 43.2564 24.59C43.2564 25.8033 43.5364 26.7767 44.0964 27.51C44.6564 28.2433 45.4797 28.61 46.5664 28.61ZM58.9381 30.3C57.9248 30.3 57.0715 30.05 56.3781 29.55C55.6848 29.0433 55.1581 28.36 54.7981 27.5C54.4448 26.6333 54.2681 25.6633 54.2681 24.59C54.2681 23.5033 54.4448 22.53 54.7981 21.67C55.1581 20.81 55.6848 20.1333 56.3781 19.64C57.0781 19.1467 57.9348 18.9 58.9481 18.9C59.9481 18.9 60.8081 19.15 61.5281 19.65C62.2548 20.1433 62.8115 20.82 63.1981 21.68C63.5848 22.54 63.7781 23.51 63.7781 24.59C63.7781 25.67 63.5848 26.64 63.1981 27.5C62.8115 28.36 62.2548 29.0433 61.5281 29.55C60.8081 30.05 59.9448 30.3 58.9381 30.3ZM53.9681 34.8V19.2H55.5581V27.15H55.7581V34.8H53.9681ZM58.7181 28.67C59.4315 28.67 60.0215 28.49 60.4881 28.13C60.9548 27.77 61.3048 27.2833 61.5381 26.67C61.7715 26.05 61.8881 25.3567 61.8881 24.59C61.8881 23.83 61.7715 23.1433 61.5381 22.53C61.3115 21.9167 60.9581 21.43 60.4781 21.07C60.0048 20.71 59.4015 20.53 58.6681 20.53C57.9681 20.53 57.3881 20.7033 56.9281 21.05C56.4681 21.39 56.1248 21.8667 55.8981 22.48C55.6715 23.0867 55.5581 23.79 55.5581 24.59C55.5581 25.3767 55.6681 26.08 55.8881 26.7C56.1148 27.3133 56.4615 27.7967 56.9281 28.15C57.3948 28.4967 57.9915 28.67 58.7181 28.67ZM65.9603 30V19.2H67.4903L71.5903 27.58L75.6903 19.2H77.2203V30H75.5003V22.91L72.0603 30H71.1203L67.6803 22.91V30H65.9603ZM83.0833 30.3C82.2766 30.3 81.5999 30.1533 81.0533 29.86C80.5133 29.56 80.1033 29.1667 79.8233 28.68C79.5499 28.1933 79.4133 27.66 79.4133 27.08C79.4133 26.5133 79.5199 26.0233 79.7333 25.61C79.9533 25.19 80.2599 24.8433 80.6533 24.57C81.0466 24.29 81.5166 24.07 82.0633 23.91C82.5766 23.77 83.1499 23.65 83.7833 23.55C84.4233 23.4433 85.0699 23.3467 85.7233 23.26C86.3766 23.1733 86.9866 23.09 87.5533 23.01L86.9133 23.38C86.9333 22.42 86.7399 21.71 86.3333 21.25C85.9333 20.79 85.2399 20.56 84.2533 20.56C83.5999 20.56 83.0266 20.71 82.5333 21.01C82.0466 21.3033 81.7033 21.7833 81.5033 22.45L79.8133 21.94C80.0733 20.9933 80.5766 20.25 81.3233 19.71C82.0699 19.17 83.0533 18.9 84.2733 18.9C85.2533 18.9 86.0933 19.0767 86.7933 19.43C87.4999 19.7767 88.0066 20.3033 88.3133 21.01C88.4666 21.3433 88.5633 21.7067 88.6033 22.1C88.6433 22.4867 88.6633 22.8933 88.6633 23.32V30H87.0833V27.41L87.4533 27.65C87.0466 28.5233 86.4766 29.1833 85.7433 29.63C85.0166 30.0767 84.1299 30.3 83.0833 30.3ZM83.3533 28.81C83.9933 28.81 84.5466 28.6967 85.0133 28.47C85.4866 28.2367 85.8666 27.9333 86.1533 27.56C86.4399 27.18 86.6266 26.7667 86.7133 26.32C86.8133 25.9867 86.8666 25.6167 86.8733 25.21C86.8866 24.7967 86.8933 24.48 86.8933 24.26L87.5133 24.53C86.9333 24.61 86.3633 24.6867 85.8033 24.76C85.2433 24.8333 84.7133 24.9133 84.2133 25C83.7133 25.08 83.2633 25.1767 82.8633 25.29C82.5699 25.3833 82.2933 25.5033 82.0333 25.65C81.7799 25.7967 81.5733 25.9867 81.4133 26.22C81.2599 26.4467 81.1833 26.73 81.1833 27.07C81.1833 27.3633 81.2566 27.6433 81.4033 27.91C81.5566 28.1767 81.7899 28.3933 82.1033 28.56C82.4233 28.7267 82.8399 28.81 83.3533 28.81ZM94.1233 30V20.82H90.3633V19.2H99.6633V20.82H95.9033V30H94.1233ZM110.396 19.2V30H108.676V22.04L103.016 30H101.546V19.2H103.266V27.05L108.936 19.2H110.396ZM113.187 30L113.197 19.2H114.997V24.4L119.527 19.2H121.837L117.067 24.6L122.397 30H119.907L114.997 24.8V30H113.187ZM126.462 30.3C125.656 30.3 124.979 30.1533 124.432 29.86C123.892 29.56 123.482 29.1667 123.202 28.68C122.929 28.1933 122.792 27.66 122.792 27.08C122.792 26.5133 122.899 26.0233 123.112 25.61C123.332 25.19 123.639 24.8433 124.032 24.57C124.426 24.29 124.896 24.07 125.442 23.91C125.956 23.77 126.529 23.65 127.162 23.55C127.802 23.4433 128.449 23.3467 129.102 23.26C129.756 23.1733 130.366 23.09 130.932 23.01L130.292 23.38C130.312 22.42 130.119 21.71 129.712 21.25C129.312 20.79 128.619 20.56 127.632 20.56C126.979 20.56 126.406 20.71 125.912 21.01C125.426 21.3033 125.082 21.7833 124.882 22.45L123.192 21.94C123.452 20.9933 123.956 20.25 124.702 19.71C125.449 19.17 126.432 18.9 127.652 18.9C128.632 18.9 129.472 19.0767 130.172 19.43C130.879 19.7767 131.386 20.3033 131.692 21.01C131.846 21.3433 131.942 21.7067 131.982 22.1C132.022 22.4867 132.042 22.8933 132.042 23.32V30H130.462V27.41L130.832 27.65C130.426 28.5233 129.856 29.1833 129.122 29.63C128.396 30.0767 127.509 30.3 126.462 30.3ZM126.732 28.81C127.372 28.81 127.926 28.6967 128.392 28.47C128.866 28.2367 129.246 27.9333 129.532 27.56C129.819 27.18 130.006 26.7667 130.092 26.32C130.192 25.9867 130.246 25.6167 130.252 25.21C130.266 24.7967 130.272 24.48 130.272 24.26L130.892 24.53C130.312 24.61 129.742 24.6867 129.182 24.76C128.622 24.8333 128.092 24.9133 127.592 25C127.092 25.08 126.642 25.1767 126.242 25.29C125.949 25.3833 125.672 25.5033 125.412 25.65C125.159 25.7967 124.952 25.9867 124.792 26.22C124.639 26.4467 124.562 26.73 124.562 27.07C124.562 27.3633 124.636 27.6433 124.782 27.91C124.936 28.1767 125.169 28.3933 125.482 28.56C125.802 28.7267 126.219 28.81 126.732 28.81Z" fill="black"/>
<path fill-rule="evenodd" clip-rule="evenodd" d="M174.812 9.5C174.812 8.55475 174.437 7.64869 173.769 6.98131C173.101 6.31275 172.195 5.9375 171.25 5.9375C165.13 5.9375 148.87 5.9375 142.75 5.9375C141.805 5.9375 140.899 6.31275 140.231 6.98131C139.563 7.64869 139.188 8.55475 139.188 9.5C139.188 14.0505 139.188 23.9495 139.188 28.5C139.188 29.4452 139.563 30.3513 140.231 31.0187C140.899 31.6873 141.805 32.0625 142.75 32.0625C148.87 32.0625 165.13 32.0625 171.25 32.0625C172.195 32.0625 173.101 31.6873 173.769 31.0187C174.437 30.3513 174.812 29.4452 174.812 28.5V9.5ZM172.438 9.5V28.5C172.438 28.8147 172.313 29.1175 172.09 29.3396C171.868 29.5628 171.565 29.6875 171.25 29.6875H142.75C142.435 29.6875 142.132 29.5628 141.91 29.3396C141.687 29.1175 141.562 28.8147 141.562 28.5V9.5C141.562 9.18531 141.687 8.8825 141.91 8.66044C142.132 8.43719 142.435 8.3125 142.75 8.3125H171.25C171.565 8.3125 171.868 8.43719 172.09 8.66044C172.313 8.8825 172.438 9.18531 172.438 9.5Z" fill="black"/>
<path fill-rule="evenodd" clip-rule="evenodd" d="M149.078 14.5755L145.473 18.1807C145.009 18.645 145.009 19.3967 145.473 19.861L149.024 23.4117C149.487 23.8748 150.24 23.8748 150.703 23.4117C151.167 22.9485 151.167 22.1957 150.703 21.7325L147.992 19.0215L150.759 16.2546C151.222 15.7915 151.222 15.0386 150.759 14.5755C150.294 14.1123 149.543 14.1123 149.078 14.5755ZM165.05 23.3962L168.572 19.8741C169.037 19.4098 169.037 18.6581 168.572 18.195L164.965 14.5862C164.502 14.123 163.749 14.123 163.286 14.5862C162.823 15.0505 162.823 15.8022 163.286 16.2653L166.054 19.0345L163.371 21.7159C162.908 22.1802 162.908 22.9319 163.371 23.3962C163.834 23.8593 164.587 23.8593 165.05 23.3962ZM157.475 13.8309L154.29 23.3843C154.083 24.0054 154.42 24.6787 155.041 24.8865C155.663 25.0932 156.336 24.7571 156.543 24.1348L159.728 14.5814C159.936 13.9603 159.599 13.287 158.977 13.0792C158.355 12.8726 157.682 13.2087 157.475 13.8309Z" fill="black"/>
</svg>
