<svg width="155" height="41" viewBox="0 0 155 41" fill="none" xmlns="http://www.w3.org/2000/svg">
<path d="M0.4 21L5.22 6.6H7.7L12.52 21H10.67L6.16 7.64H6.72L2.25 21H0.4ZM2.72 17.63V15.96H10.2V17.63H2.72ZM14.3197 21V10.2H16.0997V14.75H21.7797V10.2H23.5597V21H21.7797V16.44H16.0997V21H14.3197ZM26.3609 21V10.2H33.8609V11.89H28.1409V21H26.3609ZM34.5602 21V19.47C34.9602 19.5433 35.2635 19.53 35.4702 19.43C35.6835 19.3233 35.8402 19.14 35.9402 18.88C36.0468 18.6133 36.1335 18.28 36.2002 17.88C36.3135 17.2467 36.4102 16.54 36.4902 15.76C36.5768 14.98 36.6535 14.1267 36.7202 13.2C36.7935 12.2667 36.8602 11.2667 36.9202 10.2H44.4702V21H42.6902V11.89H38.5402C38.5002 12.5033 38.4502 13.1333 38.3902 13.78C38.3368 14.4267 38.2802 15.0567 38.2202 15.67C38.1602 16.2767 38.0935 16.8433 38.0202 17.37C37.9535 17.89 37.8802 18.34 37.8002 18.72C37.6735 19.3733 37.4968 19.8967 37.2702 20.29C37.0435 20.6767 36.7168 20.9267 36.2902 21.04C35.8635 21.16 35.2868 21.1467 34.5602 21ZM56.1189 10.2V21H54.3989V13.04L48.7389 21H47.2689V10.2H48.9889V18.05L54.6589 10.2H56.1189ZM63.5695 8.94C63.0695 8.94 62.6129 8.81667 62.1995 8.57C61.7862 8.32333 61.4562 7.99667 61.2095 7.59C60.9629 7.17667 60.8395 6.71667 60.8395 6.21H62.2795C62.2795 6.56333 62.4062 6.86667 62.6595 7.12C62.9129 7.37333 63.2162 7.5 63.5695 7.5C63.9295 7.5 64.2329 7.37333 64.4795 7.12C64.7329 6.86667 64.8595 6.56333 64.8595 6.21H66.2995C66.2995 6.71667 66.1762 7.17667 65.9295 7.59C65.6895 7.99667 65.3595 8.32333 64.9395 8.57C64.5262 8.81667 64.0695 8.94 63.5695 8.94ZM67.7595 10.2V21H66.0395V13.04L60.3795 21H58.9095V10.2H60.6295V18.05L66.2995 10.2H67.7595ZM75.1102 21.3C74.0168 21.3 73.0868 21.0567 72.3202 20.57C71.5602 20.0767 70.9802 19.4 70.5802 18.54C70.1802 17.68 69.9735 16.7 69.9602 15.6C69.9735 14.4733 70.1835 13.4833 70.5902 12.63C71.0035 11.77 71.5935 11.1 72.3602 10.62C73.1268 10.14 74.0502 9.9 75.1302 9.9C76.2702 9.9 77.2502 10.18 78.0702 10.74C78.8968 11.3 79.4502 12.0667 79.7302 13.04L77.9702 13.57C77.7435 12.9433 77.3735 12.4567 76.8602 12.11C76.3535 11.7633 75.7702 11.59 75.1102 11.59C74.3702 11.59 73.7602 11.7633 73.2802 12.11C72.8002 12.45 72.4435 12.9233 72.2102 13.53C71.9768 14.13 71.8568 14.82 71.8502 15.6C71.8635 16.8 72.1402 17.77 72.6802 18.51C73.2268 19.2433 74.0368 19.61 75.1102 19.61C75.8168 19.61 76.4035 19.45 76.8702 19.13C77.3368 18.8033 77.6902 18.3333 77.9302 17.72L79.7302 18.19C79.3568 19.1967 78.7735 19.9667 77.9802 20.5C77.1868 21.0333 76.2302 21.3 75.1102 21.3ZM81.7611 21L81.7711 10.2H83.5711V15.4L88.1011 10.2H90.4111L85.6411 15.6L90.9711 21H88.4811L83.5711 15.8V21H81.7611ZM100.806 10.2V21H99.0864V13.04L93.4264 21H91.9564V10.2H93.6764V18.05L99.3464 10.2H100.806ZM108.257 8.94C107.757 8.94 107.3 8.81667 106.887 8.57C106.474 8.32333 106.144 7.99667 105.897 7.59C105.65 7.17667 105.527 6.71667 105.527 6.21H106.967C106.967 6.56333 107.094 6.86667 107.347 7.12C107.6 7.37333 107.904 7.5 108.257 7.5C108.617 7.5 108.92 7.37333 109.167 7.12C109.42 6.86667 109.547 6.56333 109.547 6.21H110.987C110.987 6.71667 110.864 7.17667 110.617 7.59C110.377 7.99667 110.047 8.32333 109.627 8.57C109.214 8.81667 108.757 8.94 108.257 8.94ZM112.447 10.2V21H110.727V13.04L105.067 21H103.597V10.2H105.317V18.05L110.987 10.2H112.447Z" fill="black"/>
<path d="M76.07 35V31.09H73.74C73.4667 31.09 73.1633 31.08 72.83 31.06C72.5033 31.0333 72.1967 30.9967 71.91 30.95C71.13 30.8033 70.47 30.46 69.93 29.92C69.3967 29.38 69.13 28.6333 69.13 27.68C69.13 26.7533 69.38 26.01 69.88 25.45C70.3867 24.8833 71.01 24.5167 71.75 24.35C72.0833 24.27 72.42 24.2267 72.76 24.22C73.1067 24.2067 73.4 24.2 73.64 24.2H77.85L77.86 35H76.07ZM68.8 35L71.67 30.6H73.59L70.72 35H68.8ZM73.61 29.62H76.07V25.67H73.61C73.4567 25.67 73.2533 25.6767 73 25.69C72.7533 25.7033 72.5167 25.7433 72.29 25.81C72.0767 25.87 71.8667 25.98 71.66 26.14C71.46 26.3 71.2933 26.5067 71.16 26.76C71.0267 27.0133 70.96 27.3133 70.96 27.66C70.96 28.16 71.1 28.5667 71.38 28.88C71.66 29.1867 72 29.3933 72.4 29.5C72.62 29.5533 72.8367 29.5867 73.05 29.6C73.27 29.6133 73.4567 29.62 73.61 29.62ZM84.5395 35.3C83.4729 35.3 82.5295 35.07 81.7095 34.61C80.8895 34.1433 80.2429 33.5033 79.7695 32.69L81.1895 31.77C81.5829 32.3633 82.0529 32.82 82.5995 33.14C83.1462 33.4533 83.7695 33.61 84.4695 33.61C85.2029 33.61 85.7862 33.4433 86.2195 33.11C86.6529 32.77 86.8695 32.3133 86.8695 31.74C86.8695 31.3133 86.7629 30.9867 86.5495 30.76C86.3362 30.5333 86.0295 30.3767 85.6295 30.29C85.2295 30.2033 84.7529 30.16 84.1995 30.16H83.0795V28.69H84.1895C84.8895 28.69 85.4595 28.5767 85.8995 28.35C86.3395 28.1233 86.5595 27.7367 86.5595 27.19C86.5595 26.63 86.3529 26.2233 85.9395 25.97C85.5329 25.71 85.0462 25.58 84.4795 25.58C83.8795 25.58 83.3062 25.7067 82.7595 25.96C82.2129 26.2067 81.7429 26.52 81.3495 26.9L80.2695 25.69C80.8295 25.1167 81.4729 24.6767 82.1995 24.37C82.9329 24.0567 83.7295 23.9 84.5895 23.9C85.2829 23.9 85.9162 24.0233 86.4895 24.27C87.0695 24.51 87.5295 24.8667 87.8695 25.34C88.2162 25.8067 88.3895 26.3767 88.3895 27.05C88.3895 27.6233 88.2562 28.1333 87.9895 28.58C87.7229 29.0267 87.3295 29.4167 86.8095 29.75L86.7395 29.12C87.1795 29.2267 87.5429 29.4233 87.8295 29.71C88.1229 29.99 88.3395 30.3233 88.4795 30.71C88.6195 31.0967 88.6895 31.5 88.6895 31.92C88.6895 32.6267 88.5029 33.2333 88.1295 33.74C87.7629 34.24 87.2662 34.6267 86.6395 34.9C86.0129 35.1667 85.3129 35.3 84.5395 35.3ZM90.8844 35L90.8744 24.2H92.6644V28.11H94.3144C94.6277 28.11 94.9477 28.1167 95.2744 28.13C95.601 28.1433 95.8844 28.1733 96.1244 28.22C96.6844 28.3333 97.1744 28.5233 97.5944 28.79C98.0144 29.0567 98.341 29.4167 98.5744 29.87C98.8077 30.3233 98.9244 30.8867 98.9244 31.56C98.9244 32.4933 98.681 33.2333 98.1944 33.78C97.7144 34.32 97.0844 34.68 96.3044 34.86C96.0377 34.92 95.731 34.96 95.3844 34.98C95.0444 34.9933 94.721 35 94.4144 35H90.8844ZM92.6644 33.53H94.4444C94.6444 33.53 94.8677 33.5233 95.1144 33.51C95.361 33.4967 95.581 33.4633 95.7744 33.41C96.1144 33.31 96.4177 33.1133 96.6844 32.82C96.9577 32.5267 97.0944 32.1067 97.0944 31.56C97.0944 31.0067 96.961 30.58 96.6944 30.28C96.4344 29.98 96.091 29.7833 95.6644 29.69C95.471 29.6433 95.2677 29.6133 95.0544 29.6C94.841 29.5867 94.6377 29.58 94.4444 29.58H92.6644V33.53ZM100.164 35V24.2H101.944V35H100.164ZM104.742 35L104.752 24.2H106.552V29.4L111.082 24.2H113.392L108.622 29.6L113.952 35H111.462L106.552 29.8V35H104.742Z" fill="black"/>
<path d="M147.688 4.875H123.312C121.966 4.875 120.875 5.96631 120.875 7.3125V31.6875C120.875 33.0337 121.966 34.125 123.312 34.125H147.688C149.034 34.125 150.125 33.0337 150.125 31.6875V7.3125C150.125 5.96631 149.034 4.875 147.688 4.875Z" stroke="black" stroke-width="2" stroke-linecap="round" stroke-linejoin="round"/>
<path d="M133.062 13.8125H126.562V25.1875H132.656M126.562 19.5H132.656M137.125 15.4375V25.1875V19.9062C137.125 18.9366 137.51 18.0066 138.196 17.3209C138.882 16.6352 139.812 16.25 140.781 16.25C141.751 16.25 142.681 16.6352 143.367 17.3209C144.052 18.0066 144.438 18.9366 144.438 19.9062V25.1875" stroke="black" stroke-width="2" stroke-linecap="round" stroke-linejoin="round"/>
</svg>
