<svg width="34" height="34" viewBox="0 0 34 34" fill="none" xmlns="http://www.w3.org/2000/svg">
<path d="M19.1263 15.9378H15.2305V11.617L15.2319 11.3365L15.2347 11.2756C15.2468 11.2025 15.2814 11.1351 15.3337 11.0828C15.3861 11.0304 15.4535 10.9958 15.5266 10.9837L15.5875 10.9809L15.868 10.9795H19.1263C19.7838 10.9795 20.4144 11.2407 20.8793 11.7056C21.3443 12.1706 21.6055 12.8011 21.6055 13.4587C21.6055 14.1162 21.3443 14.7468 20.8793 15.2117C20.4144 15.6766 19.7838 15.9378 19.1263 15.9378Z" fill="#466EE5"/>
<path fill-rule="evenodd" clip-rule="evenodd" d="M31.1654 16.9997C31.1654 24.8239 24.8229 31.1663 16.9987 31.1663C9.17445 31.1663 2.83203 24.8239 2.83203 16.9997C2.83203 9.17543 9.17445 2.83301 16.9987 2.83301C24.8229 2.83301 31.1654 9.17543 31.1654 16.9997ZM11.6862 19.833C11.6862 19.5512 11.7981 19.281 11.9974 19.0817C12.1967 18.8825 12.4669 18.7705 12.7487 18.7705H13.1029V18.0622H12.7487C12.4669 18.0622 12.1967 17.9502 11.9974 17.751C11.7981 17.5517 11.6862 17.2815 11.6862 16.9997C11.6862 16.7179 11.7981 16.4476 11.9974 16.2484C12.1967 16.0491 12.4669 15.9372 12.7487 15.9372H13.1029V11.5625C13.1029 11.3557 13.1029 11.1418 13.134 10.9448C13.2161 10.4281 13.4595 9.95048 13.8295 9.58048C14.1995 9.21049 14.6771 8.96704 15.1939 8.88501C15.3908 8.85384 15.6047 8.85384 15.8101 8.85384H19.1237C20.3448 8.85384 21.5159 9.33892 22.3793 10.2024C23.2428 11.0658 23.7279 12.2369 23.7279 13.458C23.7279 14.6791 23.2428 15.8502 22.3793 16.7136C21.5159 17.5771 20.3448 18.0622 19.1237 18.0622H15.2279V18.7705H16.9987C17.2805 18.7705 17.5507 18.8825 17.75 19.0817C17.9493 19.281 18.0612 19.5512 18.0612 19.833C18.0612 20.1148 17.9493 20.3851 17.75 20.5843C17.5507 20.7836 17.2805 20.8955 16.9987 20.8955H15.2279V24.083C15.2279 24.3648 15.1159 24.6351 14.9167 24.8343C14.7174 25.0336 14.4472 25.1455 14.1654 25.1455C13.8836 25.1455 13.6133 25.0336 13.4141 24.8343C13.2148 24.6351 13.1029 24.3648 13.1029 24.083V20.8955H12.7487C12.4669 20.8955 12.1967 20.7836 11.9974 20.5843C11.7981 20.3851 11.6862 20.1148 11.6862 19.833Z" fill="#466EE5"/>
</svg>
