<svg width="13" height="25" viewBox="0 0 13 25" fill="none" xmlns="http://www.w3.org/2000/svg">
<path d="M12.2256 23.082C11.8403 23.2407 11.3756 23.422 10.8316 23.626C10.2876 23.83 9.69825 23.9887 9.06359 24.102C8.45159 24.238 7.82825 24.306 7.19359 24.306C6.35492 24.306 5.58425 24.1587 4.88159 23.864C4.17892 23.5693 3.61225 23.1047 3.18159 22.47C2.77359 21.8127 2.56959 20.9627 2.56959 19.92V9.686H0.223586V6.184H2.56959V0.404H7.12559V6.184H10.8656V9.686H7.12559V18.39C7.14825 19.002 7.31825 19.444 7.63559 19.716C7.95292 19.988 8.34959 20.124 8.82559 20.124C9.30159 20.124 9.76625 20.0447 10.2196 19.886C10.6729 19.7273 11.0356 19.5913 11.3076 19.478L12.2256 23.082Z" fill="white"/>
</svg>
