<svg width="76" height="76" viewBox="0 0 76 76" fill="none" xmlns="http://www.w3.org/2000/svg">
<path d="M37.9987 6.33301C20.5187 6.33301 6.33203 20.5197 6.33203 37.9997C6.33203 55.4797 20.5187 69.6663 37.9987 69.6663C55.4787 69.6663 69.6654 55.4797 69.6654 37.9997C69.6654 20.5197 55.4787 6.33301 37.9987 6.33301ZM52.692 27.8663C52.217 32.8697 50.1587 45.0297 49.1137 50.6347C48.6704 53.0097 47.7837 53.8013 46.9604 53.8963C45.1237 54.0547 43.7304 52.693 41.957 51.5213C39.1704 49.6847 37.587 48.5447 34.8954 46.7713C31.7604 44.713 33.787 43.573 35.592 41.7363C36.067 41.2613 44.1737 33.883 44.332 33.218C44.354 33.1173 44.3511 33.0127 44.3235 32.9134C44.2959 32.8141 44.2445 32.723 44.1737 32.648C43.9837 32.4897 43.7304 32.553 43.5087 32.5847C43.2237 32.648 38.7904 35.593 30.1454 41.4197C28.8787 42.2747 27.7387 42.718 26.7254 42.6863C25.5854 42.6547 23.432 42.053 21.817 41.5147C19.822 40.8813 18.2704 40.533 18.397 39.4247C18.4604 38.8547 19.252 38.2847 20.7404 37.683C29.987 33.6613 36.1304 31.0013 39.202 29.7347C48.0054 26.0613 49.8104 25.428 51.0137 25.428C51.267 25.428 51.8687 25.4913 52.2487 25.808C52.5654 26.0613 52.6604 26.4097 52.692 26.663C52.6604 26.853 52.7237 27.423 52.692 27.8663Z" fill="#466EE5"/>
</svg>
