<svg width="131" height="38" viewBox="0 0 131 38" fill="none" xmlns="http://www.w3.org/2000/svg">
<rect x="0.388672" y="0.620117" width="130.568" height="36.968" rx="10" fill="#466EE5"/>
<path d="M28.3401 24.9391C27.1881 24.9391 26.2068 24.6884 25.3961 24.1871C24.5854 23.6804 23.9641 22.9764 23.5321 22.0751C23.1054 21.1738 22.8921 20.1284 22.8921 18.9391C22.8921 17.7498 23.1054 16.7044 23.5321 15.8031C23.9641 14.9018 24.5854 14.2004 25.3961 13.6991C26.2068 13.1924 27.1881 12.9391 28.3401 12.9391C29.6681 12.9391 30.7668 13.2751 31.6361 13.9471C32.5108 14.6191 33.1188 15.5231 33.4601 16.6591L31.7641 17.1151C31.5401 16.3098 31.1401 15.6778 30.5641 15.2191C29.9934 14.7604 29.2521 14.5311 28.3401 14.5311C27.5241 14.5311 26.8441 14.7151 26.3001 15.0831C25.7561 15.4511 25.3454 15.9658 25.0681 16.6271C24.7961 17.2884 24.6601 18.0591 24.6601 18.9391C24.6548 19.8191 24.7881 20.5898 25.0601 21.2511C25.3374 21.9124 25.7481 22.4271 26.2921 22.7951C26.8414 23.1631 27.5241 23.3471 28.3401 23.3471C29.2521 23.3471 29.9934 23.1178 30.5641 22.6591C31.1401 22.1951 31.5401 21.5631 31.7641 20.7631L33.4601 21.2191C33.1188 22.3551 32.5108 23.2591 31.6361 23.9311C30.7668 24.6031 29.6681 24.9391 28.3401 24.9391ZM35.2116 24.6991V16.0591H39.0116C39.2623 16.0591 39.5129 16.0751 39.7636 16.1071C40.0143 16.1338 40.2356 16.1738 40.4276 16.2271C40.8649 16.3498 41.2383 16.5951 41.5476 16.9631C41.8569 17.3258 42.0116 17.8111 42.0116 18.4191C42.0116 18.7658 41.9583 19.0591 41.8516 19.2991C41.7449 19.5338 41.5983 19.7364 41.4116 19.9071C41.3263 19.9818 41.2356 20.0484 41.1396 20.1071C41.0436 20.1658 40.9476 20.2111 40.8516 20.2431C41.0489 20.2751 41.2436 20.3444 41.4356 20.4511C41.7289 20.6058 41.9689 20.8298 42.1556 21.1231C42.3476 21.4111 42.4436 21.7978 42.4436 22.2831C42.4436 22.8644 42.3023 23.3524 42.0196 23.7471C41.7369 24.1364 41.3369 24.4031 40.8196 24.5471C40.6169 24.6058 40.3876 24.6458 40.1316 24.6671C39.8809 24.6884 39.6303 24.6991 39.3796 24.6991H35.2116ZM36.9076 23.3791H39.2756C39.3876 23.3791 39.5156 23.3684 39.6596 23.3471C39.8036 23.3258 39.9316 23.2964 40.0436 23.2591C40.2836 23.1844 40.4543 23.0484 40.5556 22.8511C40.6623 22.6538 40.7156 22.4431 40.7156 22.2191C40.7156 21.9151 40.6356 21.6724 40.4756 21.4911C40.3156 21.3044 40.1129 21.1844 39.8676 21.1311C39.7609 21.0938 39.6436 21.0724 39.5156 21.0671C39.3876 21.0618 39.2783 21.0591 39.1876 21.0591H36.9076V23.3791ZM36.9076 19.7151H38.7796C38.9343 19.7151 39.0916 19.7071 39.2516 19.6911C39.4116 19.6698 39.5503 19.6351 39.6676 19.5871C39.8756 19.5071 40.0303 19.3738 40.1316 19.1871C40.2329 18.9951 40.2836 18.7871 40.2836 18.5631C40.2836 18.3178 40.2276 18.0991 40.1156 17.9071C40.0036 17.7151 39.8356 17.5818 39.6116 17.5071C39.4569 17.4538 39.2783 17.4244 39.0756 17.4191C38.8783 17.4084 38.7529 17.4031 38.6996 17.4031H36.9076V19.7151ZM49.3037 24.6991V21.6991H47.5917C47.3891 21.6991 47.1464 21.6911 46.8637 21.6751C46.5864 21.6591 46.3251 21.6298 46.0797 21.5871C45.4344 21.4698 44.8957 21.1898 44.4637 20.7471C44.0317 20.2991 43.8157 19.6831 43.8157 18.8991C43.8157 18.1418 44.0184 17.5338 44.4237 17.0751C44.8344 16.6111 45.3544 16.3124 45.9837 16.1791C46.2557 16.1151 46.5331 16.0804 46.8157 16.0751C47.1037 16.0644 47.3464 16.0591 47.5437 16.0591H50.9757L50.9837 24.6991H49.3037ZM43.5677 24.6991L45.7517 21.2831H47.5197L45.3517 24.6991H43.5677ZM47.4477 20.3551H49.3037V17.4031H47.4477C47.3304 17.4031 47.1864 17.4084 47.0157 17.4191C46.8451 17.4298 46.6797 17.4591 46.5197 17.5071C46.3544 17.5551 46.1944 17.6404 46.0397 17.7631C45.8904 17.8858 45.7677 18.0431 45.6717 18.2351C45.5757 18.4218 45.5277 18.6378 45.5277 18.8831C45.5277 19.2511 45.6317 19.5551 45.8397 19.7951C46.0477 20.0298 46.2957 20.1844 46.5837 20.2591C46.7384 20.3018 46.8931 20.3284 47.0477 20.3391C47.2024 20.3498 47.3357 20.3551 47.4477 20.3551ZM56.2996 24.9391C55.4623 24.9391 54.7103 24.7604 54.0436 24.4031C53.3823 24.0458 52.8596 23.5524 52.4756 22.9231L53.8036 22.0511C54.1129 22.4671 54.4703 22.7898 54.8756 23.0191C55.2863 23.2484 55.7476 23.3631 56.2596 23.3631C56.7929 23.3631 57.2143 23.2431 57.5236 23.0031C57.8383 22.7578 57.9956 22.4298 57.9956 22.0191C57.9956 21.6938 57.9049 21.4538 57.7236 21.2991C57.5476 21.1391 57.3023 21.0351 56.9876 20.9871C56.6783 20.9391 56.3263 20.9151 55.9316 20.9151H55.1636V19.5711H55.9316C56.4543 19.5711 56.8836 19.4991 57.2196 19.3551C57.5609 19.2058 57.7316 18.9258 57.7316 18.5151C57.7316 18.1151 57.5849 17.8271 57.2916 17.6511C57.0036 17.4751 56.6596 17.3871 56.2596 17.3871C55.8116 17.3871 55.3769 17.4831 54.9556 17.6751C54.5343 17.8618 54.1663 18.0938 53.8516 18.3711L52.8756 17.2271C53.3343 16.7844 53.8569 16.4404 54.4436 16.1951C55.0356 15.9444 55.6703 15.8191 56.3476 15.8191C56.9023 15.8191 57.4143 15.9178 57.8836 16.1151C58.3583 16.3071 58.7369 16.5924 59.0196 16.9711C59.3076 17.3498 59.4516 17.8164 59.4516 18.3711C59.4516 18.8031 59.3556 19.1978 59.1636 19.5551C58.9716 19.9124 58.6783 20.2378 58.2836 20.5311L58.2356 19.9631C58.5609 20.0644 58.8329 20.2271 59.0516 20.4511C59.2703 20.6751 59.4329 20.9391 59.5396 21.2431C59.6516 21.5418 59.7076 21.8591 59.7076 22.1951C59.7076 22.7764 59.5529 23.2724 59.2436 23.6831C58.9396 24.0938 58.5289 24.4058 58.0116 24.6191C57.4943 24.8324 56.9236 24.9391 56.2996 24.9391ZM63.9096 24.9391C63.2696 24.9391 62.7336 24.8218 62.3016 24.5871C61.8696 24.3471 61.5416 24.0324 61.3176 23.6431C61.0989 23.2484 60.9896 22.8164 60.9896 22.3471C60.9896 21.9098 61.0669 21.5258 61.2216 21.1951C61.3763 20.8644 61.6056 20.5844 61.9096 20.3551C62.2136 20.1204 62.5869 19.9311 63.0296 19.7871C63.4136 19.6751 63.8483 19.5764 64.3336 19.4911C64.8189 19.4058 65.3283 19.3258 65.8616 19.2511C66.4003 19.1764 66.9336 19.1018 67.4616 19.0271L66.8536 19.3631C66.8643 18.6858 66.7203 18.1844 66.4216 17.8591C66.1283 17.5284 65.6216 17.3631 64.9016 17.3631C64.4483 17.3631 64.0323 17.4698 63.6536 17.6831C63.2749 17.8911 63.0109 18.2378 62.8616 18.7231L61.3016 18.2431C61.5149 17.5018 61.9203 16.9124 62.5176 16.4751C63.1203 16.0378 63.9203 15.8191 64.9176 15.8191C65.6909 15.8191 66.3629 15.9524 66.9336 16.2191C67.5096 16.4804 67.9309 16.8964 68.1976 17.4671C68.3363 17.7498 68.4216 18.0484 68.4536 18.3631C68.4856 18.6778 68.5016 19.0164 68.5016 19.3791V24.6991H67.0216V22.7231L67.3096 22.9791C66.9523 23.6404 66.4963 24.1338 65.9416 24.4591C65.3923 24.7791 64.7149 24.9391 63.9096 24.9391ZM64.2056 23.5711C64.6803 23.5711 65.0883 23.4884 65.4296 23.3231C65.7709 23.1524 66.0456 22.9364 66.2536 22.6751C66.4616 22.4138 66.5976 22.1418 66.6616 21.8591C66.7523 21.6031 66.8029 21.3151 66.8136 20.9951C66.8296 20.6751 66.8376 20.4191 66.8376 20.2271L67.3816 20.4271C66.8536 20.5071 66.3736 20.5791 65.9416 20.6431C65.5096 20.7071 65.1176 20.7711 64.7656 20.8351C64.4189 20.8938 64.1096 20.9658 63.8376 21.0511C63.6083 21.1311 63.4029 21.2271 63.2216 21.3391C63.0456 21.4511 62.9043 21.5871 62.7976 21.7471C62.6963 21.9071 62.6456 22.1018 62.6456 22.3311C62.6456 22.5551 62.7016 22.7631 62.8136 22.9551C62.9256 23.1418 63.0963 23.2911 63.3256 23.4031C63.5549 23.5151 63.8483 23.5711 64.2056 23.5711ZM72.811 24.6991V17.5631H69.859V16.0591H77.435V17.5631H74.483V24.6991H72.811ZM78.946 24.6991V16.0591H80.626V19.0591H82.33C82.5753 19.0591 82.8367 19.0644 83.114 19.0751C83.3967 19.0858 83.6393 19.1124 83.842 19.1551C84.306 19.2511 84.706 19.4111 85.042 19.6351C85.3833 19.8591 85.6473 20.1578 85.834 20.5311C86.0207 20.8991 86.114 21.3524 86.114 21.8911C86.114 22.6431 85.9167 23.2431 85.522 23.6911C85.1327 24.1338 84.6047 24.4324 83.938 24.5871C83.7247 24.6351 83.4713 24.6671 83.178 24.6831C82.89 24.6938 82.626 24.6991 82.386 24.6991H78.946ZM80.626 23.3551H82.482C82.6153 23.3551 82.7673 23.3498 82.938 23.3391C83.1087 23.3284 83.266 23.3044 83.41 23.2671C83.666 23.1924 83.8953 23.0404 84.098 22.8111C84.3007 22.5818 84.402 22.2751 84.402 21.8911C84.402 21.4964 84.3007 21.1818 84.098 20.9471C83.9007 20.7124 83.65 20.5604 83.346 20.4911C83.202 20.4538 83.0553 20.4298 82.906 20.4191C82.7567 20.4084 82.6153 20.4031 82.482 20.4031H80.626V23.3551ZM91.5719 24.9391C90.6865 24.9391 89.9345 24.7418 89.3159 24.3471C88.6972 23.9524 88.2225 23.4111 87.8919 22.7231C87.5665 22.0351 87.4012 21.2538 87.3959 20.3791C87.4012 19.4884 87.5719 18.7018 87.9079 18.0191C88.2439 17.3311 88.7239 16.7924 89.3479 16.4031C89.9719 16.0138 90.7212 15.8191 91.5959 15.8191C92.5399 15.8191 93.3452 16.0538 94.0119 16.5231C94.6839 16.9924 95.1265 17.6351 95.3399 18.4511L93.6759 18.9311C93.5105 18.4458 93.2385 18.0698 92.8599 17.8031C92.4865 17.5311 92.0572 17.3951 91.5719 17.3951C91.0225 17.3951 90.5719 17.5258 90.2199 17.7871C89.8679 18.0431 89.6065 18.3951 89.4359 18.8431C89.2652 19.2911 89.1772 19.8031 89.1719 20.3791C89.1772 21.2698 89.3799 21.9898 89.7799 22.5391C90.1852 23.0884 90.7825 23.3631 91.5719 23.3631C92.1105 23.3631 92.5452 23.2404 92.8759 22.9951C93.2119 22.7444 93.4679 22.3871 93.6439 21.9231L95.3399 22.3231C95.0572 23.1658 94.5905 23.8138 93.9399 24.2671C93.2892 24.7151 92.4999 24.9391 91.5719 24.9391ZM102.116 24.6991V21.6991H100.404C100.202 21.6991 99.9589 21.6911 99.6762 21.6751C99.3989 21.6591 99.1376 21.6298 98.8922 21.5871C98.2469 21.4698 97.7082 21.1898 97.2762 20.7471C96.8442 20.2991 96.6282 19.6831 96.6282 18.8991C96.6282 18.1418 96.8309 17.5338 97.2362 17.0751C97.6469 16.6111 98.1669 16.3124 98.7962 16.1791C99.0682 16.1151 99.3456 16.0804 99.6282 16.0751C99.9162 16.0644 100.159 16.0591 100.356 16.0591H103.788L103.796 24.6991H102.116ZM96.3802 24.6991L98.5642 21.2831H100.332L98.1642 24.6991H96.3802ZM100.26 20.3551H102.116V17.4031H100.26C100.143 17.4031 99.9989 17.4084 99.8282 17.4191C99.6576 17.4298 99.4922 17.4591 99.3322 17.5071C99.1669 17.5551 99.0069 17.6404 98.8522 17.7631C98.7029 17.8858 98.5802 18.0431 98.4842 18.2351C98.3882 18.4218 98.3402 18.6378 98.3402 18.8831C98.3402 19.2511 98.4442 19.5551 98.6522 19.7951C98.8602 20.0298 99.1082 20.1844 99.3962 20.2591C99.5509 20.3018 99.7056 20.3284 99.8602 20.3391C100.015 20.3498 100.148 20.3551 100.26 20.3551Z" fill="white"/>
</svg>
