<svg width="57" height="58" viewBox="0 0 57 58" fill="none" xmlns="http://www.w3.org/2000/svg">
<g clip-path="url(#clip0_116_85)">
<path fill-rule="evenodd" clip-rule="evenodd" d="M24.4114 9.85238C25.0326 9.28548 25.845 8.97431 26.686 8.98125C27.5269 8.98819 28.3341 9.31273 28.9458 9.88981L29.1205 10.0689L47.0906 29.7713C47.6575 30.3925 47.9687 31.2049 47.9618 32.0459C47.9548 32.8868 47.6303 33.694 47.0532 34.3057L46.8741 34.4804L32.0973 47.958C31.4762 48.5249 30.6637 48.8361 29.8227 48.8291C28.9818 48.8222 28.1746 48.4976 27.5629 47.9206L27.3882 47.7415L26.2651 46.5101C25.9509 46.796 25.5394 46.9511 25.1147 46.9438C24.69 46.9365 24.284 46.7673 23.9799 46.4708C23.6757 46.1743 23.4963 45.7728 23.4782 45.3483C23.4601 44.9239 23.6048 44.5086 23.8826 44.1873L24.0188 44.0473L21.7726 41.5845C21.4584 41.8704 21.0469 42.0255 20.6222 42.0182C20.1974 42.0109 19.7915 41.8417 19.4873 41.5452C19.1832 41.2487 19.0037 40.8472 18.9856 40.4227C18.9676 39.9983 19.1122 39.583 19.3901 39.2617L19.5263 39.1217L17.28 36.6589C16.9658 36.9448 16.5544 37.0999 16.1296 37.0926C15.7049 37.0853 15.299 36.9161 14.9948 36.6196C14.6906 36.3231 14.5112 35.9216 14.4931 35.4971C14.475 35.0727 14.6197 34.6574 14.8975 34.3361L15.0338 34.1961L12.7875 31.7333C12.4733 32.0192 12.0618 32.1743 11.6371 32.167C11.2123 32.1597 10.8064 31.9905 10.5023 31.694C10.1981 31.3975 10.0186 30.996 10.0006 30.5715C9.98248 30.1471 10.1272 29.7318 10.405 29.4105L10.5412 29.2705L9.41808 28.0391C8.85117 27.4179 8.54 26.6054 8.54695 25.7645C8.55389 24.9236 8.87843 24.1163 9.45551 23.5046L9.63461 23.33L24.4114 9.85238ZM26.6577 12.3152L11.8809 25.7928L29.851 45.4952L44.6278 32.0176L26.6577 12.3152ZM25.8254 17.5858C26.2846 17.167 26.8833 16.9343 27.5048 16.933C28.1263 16.9317 28.726 17.1619 29.1869 17.5788L29.3572 17.7482L31.6035 20.211C32.0223 20.6702 32.255 21.2689 32.2563 21.8904C32.2576 22.5118 32.0274 23.1115 31.6106 23.5725L31.4411 23.7428L22.8213 31.6048C22.3621 32.0235 21.7634 32.2563 21.142 32.2576C20.5205 32.2589 19.9208 32.0287 19.4599 31.6118L19.2895 31.4424L17.0433 28.9796C16.6245 28.5204 16.3917 27.9217 16.3904 27.3002C16.3891 26.6787 16.6193 26.0791 17.0362 25.6181L17.2056 25.4478L25.8254 17.5858ZM27.456 20.6102L20.0676 27.349L21.1908 28.5804L28.5791 21.8416L27.456 20.6102Z" fill="#E0E0E0"/>
</g>
<defs>
<clipPath id="clip0_116_85">
<rect width="40" height="40" fill="white" transform="translate(0 27.606) rotate(-42.3673)"/>
</clipPath>
</defs>
</svg>
