<svg width="68" height="68" viewBox="0 0 68 68" fill="none" xmlns="http://www.w3.org/2000/svg">
<path d="M56.6667 34C56.6667 40.0116 54.2786 45.777 50.0278 50.0278C45.7769 54.2786 40.0116 56.6667 34 56.6667C27.9884 56.6667 22.2231 54.2786 17.9722 50.0278C13.7214 45.777 11.3333 40.0116 11.3333 34C11.3333 27.9885 13.7214 22.2231 17.9722 17.9723C22.2231 13.7215 27.9884 11.3334 34 11.3334C40.0116 11.3334 45.7769 13.7215 50.0278 17.9723C54.2786 22.2231 56.6667 27.9885 56.6667 34Z" stroke="#466EE5" stroke-width="5"/>
<path d="M50.5722 17.5384C56.27 16.4901 60.4605 16.9434 61.8488 19.1619C64.7133 23.7406 54.5672 34.0964 39.1878 42.2904C23.8085 50.4844 9.01567 53.4169 6.15117 48.8354C4.641 46.4214 6.74617 42.4037 11.3333 37.9384" stroke="#466EE5" stroke-width="5"/>
</svg>
