<svg width="91" height="91" viewBox="0 0 91 91" fill="none" xmlns="http://www.w3.org/2000/svg">
<path d="M53.2691 21.0058C54.0366 20.8294 54.84 20.8963 55.5677 21.1973C56.2954 21.4983 56.9114 22.0185 57.33 22.6855L61.0989 28.7029C61.4028 29.1875 61.8124 29.5971 62.2971 29.901L68.3145 33.6699C68.9829 34.0883 69.5043 34.7046 69.806 35.4331C70.1077 36.1617 70.1748 36.9662 69.998 37.7346L68.4055 44.6506C68.277 45.2095 68.277 45.7903 68.4055 46.3493L69.998 53.2691C70.1731 54.0364 70.1052 54.8392 69.8035 55.5662C69.5019 56.2932 68.9814 56.9083 68.3145 57.3261L62.2971 61.0989C61.8124 61.4027 61.4028 61.8124 61.0989 62.297L57.33 68.3144C56.9119 68.9821 56.2962 69.503 55.5684 69.8047C54.8407 70.1064 54.037 70.1739 53.2691 69.9979L46.3493 68.4054C45.7916 68.2775 45.2122 68.2775 44.6545 68.4054L37.7347 69.9979C36.9668 70.1739 36.1631 70.1064 35.4354 69.8047C34.7076 69.503 34.0919 68.9821 33.6738 68.3144L29.9049 62.297C29.5999 61.8119 29.189 61.4023 28.7029 61.0989L22.6893 57.3299C22.0216 56.9118 21.5007 56.2961 21.199 55.5684C20.8973 54.8406 20.8298 54.037 21.0058 53.2691L22.5945 46.3493C22.723 45.7903 22.723 45.2095 22.5945 44.6506L21.002 37.7346C20.8255 36.9658 20.8932 36.161 21.1956 35.4324C21.4981 34.7038 22.0202 34.0877 22.6893 33.6699L28.7029 29.901C29.189 29.5976 29.5999 29.1879 29.9049 28.7029L33.6738 22.6855C34.0922 22.0192 34.7075 21.4995 35.4344 21.1986C36.1614 20.8976 36.9639 20.8302 37.7309 21.0058L44.6545 22.5945C45.2122 22.7224 45.7916 22.7224 46.3493 22.5945L53.2691 21.0058Z" stroke="#466EE5" stroke-width="5"/>
<path d="M36.0777 47.5323L43.7937 54.9222L54.9223 36.0776" stroke="#466EE5" stroke-width="5" stroke-linecap="round" stroke-linejoin="round"/>
</svg>
