<svg width="309" height="108" viewBox="0 0 309 108" fill="none" xmlns="http://www.w3.org/2000/svg">
<g filter="url(#filter0_d_45_37)">
<rect x="5" y="1" width="299" height="97.8645" rx="19" fill="white" stroke="#466EE5" stroke-width="2"/>
<path fill-rule="evenodd" clip-rule="evenodd" d="M225.757 39.852C225.757 35.498 227.487 31.3222 230.566 28.2435C233.645 25.1647 237.82 23.435 242.174 23.435H261.631C265.986 23.435 270.161 25.1647 273.24 28.2435C276.319 31.3222 278.048 35.498 278.048 39.852V59.3092C278.048 63.6632 276.319 67.839 273.24 70.9178C270.161 73.9965 265.986 75.7262 261.631 75.7262H242.174C237.82 75.7262 233.645 73.9965 230.566 70.9178C227.487 67.839 225.757 63.6632 225.757 59.3092V39.852ZM235.486 47.1485C235.486 45.3746 236.191 43.6734 237.445 42.4191C238.699 41.1647 240.4 40.4601 242.174 40.4601H249.471C251.143 40.4597 252.755 41.0857 253.988 42.2148C255.222 43.3439 255.988 44.8941 256.135 46.5599L263.066 41.36C265.231 39.7377 268.32 41.2821 268.32 43.9867V55.1745C268.32 57.8791 265.231 59.4259 263.066 57.8013L256.135 52.6013C255.988 54.2671 255.222 55.8173 253.988 56.9464C252.755 58.0755 251.143 58.7016 249.471 58.7012H242.174C240.4 58.7012 238.699 57.9965 237.445 56.7422C236.191 55.4879 235.486 53.7866 235.486 52.0128V47.1485Z" fill="#466EE5"/>
<path d="M46.2646 37L47.4996 34.478L44.2691 27.64H46.0371L48.3186 32.827L50.6716 27.64H52.3421L47.9351 37H46.2646ZM51.746 38.56V35.7715C52.1273 35.7715 52.3981 35.6415 52.5585 35.3815C52.7188 35.1215 52.8466 34.6708 52.942 34.0295C53.0026 33.6482 53.0525 33.2452 53.0915 32.8205C53.1305 32.3958 53.163 31.9473 53.189 31.475C53.2193 31.0027 53.2453 30.5043 53.267 29.98H58.493V35.7715H59.2015V38.56H57.7195V37H53.2215V38.56H51.746ZM53.8455 35.7715H56.933V31.2085H54.6385C54.6255 31.4685 54.6103 31.735 54.593 32.008C54.5756 32.2767 54.5561 32.5453 54.5345 32.814C54.5128 33.0827 54.489 33.3405 54.463 33.5875C54.4413 33.8302 54.4153 34.0555 54.385 34.2635C54.3373 34.6275 54.2788 34.9265 54.2095 35.1605C54.1401 35.3945 54.0188 35.5982 53.8455 35.7715ZM63.6057 37.195C62.9037 37.195 62.2905 37.0368 61.7662 36.7205C61.2419 36.4042 60.8345 35.9687 60.5442 35.414C60.2582 34.855 60.1152 34.2137 60.1152 33.49C60.1152 32.7533 60.2625 32.1077 60.5572 31.553C60.8519 30.9983 61.2614 30.565 61.7857 30.253C62.31 29.941 62.9167 29.785 63.6057 29.785C64.312 29.785 64.9274 29.9432 65.4517 30.2595C65.976 30.5758 66.3834 31.0135 66.6737 31.5725C66.964 32.1272 67.1092 32.7663 67.1092 33.49C67.1092 34.218 66.9619 34.8615 66.6672 35.4205C66.3769 35.9752 65.9695 36.4107 65.4452 36.727C64.9209 37.039 64.3077 37.195 63.6057 37.195ZM63.6057 35.726C64.2297 35.726 64.6934 35.518 64.9967 35.102C65.3 34.686 65.4517 34.1487 65.4517 33.49C65.4517 32.8097 65.2979 32.268 64.9902 31.865C64.6825 31.4577 64.221 31.254 63.6057 31.254C63.1854 31.254 62.8387 31.3493 62.5657 31.54C62.297 31.7263 62.0977 31.9885 61.9677 32.3265C61.8377 32.6602 61.7727 33.048 61.7727 33.49C61.7727 34.1703 61.9265 34.7142 62.2342 35.1215C62.5462 35.5245 63.0034 35.726 63.6057 35.726ZM71.4598 37.208C70.7925 37.1993 70.2248 37.0498 69.7568 36.7595C69.2888 36.4692 68.9227 36.0597 68.6583 35.531C68.394 35.0023 68.2337 34.3783 68.1773 33.659C68.1513 33.2907 68.1492 32.879 68.1708 32.424C68.1925 31.969 68.2402 31.5248 68.3138 31.0915C68.3875 30.6582 68.4893 30.2898 68.6193 29.9865C68.7537 29.6832 68.9292 29.4037 69.1458 29.148C69.3625 28.888 69.5965 28.6713 69.8478 28.498C70.1338 28.2987 70.4437 28.1448 70.7773 28.0365C71.1153 27.9282 71.4685 27.8458 71.8368 27.7895C72.2052 27.7288 72.5843 27.6747 72.9743 27.627C73.3643 27.5793 73.75 27.5187 74.1313 27.445L74.2743 28.8295C74.0317 28.8902 73.75 28.9378 73.4293 28.9725C73.113 29.0028 72.7837 29.0375 72.4413 29.0765C72.1033 29.1155 71.7805 29.1718 71.4728 29.2455C71.1652 29.3192 70.8987 29.4275 70.6733 29.5705C70.3613 29.7612 70.123 30.0342 69.9583 30.3895C69.7937 30.7448 69.6962 31.1197 69.6658 31.514C69.9345 31.1153 70.2682 30.8358 70.6668 30.6755C71.0698 30.5108 71.4772 30.4285 71.8888 30.4285C72.5128 30.4285 73.048 30.5758 73.4943 30.8705C73.945 31.1652 74.2895 31.566 74.5278 32.073C74.7705 32.5757 74.8918 33.1368 74.8918 33.7565C74.8918 34.4498 74.7467 35.0565 74.4563 35.5765C74.166 36.0965 73.763 36.4995 73.2473 36.7855C72.7317 37.0715 72.1358 37.2123 71.4598 37.208ZM71.5378 35.739C72.1012 35.739 72.5258 35.5657 72.8118 35.219C73.1022 34.868 73.2473 34.4022 73.2473 33.8215C73.2473 33.2278 73.0978 32.7598 72.7988 32.4175C72.5042 32.0752 72.0838 31.904 71.5378 31.904C70.9832 31.904 70.5607 32.0752 70.2703 32.4175C69.98 32.7598 69.8348 33.2278 69.8348 33.8215C69.8348 34.4282 69.9822 34.9005 70.2768 35.2385C70.5715 35.5722 70.9918 35.739 71.5378 35.739ZM76.3106 37V29.98H77.8771V32.749H81.0296V29.98H82.5961V37H81.0296V34.218H77.8771V37H76.3106ZM86.3735 37.195C85.8665 37.195 85.4375 37.0997 85.0865 36.909C84.7355 36.714 84.469 36.4562 84.287 36.1355C84.1093 35.8148 84.0205 35.4617 84.0205 35.076C84.0205 34.738 84.0768 34.4347 84.1895 34.166C84.3022 33.893 84.4755 33.659 84.7095 33.464C84.9435 33.2647 85.2468 33.1022 85.6195 32.9765C85.9012 32.8855 86.2305 32.8032 86.6075 32.7295C86.9888 32.6558 87.4005 32.5887 87.8425 32.528C88.2888 32.463 88.7547 32.3937 89.24 32.32L88.681 32.6385C88.6853 32.1532 88.577 31.7957 88.356 31.566C88.135 31.3363 87.7623 31.2215 87.238 31.2215C86.9217 31.2215 86.6162 31.2952 86.3215 31.4425C86.0268 31.5898 85.821 31.8433 85.704 32.203L84.274 31.7545C84.4473 31.1608 84.7767 30.6842 85.262 30.3245C85.7517 29.9648 86.4103 29.785 87.238 29.785C87.862 29.785 88.4102 29.8868 88.8825 30.0905C89.3592 30.2942 89.7123 30.6278 89.942 31.0915C90.0677 31.3385 90.1435 31.592 90.1695 31.852C90.1955 32.1077 90.2085 32.3872 90.2085 32.6905V37H88.837V35.479L89.0645 35.726C88.7482 36.233 88.3777 36.6057 87.953 36.844C87.5327 37.078 87.0062 37.195 86.3735 37.195ZM86.6855 35.947C87.0408 35.947 87.3442 35.8842 87.5955 35.7585C87.8468 35.6328 88.0462 35.479 88.1935 35.297C88.3452 35.115 88.447 34.9438 88.499 34.7835C88.5813 34.5842 88.6268 34.3567 88.6355 34.101C88.6485 33.841 88.655 33.6308 88.655 33.4705L89.136 33.6135C88.6637 33.6872 88.2585 33.7522 87.9205 33.8085C87.5825 33.8648 87.2922 33.919 87.0495 33.971C86.8068 34.0187 86.5923 34.0728 86.406 34.1335C86.224 34.1985 86.0702 34.2743 85.9445 34.361C85.8188 34.4477 85.7213 34.5473 85.652 34.66C85.587 34.7727 85.5545 34.9048 85.5545 35.0565C85.5545 35.2298 85.5978 35.3837 85.6845 35.518C85.7712 35.648 85.8968 35.752 86.0615 35.83C86.2305 35.908 86.4385 35.947 86.6855 35.947ZM96.0997 37V34.66H94.8452C94.6849 34.66 94.4834 34.6557 94.2407 34.647C94.0024 34.6383 93.7792 34.6167 93.5712 34.582C93.0296 34.4823 92.5811 34.2462 92.2257 33.8735C91.8704 33.4965 91.6927 32.9852 91.6927 32.3395C91.6927 31.7068 91.8617 31.1977 92.1997 30.812C92.5377 30.4263 92.9776 30.1793 93.5192 30.071C93.7446 30.0233 93.9764 29.9973 94.2147 29.993C94.4574 29.9843 94.6589 29.98 94.8192 29.98H97.6662V37H96.0997ZM91.5107 37L93.1877 34.3155H94.8192L93.1552 37H91.5107ZM94.6827 33.4315H96.0997V31.2085H94.6827C94.6004 31.2085 94.5007 31.2128 94.3837 31.2215C94.2667 31.2302 94.1497 31.2497 94.0327 31.28C93.9071 31.319 93.7879 31.3862 93.6752 31.4815C93.5626 31.5768 93.4694 31.696 93.3957 31.839C93.3221 31.982 93.2852 32.1445 93.2852 32.3265C93.2852 32.5995 93.3632 32.827 93.5192 33.009C93.6796 33.1867 93.8659 33.3058 94.0782 33.3665C94.1822 33.3925 94.2884 33.4098 94.3967 33.4185C94.5094 33.4272 94.6047 33.4315 94.6827 33.4315ZM102.069 37V29.98H108.166V37H106.6V31.449H103.636V37H102.069ZM109.342 37V35.687C109.597 35.7347 109.794 35.7303 109.933 35.674C110.072 35.6133 110.176 35.5007 110.245 35.336C110.314 35.1713 110.375 34.9525 110.427 34.6795C110.496 34.2938 110.557 33.8497 110.609 33.347C110.665 32.8443 110.713 32.307 110.752 31.735C110.795 31.163 110.834 30.578 110.869 29.98H116.037V37H114.477V31.449H112.247C112.225 31.7307 112.199 32.047 112.169 32.398C112.139 32.7447 112.106 33.0957 112.072 33.451C112.037 33.8063 111.998 34.1443 111.955 34.465C111.916 34.7813 111.874 35.0522 111.831 35.2775C111.731 35.7845 111.588 36.1853 111.402 36.48C111.22 36.7747 110.964 36.9632 110.635 37.0455C110.306 37.1322 109.875 37.117 109.342 37ZM119.826 37.195C119.319 37.195 118.89 37.0997 118.539 36.909C118.188 36.714 117.921 36.4562 117.739 36.1355C117.561 35.8148 117.473 35.4617 117.473 35.076C117.473 34.738 117.529 34.4347 117.642 34.166C117.754 33.893 117.928 33.659 118.162 33.464C118.396 33.2647 118.699 33.1022 119.072 32.9765C119.353 32.8855 119.683 32.8032 120.06 32.7295C120.441 32.6558 120.853 32.5887 121.295 32.528C121.741 32.463 122.207 32.3937 122.692 32.32L122.133 32.6385C122.137 32.1532 122.029 31.7957 121.808 31.566C121.587 31.3363 121.214 31.2215 120.69 31.2215C120.374 31.2215 120.068 31.2952 119.774 31.4425C119.479 31.5898 119.273 31.8433 119.156 32.203L117.726 31.7545C117.899 31.1608 118.229 30.6842 118.714 30.3245C119.204 29.9648 119.862 29.785 120.69 29.785C121.314 29.785 121.862 29.8868 122.335 30.0905C122.811 30.2942 123.164 30.6278 123.394 31.0915C123.52 31.3385 123.596 31.592 123.622 31.852C123.648 32.1077 123.661 32.3872 123.661 32.6905V37H122.289V35.479L122.517 35.726C122.2 36.233 121.83 36.6057 121.405 36.844C120.985 37.078 120.458 37.195 119.826 37.195ZM120.138 35.947C120.493 35.947 120.796 35.8842 121.048 35.7585C121.299 35.6328 121.498 35.479 121.646 35.297C121.797 35.115 121.899 34.9438 121.951 34.7835C122.033 34.5842 122.079 34.3567 122.088 34.101C122.101 33.841 122.107 33.6308 122.107 33.4705L122.588 33.6135C122.116 33.6872 121.711 33.7522 121.373 33.8085C121.035 33.8648 120.744 33.919 120.502 33.971C120.259 34.0187 120.044 34.0728 119.858 34.1335C119.676 34.1985 119.522 34.2743 119.397 34.361C119.271 34.4477 119.173 34.5473 119.104 34.66C119.039 34.7727 119.007 34.9048 119.007 35.0565C119.007 35.2298 119.05 35.3837 119.137 35.518C119.223 35.648 119.349 35.752 119.514 35.83C119.683 35.908 119.891 35.947 120.138 35.947ZM127.114 37V31.371H124.768V29.98H131.027V31.371H128.681V37H127.114ZM135.421 39.925V37.1235C134.737 37.2318 134.115 37.1582 133.556 36.9025C133.001 36.6468 132.559 36.2308 132.23 35.6545C131.905 35.0782 131.742 34.3567 131.742 33.49C131.742 32.6277 131.905 31.9062 132.23 31.3255C132.559 30.7448 133.001 30.3288 133.556 30.0775C134.115 29.8218 134.737 29.7482 135.421 29.8565V27.7505H136.812V29.8565C137.497 29.7482 138.117 29.8218 138.671 30.0775C139.23 30.3288 139.672 30.7448 139.997 31.3255C140.327 31.9062 140.491 32.6277 140.491 33.49C140.491 34.3567 140.327 35.0782 139.997 35.6545C139.672 36.2308 139.23 36.6468 138.671 36.9025C138.117 37.1582 137.497 37.2318 136.812 37.1235V39.925H135.421ZM135.421 35.7195V31.2735C135.07 31.2128 134.763 31.2237 134.498 31.306C134.238 31.384 134.022 31.5227 133.848 31.722C133.679 31.917 133.551 32.1662 133.465 32.4695C133.378 32.7685 133.335 33.1087 133.335 33.49C133.335 33.8757 133.378 34.218 133.465 34.517C133.556 34.816 133.69 35.0652 133.868 35.2645C134.045 35.4638 134.264 35.6047 134.524 35.687C134.784 35.765 135.083 35.7758 135.421 35.7195ZM136.812 35.7195C137.15 35.7758 137.449 35.765 137.709 35.687C137.969 35.609 138.186 35.4725 138.359 35.2775C138.537 35.0825 138.671 34.8355 138.762 34.5365C138.853 34.2332 138.899 33.8843 138.899 33.49C138.899 33.0957 138.855 32.749 138.769 32.45C138.682 32.151 138.552 31.904 138.379 31.709C138.21 31.5097 137.993 31.3732 137.729 31.2995C137.469 31.2215 137.163 31.2128 136.812 31.2735V35.7195ZM145.021 37.195C144.319 37.195 143.706 37.0368 143.181 36.7205C142.657 36.4042 142.25 35.9687 141.959 35.414C141.673 34.855 141.53 34.2137 141.53 33.49C141.53 32.7533 141.678 32.1077 141.972 31.553C142.267 30.9983 142.676 30.565 143.201 30.253C143.725 29.941 144.332 29.785 145.021 29.785C145.727 29.785 146.342 29.9432 146.867 30.2595C147.391 30.5758 147.798 31.0135 148.089 31.5725C148.379 32.1272 148.524 32.7663 148.524 33.49C148.524 34.218 148.377 34.8615 148.082 35.4205C147.792 35.9752 147.385 36.4107 146.86 36.727C146.336 37.039 145.723 37.195 145.021 37.195ZM145.021 35.726C145.645 35.726 146.108 35.518 146.412 35.102C146.715 34.686 146.867 34.1487 146.867 33.49C146.867 32.8097 146.713 32.268 146.405 31.865C146.098 31.4577 145.636 31.254 145.021 31.254C144.6 31.254 144.254 31.3493 143.981 31.54C143.712 31.7263 143.513 31.9885 143.383 32.3265C143.253 32.6602 143.188 33.048 143.188 33.49C143.188 34.1703 143.342 34.7142 143.649 35.1215C143.961 35.5245 144.418 35.726 145.021 35.726ZM153.33 37.195C152.645 37.195 152.071 37.0325 151.607 36.7075C151.144 36.3825 150.795 35.9405 150.561 35.3815C150.327 34.8182 150.21 34.1877 150.21 33.49C150.21 32.7837 150.327 32.151 150.561 31.592C150.795 31.033 151.137 30.5932 151.588 30.2725C152.043 29.9475 152.604 29.785 153.271 29.785C153.934 29.785 154.509 29.9475 154.994 30.2725C155.484 30.5932 155.863 31.033 156.131 31.592C156.4 32.1467 156.534 32.7793 156.534 33.49C156.534 34.192 156.402 34.8225 156.138 35.3815C155.874 35.9405 155.501 36.3825 155.02 36.7075C154.539 37.0325 153.976 37.195 153.33 37.195ZM149.943 40.12V29.98H151.328V34.907H151.523V40.12H149.943ZM153.089 35.791C153.497 35.791 153.833 35.6892 154.097 35.4855C154.361 35.2818 154.556 35.0067 154.682 34.66C154.812 34.309 154.877 33.919 154.877 33.49C154.877 33.0653 154.812 32.6797 154.682 32.333C154.552 31.982 154.35 31.7047 154.077 31.501C153.804 31.293 153.458 31.189 153.037 31.189C152.639 31.189 152.314 31.2865 152.062 31.4815C151.811 31.6722 151.625 31.9408 151.503 32.2875C151.386 32.6298 151.328 33.0307 151.328 33.49C151.328 33.945 151.386 34.3458 151.503 34.6925C151.625 35.0392 151.813 35.31 152.069 35.505C152.329 35.6957 152.669 35.791 153.089 35.791ZM157.954 37V29.98H159.241L161.757 34.829L164.279 29.98H165.559V37H164.064V33.1325L162.069 37H161.451L159.456 33.1325V37H157.954ZM169.337 37.195C168.83 37.195 168.401 37.0997 168.05 36.909C167.699 36.714 167.433 36.4562 167.251 36.1355C167.073 35.8148 166.984 35.4617 166.984 35.076C166.984 34.738 167.041 34.4347 167.153 34.166C167.266 33.893 167.439 33.659 167.673 33.464C167.907 33.2647 168.211 33.1022 168.583 32.9765C168.865 32.8855 169.194 32.8032 169.571 32.7295C169.953 32.6558 170.364 32.5887 170.806 32.528C171.253 32.463 171.719 32.3937 172.204 32.32L171.645 32.6385C171.649 32.1532 171.541 31.7957 171.32 31.566C171.099 31.3363 170.726 31.2215 170.202 31.2215C169.886 31.2215 169.58 31.2952 169.285 31.4425C168.991 31.5898 168.785 31.8433 168.668 32.203L167.238 31.7545C167.411 31.1608 167.741 30.6842 168.226 30.3245C168.716 29.9648 169.374 29.785 170.202 29.785C170.826 29.785 171.374 29.8868 171.846 30.0905C172.323 30.2942 172.676 30.6278 172.906 31.0915C173.032 31.3385 173.107 31.592 173.133 31.852C173.159 32.1077 173.172 32.3872 173.172 32.6905V37H171.801V35.479L172.028 35.726C171.712 36.233 171.342 36.6057 170.917 36.844C170.497 37.078 169.97 37.195 169.337 37.195ZM169.649 35.947C170.005 35.947 170.308 35.8842 170.559 35.7585C170.811 35.6328 171.01 35.479 171.157 35.297C171.309 35.115 171.411 34.9438 171.463 34.7835C171.545 34.5842 171.591 34.3567 171.599 34.101C171.612 33.841 171.619 33.6308 171.619 33.4705L172.1 33.6135C171.628 33.6872 171.222 33.7522 170.884 33.8085C170.546 33.8648 170.256 33.919 170.013 33.971C169.771 34.0187 169.556 34.0728 169.37 34.1335C169.188 34.1985 169.034 34.2743 168.908 34.361C168.783 34.4477 168.685 34.5473 168.616 34.66C168.551 34.7727 168.518 34.9048 168.518 35.0565C168.518 35.2298 168.562 35.3837 168.648 35.518C168.735 35.648 168.861 35.752 169.025 35.83C169.194 35.908 169.402 35.947 169.649 35.947ZM180.516 37.195C179.792 37.195 179.174 37.0347 178.663 36.714C178.152 36.389 177.76 35.947 177.487 35.388C177.218 34.829 177.081 34.1963 177.077 33.49C177.081 32.7707 177.222 32.1337 177.5 31.579C177.781 31.02 178.18 30.5823 178.696 30.266C179.211 29.9453 179.824 29.785 180.535 29.785C181.332 29.785 182.006 29.9865 182.557 30.3895C183.111 30.7882 183.473 31.3342 183.642 32.0275L182.082 32.45C181.961 32.073 181.759 31.7805 181.478 31.5725C181.196 31.3602 180.875 31.254 180.516 31.254C180.108 31.254 179.772 31.3515 179.508 31.5465C179.244 31.7372 179.049 32.0015 178.923 32.3395C178.797 32.6775 178.735 33.061 178.735 33.49C178.735 34.1573 178.884 34.6968 179.183 35.1085C179.482 35.5202 179.926 35.726 180.516 35.726C180.932 35.726 181.259 35.6307 181.497 35.44C181.74 35.2493 181.922 34.9742 182.043 34.6145L183.642 34.972C183.425 35.687 183.046 36.2373 182.505 36.623C181.963 37.0043 181.3 37.195 180.516 37.195ZM187.855 37.195C187.153 37.195 186.54 37.0368 186.015 36.7205C185.491 36.4042 185.084 35.9687 184.793 35.414C184.507 34.855 184.364 34.2137 184.364 33.49C184.364 32.7533 184.512 32.1077 184.806 31.553C185.101 30.9983 185.51 30.565 186.035 30.253C186.559 29.941 187.166 29.785 187.855 29.785C188.561 29.785 189.176 29.9432 189.701 30.2595C190.225 30.5758 190.632 31.0135 190.923 31.5725C191.213 32.1272 191.358 32.7663 191.358 33.49C191.358 34.218 191.211 34.8615 190.916 35.4205C190.626 35.9752 190.219 36.4107 189.694 36.727C189.17 37.039 188.557 37.195 187.855 37.195ZM187.855 35.726C188.479 35.726 188.942 35.518 189.246 35.102C189.549 34.686 189.701 34.1487 189.701 33.49C189.701 32.8097 189.547 32.268 189.239 31.865C188.932 31.4577 188.47 31.254 187.855 31.254C187.434 31.254 187.088 31.3493 186.815 31.54C186.546 31.7263 186.347 31.9885 186.217 32.3265C186.087 32.6602 186.022 33.048 186.022 33.49C186.022 34.1703 186.176 34.7142 186.483 35.1215C186.795 35.5245 187.252 35.726 187.855 35.726ZM48.273 55V47.98H51.4645C51.6941 47.98 51.9086 47.993 52.108 48.019C52.3073 48.045 52.4785 48.0775 52.6215 48.1165C52.9595 48.2162 53.2585 48.4112 53.5185 48.7015C53.7785 48.9875 53.9085 49.384 53.9085 49.891C53.9085 50.19 53.8608 50.437 53.7655 50.632C53.6701 50.8227 53.5445 50.983 53.3885 51.113C53.3148 51.1737 53.239 51.2257 53.161 51.269C53.083 51.3123 53.005 51.347 52.927 51.373C53.096 51.399 53.2563 51.4488 53.408 51.5225C53.6463 51.6395 53.8456 51.8128 54.006 52.0425C54.1706 52.2722 54.253 52.595 54.253 53.011C54.253 53.4833 54.1381 53.882 53.9085 54.207C53.6831 54.5277 53.3516 54.7508 52.914 54.8765C52.7536 54.9198 52.5695 54.9523 52.3615 54.974C52.1535 54.9913 51.9411 55 51.7245 55H48.273ZM49.859 53.791H51.614C51.705 53.791 51.8046 53.7823 51.913 53.765C52.0213 53.7477 52.1188 53.7238 52.2055 53.6935C52.3615 53.6372 52.4741 53.5375 52.5435 53.3945C52.6171 53.2515 52.654 53.102 52.654 52.946C52.654 52.7337 52.5998 52.5647 52.4915 52.439C52.3875 52.309 52.2618 52.2223 52.1145 52.179C52.0278 52.1443 51.9325 52.1248 51.8285 52.1205C51.7288 52.1118 51.6465 52.1075 51.5815 52.1075H49.859V53.791ZM49.859 50.879H51.159C51.2933 50.879 51.4233 50.8725 51.549 50.8595C51.679 50.8422 51.7873 50.814 51.874 50.775C52.017 50.7187 52.121 50.6233 52.186 50.489C52.2553 50.3547 52.29 50.2052 52.29 50.0405C52.29 49.8672 52.251 49.7112 52.173 49.5725C52.0993 49.4295 51.9801 49.3342 51.8155 49.2865C51.7071 49.2432 51.575 49.2193 51.419 49.215C51.2673 49.2107 51.1698 49.2085 51.1265 49.2085H49.859V50.879ZM58.5962 55.195C57.8725 55.195 57.255 55.0347 56.7437 54.714C56.2324 54.389 55.8402 53.947 55.5672 53.388C55.2985 52.829 55.162 52.1963 55.1577 51.49C55.162 50.7707 55.3029 50.1337 55.5802 49.579C55.8619 49.02 56.2605 48.5823 56.7762 48.266C57.2919 47.9453 57.905 47.785 58.6157 47.785C59.413 47.785 60.0869 47.9865 60.6372 48.3895C61.1919 48.7882 61.5537 49.3342 61.7227 50.0275L60.1627 50.45C60.0414 50.073 59.8399 49.7805 59.5582 49.5725C59.2765 49.3602 58.9559 49.254 58.5962 49.254C58.1889 49.254 57.853 49.3515 57.5887 49.5465C57.3244 49.7372 57.1294 50.0015 57.0037 50.3395C56.878 50.6775 56.8152 51.061 56.8152 51.49C56.8152 52.1573 56.9647 52.6968 57.2637 53.1085C57.5627 53.5202 58.0069 53.726 58.5962 53.726C59.0122 53.726 59.3394 53.6307 59.5777 53.44C59.8204 53.2493 60.0024 52.9742 60.1237 52.6145L61.7227 52.972C61.506 53.687 61.1269 54.2373 60.5852 54.623C60.0435 55.0043 59.3805 55.195 58.5962 55.195ZM66.2167 55.195C65.5061 55.195 64.8821 55.0412 64.3447 54.7335C63.8074 54.4258 63.3871 53.999 63.0837 53.453C62.7847 52.907 62.6352 52.2787 62.6352 51.568C62.6352 50.801 62.7826 50.1358 63.0772 49.5725C63.3719 49.0048 63.7814 48.565 64.3057 48.253C64.8301 47.941 65.4367 47.785 66.1257 47.785C66.8537 47.785 67.4712 47.9562 67.9782 48.2985C68.4896 48.6365 68.8687 49.1153 69.1157 49.735C69.3627 50.3547 69.4559 51.0848 69.3952 51.9255H67.8417V51.3535C67.8374 50.5908 67.7031 50.034 67.4387 49.683C67.1744 49.332 66.7584 49.1565 66.1907 49.1565C65.5494 49.1565 65.0727 49.3558 64.7607 49.7545C64.4487 50.1488 64.2927 50.7273 64.2927 51.49C64.2927 52.2007 64.4487 52.751 64.7607 53.141C65.0727 53.531 65.5277 53.726 66.1257 53.726C66.5114 53.726 66.8429 53.6415 67.1202 53.4725C67.4019 53.2992 67.6186 53.05 67.7702 52.725L69.3172 53.193C69.0486 53.8257 68.6326 54.3175 68.0692 54.6685C67.5102 55.0195 66.8927 55.195 66.2167 55.195ZM63.7987 51.9255V50.7425H68.6282V51.9255H63.7987ZM70.6421 55V47.98H71.9291L74.4446 52.829L76.9666 47.98H78.2471V55H76.7521V51.1325L74.7566 55H74.1391L72.1436 51.1325V55H70.6421ZM86.1463 47.98V55H84.6448V50.4175L81.3038 55H80.0493V47.98H81.5508V52.4455L84.9048 47.98H86.1463ZM90.5611 55V47.98H92.1276V50.749H95.2801V47.98H96.8466V55H95.2801V52.218H92.1276V55H90.5611ZM101.852 55.195C101.142 55.195 100.518 55.0412 99.9805 54.7335C99.4431 54.4258 99.0228 53.999 98.7195 53.453C98.4205 52.907 98.271 52.2787 98.271 51.568C98.271 50.801 98.4183 50.1358 98.713 49.5725C99.0076 49.0048 99.4171 48.565 99.9415 48.253C100.466 47.941 101.072 47.785 101.761 47.785C102.489 47.785 103.107 47.9562 103.614 48.2985C104.125 48.6365 104.504 49.1153 104.751 49.735C104.998 50.3547 105.092 51.0848 105.031 51.9255H103.477V51.3535C103.473 50.5908 103.339 50.034 103.074 49.683C102.81 49.332 102.394 49.1565 101.826 49.1565C101.185 49.1565 100.708 49.3558 100.396 49.7545C100.084 50.1488 99.9285 50.7273 99.9285 51.49C99.9285 52.2007 100.084 52.751 100.396 53.141C100.708 53.531 101.163 53.726 101.761 53.726C102.147 53.726 102.479 53.6415 102.756 53.4725C103.038 53.2992 103.254 53.05 103.406 52.725L104.953 53.193C104.684 53.8257 104.268 54.3175 103.705 54.6685C103.146 55.0195 102.528 55.195 101.852 55.195ZM99.4345 51.9255V50.7425H104.264V51.9255H99.4345ZM109.582 55.195C108.88 55.195 108.267 55.0368 107.742 54.7205C107.218 54.4042 106.811 53.9687 106.52 53.414C106.234 52.855 106.091 52.2137 106.091 51.49C106.091 50.7533 106.239 50.1077 106.533 49.553C106.828 48.9983 107.237 48.565 107.762 48.253C108.286 47.941 108.893 47.785 109.582 47.785C110.288 47.785 110.903 47.9432 111.428 48.2595C111.952 48.5758 112.359 49.0135 112.65 49.5725C112.94 50.1272 113.085 50.7663 113.085 51.49C113.085 52.218 112.938 52.8615 112.643 53.4205C112.353 53.9752 111.946 54.4107 111.421 54.727C110.897 55.039 110.284 55.195 109.582 55.195ZM109.582 53.726C110.206 53.726 110.669 53.518 110.973 53.102C111.276 52.686 111.428 52.1487 111.428 51.49C111.428 50.8097 111.274 50.268 110.966 49.865C110.659 49.4577 110.197 49.254 109.582 49.254C109.161 49.254 108.815 49.3493 108.542 49.54C108.273 49.7263 108.074 49.9885 107.944 50.3265C107.814 50.6602 107.749 51.048 107.749 51.49C107.749 52.1703 107.903 52.7142 108.21 53.1215C108.522 53.5245 108.979 53.726 109.582 53.726ZM117.436 55.208C116.769 55.1993 116.201 55.0498 115.733 54.7595C115.265 54.4692 114.899 54.0597 114.634 53.531C114.37 53.0023 114.21 52.3783 114.153 51.659C114.127 51.2907 114.125 50.879 114.147 50.424C114.169 49.969 114.216 49.5248 114.29 49.0915C114.364 48.6582 114.465 48.2898 114.595 47.9865C114.73 47.6832 114.905 47.4037 115.122 47.148C115.339 46.888 115.573 46.6713 115.824 46.498C116.11 46.2987 116.42 46.1448 116.753 46.0365C117.091 45.9282 117.445 45.8458 117.813 45.7895C118.181 45.7288 118.56 45.6747 118.95 45.627C119.34 45.5793 119.726 45.5187 120.107 45.445L120.25 46.8295C120.008 46.8902 119.726 46.9378 119.405 46.9725C119.089 47.0028 118.76 47.0375 118.417 47.0765C118.079 47.1155 117.757 47.1718 117.449 47.2455C117.141 47.3192 116.875 47.4275 116.649 47.5705C116.337 47.7612 116.099 48.0342 115.934 48.3895C115.77 48.7448 115.672 49.1197 115.642 49.514C115.911 49.1153 116.244 48.8358 116.643 48.6755C117.046 48.5108 117.453 48.4285 117.865 48.4285C118.489 48.4285 119.024 48.5758 119.47 48.8705C119.921 49.1652 120.266 49.566 120.504 50.073C120.747 50.5757 120.868 51.1368 120.868 51.7565C120.868 52.4498 120.723 53.0565 120.432 53.5765C120.142 54.0965 119.739 54.4995 119.223 54.7855C118.708 55.0715 118.112 55.2123 117.436 55.208ZM117.514 53.739C118.077 53.739 118.502 53.5657 118.788 53.219C119.078 52.868 119.223 52.4022 119.223 51.8215C119.223 51.2278 119.074 50.7598 118.775 50.4175C118.48 50.0752 118.06 49.904 117.514 49.904C116.959 49.904 116.537 50.0752 116.246 50.4175C115.956 50.7598 115.811 51.2278 115.811 51.8215C115.811 52.4282 115.958 52.9005 116.253 53.2385C116.548 53.5722 116.968 53.739 117.514 53.739ZM121.291 55L123.859 51.451L121.343 47.98H123.189L124.769 50.2225L126.322 47.98H128.168L125.653 51.451L128.233 55H126.387L124.769 52.6795L123.137 55H121.291ZM132.116 55.195C131.414 55.195 130.801 55.0368 130.276 54.7205C129.752 54.4042 129.345 53.9687 129.054 53.414C128.768 52.855 128.625 52.2137 128.625 51.49C128.625 50.7533 128.773 50.1077 129.067 49.553C129.362 48.9983 129.772 48.565 130.296 48.253C130.82 47.941 131.427 47.785 132.116 47.785C132.822 47.785 133.438 47.9432 133.962 48.2595C134.486 48.5758 134.894 49.0135 135.184 49.5725C135.474 50.1272 135.619 50.7663 135.619 51.49C135.619 52.218 135.472 52.8615 135.177 53.4205C134.887 53.9752 134.48 54.4107 133.955 54.727C133.431 55.039 132.818 55.195 132.116 55.195ZM132.116 53.726C132.74 53.726 133.204 53.518 133.507 53.102C133.81 52.686 133.962 52.1487 133.962 51.49C133.962 50.8097 133.808 50.268 133.5 49.865C133.193 49.4577 132.731 49.254 132.116 49.254C131.696 49.254 131.349 49.3493 131.076 49.54C130.807 49.7263 130.608 49.9885 130.478 50.3265C130.348 50.6602 130.283 51.048 130.283 51.49C130.283 52.1703 130.437 52.7142 130.744 53.1215C131.056 53.5245 131.514 53.726 132.116 53.726ZM136.532 56.56V53.7715C136.913 53.7715 137.184 53.6415 137.344 53.3815C137.504 53.1215 137.632 52.6708 137.728 52.0295C137.788 51.6482 137.838 51.2452 137.877 50.8205C137.916 50.3958 137.949 49.9473 137.975 49.475C138.005 49.0027 138.031 48.5043 138.053 47.98H143.279V53.7715H143.987V56.56H142.505V55H138.007V56.56H136.532ZM138.631 53.7715H141.719V49.2085H139.424C139.411 49.4685 139.396 49.735 139.379 50.008C139.361 50.2767 139.342 50.5453 139.32 50.814C139.298 51.0827 139.275 51.3405 139.249 51.5875C139.227 51.8302 139.201 52.0555 139.171 52.2635C139.123 52.6275 139.064 52.9265 138.995 53.1605C138.926 53.3945 138.804 53.5982 138.631 53.7715ZM151.375 47.98V55H149.873V50.4175L146.532 55H145.278V47.98H146.779V52.4455L150.133 47.98H151.375ZM153.187 55V47.98H154.474L156.99 52.829L159.512 47.98H160.792V55H159.297V51.1325L157.302 55H156.684L154.689 51.1325V55H153.187ZM162.601 55L162.594 47.98H164.161V50.32H164.947C165.142 50.32 165.361 50.3243 165.604 50.333C165.851 50.3417 166.057 50.3612 166.221 50.3915C166.616 50.4782 166.951 50.6168 167.229 50.8075C167.51 50.9982 167.725 51.2473 167.872 51.555C168.02 51.8627 168.093 52.2332 168.093 52.6665C168.093 53.2862 167.933 53.7823 167.612 54.155C167.292 54.5233 166.843 54.7747 166.267 54.909C166.098 54.948 165.888 54.974 165.636 54.987C165.385 54.9957 165.162 55 164.967 55H162.601ZM164.161 53.7715H165.103C165.199 53.7715 165.305 53.7672 165.422 53.7585C165.539 53.7498 165.649 53.7303 165.753 53.7C165.948 53.648 166.122 53.531 166.273 53.349C166.425 53.1627 166.501 52.9352 166.501 52.6665C166.501 52.3848 166.425 52.153 166.273 51.971C166.122 51.789 165.935 51.6698 165.714 51.6135C165.61 51.5875 165.504 51.5702 165.396 51.5615C165.292 51.5528 165.194 51.5485 165.103 51.5485H164.161V53.7715ZM168.828 55V47.98H170.394V55H168.828ZM172.205 55V47.98H173.492L176.007 52.829L178.529 47.98H179.81V55H178.315V51.1325L176.319 55H175.702L173.706 51.1325V55H172.205ZM187.709 47.98V55H186.207V50.4175L182.866 55H181.612V47.98H183.113V52.4455L186.467 47.98H187.709ZM40.3079 75.925V73.1235C39.6232 73.2318 39.0014 73.1582 38.4424 72.9025C37.8877 72.6468 37.4457 72.2308 37.1164 71.6545C36.7914 71.0782 36.6289 70.3567 36.6289 69.49C36.6289 68.6277 36.7914 67.9062 37.1164 67.3255C37.4457 66.7448 37.8877 66.3288 38.4424 66.0775C39.0014 65.8218 39.6232 65.7482 40.3079 65.8565V63.7505H41.6989V65.8565C42.3836 65.7482 43.0032 65.8218 43.5579 66.0775C44.1169 66.3288 44.5589 66.7448 44.8839 67.3255C45.2132 67.9062 45.3779 68.6277 45.3779 69.49C45.3779 70.3567 45.2132 71.0782 44.8839 71.6545C44.5589 72.2308 44.1169 72.6468 43.5579 72.9025C43.0032 73.1582 42.3836 73.2318 41.6989 73.1235V75.925H40.3079ZM40.3079 71.7195V67.2735C39.9569 67.2128 39.6492 67.2237 39.3849 67.306C39.1249 67.384 38.9082 67.5227 38.7349 67.722C38.5659 67.917 38.4381 68.1662 38.3514 68.4695C38.2647 68.7685 38.2214 69.1087 38.2214 69.49C38.2214 69.8757 38.2647 70.218 38.3514 70.517C38.4424 70.816 38.5767 71.0652 38.7544 71.2645C38.9321 71.4638 39.1509 71.6047 39.4109 71.687C39.6709 71.765 39.9699 71.7758 40.3079 71.7195ZM41.6989 71.7195C42.0369 71.7758 42.3359 71.765 42.5959 71.687C42.8559 71.609 43.0726 71.4725 43.2459 71.2775C43.4236 71.0825 43.5579 70.8355 43.6489 70.5365C43.7399 70.2332 43.7854 69.8843 43.7854 69.49C43.7854 69.0957 43.7421 68.749 43.6554 68.45C43.5687 68.151 43.4387 67.904 43.2654 67.709C43.0964 67.5097 42.8797 67.3732 42.6154 67.2995C42.3554 67.2215 42.0499 67.2128 41.6989 67.2735V71.7195ZM47.4761 76.12L48.8281 72.4085L48.8541 73.5005L45.7926 65.98H47.4241L49.5951 71.544H49.1791L51.2916 65.98H52.8581L48.9451 76.12H47.4761ZM53.8145 73V65.98H55.381V68.749H58.5335V65.98H60.1V73H58.5335V70.218H55.381V73H53.8145ZM61.9014 73L61.9144 65.98H63.5004V69.36L66.0679 65.98H68.0244L65.3009 69.49L68.2584 73H66.1849L63.5004 69.62V73H61.9014ZM74.7855 74.4755V73H68.8965V65.98H70.463V71.531H73.427V65.98H74.9935V71.609H76.352V74.4755H74.7855ZM83.474 65.98V73H81.9725V68.4175L78.6315 73H77.377V65.98H78.8785V70.4455L82.2325 65.98H83.474ZM89.4982 73V70.66H88.2437C88.0833 70.66 87.8818 70.6557 87.6392 70.647C87.4008 70.6383 87.1777 70.6167 86.9697 70.582C86.428 70.4823 85.9795 70.2462 85.6242 69.8735C85.2688 69.4965 85.0912 68.9852 85.0912 68.3395C85.0912 67.7068 85.2602 67.1977 85.5982 66.812C85.9362 66.4263 86.376 66.1793 86.9177 66.071C87.143 66.0233 87.3748 65.9973 87.6132 65.993C87.8558 65.9843 88.0573 65.98 88.2177 65.98H91.0647V73H89.4982ZM84.9092 73L86.5862 70.3155H88.2177L86.5537 73H84.9092ZM88.0812 69.4315H89.4982V67.2085H88.0812C87.9988 67.2085 87.8992 67.2128 87.7822 67.2215C87.6652 67.2302 87.5482 67.2497 87.4312 67.28C87.3055 67.319 87.1863 67.3862 87.0737 67.4815C86.961 67.5768 86.8678 67.696 86.7942 67.839C86.7205 67.982 86.6837 68.1445 86.6837 68.3265C86.6837 68.5995 86.7617 68.827 86.9177 69.009C87.078 69.1867 87.2643 69.3058 87.4767 69.3665C87.5807 69.3925 87.6868 69.4098 87.7952 69.4185C87.9078 69.4272 88.0032 69.4315 88.0812 69.4315ZM92.8653 73V65.98H94.1523L96.6678 70.829L99.1898 65.98H100.47V73H98.9753V69.1325L96.9798 73H96.3623L94.3668 69.1325V73H92.8653ZM108.369 65.98V73H106.868V68.4175L103.527 73H102.272V65.98H103.774V70.4455L107.128 65.98H108.369ZM112.277 74.56V71.7715C112.659 71.7715 112.929 71.6415 113.09 71.3815C113.25 71.1215 113.378 70.6708 113.473 70.0295C113.534 69.6482 113.584 69.2452 113.623 68.8205C113.662 68.3958 113.694 67.9473 113.72 67.475C113.751 67.0027 113.777 66.5043 113.798 65.98H119.024V71.7715H119.733V74.56H118.251V73H113.753V74.56H112.277ZM114.377 71.7715H117.464V67.2085H115.17C115.157 67.4685 115.142 67.735 115.124 68.008C115.107 68.2767 115.087 68.5453 115.066 68.814C115.044 69.0827 115.02 69.3405 114.994 69.5875C114.973 69.8302 114.947 70.0555 114.916 70.2635C114.869 70.6275 114.81 70.9265 114.741 71.1605C114.671 71.3945 114.55 71.5982 114.377 71.7715ZM120.386 73V71.687C120.642 71.7347 120.839 71.7303 120.978 71.674C121.117 71.6133 121.221 71.5007 121.29 71.336C121.359 71.1713 121.42 70.9525 121.472 70.6795C121.541 70.2938 121.602 69.8497 121.654 69.347C121.71 68.8443 121.758 68.307 121.797 67.735C121.84 67.163 121.879 66.578 121.914 65.98H127.081V73H125.521V67.449H123.292C123.27 67.7307 123.244 68.047 123.214 68.398C123.184 68.7447 123.151 69.0957 123.116 69.451C123.082 69.8063 123.043 70.1443 122.999 70.465C122.96 70.7813 122.919 71.0522 122.876 71.2775C122.776 71.7845 122.633 72.1853 122.447 72.48C122.265 72.7747 122.009 72.9632 121.68 73.0455C121.351 73.1322 120.919 73.117 120.386 73ZM133.107 73V70.66H131.852C131.692 70.66 131.49 70.6557 131.248 70.647C131.009 70.6383 130.786 70.6167 130.578 70.582C130.036 70.4823 129.588 70.2462 129.233 69.8735C128.877 69.4965 128.7 68.9852 128.7 68.3395C128.7 67.7068 128.869 67.1977 129.207 66.812C129.545 66.4263 129.984 66.1793 130.526 66.071C130.751 66.0233 130.983 65.9973 131.222 65.993C131.464 65.9843 131.666 65.98 131.826 65.98H134.673V73H133.107ZM128.518 73L130.195 70.3155H131.826L130.162 73H128.518ZM131.69 69.4315H133.107V67.2085H131.69C131.607 67.2085 131.508 67.2128 131.391 67.2215C131.274 67.2302 131.157 67.2497 131.04 67.28C130.914 67.319 130.795 67.3862 130.682 67.4815C130.569 67.5768 130.476 67.696 130.403 67.839C130.329 67.982 130.292 68.1445 130.292 68.3265C130.292 68.5995 130.37 68.827 130.526 69.009C130.686 69.1867 130.873 69.3058 131.085 69.3665C131.189 69.3925 131.295 69.4098 131.404 69.4185C131.516 69.4272 131.612 69.4315 131.69 69.4315ZM142.19 73.195C141.488 73.195 140.875 73.0368 140.35 72.7205C139.826 72.4042 139.419 71.9687 139.128 71.414C138.842 70.855 138.699 70.2137 138.699 69.49C138.699 68.7533 138.847 68.1077 139.141 67.553C139.436 66.9983 139.845 66.565 140.37 66.253C140.894 65.941 141.501 65.785 142.19 65.785C142.896 65.785 143.511 65.9432 144.036 66.2595C144.56 66.5758 144.967 67.0135 145.258 67.5725C145.548 68.1272 145.693 68.7663 145.693 69.49C145.693 70.218 145.546 70.8615 145.251 71.4205C144.961 71.9752 144.554 72.4107 144.029 72.727C143.505 73.039 142.892 73.195 142.19 73.195ZM142.19 71.726C142.814 71.726 143.277 71.518 143.581 71.102C143.884 70.686 144.036 70.1487 144.036 69.49C144.036 68.8097 143.882 68.268 143.574 67.865C143.267 67.4577 142.805 67.254 142.19 67.254C141.769 67.254 141.423 67.3493 141.15 67.54C140.881 67.7263 140.682 67.9885 140.552 68.3265C140.422 68.6602 140.357 69.048 140.357 69.49C140.357 70.1703 140.511 70.7142 140.818 71.1215C141.13 71.5245 141.587 71.726 142.19 71.726ZM150.044 73.208C149.376 73.1993 148.809 73.0498 148.341 72.7595C147.873 72.4692 147.507 72.0597 147.242 71.531C146.978 71.0023 146.818 70.3783 146.761 69.659C146.735 69.2907 146.733 68.879 146.755 68.424C146.776 67.969 146.824 67.5248 146.898 67.0915C146.971 66.6582 147.073 66.2898 147.203 65.9865C147.338 65.6832 147.513 65.4037 147.73 65.148C147.946 64.888 148.18 64.6713 148.432 64.498C148.718 64.2987 149.028 64.1448 149.361 64.0365C149.699 63.9282 150.052 63.8458 150.421 63.7895C150.789 63.7288 151.168 63.6747 151.558 63.627C151.948 63.5793 152.334 63.5187 152.715 63.445L152.858 64.8295C152.616 64.8902 152.334 64.9378 152.013 64.9725C151.697 65.0028 151.368 65.0375 151.025 65.0765C150.687 65.1155 150.364 65.1718 150.057 65.2455C149.749 65.3192 149.483 65.4275 149.257 65.5705C148.945 65.7612 148.707 66.0342 148.542 66.3895C148.378 66.7448 148.28 67.1197 148.25 67.514C148.518 67.1153 148.852 66.8358 149.251 66.6755C149.654 66.5108 150.061 66.4285 150.473 66.4285C151.097 66.4285 151.632 66.5758 152.078 66.8705C152.529 67.1652 152.873 67.566 153.112 68.073C153.354 68.5757 153.476 69.1368 153.476 69.7565C153.476 70.4498 153.331 71.0565 153.04 71.5765C152.75 72.0965 152.347 72.4995 151.831 72.7855C151.316 73.0715 150.72 73.2123 150.044 73.208ZM150.122 71.739C150.685 71.739 151.11 71.5657 151.396 71.219C151.686 70.868 151.831 70.4022 151.831 69.8215C151.831 69.2278 151.682 68.7598 151.383 68.4175C151.088 68.0752 150.668 67.904 150.122 67.904C149.567 67.904 149.145 68.0752 148.854 68.4175C148.564 68.7598 148.419 69.2278 148.419 69.8215C148.419 70.4282 148.566 70.9005 148.861 71.2385C149.155 71.5722 149.576 71.739 150.122 71.739ZM155.577 76.12L156.929 72.4085L156.955 73.5005L153.893 65.98H155.525L157.696 71.544H157.28L159.392 65.98H160.959L157.046 76.12H155.577ZM166.017 73V70.6405C165.774 70.7618 165.497 70.8572 165.185 70.9265C164.877 70.9958 164.554 71.0305 164.216 71.0305C163.492 71.0305 162.914 70.868 162.481 70.543C162.052 70.218 161.774 69.7457 161.649 69.126C161.61 68.9483 161.581 68.7642 161.564 68.5735C161.551 68.3785 161.542 68.203 161.538 68.047C161.538 67.8867 161.538 67.7653 161.538 67.683V65.98H163.124V67.683C163.124 67.7783 163.128 67.9192 163.137 68.1055C163.146 68.2875 163.17 68.4695 163.209 68.6515C163.291 68.9982 163.44 69.2517 163.657 69.412C163.874 69.5723 164.184 69.6525 164.587 69.6525C164.899 69.6525 165.174 69.6113 165.412 69.529C165.65 69.4467 165.852 69.3427 166.017 69.217V65.98H167.59V73H166.017ZM172.597 73.195C171.886 73.195 171.262 73.0412 170.725 72.7335C170.188 72.4258 169.767 71.999 169.464 71.453C169.165 70.907 169.016 70.2787 169.016 69.568C169.016 68.801 169.163 68.1358 169.458 67.5725C169.752 67.0048 170.162 66.565 170.686 66.253C171.21 65.941 171.817 65.785 172.506 65.785C173.234 65.785 173.852 65.9562 174.359 66.2985C174.87 66.6365 175.249 67.1153 175.496 67.735C175.743 68.3547 175.836 69.0848 175.776 69.9255H174.222V69.3535C174.218 68.5908 174.083 68.034 173.819 67.683C173.555 67.332 173.139 67.1565 172.571 67.1565C171.93 67.1565 171.453 67.3558 171.141 67.7545C170.829 68.1488 170.673 68.7273 170.673 69.49C170.673 70.2007 170.829 70.751 171.141 71.141C171.453 71.531 171.908 71.726 172.506 71.726C172.892 71.726 173.223 71.6415 173.501 71.4725C173.782 71.2992 173.999 71.05 174.151 70.725L175.698 71.193C175.429 71.8257 175.013 72.3175 174.45 72.6685C173.891 73.0195 173.273 73.195 172.597 73.195ZM170.179 69.9255V68.7425H175.009V69.9255H170.179ZM177.213 73V65.98H178.779V68.749H181.932V65.98H183.498V73H181.932V70.218H178.779V73H177.213ZM191.397 65.98V73H189.895V68.4175L186.554 73H185.3V65.98H186.801V70.4455L190.155 65.98H191.397ZM197.421 73V70.66H196.167C196.006 70.66 195.805 70.6557 195.562 70.647C195.324 70.6383 195.101 70.6167 194.893 70.582C194.351 70.4823 193.902 70.2462 193.547 69.8735C193.192 69.4965 193.014 68.9852 193.014 68.3395C193.014 67.7068 193.183 67.1977 193.521 66.812C193.859 66.4263 194.299 66.1793 194.841 66.071C195.066 66.0233 195.298 65.9973 195.536 65.993C195.779 65.9843 195.98 65.98 196.141 65.98H198.988V73H197.421ZM192.832 73L194.509 70.3155H196.141L194.477 73H192.832ZM196.004 69.4315H197.421V67.2085H196.004C195.922 67.2085 195.822 67.2128 195.705 67.2215C195.588 67.2302 195.471 67.2497 195.354 67.28C195.228 67.319 195.109 67.3862 194.997 67.4815C194.884 67.5768 194.791 67.696 194.717 67.839C194.643 67.982 194.607 68.1445 194.607 68.3265C194.607 68.5995 194.685 68.827 194.841 69.009C195.001 69.1867 195.187 69.3058 195.4 69.3665C195.504 69.3925 195.61 69.4098 195.718 69.4185C195.831 69.4272 195.926 69.4315 196.004 69.4315Z" fill="black"/>
</g>
<defs>
<filter id="filter0_d_45_37" x="0" y="0" width="309" height="107.865" filterUnits="userSpaceOnUse" color-interpolation-filters="sRGB">
<feFlood flood-opacity="0" result="BackgroundImageFix"/>
<feColorMatrix in="SourceAlpha" type="matrix" values="0 0 0 0 0 0 0 0 0 0 0 0 0 0 0 0 0 0 127 0" result="hardAlpha"/>
<feOffset dy="4"/>
<feGaussianBlur stdDeviation="2"/>
<feComposite in2="hardAlpha" operator="out"/>
<feColorMatrix type="matrix" values="0 0 0 0 0 0 0 0 0 0 0 0 0 0 0 0 0 0 0.25 0"/>
<feBlend mode="normal" in2="BackgroundImageFix" result="effect1_dropShadow_45_37"/>
<feBlend mode="normal" in="SourceGraphic" in2="effect1_dropShadow_45_37" result="shape"/>
</filter>
</defs>
</svg>
