<svg width="39" height="40" viewBox="0 0 39 40" fill="none" xmlns="http://www.w3.org/2000/svg">
<path d="M19.656 3.64194C10.7578 3.64194 3.53613 10.8636 3.53613 19.7618C3.53613 28.6599 10.7578 35.8816 19.656 35.8816C28.5541 35.8816 35.7758 28.6599 35.7758 19.7618C35.7758 10.8636 28.5541 3.64194 19.656 3.64194ZM27.1356 14.6034C26.8938 17.1504 25.846 23.3404 25.314 26.1936C25.0883 27.4026 24.637 27.8056 24.2179 27.8539C23.2829 27.9345 22.5736 27.2414 21.6709 26.6449C20.2524 25.71 19.4464 25.1297 18.0762 24.227C16.4804 23.1792 17.512 22.5989 18.4309 21.6639C18.6727 21.4221 22.7993 17.6662 22.8799 17.3277C22.8911 17.2764 22.8896 17.2232 22.8756 17.1726C22.8615 17.122 22.8354 17.0757 22.7993 17.0375C22.7026 16.9569 22.5736 16.9892 22.4608 17.0053C22.3157 17.0375 20.059 18.5367 15.6582 21.5027C15.0135 21.9379 14.4331 22.1636 13.9173 22.1475C13.337 22.1314 12.2408 21.8251 11.4187 21.5511C10.4032 21.2287 9.61331 21.0514 9.67779 20.4872C9.71003 20.197 10.113 19.9068 10.8707 19.6006C15.5776 17.5533 18.7049 16.1993 20.2685 15.5545C24.7498 13.6846 25.6687 13.3622 26.2812 13.3622C26.4102 13.3622 26.7164 13.3944 26.9099 13.5556C27.0711 13.6846 27.1194 13.8619 27.1356 13.9909C27.1194 14.0876 27.1517 14.3777 27.1356 14.6034Z" fill="black"/>
</svg>
