<svg width="79" height="26" viewBox="0 0 79 26" fill="none" xmlns="http://www.w3.org/2000/svg">
<path d="M6.40334 19.418V3.75797L0.463342 4.02797V0.301969H16.2583V4.02797L10.1833 3.75797V15.098L10.4803 17.798L10.1833 19.418H6.40334ZM17.493 19.418V10.967L16.926 8.26697L17.493 6.64697H20.085L20.625 7.26797C20.625 7.26797 20.742 7.19597 20.976 7.05197C21.228 6.88997 21.579 6.73697 22.029 6.59297C22.479 6.44897 23.028 6.37697 23.676 6.37697C24.036 6.37697 24.396 6.40397 24.756 6.45797C25.116 6.51197 25.395 6.58397 25.593 6.67397L27.348 8.42897L25.863 11.075L22.164 9.21197L21.219 9.58997V19.418H17.493ZM34.1216 19.688C32.9516 19.688 31.9076 19.481 30.9896 19.067C30.0716 18.653 29.3516 17.96 28.8296 16.988C28.3076 16.016 28.0466 14.702 28.0466 13.046C28.0466 11.444 28.3256 10.157 28.8836 9.18497C29.4416 8.21297 30.1796 7.51097 31.0976 7.07897C32.0156 6.62897 33.0236 6.40397 34.1216 6.40397C35.3276 6.40397 36.2726 6.53897 36.9566 6.80897C37.6586 7.07897 38.1896 7.33997 38.5496 7.59197L39.8996 11.885L39.3596 13.559H31.7996C31.9076 14.513 32.2496 15.278 32.8256 15.854C33.4016 16.43 34.2836 16.718 35.4716 16.718C36.4436 16.718 37.2266 16.601 37.8206 16.367C38.4326 16.133 38.8556 15.953 39.0896 15.827V18.635C38.5496 18.923 37.8566 19.175 37.0106 19.391C36.1826 19.589 35.2196 19.688 34.1216 19.688ZM31.7726 11.831L35.8226 11.291L35.4176 9.29297C35.2916 9.22097 35.1116 9.16697 34.8776 9.13097C34.6616 9.09497 34.4636 9.07697 34.2836 9.07697C33.4736 9.07697 32.8526 9.36497 32.4206 9.94097C31.9886 10.499 31.7726 11.129 31.7726 11.831ZM45.6293 19.688C44.4233 19.688 43.3973 19.382 42.5513 18.77C41.7233 18.14 41.3093 17.168 41.3093 15.854C41.3093 14.468 41.7503 13.415 42.6323 12.695C43.5143 11.957 44.6933 11.588 46.1693 11.588C47.2493 11.588 48.0683 11.678 48.6263 11.858C49.2023 12.038 49.5803 12.173 49.7603 12.263L49.9493 12.101C49.9493 11.561 49.9043 11.084 49.8143 10.67C49.7243 10.256 49.5173 9.94097 49.1933 9.72497C48.8693 9.49097 48.3653 9.37397 47.6813 9.37397C46.4573 9.37397 45.3593 9.47297 44.3873 9.67097C43.4333 9.86897 42.6773 10.049 42.1193 10.211V7.24097C42.6773 7.04297 43.5233 6.86297 44.6573 6.70097C45.7913 6.52097 47.0153 6.43097 48.3293 6.43097C49.4453 6.43097 50.3543 6.58397 51.0563 6.88997C51.7763 7.17797 52.3253 7.57397 52.7033 8.07797C53.0993 8.58197 53.3693 9.13997 53.5133 9.75197C53.6753 10.346 53.7563 10.94 53.7563 11.534V15.125L54.2963 17.852L53.7563 19.445H50.2193V18.122L49.9493 17.987C49.8053 18.167 49.5533 18.392 49.1933 18.662C48.8513 18.932 48.3833 19.175 47.7893 19.391C47.2133 19.589 46.4933 19.688 45.6293 19.688ZM47.1143 16.691C47.8883 16.691 48.4913 16.619 48.9233 16.475C49.3733 16.331 49.7153 16.187 49.9493 16.043V15.53C49.9493 15.188 49.7423 14.846 49.3283 14.504C48.9323 14.162 48.2753 13.991 47.3573 13.991C46.6733 13.991 46.1693 14.126 45.8453 14.396C45.5213 14.666 45.3593 15.008 45.3593 15.422C45.3593 15.854 45.5123 16.178 45.8183 16.394C46.1243 16.592 46.5563 16.691 47.1143 16.691ZM60.7459 19.688C59.5219 19.688 58.6309 19.418 58.0729 18.878C57.5149 18.338 57.2359 17.519 57.2359 16.421V9.18497H55.5349V7.42997L56.9659 6.10697L58.8829 2.75897H60.9889V6.67397H64.4989V9.37397H60.9889V16.772L64.4989 16.745V18.878C64.4989 18.878 64.3549 18.95 64.0669 19.094C63.7789 19.22 63.3559 19.346 62.7979 19.472C62.2579 19.616 61.5739 19.688 60.7459 19.688ZM67.7741 25.979L63.9671 24.629L65.0471 21.416L68.8271 22.496C69.3491 22.496 69.7901 22.334 70.1501 22.01C70.5101 21.704 70.8071 21.308 71.0411 20.822C71.2931 20.354 71.4731 19.877 71.5811 19.391H69.0701L66.1001 10.157L65.5871 6.64697H69.6371L71.6621 16.367H72.2021L74.2271 6.64697H78.2771C78.2771 6.64697 78.2141 6.93497 78.0881 7.51097C77.9801 8.06897 77.8181 8.81597 77.6021 9.75197C77.4041 10.688 77.1611 11.723 76.8731 12.857C76.6031 13.973 76.3151 15.107 76.0091 16.259C75.7031 17.393 75.3881 18.437 75.0641 19.391C74.5781 20.885 74.0381 22.118 73.4441 23.09C72.8681 24.062 72.1391 24.782 71.2571 25.25C70.3751 25.736 69.2141 25.979 67.7741 25.979Z" fill="black"/>
</svg>
