<svg width="46" height="46" viewBox="0 0 46 46" fill="none" xmlns="http://www.w3.org/2000/svg">
<path d="M28.5 13.3333H28.5217M23.0833 41.5H9C7.27609 41.5 5.62279 40.8152 4.40381 39.5962C3.18482 38.3772 2.5 36.7239 2.5 35V9C2.5 7.27609 3.18482 5.62279 4.40381 4.40381C5.62279 3.18482 7.27609 2.5 9 2.5H35C36.7239 2.5 38.3772 3.18482 39.5962 4.40381C40.8152 5.62279 41.5 7.27609 41.5 9V23.0833" stroke="white" stroke-width="4" stroke-linecap="round" stroke-linejoin="round"/>
<path d="M2.5 30.6663L13.3333 19.833C15.344 17.8981 17.8227 17.8981 19.8333 19.833L27.4167 27.4163" stroke="white" stroke-width="4" stroke-linecap="round" stroke-linejoin="round"/>
<path d="M26.332 26.3338L28.4987 24.1671C29.9699 22.7523 31.6902 22.3709 33.2957 23.0274M37.1654 43.6671V30.6671M37.1654 30.6671L43.6654 37.1671M37.1654 30.6671L30.6654 37.1671" stroke="white" stroke-width="4" stroke-linecap="round" stroke-linejoin="round"/>
</svg>
