<svg width="293" height="46" viewBox="0 0 293 46" fill="none" xmlns="http://www.w3.org/2000/svg">
<rect width="293" height="46" rx="15" fill="white"/>
<path d="M18.0032 33.375C16.7782 33.375 15.7157 33.1958 14.8157 32.8375C13.9241 32.4792 13.1907 32.0083 12.6157 31.425C12.0407 30.8333 11.6116 30.1958 11.3282 29.5125L13.0032 28.5375C13.2032 29.1042 13.5199 29.6208 13.9532 30.0875C14.3866 30.5542 14.9449 30.925 15.6282 31.2C16.3116 31.475 17.1241 31.6125 18.0657 31.6125C19.0407 31.6125 19.8657 31.4583 20.5407 31.15C21.2241 30.8417 21.7407 30.4083 22.0907 29.85C22.4407 29.2917 22.6157 28.6417 22.6157 27.9C22.6157 27.0833 22.4199 26.45 22.0282 26C21.6366 25.55 21.1116 25.2333 20.4532 25.05C19.7949 24.8583 19.0616 24.75 18.2532 24.725C17.6449 24.7 17.2116 24.6833 16.9532 24.675C16.6949 24.6667 16.5241 24.6625 16.4407 24.6625C16.3574 24.6625 16.2782 24.6625 16.2032 24.6625V22.8875C16.2616 22.8875 16.4157 22.8875 16.6657 22.8875C16.9157 22.8875 17.1824 22.8875 17.4657 22.8875C17.7491 22.8792 17.9741 22.8708 18.1407 22.8625C19.3324 22.8042 20.2699 22.4917 20.9532 21.925C21.6366 21.3583 21.9782 20.5917 21.9782 19.625C21.9782 18.6 21.6157 17.8042 20.8907 17.2375C20.1741 16.6708 19.2449 16.3875 18.1032 16.3875C17.0282 16.3875 16.1199 16.6458 15.3782 17.1625C14.6449 17.6708 14.0449 18.3542 13.5782 19.2125L12.0782 18.1C12.6449 17.0833 13.4449 16.25 14.4782 15.6C15.5116 14.95 16.7366 14.625 18.1532 14.625C18.9116 14.625 19.6366 14.7292 20.3282 14.9375C21.0282 15.1458 21.6449 15.4542 22.1782 15.8625C22.7199 16.2708 23.1449 16.7875 23.4532 17.4125C23.7699 18.0292 23.9282 18.7542 23.9282 19.5875C23.9282 20.5625 23.7116 21.4125 23.2782 22.1375C22.8532 22.8625 22.3032 23.4083 21.6282 23.775C22.5449 24.05 23.2616 24.5333 23.7782 25.225C24.3032 25.9167 24.5657 26.8208 24.5657 27.9375C24.5657 29.0375 24.2949 29.9958 23.7532 30.8125C23.2116 31.6292 22.4449 32.2625 21.4532 32.7125C20.4699 33.1542 19.3199 33.375 18.0032 33.375ZM31.0202 33.375C30.0035 33.375 29.1494 33.1917 28.4577 32.825C27.7744 32.4583 27.2619 31.9708 26.9202 31.3625C26.5785 30.7542 26.4077 30.0917 26.4077 29.375C26.4077 28.6417 26.5535 28.0167 26.8452 27.5C27.1452 26.975 27.5494 26.5458 28.0577 26.2125C28.5744 25.8792 29.1702 25.625 29.8452 25.45C30.5285 25.2833 31.2827 25.1375 32.1077 25.0125C32.941 24.8792 33.7535 24.7667 34.5452 24.675C35.3452 24.575 36.0452 24.4792 36.6452 24.3875L35.9952 24.7875C36.0202 23.4542 35.7619 22.4667 35.2202 21.825C34.6785 21.1833 33.7369 20.8625 32.3952 20.8625C31.4702 20.8625 30.6869 21.0708 30.0452 21.4875C29.4119 21.9042 28.966 22.5625 28.7077 23.4625L26.9202 22.9375C27.2285 21.7292 27.8494 20.7917 28.7827 20.125C29.716 19.4583 30.9285 19.125 32.4202 19.125C33.6535 19.125 34.6994 19.3583 35.5577 19.825C36.4244 20.2833 37.0369 20.95 37.3952 21.825C37.5619 22.2167 37.6702 22.6542 37.7202 23.1375C37.7702 23.6208 37.7952 24.1125 37.7952 24.6125V33H36.1577V29.6125L36.6327 29.8125C36.1744 30.9708 35.4619 31.8542 34.4952 32.4625C33.5285 33.0708 32.3702 33.375 31.0202 33.375ZM31.2327 31.7875C32.091 31.7875 32.841 31.6333 33.4827 31.325C34.1244 31.0167 34.641 30.5958 35.0327 30.0625C35.4244 29.5208 35.6785 28.9125 35.7952 28.2375C35.8952 27.8042 35.9494 27.3292 35.9577 26.8125C35.966 26.2875 35.9702 25.8958 35.9702 25.6375L36.6702 26C36.0452 26.0833 35.366 26.1667 34.6327 26.25C33.9077 26.3333 33.191 26.4292 32.4827 26.5375C31.7827 26.6458 31.1494 26.775 30.5827 26.925C30.1994 27.0333 29.8285 27.1875 29.4702 27.3875C29.1119 27.5792 28.816 27.8375 28.5827 28.1625C28.3577 28.4875 28.2452 28.8917 28.2452 29.375C28.2452 29.7667 28.341 30.1458 28.5327 30.5125C28.7327 30.8792 29.0494 31.1833 29.4827 31.425C29.9244 31.6667 30.5077 31.7875 31.2327 31.7875ZM41.0493 33V19.5H50.2993V21.2625H42.8868V33H41.0493ZM58.7329 33.375C57.4912 33.375 56.4412 33.0625 55.5829 32.4375C54.7246 31.8042 54.0746 30.95 53.6329 29.875C53.1912 28.7917 52.9704 27.5792 52.9704 26.2375C52.9704 24.8708 53.1912 23.6542 53.6329 22.5875C54.0829 21.5125 54.7412 20.6667 55.6079 20.05C56.4746 19.4333 57.5412 19.125 58.8079 19.125C60.0412 19.125 61.0996 19.4375 61.9829 20.0625C62.8662 20.6875 63.5412 21.5375 64.0079 22.6125C64.4829 23.6875 64.7204 24.8958 64.7204 26.2375C64.7204 27.5875 64.4829 28.8 64.0079 29.875C63.5329 30.95 62.8496 31.8042 61.9579 32.4375C61.0662 33.0625 59.9912 33.375 58.7329 33.375ZM52.6579 39V19.5H54.3079V29.6625H54.5079V39H52.6579ZM58.5454 31.6625C59.4871 31.6625 60.2704 31.425 60.8954 30.95C61.5204 30.475 61.9871 29.8292 62.2954 29.0125C62.6121 28.1875 62.7704 27.2625 62.7704 26.2375C62.7704 25.2208 62.6162 24.3042 62.3079 23.4875C61.9996 22.6708 61.5287 22.025 60.8954 21.55C60.2704 21.075 59.4746 20.8375 58.5079 20.8375C57.5662 20.8375 56.7829 21.0667 56.1579 21.525C55.5412 21.9833 55.0787 22.6208 54.7704 23.4375C54.4621 24.2458 54.3079 25.1792 54.3079 26.2375C54.3079 27.2792 54.4621 28.2125 54.7704 29.0375C55.0787 29.8542 55.5454 30.4958 56.1704 30.9625C56.7954 31.4292 57.5871 31.6625 58.5454 31.6625ZM68.9021 39L71.5146 31.9125L71.5521 34.0125L65.6396 19.5H67.5896L72.4396 31.6375H71.6396L76.1146 19.5H77.9896L70.7396 39H68.9021ZM85.0231 33.375C83.6648 33.375 82.4773 33.0792 81.4606 32.4875C80.4523 31.8875 79.6565 31.0583 79.0731 30L80.5481 29.0625C81.0398 29.8958 81.6523 30.5292 82.3856 30.9625C83.119 31.3958 83.9606 31.6125 84.9106 31.6125C85.9023 31.6125 86.6981 31.3833 87.2981 30.925C87.8981 30.4667 88.1981 29.8375 88.1981 29.0375C88.1981 28.4875 88.069 28.05 87.8106 27.725C87.5606 27.4 87.1773 27.1667 86.6606 27.025C86.1523 26.8833 85.5148 26.8125 84.7481 26.8125H83.1481V25.2375H84.7231C85.6565 25.2375 86.4065 25.0708 86.9731 24.7375C87.5481 24.3958 87.8356 23.8625 87.8356 23.1375C87.8356 22.3708 87.5481 21.8042 86.9731 21.4375C86.4065 21.0625 85.7273 20.875 84.9356 20.875C84.1356 20.875 83.3773 21.0417 82.6606 21.375C81.9523 21.7 81.3565 22.1208 80.8731 22.6375L79.6981 21.4C80.3731 20.6583 81.1606 20.0958 82.0606 19.7125C82.969 19.3208 83.9731 19.125 85.0731 19.125C85.9398 19.125 86.7231 19.2792 87.4231 19.5875C88.1315 19.8875 88.6898 20.3292 89.0981 20.9125C89.5148 21.4958 89.7231 22.1958 89.7231 23.0125C89.7231 23.7792 89.5356 24.4417 89.1606 25C88.794 25.5583 88.2731 26.0208 87.5981 26.3875L87.4981 25.7C88.0815 25.8083 88.5648 26.0417 88.9481 26.4C89.3315 26.7583 89.6148 27.1875 89.7981 27.6875C89.9815 28.1875 90.0731 28.6958 90.0731 29.2125C90.0731 30.0708 89.8481 30.8125 89.3981 31.4375C88.9565 32.0542 88.3523 32.5333 87.5856 32.875C86.8273 33.2083 85.9731 33.375 85.0231 33.375ZM103.557 19.5V33H101.769V22.4875L94.369 33H92.819V19.5H94.6065V29.925L102.019 19.5H103.557ZM110.727 33V21.2H105.94V19.5H117.352V21.2H112.565V33H110.727ZM119.748 33L119.723 19.5H121.573V24.5875H124.736C125.128 24.5875 125.511 24.5958 125.886 24.6125C126.269 24.6292 126.607 24.6625 126.898 24.7125C127.565 24.8375 128.157 25.0583 128.673 25.375C129.198 25.6917 129.607 26.1292 129.898 26.6875C130.198 27.2458 130.348 27.9458 130.348 28.7875C130.348 29.9458 130.048 30.8583 129.448 31.525C128.857 32.1917 128.107 32.625 127.198 32.825C126.857 32.9 126.486 32.95 126.086 32.975C125.686 32.9917 125.29 33 124.898 33H119.748ZM121.573 31.425H124.823C125.107 31.425 125.423 31.4167 125.773 31.4C126.123 31.3833 126.432 31.3375 126.698 31.2625C127.14 31.1375 127.54 30.8875 127.898 30.5125C128.265 30.1292 128.448 29.5542 128.448 28.7875C128.448 28.0292 128.273 27.4583 127.923 27.075C127.573 26.6833 127.107 26.425 126.523 26.3C126.265 26.2417 125.986 26.2042 125.686 26.1875C125.386 26.1708 125.098 26.1625 124.823 26.1625H121.573V31.425ZM143.733 33.375C142.391 33.375 141.245 33.0708 140.295 32.4625C139.345 31.8542 138.616 31.0125 138.108 29.9375C137.599 28.8625 137.345 27.6292 137.345 26.2375C137.345 24.8208 137.604 23.5792 138.12 22.5125C138.637 21.4458 139.37 20.6167 140.32 20.025C141.279 19.425 142.416 19.125 143.733 19.125C145.083 19.125 146.233 19.4292 147.183 20.0375C148.141 20.6375 148.87 21.475 149.37 22.55C149.879 23.6167 150.133 24.8458 150.133 26.2375C150.133 27.6542 149.879 28.9 149.37 29.975C148.862 31.0417 148.129 31.875 147.17 32.475C146.212 33.075 145.066 33.375 143.733 33.375ZM143.733 31.6125C145.233 31.6125 146.349 31.1167 147.083 30.125C147.816 29.125 148.183 27.8292 148.183 26.2375C148.183 24.6042 147.812 23.3042 147.07 22.3375C146.337 21.3708 145.224 20.8875 143.733 20.8875C142.724 20.8875 141.891 21.1167 141.233 21.575C140.583 22.025 140.095 22.6542 139.77 23.4625C139.454 24.2625 139.295 25.1875 139.295 26.2375C139.295 27.8625 139.67 29.1667 140.42 30.15C141.17 31.125 142.274 31.6125 143.733 31.6125ZM158.303 33.3875C157.044 33.3792 155.965 33.1042 155.065 32.5625C154.165 32.0208 153.465 31.2125 152.965 30.1375C152.473 29.0625 152.207 27.7208 152.165 26.1125C152.14 25.4042 152.157 24.6333 152.215 23.8C152.273 22.9583 152.365 22.1583 152.49 21.4C152.615 20.6417 152.765 20.025 152.94 19.55C153.157 18.9333 153.465 18.3583 153.865 17.825C154.273 17.2833 154.744 16.8417 155.278 16.5C155.794 16.15 156.378 15.8792 157.028 15.6875C157.686 15.4875 158.369 15.3333 159.078 15.225C159.794 15.1167 160.503 15.0208 161.203 14.9375C161.911 14.8542 162.565 14.75 163.165 14.625L163.365 16.2875C162.907 16.3792 162.365 16.4625 161.74 16.5375C161.115 16.6125 160.461 16.7042 159.778 16.8125C159.094 16.9125 158.44 17.05 157.815 17.225C157.19 17.4 156.657 17.6292 156.215 17.9125C155.54 18.3208 155.019 18.9375 154.653 19.7625C154.294 20.5875 154.073 21.5333 153.99 22.6C154.507 21.7917 155.19 21.1833 156.04 20.775C156.898 20.3667 157.828 20.1625 158.828 20.1625C160.044 20.1625 161.09 20.4417 161.965 21C162.848 21.5583 163.528 22.3333 164.003 23.325C164.478 24.3167 164.715 25.4542 164.715 26.7375C164.715 28.0792 164.453 29.25 163.928 30.25C163.411 31.25 162.673 32.025 161.715 32.575C160.757 33.1167 159.619 33.3875 158.303 33.3875ZM158.44 31.625C159.857 31.625 160.932 31.1833 161.665 30.3C162.407 29.4167 162.778 28.2417 162.778 26.775C162.778 25.275 162.394 24.0917 161.628 23.225C160.869 22.3583 159.798 21.925 158.415 21.925C157.032 21.925 155.969 22.3583 155.228 23.225C154.486 24.0917 154.115 25.275 154.115 26.775C154.115 28.275 154.486 29.4583 155.228 30.325C155.969 31.1917 157.04 31.625 158.44 31.625ZM168.065 33L168.053 21.075H166.215V19.5H169.903V24.5875H173.053C173.444 24.5875 173.828 24.5958 174.203 24.6125C174.586 24.6292 174.928 24.6625 175.228 24.7125C175.886 24.8375 176.474 25.0583 176.99 25.375C177.515 25.6917 177.928 26.1292 178.228 26.6875C178.528 27.2458 178.678 27.9458 178.678 28.7875C178.678 29.9458 178.378 30.8583 177.778 31.525C177.178 32.1917 176.424 32.625 175.515 32.825C175.174 32.9 174.803 32.95 174.403 32.975C174.003 32.9917 173.611 33 173.228 33H168.065ZM169.903 31.425H173.153C173.428 31.425 173.74 31.4167 174.09 31.4C174.44 31.3833 174.749 31.3375 175.015 31.2625C175.457 31.1375 175.861 30.8875 176.228 30.5125C176.594 30.1292 176.778 29.5542 176.778 28.7875C176.778 28.0292 176.603 27.4583 176.253 27.075C175.903 26.6833 175.436 26.425 174.853 26.3C174.586 26.2417 174.303 26.2042 174.003 26.1875C173.711 26.1708 173.428 26.1625 173.153 26.1625H169.903V31.425ZM189.893 33V27.9125H186.743C186.376 27.9125 185.997 27.9 185.605 27.875C185.222 27.8417 184.864 27.7958 184.53 27.7375C183.58 27.5542 182.772 27.1375 182.105 26.4875C181.447 25.8292 181.118 24.9208 181.118 23.7625C181.118 22.6292 181.426 21.7208 182.043 21.0375C182.659 20.3458 183.405 19.8958 184.28 19.6875C184.68 19.5958 185.084 19.5417 185.493 19.525C185.909 19.5083 186.268 19.5 186.568 19.5H191.73L191.743 33H189.893ZM180.68 33L184.443 27.3375H186.48L182.693 33H180.68ZM186.643 26.3375H189.893V21.075H186.643C186.443 21.075 186.164 21.0833 185.805 21.1C185.447 21.1167 185.109 21.1708 184.793 21.2625C184.518 21.3458 184.243 21.4917 183.968 21.7C183.701 21.9 183.476 22.1708 183.293 22.5125C183.109 22.8458 183.018 23.2542 183.018 23.7375C183.018 24.4125 183.201 24.9542 183.568 25.3625C183.943 25.7625 184.409 26.0375 184.968 26.1875C185.268 26.2542 185.568 26.2958 185.868 26.3125C186.168 26.3292 186.426 26.3375 186.643 26.3375ZM195.236 33V19.5H200.799C201.082 19.5 201.424 19.5167 201.824 19.55C202.232 19.5833 202.611 19.6458 202.961 19.7375C203.719 19.9375 204.328 20.3458 204.786 20.9625C205.253 21.5792 205.486 22.3208 205.486 23.1875C205.486 23.6708 205.411 24.1042 205.261 24.4875C205.119 24.8625 204.915 25.1875 204.649 25.4625C204.524 25.6042 204.386 25.7292 204.236 25.8375C204.086 25.9375 203.94 26.0208 203.799 26.0875C204.065 26.1375 204.353 26.2542 204.661 26.4375C205.144 26.7208 205.511 27.1042 205.761 27.5875C206.011 28.0625 206.136 28.6417 206.136 29.325C206.136 30.25 205.915 31.0042 205.474 31.5875C205.032 32.1708 204.44 32.5708 203.699 32.7875C203.365 32.8792 203.003 32.9375 202.611 32.9625C202.228 32.9875 201.865 33 201.524 33H195.236ZM197.086 31.4375H201.436C201.611 31.4375 201.832 31.425 202.099 31.4C202.365 31.3667 202.603 31.325 202.811 31.275C203.303 31.15 203.661 30.9 203.886 30.525C204.119 30.1417 204.236 29.725 204.236 29.275C204.236 28.6833 204.061 28.2 203.711 27.825C203.369 27.4417 202.911 27.2083 202.336 27.125C202.144 27.0833 201.944 27.0583 201.736 27.05C201.528 27.0417 201.34 27.0375 201.174 27.0375H197.086V31.4375ZM197.086 25.4625H200.861C201.078 25.4625 201.319 25.45 201.586 25.425C201.861 25.3917 202.099 25.3375 202.299 25.2625C202.732 25.1125 203.049 24.8542 203.249 24.4875C203.457 24.1208 203.561 23.7208 203.561 23.2875C203.561 22.8125 203.449 22.3958 203.224 22.0375C203.007 21.6792 202.678 21.4292 202.236 21.2875C201.936 21.1792 201.611 21.1167 201.261 21.1C200.919 21.0833 200.703 21.075 200.611 21.075H197.086V25.4625ZM207.377 33V31.3875C207.877 31.4792 208.257 31.4583 208.515 31.325C208.782 31.1833 208.977 30.95 209.102 30.625C209.227 30.2917 209.332 29.8792 209.415 29.3875C209.548 28.5708 209.669 27.6708 209.777 26.6875C209.886 25.7042 209.982 24.6208 210.065 23.4375C210.157 22.2458 210.248 20.9333 210.34 19.5H219.515V33H217.69V21.2625H212.04C211.982 22.1458 211.915 23.025 211.84 23.9C211.765 24.775 211.686 25.6167 211.602 26.425C211.527 27.225 211.444 27.9625 211.352 28.6375C211.261 29.3125 211.165 29.8958 211.065 30.3875C210.915 31.1292 210.715 31.7208 210.465 32.1625C210.223 32.6042 209.861 32.8958 209.377 33.0375C208.894 33.1792 208.227 33.1667 207.377 33ZM228.72 33.375C227.403 33.375 226.261 33.0833 225.295 32.5C224.336 31.9167 223.591 31.0958 223.057 30.0375C222.524 28.9792 222.257 27.7375 222.257 26.3125C222.257 24.8375 222.52 23.5625 223.045 22.4875C223.57 21.4125 224.307 20.5833 225.257 20C226.216 19.4167 227.345 19.125 228.645 19.125C229.978 19.125 231.116 19.4333 232.057 20.05C232.999 20.6583 233.711 21.5333 234.195 22.675C234.678 23.8167 234.899 25.1792 234.857 26.7625H232.982V26.1125C232.949 24.3625 232.57 23.0417 231.845 22.15C231.128 21.2583 230.078 20.8125 228.695 20.8125C227.245 20.8125 226.132 21.2833 225.357 22.225C224.591 23.1667 224.207 24.5083 224.207 26.25C224.207 27.95 224.591 29.2708 225.357 30.2125C226.132 31.1458 227.228 31.6125 228.645 31.6125C229.611 31.6125 230.453 31.3917 231.17 30.95C231.895 30.5 232.466 29.8542 232.882 29.0125L234.595 29.675C234.061 30.85 233.274 31.7625 232.232 32.4125C231.199 33.0542 230.028 33.375 228.72 33.375ZM223.557 26.7625V25.225H233.87V26.7625H223.557ZM237.619 33V19.5H239.456V25.3625H247.069V19.5H248.906V33H247.069V27.125H239.456V33H237.619ZM263.127 19.5V33H261.339V22.4875L253.939 33H252.389V19.5H254.177V29.925L261.589 19.5H263.127ZM272.348 33.375C271.031 33.375 269.889 33.0833 268.923 32.5C267.964 31.9167 267.219 31.0958 266.685 30.0375C266.152 28.9792 265.885 27.7375 265.885 26.3125C265.885 24.8375 266.148 23.5625 266.673 22.4875C267.198 21.4125 267.935 20.5833 268.885 20C269.844 19.4167 270.973 19.125 272.273 19.125C273.606 19.125 274.744 19.4333 275.685 20.05C276.627 20.6583 277.339 21.5333 277.823 22.675C278.306 23.8167 278.527 25.1792 278.485 26.7625H276.61V26.1125C276.577 24.3625 276.198 23.0417 275.473 22.15C274.756 21.2583 273.706 20.8125 272.323 20.8125C270.873 20.8125 269.76 21.2833 268.985 22.225C268.219 23.1667 267.835 24.5083 267.835 26.25C267.835 27.95 268.219 29.2708 268.985 30.2125C269.76 31.1458 270.856 31.6125 272.273 31.6125C273.239 31.6125 274.081 31.3917 274.798 30.95C275.523 30.5 276.094 29.8542 276.51 29.0125L278.223 29.675C277.689 30.85 276.902 31.7625 275.86 32.4125C274.827 33.0542 273.656 33.375 272.348 33.375ZM267.185 26.7625V25.225H277.498V26.7625H267.185Z" fill="black"/>
</svg>
